<svg xmlns="http://www.w3.org/2000/svg" xmlns:xlink="http://www.w3.org/1999/xlink" contentStyleType="text/css" height="828px" preserveAspectRatio="none" style="width:981px;height:828px;background:#FFFFFF;" version="1.1" viewBox="0 0 981 828" width="981px" zoomAndPan="magnify"><title>PostTrack &#8212; Diagrama de Estados: Monitoreo quir&#250;rgico (SurgicalMonitoring)</title><defs/><g><text fill="#000000" font-family="Helvetica" font-size="14" font-weight="bold" lengthAdjust="spacing" textLength="543.856" x="211.7601" y="24.9659">PostTrack &#8212; Diagrama de Estados: Monitoreo quir&#250;rgico (SurgicalMonitoring)</text><!--cluster ACTIVE--><g id="cluster_ACTIVE"><path d="M19.5,157.0679 L448.5,157.0679 A12.5,12.5 0 0 1 461,169.5679 L461,181.1358 L7,181.1358 L7,169.5679 A12.5,12.5 0 0 1 19.5,157.0679 " fill="#E8F8F5" style="stroke:#E8F8F5;stroke-width:1.0;"/><rect fill="none" height="665" rx="12.5" ry="12.5" style="stroke:#148F77;stroke-width:0.5;" width="454" x="7" y="157.0679"/><line style="stroke:#148F77;stroke-width:0.5;" x1="7" x2="461" y1="181.1358" y2="181.1358"/><text fill="#000000" font-family="Helvetica" font-size="14" lengthAdjust="spacing" textLength="46.5078" x="211" y="176.0339">ACTIVE</text></g><g id="ACTIVE.InClinic"><rect fill="#E8F8F5" height="50" rx="12.5" ry="12.5" style="stroke:#148F77;stroke-width:0.5;" width="95.9637" x="182" y="345.5679"/><line style="stroke:#148F77;stroke-width:0.5;" x1="182" x2="277.9637" y1="374.6358" y2="374.6358"/><text fill="#000000" font-family="Helvetica" font-size="14" lengthAdjust="spacing" textLength="75.9637" x="192" y="365.5339">En la cl&#237;nica</text></g><path d="M43,518.0679 L416.6292,518.0679 A12.5,12.5 0 0 1 429.1292,530.5679 L429.1292,547.1358 L30.5,547.1358 L30.5,530.5679 A12.5,12.5 0 0 1 43,518.0679 " fill="#E8F8F5" style="stroke:#E8F8F5;stroke-width:1.0;"/><rect fill="none" height="280.0679" rx="12.5" ry="12.5" style="stroke:#148F77;stroke-width:0.5;" width="398.6292" x="30.5" y="518.0679"/><line style="stroke:#148F77;stroke-width:0.5;" x1="30.5" x2="429.1292" y1="547.1358" y2="547.1358"/><text fill="#000000" font-family="Helvetica" font-size="14" lengthAdjust="spacing" textLength="159.6834" x="149.9729" y="538.0339">En recuperaci&#243;n en casa</text><g id="ACTIVE.AtHome.OnTime"><rect fill="#E8F8F5" height="50" rx="12.5" ry="12.5" style="stroke:#148F77;stroke-width:0.5;" width="56.2739" x="102.01" y="615.1358"/><line style="stroke:#148F77;stroke-width:0.5;" x1="102.01" x2="158.2839" y1="644.2038" y2="644.2038"/><text fill="#000000" font-family="Helvetica" font-size="14" lengthAdjust="spacing" textLength="36.2739" x="112.01" y="635.1018">Al d&#237;a</text></g><g id="ACTIVE.AtHome.Overdue"><rect fill="#E8F8F5" height="50" rx="12.5" ry="12.5" style="stroke:#148F77;stroke-width:0.5;" width="127.1276" x="66.51" y="738.1358"/><line style="stroke:#148F77;stroke-width:0.5;" x1="66.51" x2="193.6376" y1="767.2038" y2="767.2038"/><text fill="#000000" font-family="Helvetica" font-size="14" lengthAdjust="spacing" textLength="107.1276" x="76.51" y="758.1018">Reporte vencido</text></g><ellipse cx="130.01" cy="568.1358" fill="#222222" rx="10" ry="10" style="stroke:#222222;stroke-width:1.0;"/><!--link *start*AtHome to OnTime--><g id="link_*start*AtHome_OnTime"><path d="M130.01,578.2858 C130.01,587.5558 130.01,596.2758 130.01,608.9158 " fill="none" id="*start*AtHome-to-OnTime" style="stroke:#181818;stroke-width:1.0;"/><polygon fill="#181818" points="130.01,614.9158,134.01,605.9158,130.01,609.9158,126.01,605.9158,130.01,614.9158" style="stroke:#181818;stroke-width:1.0;"/></g><!--link OnTime to Overdue--><g id="link_OnTime_Overdue"><path d="M101.83,647.8758 C83.58,653.8558 61.21,664.6058 50.01,683.1358 C41.5,697.2058 41.5,706.0658 50.01,720.1358 C54.23,727.1158 55.2409,729.3947 61.8109,734.3247 " fill="none" id="OnTime-to-Overdue" style="stroke:#181818;stroke-width:1.0;"/><polygon fill="#181818" points="66.61,737.9258,61.8121,729.3247,62.6107,734.9249,57.0105,735.7235,66.61,737.9258" style="stroke:#181818;stroke-width:1.0;"/><text fill="#000000" font-family="Helvetica" font-size="13" lengthAdjust="spacing" textLength="138.8401" x="51.01" y="698.0328">ahora &gt; &#250;ltimo reporte</text><text fill="#000000" font-family="Helvetica" font-size="13" lengthAdjust="spacing" textLength="132.4571" x="54.2015" y="715.7389">(o salida) + frecuencia</text></g><!--link Overdue to OnTime--><g id="link_Overdue_OnTime"><path d="M175.18,738.1258 C181.15,733.0058 186.43,727.0158 190.01,720.1358 C197.6,705.5458 197.6,697.7258 190.01,683.1358 C183.2,670.0558 175.4637,663.1576 163.3237,656.2976 " fill="none" id="Overdue-to-OnTime" style="stroke:#181818;stroke-width:1.0;"/><polygon fill="#181818" points="158.1,653.3458,163.9677,661.256,162.4531,655.8056,167.9034,654.291,158.1,653.3458" style="stroke:#181818;stroke-width:1.0;"/><text fill="#000000" font-family="Helvetica" font-size="13" lengthAdjust="spacing" textLength="187.3302" x="213.9045" y="698.0328">el propietario env&#237;a un reporte</text><text fill="#000000" font-family="Helvetica" font-size="13" lengthAdjust="spacing" textLength="223.1192" x="196.01" y="715.7389">(reinicia contadores de recordatorio)</text></g><!--link Overdue to Overdue--><g id="link_Overdue_Overdue"><path d="M193.57,752.6758 C204.18,754.1458 211.51,757.6258 211.51,763.1358 C211.51,768.6458 210.1232,771.3024 199.5132,772.7724 " fill="none" id="Overdue-to-Overdue" style="stroke:#181818;stroke-width:1.0;"/><polygon fill="#181818" points="193.57,773.5958,203.0338,776.3228,198.5227,772.9096,201.9359,768.3985,193.57,773.5958" style="stroke:#181818;stroke-width:1.0;"/><text fill="#000000" font-family="Helvetica" font-size="13" lengthAdjust="spacing" textLength="154.2191" x="235.8595" y="759.5328">Celery env&#237;a recordatorio</text><text fill="#000000" font-family="Helvetica" font-size="13" lengthAdjust="spacing" textLength="190.9182" x="217.51" y="777.2389">(m&#225;x. 3, m&#237;n. 24 h entre env&#237;os)</text></g><ellipse cx="230" cy="213.0679" fill="#222222" rx="10" ry="10" style="stroke:#222222;stroke-width:1.0;"/><ellipse cx="453" cy="56.0679" fill="#222222" rx="10" ry="10" style="stroke:#222222;stroke-width:1.0;"/><path d="M498,320.0679 L692.1213,320.0679 A12.5,12.5 0 0 1 704.6213,332.5679 L704.6213,349.1358 L485.5,349.1358 L485.5,332.5679 A12.5,12.5 0 0 1 498,320.0679 " fill="#E8F8F5" style="stroke:#E8F8F5;stroke-width:1.0;"/><rect fill="none" height="101.0679" rx="12.5" ry="12.5" style="stroke:#148F77;stroke-width:0.5;" width="219.1213" x="485.5" y="320.0679"/><line style="stroke:#148F77;stroke-width:0.5;" x1="485.5" x2="704.6213" y1="349.1358" y2="349.1358"/><text fill="#000000" font-family="Helvetica" font-size="14" lengthAdjust="spacing" textLength="87.7236" x="551.1988" y="340.0339">DISCHARGED</text><g id="DISCHARGED.Closed"><rect fill="#E8F8F5" height="50" rx="12.5" ry="12.5" style="stroke:#148F77;stroke-width:0.5;" width="198.1213" x="497.5" y="361.1358"/><line style="stroke:#148F77;stroke-width:0.5;" x1="497.5" x2="695.6213" y1="390.2038" y2="390.2038"/><text fill="#000000" font-family="Helvetica" font-size="14" lengthAdjust="spacing" textLength="178.1213" x="507.5" y="381.1018">Sin recolecci&#243;n de reportes</text></g><ellipse cx="549" cy="658.0679" fill="none" rx="11" ry="11" style="stroke:#222222;stroke-width:1.0;"/><ellipse cx="549" cy="658.0679" fill="#222222" rx="6" ry="6" style="stroke:#222222;stroke-width:1.0;"/><g id="elem_GMN22"><path d="M595,635.5679 L595,680.9799 L820.6462,680.9799 L820.6462,645.5679 L810.6462,635.5679 L595,635.5679 " fill="#FEFFDD" style="stroke:#181818;stroke-width:0.5;"/><path d="M810.6462,635.5679 L810.6462,645.5679 L820.6462,645.5679 L810.6462,635.5679 " fill="#FEFFDD" style="stroke:#181818;stroke-width:1.0;"/><text fill="#000000" font-family="Helvetica" font-size="13" lengthAdjust="spacing" textLength="204.6462" x="601" y="654.4649">Solo en este estado el propietario</text><text fill="#000000" font-family="Helvetica" font-size="13" lengthAdjust="spacing" textLength="139.1001" x="601" y="672.1709">puede enviar reportes.</text></g><g id="elem_GMN25"><path d="M739.5,348.0679 L739.5,366.5679 L704.51,370.5679 L739.5,374.5679 L739.5,393.4799 A0,0 0 0 0 739.5,393.4799 L974.3761,393.4799 A0,0 0 0 0 974.3761,393.4799 L974.3761,358.0679 L964.3761,348.0679 L739.5,348.0679 A0,0 0 0 0 739.5,348.0679 " fill="#FEFFDD" style="stroke:#181818;stroke-width:0.5;"/><path d="M964.3761,348.0679 L964.3761,358.0679 L974.3761,358.0679 L964.3761,348.0679 " fill="#FEFFDD" style="stroke:#181818;stroke-width:0.5;"/><text fill="#000000" font-family="Helvetica" font-size="13" lengthAdjust="spacing" textLength="213.8761" x="745.5" y="366.9649">Celery deja de enviar recordatorios</text><text fill="#000000" font-family="Helvetica" font-size="13" lengthAdjust="spacing" textLength="187.1352" x="745.5" y="384.6709">(la tarea filtra status = ACTIVE).</text></g><!--link *start* to ACTIVE--><g id="link_*start*_ACTIVE"><path d="M453,66.2979 C453,82.7229 453,118.2929 453,150.1829 C453,152.176 453,154.1548 453,156.1136 C453,156.3584 453,150.603 453,150.8472 " fill="none" id="*start*-to-ACTIVE" style="stroke:#181818;stroke-width:1.0;"/><polygon fill="#181818" points="453,156.8472,457,147.8472,453,151.8472,449,147.8472,453,156.8472" style="stroke:#181818;stroke-width:1.0;"/><text fill="#000000" font-family="Helvetica" font-size="13" lengthAdjust="spacing" textLength="192.2571" x="471.992" y="110.9649">el veterinario crea el monitoreo</text><text fill="#000000" font-family="Helvetica" font-size="13" lengthAdjust="spacing" textLength="228.2412" x="454" y="128.6709">(surgery_date, frecuencia, preguntas)</text></g><!--link *start*ACTIVE to InClinic--><g id="link_*start*ACTIVE_InClinic"><path d="M230,223.3279 C230,246.9979 230,304.2979 230,339.3579 " fill="none" id="*start*ACTIVE-to-InClinic" style="stroke:#181818;stroke-width:1.0;"/><polygon fill="#181818" points="230,345.3579,234,336.3579,230,340.3579,226,336.3579,230,345.3579" style="stroke:#181818;stroke-width:1.0;"/></g><!--link InClinic to AtHome--><g id="link_InClinic_AtHome"><path d="M230,395.9079 C230,423.5579 230,464.9279 230,511.7979 " fill="none" id="InClinic-to-AtHome" style="stroke:#181818;stroke-width:1.0;"/><polygon fill="#181818" points="230,517.7979,234,508.7979,230,512.7979,226,508.7979,230,517.7979" style="stroke:#181818;stroke-width:1.0;"/><text fill="#000000" font-family="Helvetica" font-size="13" lengthAdjust="spacing" textLength="133.0031" x="252.6645" y="465.9649">registrar salida a casa</text><text fill="#000000" font-family="Helvetica" font-size="13" lengthAdjust="spacing" textLength="176.3321" x="231" y="483.6709">(home_release_date = ahora)</text></g><!--link ACTIVE to DISCHARGED--><g id="link_ACTIVE_DISCHARGED"><path d="M461.2132,223.061 C461.2973,223.1532 461.382,223.2459 461.4672,223.3392 C462.1492,224.086 462.8672,224.8723 463.6192,225.6957 C469.6353,232.2835 477.8294,241.2567 487.2063,251.5254 C505.96,272.0629 525.3995,293.3519 545.6545,315.5369 " fill="none" id="ACTIVE-to-DISCHARGED" style="stroke:#181818;stroke-width:1.0;"/><polygon fill="#181818" points="549.7,319.9679,546.5857,310.6244,546.3287,316.2754,540.6777,316.0184,549.7,319.9679" style="stroke:#181818;stroke-width:1.0;"/><text fill="#000000" font-family="Helvetica" font-size="13" lengthAdjust="spacing" textLength="144.0531" x="520" y="267.9649">el veterinario da de alta</text><text fill="#000000" font-family="Helvetica" font-size="13" lengthAdjust="spacing" textLength="143.4421" x="520.3055" y="285.6709">(discharged_at = ahora)</text></g><!--link DISCHARGED to *end*--><g id="link_DISCHARGED_*end*"><path d="M586.99,421.2979 C575.82,490.6379 557.2443,605.9043 551.5543,641.2243 " fill="none" id="DISCHARGED-to-*end*" style="stroke:#181818;stroke-width:1.0;"/><polygon fill="#181818" points="550.6,647.1479,555.9805,638.8987,551.3952,642.2116,548.0823,637.6263,550.6,647.1479" style="stroke:#181818;stroke-width:1.0;"/></g><!--link AtHome to GMN22--><g id="link_AtHome_GMN22"><path d="M424.2,517.8379 C460.61,497.9379 499.53,480.5279 538.5,469.5679 C625.14,445.1979 681.52,580.0479 700.7,635.2879 " fill="none" id="AtHome-GMN22" style="stroke:#181818;stroke-width:1.0;stroke-dasharray:7.0,7.0;"/></g><!--SRC=[PLJBRbCn4DtxAqPbqq1RYPTQLQ9II1FQ1Gyr5Hj0rN0zIKnzxOlj6wXG9Jw27-03kcBNRVw4Bs5itvkODYidFdFcp9dZ11KqmJlhmxd3wXB-_lm5nmhd3ci4IJ3s0QNrX_3Q6XMi8mjVM-LMjswkAWlRqpOUK7VNoim7GlXBPHfa2lZCd7DdMoD7Lbi73oRfKo3yWlc_SHtCK7igRYJDiDLXOaruWpN1rWdf9GNkjbNM1mpqycwRyS7aOFBy7imwIQw3F7vsCDdV5-B3mq-mkti4mz7vwVin709fu3R4iw1J5Yf767-hUmC-cctFKvExkf1CkWCpHrLBfbAu0usZUMi2-cX3xDdp_X2GHS3Ms816gFJgniHX03sScf5M_Eq_KAHjYDUYLdyCa84AVOOFmucjIJ2wLryGzCSyLKBoLAnB-U3GWKUj908cEXvcmO0BHvhGKve8NW0khCE1MClfQE8GQuL33N9ramMzDUUA1HMtPzHOnuTbD4RQZ5gIastIlL5UbEPZ_ZL3MNYI0aUmkjL1rPO7ISGit7QZ3E1HiOFCr9Ll6kJ5DiusYa9QB9abouVM59IEedEAlU7KSJ0T-VWAc9oZWp7WTd2_mLhhY5rqLprpMSNSzUhtzprukWCrBtuFdZo31IE3euotFZ9VYsiXkiX4xkFJwUXaUFPgV7m_cJAzKDGXRb4gNosGOoalC1GRpEieQ8eWJbKAcTLKvOobKPCNFYrifAqd6IKL154MBqy8Ovd4gVaYW9trcGIOylkAQINFrvJ-F-vOpw2c9Pa6Lvp8lkUU82CXqjubtxJdsivbIL-I0MkIZTkUKTlynhWRFzwPqXpyD7JhsPfixw3ezWy0]--></g></svg>