<svg xmlns="http://www.w3.org/2000/svg" xmlns:xlink="http://www.w3.org/1999/xlink" contentStyleType="text/css" height="534px" preserveAspectRatio="none" style="width:1065px;height:534px;background:#FFFFFF;" version="1.1" viewBox="0 0 1065 534" width="1065px" zoomAndPan="magnify"><title>PostTrack &#8212; Diagrama de Estados: Reporte (Report)</title><defs/><g><text fill="#000000" font-family="Helvetica" font-size="14" font-weight="bold" lengthAdjust="spacing" textLength="361.7446" x="341.7063" y="24.9659">PostTrack &#8212; Diagrama de Estados: Reporte (Report)</text><g id="elem_N1"><path d="M6,212.0679 L6,257.4799 L336.6603,257.4799 L336.6603,222.0679 L326.6603,212.0679 L6,212.0679 " fill="#FEFFDD" style="stroke:#181818;stroke-width:0.5;"/><path d="M326.6603,212.0679 L326.6603,222.0679 L336.6603,222.0679 L326.6603,212.0679 " fill="#FEFFDD" style="stroke:#181818;stroke-width:1.0;"/><text fill="#000000" font-family="Helvetica" font-size="13" lengthAdjust="spacing" textLength="309.6603" x="12" y="230.9649">Un reporte tiene dos dimensiones independientes:</text><text fill="#000000" font-family="Helvetica" font-size="13" lengthAdjust="spacing" textLength="307.9182" x="12" y="248.6709">el procesamiento de im&#225;genes y la revisi&#243;n cl&#237;nica.</text></g><path d="M384.5,47.0679 L684.1901,47.0679 A12.5,12.5 0 0 1 696.6901,59.5679 L696.6901,76.1358 L372,76.1358 L372,59.5679 A12.5,12.5 0 0 1 384.5,47.0679 " fill="#EAF2F8" style="stroke:#EAF2F8;stroke-width:1.0;"/><rect fill="none" height="375.0679" rx="12.5" ry="12.5" style="stroke:#2471A3;stroke-width:0.5;" width="324.6901" x="372" y="47.0679"/><line style="stroke:#2471A3;stroke-width:0.5;" x1="372" x2="696.6901" y1="76.1358" y2="76.1358"/><text fill="#000000" font-family="Helvetica" font-size="14" lengthAdjust="spacing" textLength="228.7171" x="419.9865" y="67.0339">Procesamiento (processing_status)</text><ellipse cx="453" cy="97.1358" fill="#222222" rx="10" ry="10" style="stroke:#222222;stroke-width:1.0;"/><g id="Proc.COMPLETED"><rect fill="#EAF2F8" height="50" rx="12.5" ry="12.5" style="stroke:#2471A3;stroke-width:0.5;" width="101.8577" x="384" y="303.1358"/><line style="stroke:#2471A3;stroke-width:0.5;" x1="384" x2="485.8577" y1="332.2038" y2="332.2038"/><text fill="#000000" font-family="Helvetica" font-size="14" lengthAdjust="spacing" textLength="81.8577" x="394" y="323.1018">COMPLETED</text></g><g id="Proc.PROCESSING"><rect fill="#EAF2F8" height="50" rx="12.5" ry="12.5" style="stroke:#2471A3;stroke-width:0.5;" width="105.6937" x="523" y="180.1358"/><line style="stroke:#2471A3;stroke-width:0.5;" x1="523" x2="628.6937" y1="209.2038" y2="209.2038"/><text fill="#000000" font-family="Helvetica" font-size="14" lengthAdjust="spacing" textLength="85.6937" x="533" y="200.1018">PROCESSING</text></g><g id="Proc.FAILED"><rect fill="#EAF2F8" height="50" rx="12.5" ry="12.5" style="stroke:#2471A3;stroke-width:0.5;" width="66.2978" x="548" y="303.1358"/><line style="stroke:#2471A3;stroke-width:0.5;" x1="548" x2="614.2978" y1="332.2038" y2="332.2038"/><text fill="#000000" font-family="Helvetica" font-size="14" lengthAdjust="spacing" textLength="46.2978" x="558" y="323.1018">FAILED</text></g><ellipse cx="485" cy="401.1358" fill="none" rx="11" ry="11" style="stroke:#222222;stroke-width:1.0;"/><ellipse cx="485" cy="401.1358" fill="#222222" rx="6" ry="6" style="stroke:#222222;stroke-width:1.0;"/><!--link *start*Proc to COMPLETED--><g id="link_*start*Proc_COMPLETED"><path d="M447.49,105.7858 C437.81,119.7358 418.13,150.5958 411,180.1358 C400.69,222.8658 412.6297,268.0298 423.1697,297.3398 " fill="none" id="*start*Proc-to-COMPLETED" style="stroke:#181818;stroke-width:1.0;"/><polygon fill="#181818" points="425.2,302.9858,425.9185,293.1632,423.5081,298.2808,418.3905,295.8703,425.2,302.9858" style="stroke:#181818;stroke-width:1.0;"/><text fill="#000000" font-family="Helvetica" font-size="13" lengthAdjust="spacing" textLength="101.4521" x="412" y="210.5328">reporte sin fotos</text></g><!--link *start*Proc to PROCESSING--><g id="link_*start*Proc_PROCESSING"><path d="M460.33,104.4458 C477.19,118.9758 514.9248,151.499 543.4248,176.059 " fill="none" id="*start*Proc-to-PROCESSING" style="stroke:#181818;stroke-width:1.0;"/><polygon fill="#181818" points="547.97,179.9758,543.7635,171.0705,544.1824,176.7118,538.541,177.1307,547.97,179.9758" style="stroke:#181818;stroke-width:1.0;"/><text fill="#000000" font-family="Helvetica" font-size="13" lengthAdjust="spacing" textLength="105.9761" x="543.1015" y="140.0328">reporte con fotos</text><text fill="#000000" font-family="Helvetica" font-size="13" lengthAdjust="spacing" textLength="140.1791" x="526" y="157.7389">(tarea Celery encolada)</text></g><!--link PROCESSING to COMPLETED--><g id="link_PROCESSING_COMPLETED"><path d="M522.79,225.8158 C518.15,227.3458 513.5,228.8058 509,230.1358 C475.29,240.0758 453.84,220.6058 432,248.1358 C419.97,263.2958 420.6332,279.9104 424.9732,297.0004 " fill="none" id="PROCESSING-to-COMPLETED" style="stroke:#181818;stroke-width:1.0;"/><polygon fill="#181818" points="426.45,302.8158,428.1117,293.1082,425.2193,297.9697,420.3578,295.0773,426.45,302.8158" style="stroke:#181818;stroke-width:1.0;"/><text fill="#000000" font-family="Helvetica" font-size="13" lengthAdjust="spacing" textLength="165.7372" x="433" y="263.0328">im&#225;genes subidas a ImgBB</text><text fill="#000000" font-family="Helvetica" font-size="13" lengthAdjust="spacing" textLength="142.8831" x="444.427" y="280.7389">(VisualEvidence creada)</text></g><!--link PROCESSING to FAILED--><g id="link_PROCESSING_FAILED"><path d="M594.8,230.3058 C598.17,235.8758 601.19,241.9858 603,248.1358 C607.63,263.9158 606.93,269.1658 603,285.1358 C601.51,291.2058 601.6433,292.0093 598.8033,297.6893 " fill="none" id="PROCESSING-to-FAILED" style="stroke:#181818;stroke-width:1.0;"/><polygon fill="#181818" points="596.12,303.0558,603.7226,296.7948,598.3561,298.5837,596.5672,293.2171,596.12,303.0558" style="stroke:#181818;stroke-width:1.0;"/><text fill="#000000" font-family="Helvetica" font-size="13" lengthAdjust="spacing" textLength="79.6901" x="607" y="272.0328">error al subir</text></g><!--link COMPLETED to *end*Proc--><g id="link_COMPLETED_*end*Proc"><path d="M451.93,353.1758 C461.33,366.5258 468.997,377.399 475.647,386.849 " fill="none" id="COMPLETED-to-*end*Proc" style="stroke:#181818;stroke-width:1.0;"/><polygon fill="#181818" points="479.1,391.7558,477.1918,382.0936,476.2225,387.6668,470.6493,386.6975,479.1,391.7558" style="stroke:#181818;stroke-width:1.0;"/></g><!--link FAILED to *end*Proc--><g id="link_FAILED_*end*Proc"><path d="M548.5,353.1758 C529.13,367.4958 510.8234,381.0373 498.5234,390.1373 " fill="none" id="FAILED-to-*end*Proc" style="stroke:#181818;stroke-width:1.0;"/><polygon fill="#181818" points="493.7,393.7058,503.3142,391.5686,497.7195,390.732,498.5561,385.1374,493.7,393.7058" style="stroke:#181818;stroke-width:1.0;"/></g><path d="M745,47.0679 L1039.6571,47.0679 A12.5,12.5 0 0 1 1052.1571,59.5679 L1052.1571,76.1358 L732.5,76.1358 L732.5,59.5679 A12.5,12.5 0 0 1 745,47.0679 " fill="#EAF2F8" style="stroke:#EAF2F8;stroke-width:1.0;"/><rect fill="none" height="375.0679" rx="12.5" ry="12.5" style="stroke:#2471A3;stroke-width:0.5;" width="319.6571" x="732.5" y="47.0679"/><line style="stroke:#2471A3;stroke-width:0.5;" x1="732.5" x2="1052.1571" y1="76.1358" y2="76.1358"/><text fill="#000000" font-family="Helvetica" font-size="14" lengthAdjust="spacing" textLength="200.7732" x="791.942" y="67.0339">Revisi&#243;n cl&#237;nica (review_status)</text><ellipse cx="788.5" cy="97.1358" fill="#222222" rx="10" ry="10" style="stroke:#222222;stroke-width:1.0;"/><g id="Rev.PENDING"><rect fill="#EAF2F8" height="50" rx="12.5" ry="12.5" style="stroke:#2471A3;stroke-width:0.5;" width="82.6917" x="747" y="180.1358"/><line style="stroke:#2471A3;stroke-width:0.5;" x1="747" x2="829.6917" y1="209.2038" y2="209.2038"/><text fill="#000000" font-family="Helvetica" font-size="14" lengthAdjust="spacing" textLength="62.6917" x="757" y="200.1018">PENDING</text></g><g id="Rev.REVIEWED"><rect fill="#EAF2F8" height="50" rx="12.5" ry="12.5" style="stroke:#2471A3;stroke-width:0.5;" width="88.4457" x="744.5" y="303.1358"/><line style="stroke:#2471A3;stroke-width:0.5;" x1="744.5" x2="832.9457" y1="332.2038" y2="332.2038"/><text fill="#000000" font-family="Helvetica" font-size="14" lengthAdjust="spacing" textLength="68.4457" x="754.5" y="323.1018">REVIEWED</text></g><ellipse cx="788.5" cy="401.1358" fill="none" rx="11" ry="11" style="stroke:#222222;stroke-width:1.0;"/><ellipse cx="788.5" cy="401.1358" fill="#222222" rx="6" ry="6" style="stroke:#222222;stroke-width:1.0;"/><!--link *start*Rev to PENDING--><g id="link_*start*Rev_PENDING"><path d="M788.5,107.1758 C788.5,123.0958 788.5,150.6458 788.5,173.7758 " fill="none" id="*start*Rev-to-PENDING" style="stroke:#181818;stroke-width:1.0;"/><polygon fill="#181818" points="788.5,179.7758,792.5,170.7758,788.5,174.7758,784.5,170.7758,788.5,179.7758" style="stroke:#181818;stroke-width:1.0;"/><text fill="#000000" font-family="Helvetica" font-size="13" lengthAdjust="spacing" textLength="67.6131" x="800.4395" y="140.0328">creado con</text><text fill="#000000" font-family="Helvetica" font-size="13" lengthAdjust="spacing" textLength="89.4921" x="789.5" y="157.7389">calculated_risk</text></g><!--link PENDING to PENDING--><g id="link_PENDING_PENDING"><path d="M830.21,194.0658 C840.41,194.8858 848,198.5758 848,205.1358 C848,211.6958 846.3907,214.905 836.1907,215.725 " fill="none" id="PENDING-to-PENDING" style="stroke:#181818;stroke-width:1.0;"/><polygon fill="#181818" points="830.21,216.2058,839.5016,219.4718,835.1939,215.8052,838.8605,211.4975,830.21,216.2058" style="stroke:#181818;stroke-width:1.0;"/><text fill="#000000" font-family="Helvetica" font-size="13" lengthAdjust="spacing" textLength="183.1571" x="854" y="201.5328">el veterinario corrige el riesgo</text><text fill="#000000" font-family="Helvetica" font-size="13" lengthAdjust="spacing" textLength="91.3771" x="899.89" y="219.2389">(validated_risk)</text></g><!--link PENDING to REVIEWED--><g id="link_PENDING_REVIEWED"><path d="M788.5,230.3358 C788.5,251.4358 788.5,275.8958 788.5,296.9858 " fill="none" id="PENDING-to-REVIEWED" style="stroke:#181818;stroke-width:1.0;"/><polygon fill="#181818" points="788.5,302.9858,792.5,293.9858,788.5,297.9858,784.5,293.9858,788.5,302.9858" style="stroke:#181818;stroke-width:1.0;"/><text fill="#000000" font-family="Helvetica" font-size="13" lengthAdjust="spacing" textLength="136.6431" x="789.5" y="263.0328">marcar como revisado</text><text fill="#000000" font-family="Helvetica" font-size="13" lengthAdjust="spacing" textLength="131.1441" x="792.2495" y="280.7389">(reviewed_at = ahora)</text></g><!--link REVIEWED to *end*Rev--><g id="link_REVIEWED_*end*Rev"><path d="M788.5,353.1758 C788.5,365.7258 788.5,374.4158 788.5,383.9858 " fill="none" id="REVIEWED-to-*end*Rev" style="stroke:#181818;stroke-width:1.0;"/><polygon fill="#181818" points="788.5,389.9858,792.5,380.9858,788.5,384.9858,784.5,380.9858,788.5,389.9858" style="stroke:#181818;stroke-width:1.0;"/></g><g id="elem_GMN24"><path d="M735,482.0679 L735,527.4799 A0,0 0 0 0 735,527.4799 L1050.2813,527.4799 A0,0 0 0 0 1050.2813,527.4799 L1050.2813,492.0679 L1040.2813,482.0679 L896.5,482.0679 L892.5,422.4279 L888.5,482.0679 L735,482.0679 A0,0 0 0 0 735,482.0679 " fill="#FEFFDD" style="stroke:#181818;stroke-width:0.5;"/><path d="M1040.2813,482.0679 L1040.2813,492.0679 L1050.2813,492.0679 L1040.2813,482.0679 " fill="#FEFFDD" style="stroke:#181818;stroke-width:0.5;"/><text fill="#000000" font-family="Helvetica" font-size="13" lengthAdjust="spacing" textLength="265.6162" x="741" y="500.9649">El cambio de calculated_risk / validated_risk</text><text fill="#000000" font-family="Helvetica" font-size="13" lengthAdjust="spacing" textLength="294.2813" x="741" y="518.6709">queda registrado en el historial (simple_history).</text></g><!--SRC=[RLDHRjD04FttAKRX9q5gKGiIg198RU90f996QIaV14KJxyHPTRqRPjUfeWg9Gt013i0NHyXDE0cpTjewAVwoPzzxy-RjEEXW24REXol6x0R-_lW9FOqvOu6W258VK3b_0cDQEWu4xVgbaoJ-Hjib2X1cmipPbLPrdN4Cp_hLqq3uXQZSQfl378sdnecYEPOcz9qDGom8MX_8h2Ze35jDVi10P_jjqjF-SV_D4vXZHRo57BzwVNJwCaci4- -jJnPuEqVGP0baD52w8Ekri-H1MqLBiaeE0_cJYIK3ItOPUInYpSLCTB7vbLE4hy6WAAwqrvi_5ZAp-Mt5-M4BqCFmI3AAXg0rsf5erufUufX6GEax5I6Yu2u1-FByAnmSl8FknSVHUNgLzk3amRUmOEw2ymtSQ7pHJIyl1yFt3M3cji29RGTaGkYI8Lu3sSmPLDWHXGPpl-7ZbBwSQIN-40P5VdOcUjVQbsZIbLOY9gr4_Rzw_TF1UIL6p78RQ2ej5k1ZfuYJGQIsHTyNlZ_4DtwICBHZwdIxav_0Tk8RfSDUdKbbqCL89ZP3avL6TDMKjR-9fhUuNOxSlEmXiRR8EdAPTKwnp9fyxYI65He9vbwfioSrJgy7wUTg_08vGnQDmjNh8cw4NyyWT0pm5d3Xk0hnWTX8ejhVcGl15U3cSLG1fWOoB6QwsigzkU05xDeJ_BUILDpNNFl0CH2oSPw5V3hMSZjjhukbeMbTMNSE4_aN8FPE_W40]--></g></svg>