<svg xmlns="http://www.w3.org/2000/svg" xmlns:xlink="http://www.w3.org/1999/xlink" contentStyleType="text/css" height="1127px" preserveAspectRatio="none" style="width:1181px;height:1127px;background:#FFFFFF;" version="1.1" viewBox="0 0 1181 1127" width="1181px" zoomAndPan="magnify"><title>PostTrack &#8212; Diagrama de Componentes (arquitectura l&#243;gica)</title><defs/><g><text fill="#000000" font-family="Helvetica" font-size="14" font-weight="bold" lengthAdjust="spacing" textLength="428.0485" x="369.8283" y="24.9659">PostTrack &#8212; Diagrama de Componentes (arquitectura l&#243;gica)</text><!--cluster Frontend SPA (React 19 + Vite + TypeScript)--><g id="cluster_Frontend SPA (React 19 + Vite + TypeScript)"><path d="M8.5,190.5679 L307.6288,190.5679 A3.75,3.75 0 0 1 310.1288,193.0679 L317.1288,215.6358 L945.5,215.6358 A2.5,2.5 0 0 1 948,218.1358 L948,419.0679 A2.5,2.5 0 0 1 945.5,421.5679 L8.5,421.5679 A2.5,2.5 0 0 1 6,419.0679 L6,193.0679 A2.5,2.5 0 0 1 8.5,190.5679 " fill="none" style="stroke:#000000;stroke-width:1.5;"/><line style="stroke:#000000;stroke-width:1.5;" x1="6" x2="317.1288" y1="215.6358" y2="215.6358"/><text fill="#000000" font-family="Helvetica" font-size="14" font-weight="bold" lengthAdjust="spacing" textLength="298.1288" x="10" y="207.5339">Frontend SPA (React 19 + Vite + TypeScript)</text></g><!--cluster Backend (Django 5 + DRF)--><g id="cluster_Backend (Django 5 + DRF)"><path d="M168.5,490.5679 L346.7393,490.5679 A3.75,3.75 0 0 1 349.2393,493.0679 L356.2393,515.6358 L805.5,515.6358 A2.5,2.5 0 0 1 808,518.1358 L808,994.0679 A2.5,2.5 0 0 1 805.5,996.5679 L168.5,996.5679 A2.5,2.5 0 0 1 166,994.0679 L166,493.0679 A2.5,2.5 0 0 1 168.5,490.5679 " fill="none" style="stroke:#000000;stroke-width:1.5;"/><line style="stroke:#000000;stroke-width:1.5;" x1="166" x2="356.2393" y1="515.6358" y2="515.6358"/><text fill="#000000" font-family="Helvetica" font-size="14" font-weight="bold" lengthAdjust="spacing" textLength="177.2393" x="170" y="507.5339">Backend (Django 5 + DRF)</text></g><!--entity feAuth--><g id="elem_feAuth"><rect fill="#EBF5FB" height="39.0679" rx="2.5" ry="2.5" style="stroke:#21618C;stroke-width:0.5;" width="146.0275" x="424" y="238.0679"/><text fill="#000000" font-family="Helvetica" font-size="14" lengthAdjust="spacing" textLength="126.0275" x="434" y="263.0339">Auth (AuthContext)</text></g><!--entity feClinic--><g id="elem_feClinic"><rect fill="#EBF5FB" height="39.0679" rx="2.5" ry="2.5" style="stroke:#21618C;stroke-width:0.5;" width="160.2374" x="229" y="238.0679"/><text fill="#000000" font-family="Helvetica" font-size="14" lengthAdjust="spacing" textLength="140.2374" x="239" y="263.0339">Clinics (ClinicContext)</text></g><!--entity fePatient--><g id="elem_fePatient"><rect fill="#EBF5FB" height="39.0679" rx="2.5" ry="2.5" style="stroke:#21618C;stroke-width:0.5;" width="73.2978" x="605.5" y="238.0679"/><text fill="#000000" font-family="Helvetica" font-size="14" lengthAdjust="spacing" textLength="53.2978" x="615.5" y="263.0339">Patients</text></g><!--entity feReport--><g id="elem_feReport"><rect fill="#EBF5FB" height="58.1358" rx="2.5" ry="2.5" style="stroke:#21618C;stroke-width:0.5;" width="171.5494" x="22" y="228.5679"/><text fill="#000000" font-family="Helvetica" font-size="14" lengthAdjust="spacing" textLength="73.6117" x="32" y="253.5339">Monitoring</text><text fill="#000000" font-family="Helvetica" font-size="14" lengthAdjust="spacing" textLength="151.5494" x="32" y="272.6018">(ReportForm / Stepper)</text></g><!--entity feVet--><g id="elem_feVet"><rect fill="#EBF5FB" height="58.1358" rx="2.5" ry="2.5" style="stroke:#21618C;stroke-width:0.5;" width="218.1272" x="714" y="228.5679"/><text fill="#000000" font-family="Helvetica" font-size="14" lengthAdjust="spacing" textLength="21.3499" x="724" y="253.5339">Vet</text><text fill="#000000" font-family="Helvetica" font-size="14" lengthAdjust="spacing" textLength="198.1272" x="724" y="272.6018">(Dashboard / Alertas / Detalle)</text></g><!--entity feApi--><g id="elem_feApi"><rect fill="#EBF5FB" height="58.1358" rx="2.5" ry="2.5" style="stroke:#21618C;stroke-width:0.5;" width="128.5276" x="435.5" y="347.5679"/><text fill="#000000" font-family="Helvetica" font-size="14" lengthAdjust="spacing" textLength="108.5276" x="445.5" y="372.5339">API client (Axios)</text><text fill="#000000" font-family="Helvetica" font-size="14" lengthAdjust="spacing" textLength="99.7776" x="445.5" y="391.6018">+ interceptores</text></g><!--entity beAuth--><g id="elem_beAuth"><rect fill="#EBF5FB" height="39.0679" rx="2.5" ry="2.5" style="stroke:#21618C;stroke-width:0.5;" width="172.5014" x="182.5" y="638.0679"/><text fill="#000000" font-family="Helvetica" font-size="14" lengthAdjust="spacing" textLength="152.5014" x="192.5" y="663.0339">FirebaseAuthentication</text></g><!--entity beMw--><g id="elem_beMw"><rect fill="#EBF5FB" height="39.0679" rx="2.5" ry="2.5" style="stroke:#21618C;stroke-width:0.5;" width="176.3234" x="428" y="528.5679"/><text fill="#000000" font-family="Helvetica" font-size="14" lengthAdjust="spacing" textLength="156.3234" x="438" y="553.5339">ClinicAccessMiddleware</text></g><!--entity appUsers--><g id="elem_appUsers"><rect fill="#EBF5FB" height="39.0679" rx="2.5" ry="2.5" style="stroke:#21618C;stroke-width:0.5;" width="85.5478" x="496" y="716.5679"/><text fill="#000000" font-family="Helvetica" font-size="14" lengthAdjust="spacing" textLength="65.5478" x="506" y="741.5339">App users</text></g><!--entity appClinics--><g id="elem_appClinics"><rect fill="#EBF5FB" height="39.0679" rx="2.5" ry="2.5" style="stroke:#21618C;stroke-width:0.5;" width="89.4397" x="390.5" y="638.0679"/><text fill="#000000" font-family="Helvetica" font-size="14" lengthAdjust="spacing" textLength="69.4397" x="400.5" y="663.0339">App clinics</text></g><!--entity appPatients--><g id="elem_appPatients"><rect fill="#EBF5FB" height="58.1358" rx="2.5" ry="2.5" style="stroke:#21618C;stroke-width:0.5;" width="133.5116" x="451" y="922.5679"/><text fill="#000000" font-family="Helvetica" font-size="14" lengthAdjust="spacing" textLength="83.2437" x="461" y="947.5339">App patients</text><text fill="#000000" font-family="Helvetica" font-size="14" lengthAdjust="spacing" textLength="113.5116" x="461" y="966.6018">(motor de reglas)</text></g><!--entity appMon--><g id="elem_appMon"><rect fill="#EBF5FB" height="58.1358" rx="2.5" ry="2.5" style="stroke:#21618C;stroke-width:0.5;" width="141.0296" x="622.5" y="785.5679"/><text fill="#000000" font-family="Helvetica" font-size="14" lengthAdjust="spacing" textLength="103.8096" x="632.5" y="810.5339">App monitoring</text><text fill="#000000" font-family="Helvetica" font-size="14" lengthAdjust="spacing" textLength="121.0296" x="632.5" y="829.6018">(reportes + tareas)</text></g><!--entity appVet--><g id="elem_appVet"><rect fill="#EBF5FB" height="58.1358" rx="2.5" ry="2.5" style="stroke:#21618C;stroke-width:0.5;" width="164.6334" x="589.5" y="628.5679"/><text fill="#000000" font-family="Helvetica" font-size="14" lengthAdjust="spacing" textLength="49.8678" x="599.5" y="653.5339">App vet</text><text fill="#000000" font-family="Helvetica" font-size="14" lengthAdjust="spacing" textLength="144.6334" x="599.5" y="672.6018">(API de revisi&#243;n + SSE)</text></g><!--entity appCore--><g id="elem_appCore"><rect fill="#EBF5FB" height="58.1358" rx="2.5" ry="2.5" style="stroke:#21618C;stroke-width:0.5;" width="172.4594" x="620" y="922.5679"/><text fill="#000000" font-family="Helvetica" font-size="14" lengthAdjust="spacing" textLength="58.6738" x="630" y="947.5339">App core</text><text fill="#000000" font-family="Helvetica" font-size="14" lengthAdjust="spacing" textLength="152.4594" x="630" y="966.6018">(servicios email/imgbb)</text></g><!--entity owner--><g id="elem_owner"><ellipse cx="375.8059" cy="63.5679" fill="#F1F1F1" rx="8" ry="8" style="stroke:#181818;stroke-width:0.5;"/><path d="M375.8059,71.5679 L375.8059,98.5679 M362.8059,79.5679 L388.8059,79.5679 M375.8059,98.5679 L362.8059,113.5679 M375.8059,98.5679 L388.8059,113.5679 " fill="none" style="stroke:#181818;stroke-width:0.5;"/><text fill="#000000" font-family="Helvetica" font-size="14" lengthAdjust="spacing" textLength="73.6117" x="339" y="130.0339">Propietario</text></g><!--entity vet--><g id="elem_vet"><ellipse cx="822.8898" cy="54.0679" fill="#F1F1F1" rx="8" ry="8" style="stroke:#181818;stroke-width:0.5;"/><path d="M822.8898,62.0679 L822.8898,89.0679 M809.8898,70.0679 L835.8898,70.0679 M822.8898,89.0679 L809.8898,104.0679 M822.8898,89.0679 L835.8898,104.0679 " fill="none" style="stroke:#181818;stroke-width:0.5;"/><text fill="#000000" font-family="Helvetica" font-size="14" lengthAdjust="spacing" textLength="81.8577" x="775.5" y="120.5339">Veterinario /</text><text fill="#000000" font-family="Helvetica" font-size="14" lengthAdjust="spacing" textLength="94.7797" x="775.5" y="139.6018">Administrador</text></g><!--entity redis--><g id="elem_redis"><path d="M1056,1062.0679 L1118.4158,1062.0679 C1123.4158,1062.0679 1123.4158,1086.1358 1123.4158,1086.1358 C1123.4158,1086.1358 1123.4158,1110.2038 1118.4158,1110.2038 L1056,1110.2038 C1051,1110.2038 1051,1086.1358 1051,1086.1358 C1051,1086.1358 1051,1062.0679 1056,1062.0679 " fill="#F1F1F1" style="stroke:#181818;stroke-width:0.5;"/><path d="M1118.4158,1062.0679 C1113.4158,1062.0679 1113.4158,1086.1358 1113.4158,1086.1358 C1113.4158,1110.2038 1118.4158,1110.2038 1118.4158,1110.2038 " fill="none" style="stroke:#181818;stroke-width:0.5;"/><text fill="#000000" font-family="Helvetica" font-size="14" lengthAdjust="spacing" textLength="35.5319" x="1056" y="1082.0339">Redis</text><text fill="#000000" font-family="Helvetica" font-size="14" lengthAdjust="spacing" textLength="52.4158" x="1056" y="1101.1018">(broker)</text></g><!--entity celery--><g id="elem_celery"><polygon fill="#F1F1F1" points="827,937.0679,837,927.0679,1002.9255,927.0679,1002.9255,966.1358,992.9255,976.1358,827,976.1358,827,937.0679" style="stroke:#181818;stroke-width:0.5;"/><line style="stroke:#181818;stroke-width:0.5;" x1="992.9255" x2="1002.9255" y1="937.0679" y2="927.0679"/><line style="stroke:#181818;stroke-width:0.5;" x1="827" x2="992.9255" y1="937.0679" y2="937.0679"/><line style="stroke:#181818;stroke-width:0.5;" x1="992.9255" x2="992.9255" y1="937.0679" y2="976.1358"/><text fill="#000000" font-family="Helvetica" font-size="14" lengthAdjust="spacing" textLength="135.9255" x="842" y="962.0339">Celery worker + beat</text></g><!--entity db--><g id="elem_db"><path d="M314.5,1072.0679 C314.5,1062.0679 362.9719,1062.0679 362.9719,1062.0679 C362.9719,1062.0679 411.4437,1062.0679 411.4437,1072.0679 L411.4437,1100.1358 C411.4437,1110.1358 362.9719,1110.1358 362.9719,1110.1358 C362.9719,1110.1358 314.5,1110.1358 314.5,1100.1358 L314.5,1072.0679 " fill="#FEF9E7" style="stroke:#B7950B;stroke-width:0.5;"/><path d="M314.5,1072.0679 C314.5,1082.0679 362.9719,1082.0679 362.9719,1082.0679 C362.9719,1082.0679 411.4437,1082.0679 411.4437,1072.0679 " fill="none" style="stroke:#B7950B;stroke-width:0.5;"/><text fill="#000000" font-family="Helvetica" font-size="14" lengthAdjust="spacing" textLength="76.9437" x="324.5" y="1101.0339">PostgreSQL</text></g><!--entity fb--><g id="elem_fb"><path d="M18.6713,799.5184 C22.668,793.7151 26.5917,793.3959 31.6373,798.2413 C34.4047,791.9958 39.4265,793.0183 42.7788,797.6418 C46.7343,790.4309 52.7517,791.2696 56.6014,797.7487 C60.4271,791.2709 66.8492,791.5005 70.7664,797.646 C74.9958,791.2991 79.3853,792.3184 83.2333,798.04 C87.65,792.9052 92.7437,792.4776 96.0704,799.2182 C99.7858,793.0878 105.0512,792.5298 109.4205,798.4965 C113.9974,792.1125 118.8914,791.6196 122.8578,799.0887 C131.582,801.6912 134.3518,808.8152 126.8252,815.3762 C134.1625,822.2958 132.9483,830.2446 122.3612,832.4884 C118.5426,838.2485 112.4692,839.4992 108.5653,832.5812 C104.5091,838.288 100.6262,840.2737 95.6129,833.581 C92.7808,839.4911 88.4439,840.8131 83.9808,835.232 C79.616,840.8731 75.331,842.4186 70.4628,835.7865 C65.1594,841.8095 60.3955,842.0496 56.5934,834.2771 C52.2098,839.6611 46.7976,839.3143 43.0889,833.4656 C38.6537,839.4198 34.5315,839.9287 30.4743,833.0928 C26.0292,838.6827 21.3237,837.0553 18.5184,831.3561 C11.6502,826.9786 10.9385,820.8544 17.2524,815.4291 C9.9828,810.4185 11.2771,803.2212 18.6713,799.5184 " fill="#F1F1F1" style="stroke:#181818;stroke-width:0.5;"/><text fill="#000000" font-family="Helvetica" font-size="14" lengthAdjust="spacing" textLength="90.5657" x="23.5" y="820.0339">Firebase Auth</text></g><!--entity brevo--><g id="elem_brevo"><path d="M617.8443,1070.073 C622.0754,1062.8127 627.9487,1064.5272 631.7173,1070.5559 C635.1228,1065.1044 640.8402,1064.0725 644.3771,1070.4149 C647.416,1064.4951 652.1238,1063.5084 656.1794,1069.3989 C660.5564,1062.8866 665.6319,1063.0891 669.9933,1069.4157 C674.0668,1063.2116 678.9071,1062.9379 682.5093,1069.865 C686.0935,1064.4659 689.6155,1065.1175 693.2876,1069.7709 C698.1338,1063.86 703.3564,1064.9395 706.9068,1071.2186 C710.8554,1065.3455 716.4781,1063.9981 720.2581,1071.3883 C730.102,1073.2237 732.6062,1078.7013 728.3246,1087.5758 C734.3076,1097.0072 730.2452,1103.6828 719.3712,1103.8271 C716.5715,1109.113 710.5917,1110.1813 707.1452,1104.5516 C705.5383,1111.2525 699.5407,1111.8277 695.3864,1107.1946 C691.5246,1113.6009 685.1596,1115.4851 680.8438,1107.6585 C677.9858,1114.1188 673.6906,1114.9278 668.516,1110.2142 C664.3485,1115.5812 659.357,1115.5192 656.3096,1109.0583 C651.2489,1112.8511 646.4536,1113.3587 644.3859,1105.8894 C639.8746,1111.9851 634.79,1111.0488 630.8067,1105.2848 C626.9499,1110.0862 620.7856,1109.662 618.3314,1103.6644 C608.7106,1101.5293 606.8071,1093.3722 613.5099,1086.6197 C606.8899,1080.4254 608.1549,1071.9951 617.8443,1070.073 " fill="#F1F1F1" style="stroke:#181818;stroke-width:0.5;"/><text fill="#000000" font-family="Helvetica" font-size="14" lengthAdjust="spacing" textLength="87.0377" x="624.5" y="1091.5339">Brevo (SMTP)</text></g><!--entity imgbb--><g id="elem_imgbb"><path d="M886.1413,1071.6718 C889.9891,1063.8018 895.0074,1064.6281 900.4178,1069.9851 C903.8658,1062.7095 911.0424,1062.5462 915.5565,1068.7914 C921.846,1061.0079 926.5602,1063.1221 931.3631,1070.3561 C935.4308,1063.2014 940.9791,1064.232 944.8655,1070.538 C955.2446,1071.2911 958.0621,1079.2742 953.5978,1087.6167 C958.2636,1096.7027 955.0564,1102.2896 945.4383,1104.4532 C939.9178,1112.3382 935.0196,1112.6915 929.6256,1104.33 C927.2506,1111.5195 921.1953,1111.3014 916.6478,1106.7264 C911.1316,1115.1196 904.994,1113.0704 900.5399,1105.6449 C894.7378,1111.1401 889.7158,1111.0293 886.2655,1103.1373 C877.8043,1102.0972 874.3085,1094.9416 879.9037,1087.9957 C875.1379,1079.9835 875.8199,1073.9189 886.1413,1071.6718 " fill="#F1F1F1" style="stroke:#181818;stroke-width:0.5;"/><text fill="#000000" font-family="Helvetica" font-size="14" lengthAdjust="spacing" textLength="44.6458" x="892.5" y="1091.5339">ImgBB</text></g><!--link owner to feReport--><g id="link_owner_feReport"><path d="M338.76,113.5779 C305,130.3079 254.23,156.4979 212,182.5679 C189.18,196.6579 169.5323,210.4013 150.0623,224.7313 " fill="none" id="owner-to-feReport" style="stroke:#181818;stroke-width:1.0;"/><polygon fill="#181818" points="145.23,228.2879,154.8494,226.1746,149.2569,225.3241,150.1074,219.7316,145.23,228.2879" style="stroke:#181818;stroke-width:1.0;"/></g><!--link owner to fePatient--><g id="link_owner_fePatient"><path d="M413.28,104.1979 C458.3,116.0179 534.62,140.7179 588,182.5679 C607.27,197.6779 619.9324,216.1732 629.3224,232.6732 " fill="none" id="owner-to-fePatient" style="stroke:#181818;stroke-width:1.0;"/><polygon fill="#181818" points="632.29,237.8879,631.315,228.0874,629.817,233.5423,624.3621,232.0443,632.29,237.8879" style="stroke:#181818;stroke-width:1.0;"/></g><!--link vet to feVet--><g id="link_vet_feVet"><path d="M823,143.8779 C823,171.4779 823,199.1279 823,222.4279 " fill="none" id="vet-to-feVet" style="stroke:#181818;stroke-width:1.0;"/><polygon fill="#181818" points="823,228.4279,827,219.4279,823,223.4279,819,219.4279,823,228.4279" style="stroke:#181818;stroke-width:1.0;"/></g><!--link feAuth to feApi--><g id="link_feAuth_feApi"><path d="M497.48,277.1079 C497.96,296.0479 498.566,319.7099 499.126,341.5199 " fill="none" id="feAuth-to-feApi" style="stroke:#181818;stroke-width:1.0;stroke-dasharray:7.0,7.0;"/><polygon fill="#181818" points="499.28,347.5179,503.0477,338.4182,499.1517,342.5196,495.0503,338.6236,499.28,347.5179" style="stroke:#181818;stroke-width:1.0;"/></g><!--link feClinic to feApi--><g id="link_feClinic_feApi"><path d="M339.26,277.1079 C370.19,296.0479 413.4834,322.5742 449.0934,344.3842 " fill="none" id="feClinic-to-feApi" style="stroke:#181818;stroke-width:1.0;stroke-dasharray:7.0,7.0;"/><polygon fill="#181818" points="454.21,347.5179,448.6243,339.4062,449.9462,344.9065,444.4459,346.2284,454.21,347.5179" style="stroke:#181818;stroke-width:1.0;"/></g><!--link fePatient to feApi--><g id="link_fePatient_feApi"><path d="M619.5,277.1079 C596.51,296.0479 565.1513,321.8934 538.6713,343.7034 " fill="none" id="fePatient-to-feApi" style="stroke:#181818;stroke-width:1.0;stroke-dasharray:7.0,7.0;"/><polygon fill="#181818" points="534.04,347.5179,543.53,344.8836,537.8994,344.3391,538.444,338.7085,534.04,347.5179" style="stroke:#181818;stroke-width:1.0;"/></g><!--link feReport to feApi--><g id="link_feReport_feApi"><path d="M194.03,284.2479 C266.82,305.9679 363.7907,334.9115 429.7107,354.5915 " fill="none" id="feReport-to-feApi" style="stroke:#181818;stroke-width:1.0;stroke-dasharray:7.0,7.0;"/><polygon fill="#181818" points="435.46,356.3079,427.9804,349.9005,430.669,354.8776,425.6918,357.5661,435.46,356.3079" style="stroke:#181818;stroke-width:1.0;"/></g><!--link feVet to feApi--><g id="link_feVet_feApi"><path d="M745.63,286.5879 C690.3,306.6379 622.3216,331.2652 570.1516,350.1552 " fill="none" id="feVet-to-feApi" style="stroke:#181818;stroke-width:1.0;stroke-dasharray:7.0,7.0;"/><polygon fill="#181818" points="564.51,352.1979,574.3342,352.8949,569.2113,350.4956,571.6105,345.3728,564.51,352.1979" style="stroke:#181818;stroke-width:1.0;"/></g><!--link feApi to beMw--><g id="link_feApi_beMw"><path d="M502.68,405.9379 C505.95,440.6179 510.8354,492.3845 513.6454,522.1145 " fill="none" id="feApi-to-beMw" style="stroke:#181818;stroke-width:1.0;"/><polygon fill="#181818" points="514.21,528.0879,517.3454,518.7515,513.7395,523.1101,509.3809,519.5042,514.21,528.0879" style="stroke:#181818;stroke-width:1.0;"/><text fill="#000000" font-family="Helvetica" font-size="13" lengthAdjust="spacing" textLength="81.4061" x="549.4625" y="452.4649">HTTPS / JSON</text><text fill="#000000" font-family="Helvetica" font-size="13" lengthAdjust="spacing" textLength="162.3311" x="509" y="470.1709">(Bearer token + X-Clinic-Id)</text></g><!--link feVet to appVet--><g id="link_feVet_appVet"><path d="M812.26,286.8679 C784.47,360.1279 712.5488,549.6982 684.8088,622.7982 " fill="none" id="feVet-to-appVet" style="stroke:#181818;stroke-width:1.0;"/><polygon fill="#181818" points="682.68,628.4079,689.6129,621.4126,684.454,623.7332,682.1334,618.5742,682.68,628.4079" style="stroke:#181818;stroke-width:1.0;"/><text fill="#000000" font-family="Helvetica" font-size="13" lengthAdjust="spacing" textLength="111.8911" x="755" y="461.4649">SSE /alerts/stream</text></g><!--link beMw to beAuth--><g id="link_beMw_beAuth"><path d="M473.26,567.6679 C427.97,587.3779 362.3813,615.9229 317.1313,635.6229 " fill="none" id="beMw-to-beAuth" style="stroke:#181818;stroke-width:1.0;"/><polygon fill="#181818" points="311.63,638.0179,321.4786,638.0929,316.2144,636.0221,318.2852,630.7579,311.63,638.0179" style="stroke:#181818;stroke-width:1.0;"/></g><!--link beAuth to fb--><g id="link_beAuth_fb"><path d="M182.23,672.6679 C133.88,682.4979 80.54,697.2879 66,716.5679 C50.27,737.4179 53.0836,762.797 59.0136,784.137 " fill="none" id="beAuth-to-fb" style="stroke:#181818;stroke-width:1.0;stroke-dasharray:7.0,7.0;"/><polygon fill="#181818" points="60.62,789.9179,62.0643,780.1755,59.2813,785.1005,54.3564,782.3174,60.62,789.9179" style="stroke:#181818;stroke-width:1.0;"/><text fill="#000000" font-family="Helvetica" font-size="13" lengthAdjust="spacing" textLength="91.5201" x="67" y="741.4649">verify_id_token</text></g><!--link beMw to appUsers--><g id="link_beMw_appUsers"><path d="M519.87,567.8979 C521.61,576.8579 523.59,587.7379 525,597.5679 C531.06,639.8479 534.9819,683.827 537.1019,710.347 " fill="none" id="beMw-to-appUsers" style="stroke:#181818;stroke-width:1.0;"/><polygon fill="#181818" points="537.58,716.3279,540.8501,707.0378,537.1816,711.3438,532.8756,707.6753,537.58,716.3279" style="stroke:#181818;stroke-width:1.0;"/></g><!--link beMw to appClinics--><g id="link_beMw_appClinics"><path d="M501.89,567.7979 C487.02,587.5279 467.3597,613.6152 452.5597,633.2652 " fill="none" id="beMw-to-appClinics" style="stroke:#181818;stroke-width:1.0;"/><polygon fill="#181818" points="448.95,638.0579,457.5597,633.2754,451.9581,634.064,451.1695,628.4624,448.95,638.0579" style="stroke:#181818;stroke-width:1.0;"/></g><!--link beMw to appPatients--><g id="link_beMw_appPatients"><path d="M515.04,567.6279 C513.29,594.3579 508.63,645.0279 497,686.5679 C493.08,700.5579 486.95,702.3379 484,716.5679 C468.75,790.1279 490.7649,872.4118 505.6449,916.5918 " fill="none" id="beMw-to-appPatients" style="stroke:#181818;stroke-width:1.0;"/><polygon fill="#181818" points="507.56,922.2779,508.4781,912.4719,505.9641,917.5395,500.8966,915.0254,507.56,922.2779" style="stroke:#181818;stroke-width:1.0;"/></g><!--link beMw to appMon--><g id="link_beMw_appMon"><path d="M604.08,553.4779 C660.39,561.1379 730.41,580.5479 772,628.5679 C809.18,671.4979 813.55,705.9179 786,755.5679 C779.35,767.5479 774.0021,773.9325 762.6821,781.8725 " fill="none" id="beMw-to-appMon" style="stroke:#181818;stroke-width:1.0;"/><polygon fill="#181818" points="757.77,785.3179,767.4351,783.4245,761.8634,782.4467,762.8412,776.875,757.77,785.3179" style="stroke:#181818;stroke-width:1.0;"/></g><!--link beMw to appVet--><g id="link_beMw_appVet"><path d="M543.17,567.7979 C567.44,584.5179 598.3998,605.8429 626.1398,624.9629 " fill="none" id="beMw-to-appVet" style="stroke:#181818;stroke-width:1.0;"/><polygon fill="#181818" points="631.08,628.3679,625.9398,619.9669,626.9632,625.5304,621.3997,626.5538,631.08,628.3679" style="stroke:#181818;stroke-width:1.0;"/></g><!--link appMon to appPatients--><g id="link_appMon_appPatients"><path d="M644.59,843.7479 C630.19,852.7479 614.62,863.0979 601,873.5679 C581.52,888.5379 565.5659,903.0592 549.9459,918.2892 " fill="none" id="appMon-to-appPatients" style="stroke:#181818;stroke-width:1.0;stroke-dasharray:7.0,7.0;"/><polygon fill="#181818" points="545.65,922.4779,554.8863,919.0589,549.2299,918.9874,549.3015,913.331,545.65,922.4779" style="stroke:#181818;stroke-width:1.0;"/><text fill="#000000" font-family="Helvetica" font-size="13" lengthAdjust="spacing" textLength="87.3991" x="602" y="888.4649">evaluate_risk()</text></g><!--link appVet to appMon--><g id="link_appVet_appMon"><path d="M654.87,686.9279 C645.31,706.4579 636.83,732.8679 645,755.5679 C648.9,766.3879 651.9329,772.0319 659.2929,780.8019 " fill="none" id="appVet-to-appMon" style="stroke:#181818;stroke-width:1.0;stroke-dasharray:7.0,7.0;"/><polygon fill="#181818" points="663.15,785.3979,660.4284,775.9326,659.9358,781.5679,654.3004,781.0753,663.15,785.3979" style="stroke:#181818;stroke-width:1.0;"/><text fill="#000000" font-family="Helvetica" font-size="13" lengthAdjust="spacing" textLength="135.9281" x="646" y="741.4649">lee Report/Monitoring</text></g><!--link appUsers to appCore--><g id="link_appUsers_appCore"><path d="M537.34,755.6679 C535.55,787.6879 536.68,853.5679 571,892.5679 C584.06,907.4079 596.1435,916.0609 614.2335,924.4209 " fill="none" id="appUsers-to-appCore" style="stroke:#181818;stroke-width:1.0;stroke-dasharray:7.0,7.0;"/><polygon fill="#181818" points="619.68,926.9379,613.1882,919.5314,615.1412,924.8404,609.8322,926.7934,619.68,926.9379" style="stroke:#181818;stroke-width:1.0;"/><text fill="#000000" font-family="Helvetica" font-size="13" lengthAdjust="spacing" textLength="46.267" x="546" y="819.9649">correos</text></g><!--link appMon to appCore--><g id="link_appMon_appCore"><path d="M695.73,843.8679 C697.94,866.9079 700.4843,893.3056 702.7043,916.3356 " fill="none" id="appMon-to-appCore" style="stroke:#181818;stroke-width:1.0;stroke-dasharray:7.0,7.0;"/><polygon fill="#181818" points="703.28,922.3079,706.398,912.9656,702.8002,917.331,698.4349,913.7332,703.28,922.3079" style="stroke:#181818;stroke-width:1.0;"/><text fill="#000000" font-family="Helvetica" font-size="13" lengthAdjust="spacing" textLength="97.3571" x="701" y="888.4649">correos / imgbb</text></g><!--link appUsers to db--><g id="link_appUsers_db"><path d="M515.04,755.6679 C477.91,786.0479 407.47,850.2279 376,922.5679 C355.91,968.7679 356.9528,1023.3003 359.7728,1055.8903 " fill="none" id="appUsers-to-db" style="stroke:#181818;stroke-width:1.0;"/><polygon fill="#181818" points="360.29,1061.8679,363.4992,1052.5566,359.859,1056.8865,355.529,1053.2463,360.29,1061.8679" style="stroke:#181818;stroke-width:1.0;"/></g><!--link appClinics to db--><g id="link_appClinics_db"><path d="M397.48,677.0779 C389.52,680.5579 381.08,683.9279 373,686.5679 C311.27,706.7179 270.93,666.1579 230,716.5679 C141.75,825.2479 151.62,915.5579 230,1031.5679 C248.74,1059.3079 278.6357,1071.3992 308.3557,1077.8292 " fill="none" id="appClinics-to-db" style="stroke:#181818;stroke-width:1.0;"/><polygon fill="#181818" points="314.22,1079.0979,306.2694,1073.2852,309.3331,1078.0406,304.5777,1081.1043,314.22,1079.0979" style="stroke:#181818;stroke-width:1.0;"/></g><!--link appPatients to db--><g id="link_appPatients_db"><path d="M485.13,980.6679 C456.87,1004.8279 421.1606,1035.3491 394.7006,1057.9691 " fill="none" id="appPatients-to-db" style="stroke:#181818;stroke-width:1.0;"/><polygon fill="#181818" points="390.14,1061.8679,399.5802,1059.0602,393.9405,1058.6189,394.3818,1052.9793,390.14,1061.8679" style="stroke:#181818;stroke-width:1.0;"/></g><!--link appMon to db--><g id="link_appMon_db"><path d="M622.46,838.0379 C555.73,860.4479 461.75,895.3679 434,922.5679 C393.98,961.7879 376.2723,1021.5187 368.6323,1056.1587 " fill="none" id="appMon-to-db" style="stroke:#181818;stroke-width:1.0;"/><polygon fill="#181818" points="367.34,1062.0179,373.1845,1054.0907,368.4169,1057.1353,365.3723,1052.3676,367.34,1062.0179" style="stroke:#181818;stroke-width:1.0;"/></g><!--link appVet to db--><g id="link_appVet_db"><path d="M589.31,672.8079 C553.44,681.5779 512.15,695.3479 479,716.5679 C444.53,738.6379 440.75,751.5379 418,785.5679 C380.32,841.9079 366.65,856.6179 351,922.5679 C341.76,961.4879 350.22,972.5679 350,1012.5679 C349.95,1021.0079 349,1023.1879 350,1031.5679 C351.2,1041.6279 352.1204,1046.7235 354.5604,1056.0435 " fill="none" id="appVet-to-db" style="stroke:#181818;stroke-width:1.0;"/><polygon fill="#181818" points="356.08,1061.8479,357.6702,1052.1283,354.8137,1057.0109,349.931,1054.1544,356.08,1061.8479" style="stroke:#181818;stroke-width:1.0;"/></g><!--link appMon to redis--><g id="link_appMon_redis"><path d="M763.72,826.6879 C833.85,840.3379 941.97,868.6179 1021,922.5679 C1063.77,951.7679 1077.53,963.8179 1095,1012.5679 C1100.68,1028.4179 1099.7411,1041.5435 1096.1411,1056.0935 " fill="none" id="appMon-to-redis" style="stroke:#181818;stroke-width:1.0;"/><polygon fill="#181818" points="1094.7,1061.9179,1100.7445,1054.1421,1095.9009,1057.0643,1092.9787,1052.2206,1094.7,1061.9179" style="stroke:#181818;stroke-width:1.0;"/><text fill="#000000" font-family="Helvetica" font-size="13" lengthAdjust="spacing" textLength="81.705" x="1092" y="956.9649">encola tareas</text></g><!--link celery to redis--><g id="link_celery_redis"><path d="M954.92,976.2479 C971.75,986.7479 991.27,999.6479 1008,1012.5679 C1027.74,1027.8179 1044.1502,1042.7936 1059.4202,1057.5836 " fill="none" id="celery-to-redis" style="stroke:#181818;stroke-width:1.0;"/><polygon fill="#181818" points="1063.73,1061.7579,1060.0482,1052.6231,1060.1385,1058.2793,1054.4823,1058.3696,1063.73,1061.7579" style="stroke:#181818;stroke-width:1.0;"/><text fill="#000000" font-family="Helvetica" font-size="13" lengthAdjust="spacing" textLength="55.8871" x="1031" y="1027.4649">consume</text></g><!--link celery to db--><g id="link_celery_db"><path d="M875.49,976.1579 C855.88,986.7079 831.41,998.1879 808,1004.5679 C764.98,1016.2879 752.13,1006.1879 708,1012.5679 C601.39,1027.9679 484.1274,1055.0291 417.6074,1071.3391 " fill="none" id="celery-to-db" style="stroke:#181818;stroke-width:1.0;"/><polygon fill="#181818" points="411.78,1072.7679,421.4736,1074.5096,416.6362,1071.5772,419.5685,1066.7398,411.78,1072.7679" style="stroke:#181818;stroke-width:1.0;"/></g><!--link celery to brevo--><g id="link_celery_brevo"><path d="M874.34,976.1979 C854.87,986.4879 830.86,997.7379 808,1004.5679 C781.38,1012.5179 771.15,1000.7679 746,1012.5679 C722.23,1023.7179 704.7564,1040.271 690.4164,1056.841 " fill="none" id="celery-to-brevo" style="stroke:#181818;stroke-width:1.0;stroke-dasharray:7.0,7.0;"/><polygon fill="#181818" points="686.49,1061.3779,695.4041,1057.1901,689.762,1057.5971,689.3549,1051.9549,686.49,1061.3779" style="stroke:#181818;stroke-width:1.0;"/><text fill="#000000" font-family="Helvetica" font-size="13" lengthAdjust="spacing" textLength="155.4021" x="747" y="1027.4649">recordatorios / activaci&#243;n</text></g><!--link celery to imgbb--><g id="link_celery_imgbb"><path d="M913.3,976.0679 C912.36,991.7779 911.48,1012.9079 912,1031.5679 C912.27,1041.3279 912.469,1046.0988 913.029,1055.3888 " fill="none" id="celery-to-imgbb" style="stroke:#181818;stroke-width:1.0;stroke-dasharray:7.0,7.0;"/><polygon fill="#181818" points="913.39,1061.3779,916.8412,1052.1535,913.0891,1056.387,908.8557,1052.6349,913.39,1061.3779" style="stroke:#181818;stroke-width:1.0;"/><text fill="#000000" font-family="Helvetica" font-size="13" lengthAdjust="spacing" textLength="90.5061" x="913" y="1027.4649">sube evidencia</text></g><!--link appCore to brevo--><g id="link_appCore_brevo"><path d="M688.7,980.6279 C683.44,990.3979 678.21,1001.6579 675,1012.5679 C670.32,1028.4579 668.8233,1041.0725 668.2633,1055.4625 " fill="none" id="appCore-to-brevo" style="stroke:#181818;stroke-width:1.0;stroke-dasharray:7.0,7.0;"/><polygon fill="#181818" points="668.03,1061.4579,672.377,1052.6203,668.2244,1056.4617,664.383,1052.3092,668.03,1061.4579" style="stroke:#181818;stroke-width:1.0;"/></g><!--SRC=[RLLTRjj647xdAGRgGoKOYke2Rkey191a2t5Hfwhf10NgmbYIOtbhSfVPNKeHYW8zH6-I8-GcFKc_NN8bIhOVR7FcczzlFj99Lp8jjNMtHkHFzDy__zA552iZAa45qrnNjLQi75iQ2lEfaOvprnX1vTSlAvcBKPBO9wbgWGZAa69bTAEAkIwreMyMuQU7i8-Yq1kfLlGWIiizJnuhfMwBbWpA2BKg-v227qHJkeLMxhsec0Rlk5opGnU3bnBDZhkvd2tE5hCNeTeKR3hOzwS_dFuuxzSLJcJ2yhE4Yyl5-UNhbv3zVBFNvsVVpP94v0wFWwNHjMGdZDG34fRqHh69pe_is4ZbdJIvKzEYaafQPx0r4z2ODqbgD29MMC32O1Ui2agNKnhUCBBGwJcTq4VmX3-tsvhJtCZQZGRqLqBq-xHnZpJql-S-zBCR_U7JFh0tUS2yHCKSRBV_7A5QeySjXPFOdEqStQFtN6ibCGn8lbFegTO6b9cA9fGwhcisCLdhyo4O6zWBOHypBKm1wBHauu2Qq0LsLPOSWm0DSoolA2zzIKppMMexkbCd9D6ioRb6UOwTJMkP_DtRcMVHhsnuyISEJDCPzdHniuWBMaZ3daA_3sJ7SJcfLSYL7IrfckTixRKiYf8tmd07kju0iZij6aphcXhBnWO2HLr_y0_FCNcx-OZgY7YEgxlDOsELzbTJUBciIc57CJQIypouwfDZ0W6GzWdX7hcN01m-Zrq7blpcGyMrjFBh5uNWDBtSHRRy78y6FX2AkTSo1rd4bP3bH5QhBDj5pW7oJ7rgk05FDrn8FsDcz1Dk9g2CjoLAe_vWpZYHBMsqWHjDP2nS0EN1aKGjGd5ulQqCfx_-7Fn5bYHvgPi2-kd89aziS3vaqJV3X9g6wVNjiYsUUKFqNbMhsIoOmn19yYsDnsFwO1klNUiVag1i_FTsV-jzKvGCrjfP_EwwH3jbXvDMEYHiLKglNhtjxZeAyi3KvJsmjUKFJ2ZMUpukYtwYKBhAjGnT-lkcD_JkzdQPGfq_fR-y1qapnlqOSg3A7yHluxQlyLKnwahvsFOy48s3eOdm4hSJlDrOLB61MBIMDIC5X-gXPbiyA33hxI53kZNUcG_RUrdSXmRs-9tO-fOehBvj9vY-qOkW_npeQUsXTYyEJV1Qb8rmV6-aVHgEacxO3kXZtb39J2qLa_rRCebTHgmN0i0GZM5jZoeUEi70mVqjaGRV2rQv5BJjL1rsk2lYXu44zeleMNRZx4s-zFufCkarr7C6NVeTg5oNeYkRj48y0EHQsQRYlWkfkYS_OH0PWFZ-unig_8R2bFYooRN8_Gkd3m_30swRZC60BCBaITpJBcFoFm00]--></g></svg>