<svg xmlns="http://www.w3.org/2000/svg" xmlns:xlink="http://www.w3.org/1999/xlink" contentStyleType="text/css" height="940px" preserveAspectRatio="none" style="width:1131px;height:940px;background:#FFFFFF;" version="1.1" viewBox="0 0 1131 940" width="1131px" zoomAndPan="magnify"><title>PostTrack &#8212; Casos de Uso focalizados: Propietario</title><defs/><g><text fill="#000000" font-family="Helvetica" font-size="14" font-weight="bold" lengthAdjust="spacing" textLength="349.5087" x="384.0987" y="24.9659">PostTrack &#8212; Casos de Uso focalizados: Propietario</text><!--cluster PostTrack ? Portal del propietario--><g id="cluster_PostTrack &#8212; Portal del propietario"><rect fill="none" height="695" rx="2.5" ry="2.5" style="stroke:#181818;stroke-width:1.0;" width="695.5" x="148.5" y="125.5679"/><text fill="#000000" font-family="Helvetica" font-size="14" font-weight="bold" lengthAdjust="spacing" textLength="240.9811" x="375.7595" y="142.5339">PostTrack &#8212; Portal del propietario</text></g><g id="elem_UC_login"><ellipse cx="283.7836" cy="268.3246" fill="#EAF2F8" rx="74.2836" ry="17.2567" style="stroke:#2471A3;stroke-width:0.5;"/><text fill="#000000" font-family="Helvetica" font-size="14" lengthAdjust="spacing" textLength="86.6597" x="237.4538" y="273.0576">Iniciar sesi&#243;n</text></g><g id="elem_UC_terms"><ellipse cx="284.247" cy="364.5171" fill="#EAF2F8" rx="111.747" ry="43.4492" style="stroke:#2471A3;stroke-width:0.5;"/><text fill="#000000" font-family="Helvetica" font-size="14" lengthAdjust="spacing" textLength="112.8256" x="227.8342" y="348.8811">Aceptar pol&#237;tica y</text><text fill="#000000" font-family="Helvetica" font-size="14" lengthAdjust="spacing" textLength="141.7915" x="213.3513" y="367.9491">autorizaci&#243;n de datos</text><text fill="#000000" font-family="Helvetica" font-size="14" lengthAdjust="spacing" textLength="75.6837" x="246.4051" y="387.017">(por cl&#237;nica)</text></g><g id="elem_UC_pets"><ellipse cx="283.7924" cy="462.3264" fill="#EAF2F8" rx="84.2924" ry="19.2585" style="stroke:#2471A3;stroke-width:0.5;"/><text fill="#000000" font-family="Helvetica" font-size="14" lengthAdjust="spacing" textLength="115.2196" x="223.1826" y="467.0594">Ver mis mascotas</text></g><g id="elem_UC_detail"><ellipse cx="283.837" cy="547.4907" fill="#EAF2F8" rx="119.337" ry="30.4228" style="stroke:#2471A3;stroke-width:0.5;"/><text fill="#000000" font-family="Helvetica" font-size="14" lengthAdjust="spacing" textLength="149.7854" x="205.9443" y="542.6897">Ver detalle de mascota</text><text fill="#000000" font-family="Helvetica" font-size="14" lengthAdjust="spacing" textLength="112.6856" x="224.4942" y="561.7576">y sus monitoreos</text></g><g id="elem_UC_report"><ellipse cx="283.7911" cy="189.5261" fill="#EAF2F8" rx="117.7911" ry="25.9582" style="stroke:#2471A3;stroke-width:0.5;"/><text fill="#000000" font-family="Helvetica" font-size="14" lengthAdjust="spacing" textLength="196.4053" x="182.7547" y="194.197">Enviar reporte postoperatorio</text></g><g id="elem_UC_fixed"><ellipse cx="687.12" cy="194.6919" fill="#EAF2F8" rx="141.12" ry="30.624" style="stroke:#2471A3;stroke-width:0.5;"/><text fill="#000000" font-family="Helvetica" font-size="14" lengthAdjust="spacing" textLength="180.5993" x="593.8204" y="189.8909">Responder cuestionario fijo</text><text fill="#000000" font-family="Helvetica" font-size="14" lengthAdjust="spacing" textLength="135.1275" x="616.5563" y="208.9588">(21 preguntas S&#237;/No)</text></g><g id="elem_UC_custom"><ellipse cx="687.2117" cy="474.5095" fill="#EAF2F8" rx="124.2117" ry="30.4415" style="stroke:#2471A3;stroke-width:0.5;"/><text fill="#000000" font-family="Helvetica" font-size="14" lengthAdjust="spacing" textLength="156.4494" x="605.987" y="469.7085">Responder cuestionario</text><text fill="#000000" font-family="Helvetica" font-size="14" lengthAdjust="spacing" textLength="92.7077" x="637.8579" y="488.7764">personalizado</text></g><g id="elem_UC_notes"><ellipse cx="686.9906" cy="382.666" fill="#EAF2F8" rx="118.4906" ry="26.0981" style="stroke:#2471A3;stroke-width:0.5;"/><text fill="#000000" font-family="Helvetica" font-size="14" lengthAdjust="spacing" textLength="197.9873" x="585.3177" y="387.2782">Registrar observaciones libres</text></g><g id="elem_UC_photos"><ellipse cx="687.232" cy="290.556" fill="#EAF2F8" rx="138.232" ry="30.4881" style="stroke:#2471A3;stroke-width:0.5;"/><text fill="#000000" font-family="Helvetica" font-size="14" lengthAdjust="spacing" textLength="175.6153" x="596.4243" y="285.755">Adjuntar fotos de la herida</text><text fill="#000000" font-family="Helvetica" font-size="14" lengthAdjust="spacing" textLength="56.1678" x="656.1481" y="304.8229">(hasta 4)</text></g><g id="elem_UC_history"><ellipse cx="284.2196" cy="635.8118" fill="#EAF2F8" rx="101.7196" ry="22.7439" style="stroke:#2471A3;stroke-width:0.5;"/><text fill="#000000" font-family="Helvetica" font-size="14" lengthAdjust="spacing" textLength="159.0534" x="201.6929" y="640.5448">Ver historial de reportes</text></g><g id="elem_UC_profile"><ellipse cx="284.2152" cy="711.411" fill="#EAF2F8" rx="79.7152" ry="18.343" style="stroke:#2471A3;stroke-width:0.5;"/><text fill="#000000" font-family="Helvetica" font-size="14" lengthAdjust="spacing" textLength="102.6336" x="229.8984" y="716.1439">Actualizar perfil</text></g><g id="elem_UC_deactivate"><ellipse cx="284.0624" cy="784.4804" fill="#EAF2F8" rx="85.0624" ry="19.4125" style="stroke:#2471A3;stroke-width:0.5;"/><text fill="#000000" font-family="Helvetica" font-size="14" lengthAdjust="spacing" textLength="117.2775" x="222.4237" y="789.2134">Desactivar cuenta</text></g><g id="elem_UC_calc"><ellipse cx="686.9434" cy="570.5536" fill="#EAF2F8" rx="137.4434" ry="30.4857" style="stroke:#2471A3;stroke-width:0.5;"/><text fill="#000000" font-family="Helvetica" font-size="14" lengthAdjust="spacing" textLength="174.5373" x="596.6748" y="565.7526">Calcular riesgo del reporte</text><text fill="#000000" font-family="Helvetica" font-size="14" lengthAdjust="spacing" textLength="169.6373" x="599.1247" y="584.8206">(seg&#250;n ventana temporal)</text></g><!--entity Owner--><g id="elem_Owner"><ellipse cx="42.8059" cy="493.0679" fill="#F1F1F1" rx="16" ry="16" style="stroke:#181818;stroke-width:0.5;"/><path d="M42.8059,513.0679 C46.8059,513.0679 49.8059,513.0679 53.8059,509.0679 C61.8059,509.0679 69.8059,517.0679 69.8059,525.0679 L69.8059,529.0679 C69.8059,533.0679 65.8059,537.0679 61.8059,537.0679 L23.8059,537.0679 C19.8059,537.0679 15.8059,533.0679 15.8059,529.0679 L15.8059,525.0679 C15.8059,517.0679 23.8059,509.0679 31.8059,509.0679 C35.8059,513.0679 38.8059,513.0679 42.8059,513.0679 " fill="#F1F1F1" style="stroke:#181818;stroke-width:0.5;"/><text fill="#000000" font-family="Helvetica" font-size="14" lengthAdjust="spacing" textLength="73.6117" x="6" y="552.5339">Propietario</text></g><!--entity FB--><g id="elem_FB"><ellipse cx="686.7828" cy="872.6358" fill="#F1F1F1" rx="16" ry="16" style="stroke:#181818;stroke-width:0.5;"/><path d="M686.7828,892.6358 C690.7828,892.6358 693.7828,892.6358 697.7828,888.6358 C705.7828,888.6358 713.7828,896.6358 713.7828,904.6358 L713.7828,908.6358 C713.7828,912.6358 709.7828,916.6358 705.7828,916.6358 L667.7828,916.6358 C663.7828,916.6358 659.7828,912.6358 659.7828,908.6358 L659.7828,904.6358 C659.7828,896.6358 667.7828,888.6358 675.7828,888.6358 C679.7828,892.6358 682.7828,892.6358 686.7828,892.6358 " fill="#F1F1F1" style="stroke:#181818;stroke-width:0.5;"/><text fill="#000000" font-family="Helvetica" font-size="14" lengthAdjust="spacing" textLength="90.5657" x="641.5" y="932.1018">Firebase Auth</text><text fill="#000000" font-family="Helvetica" font-size="14" font-style="italic" lengthAdjust="spacing" textLength="63.9798" x="654.7929" y="852.0339">&#171;external&#187;</text></g><!--entity Sys--><g id="elem_Sys"><ellipse cx="1007.9369" cy="556.6358" fill="#F1F1F1" rx="16" ry="16" style="stroke:#181818;stroke-width:0.5;"/><path d="M1007.9369,576.6358 C1011.9369,576.6358 1014.9369,576.6358 1018.9369,572.6358 C1026.9369,572.6358 1034.9369,580.6358 1034.9369,588.6358 L1034.9369,592.6358 C1034.9369,596.6358 1030.9369,600.6358 1026.9369,600.6358 L988.9369,600.6358 C984.9369,600.6358 980.9369,596.6358 980.9369,592.6358 L980.9369,588.6358 C980.9369,580.6358 988.9369,572.6358 996.9369,572.6358 C1000.9369,576.6358 1003.9369,576.6358 1007.9369,576.6358 " fill="#F1F1F1" style="stroke:#181818;stroke-width:0.5;"/><text fill="#000000" font-family="Helvetica" font-size="14" lengthAdjust="spacing" textLength="51.8978" x="981.988" y="616.1018">Sistema</text><text fill="#000000" font-family="Helvetica" font-size="14" font-style="italic" lengthAdjust="spacing" textLength="55.8738" x="980" y="536.0339">&#171;system&#187;</text></g><g id="elem_GMN34"><path d="M141,46.0679 L141,109.186 A0,0 0 0 0 141,109.186 L280,109.186 L284,163.3179 L288,109.186 L426.9012,109.186 A0,0 0 0 0 426.9012,109.186 L426.9012,56.0679 L416.9012,46.0679 L141,46.0679 A0,0 0 0 0 141,46.0679 " fill="#FEFFDD" style="stroke:#181818;stroke-width:0.5;"/><path d="M416.9012,46.0679 L416.9012,56.0679 L426.9012,56.0679 L416.9012,46.0679 " fill="#FEFFDD" style="stroke:#181818;stroke-width:0.5;"/><text fill="#000000" font-family="Helvetica" font-size="13" lengthAdjust="spacing" textLength="249.2362" x="147" y="64.9649">El reporte solo se habilita si el monitoreo</text><text fill="#000000" font-family="Helvetica" font-size="13" lengthAdjust="spacing" textLength="264.9012" x="147" y="82.6709">est&#225; ACTIVO y ya se registr&#243; la salida a casa</text><text fill="#000000" font-family="Helvetica" font-size="13" lengthAdjust="spacing" textLength="187.2521" x="147" y="100.377">(home_release_date &lt;= ahora).</text></g><g id="elem_GMN37"><path d="M891,172.0679 L891,190.5679 L828.38,194.5679 L891,198.5679 L891,217.4799 A0,0 0 0 0 891,217.4799 L1124.7062,217.4799 A0,0 0 0 0 1124.7062,217.4799 L1124.7062,182.0679 L1114.7062,172.0679 L891,172.0679 A0,0 0 0 0 891,172.0679 " fill="#FEFFDD" style="stroke:#181818;stroke-width:0.5;"/><path d="M1114.7062,172.0679 L1114.7062,182.0679 L1124.7062,182.0679 L1114.7062,172.0679 " fill="#FEFFDD" style="stroke:#181818;stroke-width:0.5;"/><text fill="#000000" font-family="Helvetica" font-size="13" lengthAdjust="spacing" textLength="212.7062" x="897" y="190.9649">Solo el cuestionario fijo alimenta el</text><text fill="#000000" font-family="Helvetica" font-size="13" lengthAdjust="spacing" textLength="178.9582" x="897" y="208.6709">c&#225;lculo autom&#225;tico de riesgo.</text></g><!--link Owner to UC_login--><g id="link_Owner_UC_login"><path d="M51.19,476.3879 C61.98,428.0579 87.1,347.9279 140.5,303.5679 C160.49,286.9679 181.2761,279.1612 206.1461,274.4212 " fill="none" id="Owner-to-UC_login" style="stroke:#181818;stroke-width:1.0;"/><polygon fill="#181818" points="212.04,273.2979,202.4503,271.0536,207.1284,274.234,203.948,278.9122,212.04,273.2979" style="stroke:#181818;stroke-width:1.0;"/></g><!--link Owner to UC_terms--><g id="link_Owner_UC_terms"><path d="M80.32,476.4579 C97.39,459.2379 118.74,439.8379 140.5,425.5679 C159.07,413.3979 174.9637,405.1212 195.4337,396.2612 " fill="none" id="Owner-to-UC_terms" style="stroke:#181818;stroke-width:1.0;"/><polygon fill="#181818" points="200.94,393.8779,191.0916,393.782,196.3514,395.864,194.2693,401.1238,200.94,393.8779" style="stroke:#181818;stroke-width:1.0;"/></g><!--link Owner to UC_pets--><g id="link_Owner_UC_pets"><path d="M80.24,506.9479 C89.89,504.4579 100.33,501.8479 110,499.5679 C146.32,491.0079 181.2663,483.4624 214.1263,476.6124 " fill="none" id="Owner-to-UC_pets" style="stroke:#181818;stroke-width:1.0;"/><polygon fill="#181818" points="220,475.3879,210.3731,473.3088,215.1052,476.4083,212.0057,481.1404,220,475.3879" style="stroke:#181818;stroke-width:1.0;"/></g><!--link Owner to UC_detail--><g id="link_Owner_UC_detail"><path d="M80.04,521.2379 C105.92,524.5979 136.2998,528.5361 171.0698,533.0461 " fill="none" id="Owner-to-UC_detail" style="stroke:#181818;stroke-width:1.0;"/><polygon fill="#181818" points="177.02,533.8179,168.6093,528.6935,172.0615,533.1748,167.5802,536.627,177.02,533.8179" style="stroke:#181818;stroke-width:1.0;"/></g><!--link Owner to UC_report--><g id="link_Owner_UC_report"><path d="M46.02,476.3579 C51.34,414.8879 70.63,297.9279 140.5,233.5679 C154.31,220.8479 166.074,213.8383 183.954,207.4083 " fill="none" id="Owner-to-UC_report" style="stroke:#181818;stroke-width:1.0;"/><polygon fill="#181818" points="189.6,205.3779,179.7774,204.6595,184.895,207.0699,182.4846,212.1875,189.6,205.3779" style="stroke:#181818;stroke-width:1.0;"/></g><!--link Owner to UC_history--><g id="link_Owner_UC_history"><path d="M80.38,552.4079 C97.45,567.5579 118.8,584.2779 140.5,595.5679 C161.24,606.3579 179.4488,612.9689 201.7788,619.0189 " fill="none" id="Owner-to-UC_history" style="stroke:#181818;stroke-width:1.0;"/><polygon fill="#181818" points="207.57,620.5879,199.9292,614.3735,202.744,619.2804,197.8372,622.0952,207.57,620.5879" style="stroke:#181818;stroke-width:1.0;"/></g><!--link Owner to UC_profile--><g id="link_Owner_UC_profile"><path d="M58.13,556.6979 C73.02,593.1379 99.99,645.6279 140.5,675.5679 C160.71,690.5079 180.6026,698.0234 204.6426,703.1634 " fill="none" id="Owner-to-UC_profile" style="stroke:#181818;stroke-width:1.0;"/><polygon fill="#181818" points="210.51,704.4179,202.5453,698.6246,205.6205,703.3725,200.8726,706.4477,210.51,704.4179" style="stroke:#181818;stroke-width:1.0;"/></g><!--link Owner to UC_deactivate--><g id="link_Owner_UC_deactivate"><path d="M49.69,556.7879 C59.19,608.5979 83.21,697.8679 140.5,747.5679 C158.36,763.0579 176.0781,770.8197 198.8781,776.1597 " fill="none" id="Owner-to-UC_deactivate" style="stroke:#181818;stroke-width:1.0;"/><polygon fill="#181818" points="204.72,777.5279,196.8693,771.581,199.8517,776.3877,195.045,779.3702,204.72,777.5279" style="stroke:#181818;stroke-width:1.0;"/></g><!--link UC_login to FB--><g id="link_UC_login_FB"><path d="M358.21,270.3179 C383.42,274.7079 409.64,284.1779 427,303.5679 C460.94,341.4779 446.16,480.8479 457,530.5679 C485.71,662.2979 457.71,718.6779 546,820.5679 C570.72,849.0979 604.7517,864.4129 635.5917,874.0229 " fill="none" id="UC_login-to-FB" style="stroke:#181818;stroke-width:1.0;stroke-dasharray:7.0,7.0;"/><polygon fill="#181818" points="641.32,875.8079,633.9175,869.3115,636.5464,874.3204,631.5375,876.9493,641.32,875.8079" style="stroke:#181818;stroke-width:1.0;"/><text fill="#000000" font-family="Helvetica" font-size="13" lengthAdjust="spacing" textLength="57.5771" x="458" y="526.4649">&#171;include&#187;</text></g><!--link UC_report to UC_fixed--><g id="link_UC_report_UC_fixed"><path d="M402.06,191.0279 C447.14,191.5879 493.0705,192.1626 540.0905,192.7526 " fill="none" id="UC_report-to-UC_fixed" style="stroke:#181818;stroke-width:1.0;stroke-dasharray:7.0,7.0;"/><polygon fill="#181818" points="546.09,192.8279,537.1409,188.7153,541.0904,192.7652,537.0405,196.7147,546.09,192.8279" style="stroke:#181818;stroke-width:1.0;"/><text fill="#000000" font-family="Helvetica" font-size="13" lengthAdjust="spacing" textLength="57.5771" x="458" y="188.4649">&#171;include&#187;</text></g><!--link UC_report to UC_custom--><g id="link_UC_report_UC_custom"><path d="M380.84,204.6579 C398.03,211.1479 414.44,220.3979 427,233.5679 C463.75,272.1079 428.78,304.4079 457,349.5679 C484.57,393.6779 500.9,399.6479 546,425.5679 C564.08,435.9679 579.0897,442.6694 598.8797,449.7394 " fill="none" id="UC_report-to-UC_custom" style="stroke:#181818;stroke-width:1.0;stroke-dasharray:7.0,7.0;"/><polygon fill="#181818" points="604.53,451.7579,597.4003,444.9632,599.8215,450.0758,594.7089,452.4969,604.53,451.7579" style="stroke:#181818;stroke-width:1.0;"/><text fill="#000000" font-family="Helvetica" font-size="13" lengthAdjust="spacing" textLength="57.5771" x="458" y="345.4649">&#171;include&#187;</text></g><!--link UC_report to UC_notes--><g id="link_UC_report_UC_notes"><path d="M371.62,206.9879 C390.93,213.3579 410.54,221.9679 427,233.5679 C445.16,246.3679 441.19,257.9579 457,273.5679 C491.85,307.9779 502.28,316.4879 546,338.5679 C565.44,348.3879 581.7954,354.7609 602.5654,361.2809 " fill="none" id="UC_report-to-UC_notes" style="stroke:#181818;stroke-width:1.0;stroke-dasharray:7.0,7.0;"/><polygon fill="#181818" points="608.29,363.0779,600.9012,356.566,603.5195,361.5804,598.5051,364.1988,608.29,363.0779" style="stroke:#181818;stroke-width:1.0;"/><text fill="#000000" font-family="Helvetica" font-size="13" lengthAdjust="spacing" textLength="55.497" x="459" y="269.4649">&#171;extend&#187;</text></g><!--link UC_report to UC_photos--><g id="link_UC_report_UC_photos"><path d="M362.32,209.0379 C428.89,225.8079 519.2217,248.5626 589.4217,266.2426 " fill="none" id="UC_report-to-UC_photos" style="stroke:#181818;stroke-width:1.0;stroke-dasharray:7.0,7.0;"/><polygon fill="#181818" points="595.24,267.7079,587.4894,261.631,590.3914,266.4868,585.5356,269.3888,595.24,267.7079" style="stroke:#181818;stroke-width:1.0;"/><text fill="#000000" font-family="Helvetica" font-size="13" lengthAdjust="spacing" textLength="55.497" x="459" y="230.4649">&#171;extend&#187;</text></g><!--link UC_report to UC_calc--><g id="link_UC_report_UC_calc"><path d="M382.69,203.9179 C399.52,210.4879 415.32,219.9479 427,233.5679 C486.08,302.4679 415.73,354.7379 457,435.5679 C482.15,484.8279 498.91,493.5579 546,522.5679 C561.97,532.4079 574.5897,538.4643 592.5097,545.0643 " fill="none" id="UC_report-to-UC_calc" style="stroke:#181818;stroke-width:1.0;stroke-dasharray:7.0,7.0;"/><polygon fill="#181818" points="598.14,547.1379,591.077,540.2739,593.4481,545.4099,588.3122,547.781,598.14,547.1379" style="stroke:#181818;stroke-width:1.0;"/><text fill="#000000" font-family="Helvetica" font-size="13" lengthAdjust="spacing" textLength="57.5771" x="458" y="431.4649">&#171;include&#187;</text></g><!--reverse link UC_calc to Sys--><g id="link_UC_calc_Sys"><path d="M830.67,570.5679 C888.85,570.5679 945.15,570.5679 979.78,570.5679 " fill="none" id="UC_calc-backto-Sys" style="stroke:#181818;stroke-width:1.0;"/><polygon fill="#181818" points="824.67,570.5679,833.67,574.5679,829.67,570.5679,833.67,566.5679,824.67,570.5679" style="stroke:#181818;stroke-width:1.0;"/></g><!--SRC=[XLN1Rjj83BthAmZl9JqaYwO5jYZI0AuROtjfWoRjAK11ZsXfsj5G68wSUXS5zYFs1_81FVNMg_-aNrAEPAbI4Y0-sUGZ-SXvfAEDZk2S9Lu6D9_Xvt__mmA51NA2zyAmPeFE_eCvotCu3rnRYXWiPvcZTOJ846nHHiXj81Cj-qm-MrzZm0fMch48tFXymOu3_B5iFoE4b9husle2rkY4HXuqaSD5t2exl2RXQkniX0mAlRoT_so-F5u-kmV88QUm1nq__Uln_Ca8bDCQ6nUNxECRh0XcVvFRKBG6PrdMye3PgFCPeC3RQq-XTowrzvMMWNaJozQzV0ad9_GbKl3eJazxu8MLI1Msa8kjA4QsoQA8B8qFVQ7zpgRFSSuXebEM3kenYtypwFk3sMjlZSK0Gc9tttrRuVtYe-F2-Z5kRgZMUAZPxRwb5c5xvR5HTlh69eMcXyynibpvWrf96mLgSdpKvzIcAXdd_401AYjGeHYEA3smfdW7bojxfprgaJtyocz16ercRvK6yH2ViDQDCvpvJMeoa1ABf4r8v9e29lhSXtNUSTWxafgzAW1CGv94cYO8Q_k9jSdZnpfNAXeVqwlilltvXeTUr_OBvG-dklBAGlHxjobzj6cKNpKDBrG2GNlWbL3OwCZPau2pgq13uvuZJIOtppybUa6tCNQhwH1A2ZRNyHsKA17XwK2wBXFgzkHBBQnZQfNKJt2es3ctKwN4fkr7nK9XRTsGFh3-eZ7s5Oagt6wm7Oio_Vs4dJrEu0jqfd7f8Ir9mQsqzuoq7Q5YzyF39kNn2BeUwa4tjAVto6HViwnTGJWyFFqjz8cfq-d4r2foOjbhR6BR2sXYwmSqJRUVnAsCGyjPJmoEZaxJJNYk6s-zSKrEkl93gTRTg-qXK2UgXr2jX5fGka8-lm_JwMGAkgUUZljkjTPwSdYOpbYMfMgmufY8yNgoX6V3quBe_TK31IMkhBCgMR6WBpyilg9rfNOtC5zSllxm5hQmnOGFtTBilYVLYseoHq1GAQ5679Jwrw3b7AcqFkhX8ZXv0LYgP1uTPTeK979xYjrVLSUmN-sBn4fft3aDe9Mg94BrAixiRf9grQpNijhTwF7aTfLQ3OzA_G80]--></g></svg>