<svg xmlns="http://www.w3.org/2000/svg" xmlns:xlink="http://www.w3.org/1999/xlink" contentStyleType="text/css" height="1737px" preserveAspectRatio="none" style="width:1246px;height:1737px;background:#FFFFFF;" version="1.1" viewBox="0 0 1246 1737" width="1246px" zoomAndPan="magnify"><title>PostTrack &#8212; Casos de Uso focalizados: Veterinario / Administrador</title><defs/><g><text fill="#000000" font-family="Helvetica" font-size="14" font-weight="bold" lengthAdjust="spacing" textLength="464.5603" x="384.1567" y="24.9659">PostTrack &#8212; Casos de Uso focalizados: Veterinario / Administrador</text><!--cluster PostTrack ? Consola cl?nica--><g id="cluster_PostTrack &#8212; Consola cl&#237;nica"><rect fill="none" height="1374" rx="2.5" ry="2.5" style="stroke:#181818;stroke-width:1.0;" width="848.5" x="282" y="143.5679"/><text fill="#000000" font-family="Helvetica" font-size="14" font-weight="bold" lengthAdjust="spacing" textLength="194.1933" x="609.1534" y="160.5339">PostTrack &#8212; Consola cl&#237;nica</text></g><!--cluster Sesi?n y contexto--><g id="cluster_Sesi&#243;n y contexto"><path d="M328,588.5679 L451.5695,588.5679 A3.75,3.75 0 0 1 454.0695,591.0679 L461.0695,613.6358 L610,613.6358 A2.5,2.5 0 0 1 612.5,616.1358 L612.5,772.0679 A2.5,2.5 0 0 1 610,774.5679 L328,774.5679 A2.5,2.5 0 0 1 325.5,772.0679 L325.5,591.0679 A2.5,2.5 0 0 1 328,588.5679 " fill="none" style="stroke:#000000;stroke-width:1.5;"/><line style="stroke:#000000;stroke-width:1.5;" x1="325.5" x2="461.0695" y1="613.6358" y2="613.6358"/><text fill="#000000" font-family="Helvetica" font-size="14" font-weight="bold" lengthAdjust="spacing" textLength="122.5695" x="329.5" y="605.5339">Sesi&#243;n y contexto</text></g><!--cluster Revisi?n de reportes--><g id="cluster_Revisi&#243;n de reportes"><path d="M308.5,189.5679 L452.5795,189.5679 A3.75,3.75 0 0 1 455.0795,192.0679 L462.0795,214.6358 L1104,214.6358 A2.5,2.5 0 0 1 1106.5,217.1358 L1106.5,562.0679 A2.5,2.5 0 0 1 1104,564.5679 L308.5,564.5679 A2.5,2.5 0 0 1 306,562.0679 L306,192.0679 A2.5,2.5 0 0 1 308.5,189.5679 " fill="none" style="stroke:#000000;stroke-width:1.5;"/><line style="stroke:#000000;stroke-width:1.5;" x1="306" x2="462.0795" y1="214.6358" y2="214.6358"/><text fill="#000000" font-family="Helvetica" font-size="14" font-weight="bold" lengthAdjust="spacing" textLength="143.0795" x="310" y="206.5339">Revisi&#243;n de reportes</text></g><!--cluster Gesti?n cl?nica--><g id="cluster_Gesti&#243;n cl&#237;nica"><path d="M314.5,798.5679 L417.5736,798.5679 A3.75,3.75 0 0 1 420.0736,801.0679 L427.0736,823.6358 L623.5,823.6358 A2.5,2.5 0 0 1 626,826.1358 L626,1272.0679 A2.5,2.5 0 0 1 623.5,1274.5679 L314.5,1274.5679 A2.5,2.5 0 0 1 312,1272.0679 L312,801.0679 A2.5,2.5 0 0 1 314.5,798.5679 " fill="none" style="stroke:#000000;stroke-width:1.5;"/><line style="stroke:#000000;stroke-width:1.5;" x1="312" x2="427.0736" y1="823.6358" y2="823.6358"/><text fill="#000000" font-family="Helvetica" font-size="14" font-weight="bold" lengthAdjust="spacing" textLength="102.0736" x="316" y="815.5339">Gesti&#243;n cl&#237;nica</text></g><!--cluster Administraci?n--><g id="cluster_Administraci&#243;n"><path d="M328.5,1298.5679 L436.6836,1298.5679 A3.75,3.75 0 0 1 439.1836,1301.0679 L446.1836,1323.6358 L609.5,1323.6358 A2.5,2.5 0 0 1 612,1326.1358 L612,1491.0679 A2.5,2.5 0 0 1 609.5,1493.5679 L328.5,1493.5679 A2.5,2.5 0 0 1 326,1491.0679 L326,1301.0679 A2.5,2.5 0 0 1 328.5,1298.5679 " fill="none" style="stroke:#000000;stroke-width:1.5;"/><line style="stroke:#000000;stroke-width:1.5;" x1="326" x2="446.1836" y1="1323.6358" y2="1323.6358"/><text fill="#000000" font-family="Helvetica" font-size="14" font-weight="bold" lengthAdjust="spacing" textLength="107.1836" x="330" y="1315.5339">Administraci&#243;n</text></g><g id="elem_UC_login"><ellipse cx="468.7836" cy="644.3246" fill="#E8F8F5" rx="74.2836" ry="17.2567" style="stroke:#148F77;stroke-width:0.5;"/><text fill="#000000" font-family="Helvetica" font-size="14" lengthAdjust="spacing" textLength="86.6597" x="422.4538" y="649.0576">Iniciar sesi&#243;n</text></g><g id="elem_UC_clinic"><ellipse cx="469.163" cy="727.5219" fill="#E8F8F5" rx="127.663" ry="30.4539" style="stroke:#148F77;stroke-width:0.5;"/><text fill="#000000" font-family="Helvetica" font-size="14" lengthAdjust="spacing" textLength="161.1674" x="385.5793" y="722.7209">Seleccionar cl&#237;nica activa</text><text fill="#000000" font-family="Helvetica" font-size="14" lengthAdjust="spacing" textLength="74.0317" x="429.1471" y="741.7888">(X-Clinic-Id)</text></g><g id="elem_UC_dash"><ellipse cx="468.8452" cy="329.637" fill="#E8F8F5" rx="110.8452" ry="24.569" style="stroke:#148F77;stroke-width:0.5;"/><text fill="#000000" font-family="Helvetica" font-size="14" lengthAdjust="spacing" textLength="180.5013" x="375.5945" y="334.3699">Ver tablero con estad&#237;sticas</text></g><g id="elem_UC_alerts"><ellipse cx="965.623" cy="254.7925" fill="#E8F8F5" rx="121.623" ry="26.7246" style="stroke:#148F77;stroke-width:0.5;"/><text fill="#000000" font-family="Helvetica" font-size="14" lengthAdjust="spacing" textLength="205.0152" x="861.1003" y="259.1418">Ver alertas en tiempo real (SSE)</text></g><g id="elem_UC_missing"><ellipse cx="965.6691" cy="343.5017" fill="#E8F8F5" rx="125.1691" ry="27.4338" style="stroke:#148F77;stroke-width:0.5;"/><text fill="#000000" font-family="Helvetica" font-size="14" lengthAdjust="spacing" textLength="212.8692" x="857.9206" y="347.5535">Ver reportes faltantes (vencidos)</text></g><g id="elem_UC_inbox"><ellipse cx="468.9695" cy="421.3618" fill="#E8F8F5" rx="146.9695" ry="31.7939" style="stroke:#148F77;stroke-width:0.5;"/><text fill="#000000" font-family="Helvetica" font-size="14" lengthAdjust="spacing" textLength="158.7874" x="389.5758" y="415.2598">Ver bandeja de reportes</text><text fill="#000000" font-family="Helvetica" font-size="14" lengthAdjust="spacing" textLength="203.7552" x="367.0919" y="434.3278">(orden por prioridad de riesgo)</text></g><g id="elem_UC_detail"><ellipse cx="468.8682" cy="518.534" fill="#E8F8F5" rx="128.3682" ry="29.9661" style="stroke:#148F77;stroke-width:0.5;"/><text fill="#000000" font-family="Helvetica" font-size="14" lengthAdjust="spacing" textLength="147.1394" x="395.2985" y="512.432">Ver detalle del reporte</text><text fill="#000000" font-family="Helvetica" font-size="14" lengthAdjust="spacing" textLength="165.2974" x="386.2195" y="531.5">(respuestas, fotos, notas)</text></g><g id="elem_UC_validate"><ellipse cx="965.4819" cy="521.7643" fill="#E8F8F5" rx="123.9819" ry="27.1964" style="stroke:#148F77;stroke-width:0.5;"/><text fill="#000000" font-family="Helvetica" font-size="14" lengthAdjust="spacing" textLength="210.2512" x="858.8133" y="525.9157">Validar / corregir nivel de riesgo</text></g><g id="elem_UC_markrev"><ellipse cx="965.3352" cy="432.335" fill="#E8F8F5" rx="119.3352" ry="26.267" style="stroke:#148F77;stroke-width:0.5;"/><text fill="#000000" font-family="Helvetica" font-size="14" lengthAdjust="spacing" textLength="199.8913" x="862.8939" y="436.8763">Marcar reporte como revisado</text></g><g id="elem_UC_owner"><ellipse cx="468.9923" cy="942.3664" fill="#E8F8F5" rx="109.4923" ry="24.2985" style="stroke:#148F77;stroke-width:0.5;"/><text fill="#000000" font-family="Helvetica" font-size="14" lengthAdjust="spacing" textLength="177.3653" x="377.3097" y="947.0993">Buscar y crear propietarios</text></g><g id="elem_UC_patient"><ellipse cx="469.1132" cy="1029.3906" fill="#E8F8F5" rx="122.1132" ry="26.8226" style="stroke:#148F77;stroke-width:0.5;"/><text fill="#000000" font-family="Helvetica" font-size="14" lengthAdjust="spacing" textLength="206.1072" x="364.1446" y="1033.6987">Buscar, crear y editar pacientes</text></g><g id="elem_UC_mon"><ellipse cx="468.8711" cy="1135.3391" fill="#E8F8F5" rx="140.8711" ry="43.7712" style="stroke:#148F77;stroke-width:0.5;"/><text fill="#000000" font-family="Helvetica" font-size="14" lengthAdjust="spacing" textLength="181.4393" x="375.1514" y="1121.0041">Crear monitoreo quir&#250;rgico</text><text fill="#000000" font-family="Helvetica" font-size="14" lengthAdjust="spacing" textLength="153.0194" x="389.3614" y="1140.072">(tipo, fecha, frecuencia,</text><text fill="#000000" font-family="Helvetica" font-size="14" lengthAdjust="spacing" textLength="174.4534" x="378.6444" y="1159.14">preguntas personalizadas)</text></g><g id="elem_UC_release"><ellipse cx="468.8972" cy="1236.7473" fill="#E8F8F5" rx="96.3972" ry="21.6794" style="stroke:#148F77;stroke-width:0.5;"/><text fill="#000000" font-family="Helvetica" font-size="14" lengthAdjust="spacing" textLength="146.1595" x="392.8174" y="1241.4803">Registrar salida a casa</text></g><g id="elem_UC_discharge"><ellipse cx="469.241" cy="859.4161" fill="#E8F8F5" rx="102.241" ry="22.8482" style="stroke:#148F77;stroke-width:0.5;"/><text fill="#000000" font-family="Helvetica" font-size="14" lengthAdjust="spacing" textLength="160.2994" x="386.0913" y="864.1491">Dar de alta el monitoreo</text></g><g id="elem_UC_vlink"><ellipse cx="469.1052" cy="1361.489" fill="#E8F8F5" rx="112.6052" ry="24.921" style="stroke:#148F77;stroke-width:0.5;"/><text fill="#000000" font-family="Helvetica" font-size="14" lengthAdjust="spacing" textLength="184.5613" x="373.8246" y="1366.2219">Vincular veterinario a cl&#237;nica</text></g><g id="elem_UC_vunlink"><ellipse cx="468.9365" cy="1449.3552" fill="#E8F8F5" rx="126.9365" ry="27.7873" style="stroke:#148F77;stroke-width:0.5;"/><text fill="#000000" font-family="Helvetica" font-size="14" lengthAdjust="spacing" textLength="216.7471" x="359.5803" y="1453.2587">Desvincular veterinario de cl&#237;nica</text></g><!--entity Vet--><g id="elem_Vet"><ellipse cx="198.5049" cy="704.0679" fill="#F1F1F1" rx="16" ry="16" style="stroke:#181818;stroke-width:0.5;"/><path d="M198.5049,724.0679 C202.5049,724.0679 205.5049,724.0679 209.5049,720.0679 C217.5049,720.0679 225.5049,728.0679 225.5049,736.0679 L225.5049,740.0679 C225.5049,744.0679 221.5049,748.0679 217.5049,748.0679 L179.5049,748.0679 C175.5049,748.0679 171.5049,744.0679 171.5049,740.0679 L171.5049,736.0679 C171.5049,728.0679 179.5049,720.0679 187.5049,720.0679 C191.5049,724.0679 194.5049,724.0679 198.5049,724.0679 " fill="#F1F1F1" style="stroke:#181818;stroke-width:0.5;"/><text fill="#000000" font-family="Helvetica" font-size="14" lengthAdjust="spacing" textLength="73.0097" x="162" y="763.5339">Veterinario</text></g><!--entity Admin--><g id="elem_Admin"><ellipse cx="53.3898" cy="1338.0679" fill="#F1F1F1" rx="16" ry="16" style="stroke:#181818;stroke-width:0.5;"/><path d="M53.3898,1358.0679 C57.3898,1358.0679 60.3898,1358.0679 64.3898,1354.0679 C72.3898,1354.0679 80.3898,1362.0679 80.3898,1370.0679 L80.3898,1374.0679 C80.3898,1378.0679 76.3898,1382.0679 72.3898,1382.0679 L34.3898,1382.0679 C30.3898,1382.0679 26.3898,1378.0679 26.3898,1374.0679 L26.3898,1370.0679 C26.3898,1362.0679 34.3898,1354.0679 42.3898,1354.0679 C46.3898,1358.0679 49.3898,1358.0679 53.3898,1358.0679 " fill="#F1F1F1" style="stroke:#181818;stroke-width:0.5;"/><text fill="#000000" font-family="Helvetica" font-size="14" lengthAdjust="spacing" textLength="94.7797" x="6" y="1397.5339">Administrador</text></g><!--entity Sys--><g id="elem_Sys"><ellipse cx="1211.9369" cy="279.6358" fill="#F1F1F1" rx="16" ry="16" style="stroke:#181818;stroke-width:0.5;"/><path d="M1211.9369,299.6358 C1215.9369,299.6358 1218.9369,299.6358 1222.9369,295.6358 C1230.9369,295.6358 1238.9369,303.6358 1238.9369,311.6358 L1238.9369,315.6358 C1238.9369,319.6358 1234.9369,323.6358 1230.9369,323.6358 L1192.9369,323.6358 C1188.9369,323.6358 1184.9369,319.6358 1184.9369,315.6358 L1184.9369,311.6358 C1184.9369,303.6358 1192.9369,295.6358 1200.9369,295.6358 C1204.9369,299.6358 1207.9369,299.6358 1211.9369,299.6358 " fill="#F1F1F1" style="stroke:#181818;stroke-width:0.5;"/><text fill="#000000" font-family="Helvetica" font-size="14" lengthAdjust="spacing" textLength="51.8978" x="1185.988" y="339.1018">Sistema</text><text fill="#000000" font-family="Helvetica" font-size="14" font-style="italic" lengthAdjust="spacing" textLength="55.8738" x="1184" y="259.0339">&#171;system&#187;</text></g><!--entity Mail--><g id="elem_Mail"><ellipse cx="965.3978" cy="1650.1358" fill="#F1F1F1" rx="16" ry="16" style="stroke:#181818;stroke-width:0.5;"/><path d="M965.3978,1670.1358 C969.3978,1670.1358 972.3978,1670.1358 976.3978,1666.1358 C984.3978,1666.1358 992.3978,1674.1358 992.3978,1682.1358 L992.3978,1686.1358 C992.3978,1690.1358 988.3978,1694.1358 984.3978,1694.1358 L946.3978,1694.1358 C942.3978,1694.1358 938.3978,1690.1358 938.3978,1686.1358 L938.3978,1682.1358 C938.3978,1674.1358 946.3978,1666.1358 954.3978,1666.1358 C958.3978,1670.1358 961.3978,1670.1358 965.3978,1670.1358 " fill="#F1F1F1" style="stroke:#181818;stroke-width:0.5;"/><text fill="#000000" font-family="Helvetica" font-size="14" lengthAdjust="spacing" textLength="117.7955" x="906.5" y="1709.6018">Servicio de correo</text><text fill="#000000" font-family="Helvetica" font-size="14" lengthAdjust="spacing" textLength="46.7598" x="906.5" y="1728.6697">(Brevo)</text><text fill="#000000" font-family="Helvetica" font-size="14" font-style="italic" lengthAdjust="spacing" textLength="63.9798" x="933.4079" y="1629.5339">&#171;external&#187;</text></g><g id="elem_GMN49"><path d="M816,46.0679 L816,126.892 L1115.1482,126.892 L1115.1482,56.0679 L1105.1482,46.0679 L816,46.0679 " fill="#FEFFDD" style="stroke:#181818;stroke-width:0.5;"/><path d="M1105.1482,46.0679 L1105.1482,56.0679 L1115.1482,56.0679 L1105.1482,46.0679 " fill="#FEFFDD" style="stroke:#181818;stroke-width:1.0;"/><text fill="#000000" font-family="Helvetica" font-size="13" lengthAdjust="spacing" textLength="189.4752" x="822" y="64.9649">Establece Report.validated_risk</text><text fill="#000000" font-family="Helvetica" font-size="13" lengthAdjust="spacing" textLength="199.8232" x="822" y="82.6709">(correcci&#243;n del riesgo calculado).</text><text fill="#000000" font-family="Helvetica" font-size="13" lengthAdjust="spacing" textLength="278.1482" x="822" y="100.377">Marcar revisado fija review_status=REVIEWED</text><text fill="#000000" font-family="Helvetica" font-size="13" lengthAdjust="spacing" textLength="86.7881" x="822" y="118.083">y reviewed_at.</text></g><g id="elem_GMN52"><path d="M808,1534.0679 L808,1579.4799 L1122.6572,1579.4799 L1122.6572,1544.0679 L1112.6572,1534.0679 L808,1534.0679 " fill="#FEFFDD" style="stroke:#181818;stroke-width:0.5;"/><path d="M1112.6572,1534.0679 L1112.6572,1544.0679 L1122.6572,1544.0679 L1112.6572,1534.0679 " fill="#FEFFDD" style="stroke:#181818;stroke-width:1.0;"/><text fill="#000000" font-family="Helvetica" font-size="13" lengthAdjust="spacing" textLength="235.5992" x="814" y="1552.9649">El acceso a todos los datos se filtra por</text><text fill="#000000" font-family="Helvetica" font-size="13" lengthAdjust="spacing" textLength="293.6572" x="814" y="1570.6709">la cl&#237;nica seleccionada (ClinicAccessMiddleware).</text></g><!--link Admin to Vet--><g id="link_Admin_Vet"><path d="M63.55,1321.4279 C89.28,1207.3779 158.6395,899.8368 184.4295,785.4968 " fill="none" id="Admin-to-Vet" style="stroke:#181818;stroke-width:1.0;"/><polygon fill="none" points="188.39,767.9379,178.5765,784.1766,190.2825,786.817,188.39,767.9379" style="stroke:#181818;stroke-width:1.0;"/></g><!--link Vet to UC_login--><g id="link_Vet_UC_login"><path d="M235.08,700.5979 C246.93,692.7479 260.54,684.8679 274,679.5679 C313.64,663.9479 354.6582,655.997 392.4482,651.177 " fill="none" id="Vet-to-UC_login" style="stroke:#181818;stroke-width:1.0;"/><polygon fill="#181818" points="398.4,650.4179,388.9662,647.5888,393.4402,651.0505,389.9784,655.5245,398.4,650.4179" style="stroke:#181818;stroke-width:1.0;"/></g><!--link Vet to UC_clinic--><g id="link_Vet_UC_clinic"><path d="M235.15,727.5679 C262.62,727.5679 296.34,727.5679 335.23,727.5679 " fill="none" id="Vet-to-UC_clinic" style="stroke:#181818;stroke-width:1.0;"/><polygon fill="#181818" points="341.23,727.5679,332.23,723.5679,336.23,727.5679,332.23,731.5679,341.23,727.5679" style="stroke:#181818;stroke-width:1.0;"/></g><!--link Vet to UC_dash--><g id="link_Vet_UC_dash"><path d="M202.48,687.5379 C209.53,604.1479 230.01,415.8679 274,371.5679 C296.22,349.1979 321.4456,338.5687 352.2656,332.7087 " fill="none" id="Vet-to-UC_dash" style="stroke:#181818;stroke-width:1.0;"/><polygon fill="#181818" points="358.16,331.5879,348.5712,329.3394,353.248,332.5219,350.0656,337.1986,358.16,331.5879" style="stroke:#181818;stroke-width:1.0;"/></g><!--link Vet to UC_alerts--><g id="link_Vet_UC_alerts"><path d="M198.89,687.3379 C198.26,580.1279 203.27,292.0379 274,237.5679 C463.77,91.4079 772.162,181.6081 900.992,229.2181 " fill="none" id="Vet-to-UC_alerts" style="stroke:#181818;stroke-width:1.0;"/><polygon fill="#181818" points="906.62,231.2979,899.5646,224.4261,901.93,229.5647,896.7915,231.9301,906.62,231.2979" style="stroke:#181818;stroke-width:1.0;"/></g><!--link Vet to UC_missing--><g id="link_Vet_UC_missing"><path d="M200.11,687.2979 C202.53,588.7579 214.53,339.7579 274,287.5679 C358.21,213.6579 672.65,235.4279 778,273.5679 C794.32,279.4779 792.66,290.4379 808,298.5679 C828.61,309.4879 846.4314,316.3631 868.9214,322.9431 " fill="none" id="Vet-to-UC_missing" style="stroke:#181818;stroke-width:1.0;"/><polygon fill="#181818" points="874.68,324.6279,867.1653,318.2616,869.8812,323.2239,864.9189,325.9398,874.68,324.6279" style="stroke:#181818;stroke-width:1.0;"/></g><!--link Vet to UC_inbox--><g id="link_Vet_UC_inbox"><path d="M199.43,687.4779 C201.6,630.9679 214.19,528.3379 274,470.5679 C291.12,454.0379 307.2622,444.728 330.0822,437.198 " fill="none" id="Vet-to-UC_inbox" style="stroke:#181818;stroke-width:1.0;"/><polygon fill="#181818" points="335.78,435.3179,325.9799,434.3396,331.0318,436.8847,328.4867,441.9367,335.78,435.3179" style="stroke:#181818;stroke-width:1.0;"/></g><!--link Vet to UC_detail--><g id="link_Vet_UC_detail"><path d="M217.8,687.4479 C230.68,662.7479 249.9,631.8479 274,610.5679 C308.23,580.3479 348.5331,560.1657 387.0931,545.0657 " fill="none" id="Vet-to-UC_detail" style="stroke:#181818;stroke-width:1.0;"/><polygon fill="#181818" points="392.68,542.8779,382.8411,542.435,388.0242,544.7011,385.7582,549.8842,392.68,542.8779" style="stroke:#181818;stroke-width:1.0;"/></g><!--link Vet to UC_owner--><g id="link_Vet_UC_owner"><path d="M206.05,767.6379 C214.66,807.1479 233.72,866.3179 274,899.5679 C298.68,919.9379 325.051,930.0389 356.161,936.1089 " fill="none" id="Vet-to-UC_owner" style="stroke:#181818;stroke-width:1.0;"/><polygon fill="#181818" points="362.05,937.2579,353.9826,931.6084,357.1425,936.3004,352.4506,939.4604,362.05,937.2579" style="stroke:#181818;stroke-width:1.0;"/></g><!--link Vet to UC_patient--><g id="link_Vet_UC_patient"><path d="M199.28,767.8179 C201.26,824.5179 213.63,927.3879 274,984.5679 C294.9,1004.3579 316.8868,1014.6332 344.9168,1021.3832 " fill="none" id="Vet-to-UC_patient" style="stroke:#181818;stroke-width:1.0;"/><polygon fill="#181818" points="350.75,1022.7879,342.9366,1016.792,345.889,1021.6173,341.0636,1024.5697,350.75,1022.7879" style="stroke:#181818;stroke-width:1.0;"/></g><!--link Vet to UC_mon--><g id="link_Vet_UC_mon"><path d="M203.13,767.7079 C211.25,848.9279 233.44,1028.8579 274,1073.5679 C292.12,1093.5379 311.007,1105.0692 336.527,1114.2892 " fill="none" id="Vet-to-UC_mon" style="stroke:#181818;stroke-width:1.0;"/><polygon fill="#181818" points="342.17,1116.3279,335.0646,1109.5078,337.4675,1114.629,332.3463,1117.0318,342.17,1116.3279" style="stroke:#181818;stroke-width:1.0;"/></g><!--link Vet to UC_release--><g id="link_Vet_UC_release"><path d="M200.21,767.5979 C202.88,869.5379 215.42,1135.2379 274,1196.5679 C299.36,1223.1179 331.3417,1233.772 366.9617,1237.992 " fill="none" id="Vet-to-UC_release" style="stroke:#181818;stroke-width:1.0;"/><polygon fill="#181818" points="372.92,1238.6979,364.4531,1233.6668,367.9547,1238.1097,363.5119,1241.6113,372.92,1238.6979" style="stroke:#181818;stroke-width:1.0;"/></g><!--link Vet to UC_discharge--><g id="link_Vet_UC_discharge"><path d="M235.23,751.6279 C247.31,759.3579 261.03,767.6879 274,774.5679 C321.26,799.6479 371.9082,821.4271 411.6182,837.4971 " fill="none" id="Vet-to-UC_discharge" style="stroke:#181818;stroke-width:1.0;"/><polygon fill="#181818" points="417.18,839.7479,410.3378,832.6639,412.5451,837.8723,407.3367,840.0796,417.18,839.7479" style="stroke:#181818;stroke-width:1.0;"/></g><!--link Admin to UC_vlink--><g id="link_Admin_UC_vlink"><path d="M101.13,1361.5679 C162.59,1361.5679 266.7,1361.5679 350.3,1361.5679 " fill="none" id="Admin-to-UC_vlink" style="stroke:#181818;stroke-width:1.0;"/><polygon fill="#181818" points="356.3,1361.5679,347.3,1357.5679,351.3,1361.5679,347.3,1365.5679,356.3,1361.5679" style="stroke:#181818;stroke-width:1.0;"/></g><!--link Admin to UC_vunlink--><g id="link_Admin_UC_vunlink"><path d="M101.13,1371.4879 C167.77,1385.6779 285.7213,1410.7794 370.9413,1428.9094 " fill="none" id="Admin-to-UC_vunlink" style="stroke:#181818;stroke-width:1.0;"/><polygon fill="#181818" points="376.81,1430.1579,368.8394,1424.3727,371.9194,1429.1175,367.1747,1432.1976,376.81,1430.1579" style="stroke:#181818;stroke-width:1.0;"/></g><!--link UC_detail to UC_validate--><g id="link_UC_detail_UC_validate"><path d="M597.67,519.3379 C672.64,519.7979 760.9401,520.3315 835.1601,520.7815 " fill="none" id="UC_detail-to-UC_validate" style="stroke:#181818;stroke-width:1.0;stroke-dasharray:7.0,7.0;"/><polygon fill="#181818" points="841.16,520.8179,832.1844,516.7634,836.1601,520.7876,832.1359,524.7633,841.16,520.8179" style="stroke:#181818;stroke-width:1.0;"/><text fill="#000000" font-family="Helvetica" font-size="13" lengthAdjust="spacing" textLength="55.497" x="684.5" y="516.4649">&#171;extend&#187;</text></g><!--link UC_detail to UC_markrev--><g id="link_UC_detail_UC_markrev"><path d="M572.46,500.7479 C660.3,485.4679 779.8687,464.6758 865.0387,449.8658 " fill="none" id="UC_detail-to-UC_markrev" style="stroke:#181818;stroke-width:1.0;stroke-dasharray:7.0,7.0;"/><polygon fill="#181818" points="870.95,448.8379,861.3978,446.4389,866.0239,449.6945,862.7683,454.3206,870.95,448.8379" style="stroke:#181818;stroke-width:1.0;"/><text fill="#000000" font-family="Helvetica" font-size="13" lengthAdjust="spacing" textLength="55.497" x="684.5" y="461.4649">&#171;extend&#187;</text></g><!--link UC_dash to UC_alerts--><g id="link_UC_dash_UC_alerts"><path d="M560.99,315.7679 C647.18,302.6979 770.3778,284.0074 859.2178,270.5374 " fill="none" id="UC_dash-to-UC_alerts" style="stroke:#181818;stroke-width:1.0;stroke-dasharray:7.0,7.0;"/><polygon fill="#181818" points="865.15,269.6379,855.6521,267.0323,860.2065,270.3875,856.8513,274.9419,865.15,269.6379" style="stroke:#181818;stroke-width:1.0;"/><text fill="#000000" font-family="Helvetica" font-size="13" lengthAdjust="spacing" textLength="57.5771" x="683.5" y="279.4649">&#171;include&#187;</text></g><!--link UC_dash to UC_missing--><g id="link_UC_dash_UC_missing"><path d="M556.11,344.8679 C584.62,349.2379 616.58,353.4079 646,355.5679 C713.46,360.5279 783.1429,358.4009 843.7829,354.4209 " fill="none" id="UC_dash-to-UC_missing" style="stroke:#181818;stroke-width:1.0;stroke-dasharray:7.0,7.0;"/><polygon fill="#181818" points="849.77,354.0279,840.5274,350.6259,844.7807,354.3554,841.0513,358.6088,849.77,354.0279" style="stroke:#181818;stroke-width:1.0;"/><text fill="#000000" font-family="Helvetica" font-size="13" lengthAdjust="spacing" textLength="57.5771" x="683.5" y="351.4649">&#171;include&#187;</text></g><!--link UC_owner to Mail--><g id="link_UC_owner_Mail"><path d="M575.27,948.6879 C597.92,955.1179 619.41,966.1279 634,984.5679 C655.9,1012.2379 622.98,1592.8279 646,1619.5679 C709.49,1693.3079 827.2608,1692.5961 900.4108,1684.0261 " fill="none" id="UC_owner-to-Mail" style="stroke:#181818;stroke-width:1.0;stroke-dasharray:7.0,7.0;"/><polygon fill="#181818" points="906.37,1683.3279,896.9657,1680.4023,901.404,1683.9097,897.8966,1688.348,906.37,1683.3279" style="stroke:#181818;stroke-width:1.0;"/><text fill="#000000" font-family="Helvetica" font-size="13" lengthAdjust="spacing" textLength="57.5771" x="683.66" y="1597.4649">&#171;include&#187;</text><text fill="#000000" font-family="Helvetica" font-size="13" lengthAdjust="spacing" textLength="130.8971" x="647" y="1615.1709">(correo de activaci&#243;n)</text></g><!--reverse link UC_alerts to Sys--><g id="link_UC_alerts_Sys"><path d="M1070.115,271.0936 C1113.345,277.9936 1154.92,284.6179 1183.85,289.2379 " fill="none" id="UC_alerts-backto-Sys" style="stroke:#181818;stroke-width:1.0;"/><polygon fill="#181818" points="1064.19,270.1479,1072.447,275.5165,1069.1275,270.936,1073.708,267.6165,1064.19,270.1479" style="stroke:#181818;stroke-width:1.0;"/></g><!--reverse link UC_missing to Sys--><g id="link_UC_missing_Sys"><path d="M1063.4183,323.7458 C1108.3583,314.5558 1153.45,305.3379 1183.87,299.1179 " fill="none" id="UC_missing-backto-Sys" style="stroke:#181818;stroke-width:1.0;"/><polygon fill="#181818" points="1057.54,324.9479,1067.1589,327.0637,1062.4386,323.9462,1065.5561,319.2259,1057.54,324.9479" style="stroke:#181818;stroke-width:1.0;"/></g><!--link UC_validate to GMN49--><g id="link_UC_validate_GMN49"><path d="M841.38,520.1179 C796.3,512.7679 749.48,495.7479 721,459.0679 C658.3,378.3279 670.07,317.6979 721,229.0679 C747.87,182.3179 796.63,149.4579 843.59,127.1779 " fill="none" id="UC_validate-GMN49" style="stroke:#181818;stroke-width:1.0;stroke-dasharray:7.0,7.0;"/></g><!--link UC_clinic to GMN52--><g id="link_UC_clinic_GMN52"><path d="M536.88,753.6379 C569.56,769.0879 607.45,791.3979 634,820.5679 C843.8,1051.0279 938.57,1436.8579 959.78,1533.8979 " fill="none" id="UC_clinic-GMN52" style="stroke:#181818;stroke-width:1.0;stroke-dasharray:7.0,7.0;"/></g><!--SRC=[RLRDRXit4BxlKmpKYmrO3WgqY16u0c97RdrmKLYDsqC0WoP7CckAL4ck7AKDq8VeQ-JKMwz-apv9Ft9_pDLQbzNEFx-PRxXHHyFqamlnPo_a0_ttrzzqBe8Bf9ZU1qTB9uNHduHouGtTS6IlhV3QqIjwgzRQwX0zbBwg32yZHKTUh-uZAUrPHkri5HwqtGWlrdI732llQglEdN6Ulhh8ly8Yt2FMexOhMWeJkD086PrVn1sg5OyStBfKre6b27os7tz-Sd5oyUqBXiuhzgtHrz-SNBn-NHWfNehQn0jduuzYpJJvWSsMevPYKbMv3feKI4n8X8HCfnh0afLPqgaNKF5QPCLY5-ZqDEoIP3RhBTXljGJ4Q85qthFxO0_EF6_TOVQw4jh0ZJ-Y12iC7AkSWQRJFsUvaYfXB-mAO4tsUkjiS4QGD4zVR3eH_L5LH1lenOfJxg2V_h6qGsORaS8b2yAlXOucb_3JmbDeJ7D9xyzlZLlXa0FB1HkME0XWwXEcHkgjm8b-dPuR02Mdb-gm2oAp154-3wgwvgrkwW8adZVEHmwZmcxOKnHtXhrBrHE7ADJJbv0w5xeCIeJxiPk0KuG1MugQrnjCCGj31ul5lAyjsuInRrTF6bc0dluTRDbA3ShqpciT0iPwx7qdhEBVH7amO9Fcqn9UQOC9yre9bIqqXvNhWsfxvpwEGogEmg3rYaqN4o4zXqsT80b787LqU5Y7jpvQSjDcBnouhz2zLyqWhhGdgxU8snVJUM-pPUIX_vNmKlGG8SWw8OjcWXizDC8_G3Pg-lSeDlUydDL1zBCwfEYOLNGhGUKs6eS0OdsxtQDb_vBNKUkq8rOw9cyXDTiyLuthHiGa63gVPwUrinfKPKU_rze__UjNMYQIHhrnG9VblS039ApJ78YZ3tO3y6gRHcp3Fe0HUQSMw2FaCDCrq4vB14JBq198AuBex3su1RkXppkHkazf3WbDwiliMwm3IlCh7e7zlBHaG-fzRcahQuFms-8AADT8EmNWxyDUJHosBpcdvRRlNTlM_tE5yh39iD9cpykb4BIBef1aOXVlBLqBISV1GjGmg8pIaA2GD1DK2BgvA2ExGN5TRyguFVBzhfuz0pOKjIXKVJbqV3mhEKPlslLl5PR_oAmbrDWA27Ks3JhP1CqnjUAnJOlNs2X3agtoLJJGWmNDdPK7CU_wF567rNFMq-aqNNrLaQCJLTX9J7SkHhScjzpRBFEGzxjakiuRvRZJgLklGngS9hcKxMLXsYq5wfWqWieT7iEgNqlD9gAbnWPER_nuYnIn3jzTpsykvx_Cty5wrwgGHSJZ2dYcpSbjhStdJbDgVttD3SukyPa2ZaI7Yu1C-gGIMBkuDv7FW6bflyEsk8sXwsvC4FwWkH_Vfa3XIYjb-55uFYnA-1y0]--></g></svg>