<svg xmlns="http://www.w3.org/2000/svg" xmlns:xlink="http://www.w3.org/1999/xlink" contentStyleType="text/css" height="2228px" preserveAspectRatio="none" style="width:1341px;height:2228px;background:#FFFFFF;" version="1.1" viewBox="0 0 1341 2228" width="1341px" zoomAndPan="magnify"><title>PostTrack &#8212; Diagrama de Casos de Uso (General)</title><defs/><g><text fill="#000000" font-family="Helvetica" font-size="14" font-weight="bold" lengthAdjust="spacing" textLength="342.6206" x="492.2764" y="24.9659">PostTrack &#8212; Diagrama de Casos de Uso (General)</text><!--cluster PostTrack--><g id="cluster_PostTrack"><rect fill="none" height="1983" rx="2.5" ry="2.5" style="stroke:#181818;stroke-width:1.0;" width="837" x="283" y="125.5679"/><text fill="#000000" font-family="Helvetica" font-size="14" font-weight="bold" lengthAdjust="spacing" textLength="69.2857" x="666.8571" y="142.5339">PostTrack</text></g><!--cluster Acceso y consentimiento--><g id="cluster_Acceso y consentimiento"><rect fill="none" height="415" rx="2.5" ry="2.5" style="stroke:#181818;stroke-width:1.0;" width="325" x="313.5" y="1525.5679"/><text fill="#000000" font-family="Helvetica" font-size="14" font-weight="bold" lengthAdjust="spacing" textLength="173.2634" x="389.3683" y="1542.5339">Acceso y consentimiento</text></g><!--cluster Monitoreo en el hogar--><g id="cluster_Monitoreo en el hogar"><rect fill="none" height="463" rx="2.5" ry="2.5" style="stroke:#181818;stroke-width:1.0;" width="308" x="322" y="184.5679"/><text fill="#000000" font-family="Helvetica" font-size="14" font-weight="bold" lengthAdjust="spacing" textLength="155.8474" x="398.0763" y="201.5339">Monitoreo en el hogar</text></g><!--cluster Gesti?n cl?nica y revisi?n--><g id="cluster_Gesti&#243;n cl&#237;nica y revisi&#243;n"><rect fill="none" height="830" rx="2.5" ry="2.5" style="stroke:#181818;stroke-width:1.0;" width="731" x="335" y="671.5679"/><text fill="#000000" font-family="Helvetica" font-size="14" font-weight="bold" lengthAdjust="spacing" textLength="173.2774" x="613.8613" y="688.5339">Gesti&#243;n cl&#237;nica y revisi&#243;n</text></g><!--cluster Administraci?n multicl?nica--><g id="cluster_Administraci&#243;n multicl&#237;nica"><rect fill="none" height="120" rx="2.5" ry="2.5" style="stroke:#181818;stroke-width:1.0;" width="338" x="307" y="1964.5679"/><text fill="#000000" font-family="Helvetica" font-size="14" font-weight="bold" lengthAdjust="spacing" textLength="193.2413" x="379.3794" y="1981.5339">Administraci&#243;n multicl&#237;nica</text></g><!--cluster Procesos autom?ticos--><g id="cluster_Procesos autom&#225;ticos"><rect fill="none" height="476" rx="2.5" ry="2.5" style="stroke:#181818;stroke-width:1.0;" width="340" x="756" y="171.5679"/><text fill="#000000" font-family="Helvetica" font-size="14" font-weight="bold" lengthAdjust="spacing" textLength="153.2714" x="849.3643" y="188.5339">Procesos autom&#225;ticos</text></g><g id="elem_UC_login"><ellipse cx="475.7836" cy="1825.3246" fill="#ECF0F1" rx="74.2836" ry="17.2567" style="stroke:#2C3E50;stroke-width:0.5;"/><text fill="#000000" font-family="Helvetica" font-size="14" lengthAdjust="spacing" textLength="86.6597" x="429.4538" y="1830.0576">Iniciar sesi&#243;n</text></g><g id="elem_UC_selclinic"><ellipse cx="476.1049" cy="1901.4889" fill="#ECF0F1" rx="102.6049" ry="22.921" style="stroke:#2C3E50;stroke-width:0.5;"/><text fill="#000000" font-family="Helvetica" font-size="14" lengthAdjust="spacing" textLength="161.1674" x="392.5212" y="1906.2219">Seleccionar cl&#237;nica activa</text></g><g id="elem_UC_terms"><ellipse cx="475.7903" cy="1595.726" fill="#ECF0F1" rx="146.2903" ry="31.6581" style="stroke:#2C3E50;stroke-width:0.5;"/><text fill="#000000" font-family="Helvetica" font-size="14" lengthAdjust="spacing" textLength="258.257" x="346.6618" y="1599.158">Aceptar pol&#237;tica y autorizaci&#243;n de datos</text></g><g id="elem_UC_profile"><ellipse cx="476.2152" cy="1754.411" fill="#ECF0F1" rx="79.7152" ry="18.343" style="stroke:#2C3E50;stroke-width:0.5;"/><text fill="#000000" font-family="Helvetica" font-size="14" lengthAdjust="spacing" textLength="102.6336" x="421.8984" y="1759.1439">Actualizar perfil</text></g><g id="elem_UC_deactivate"><ellipse cx="476.0624" cy="1681.4804" fill="#ECF0F1" rx="85.0624" ry="19.4125" style="stroke:#2C3E50;stroke-width:0.5;"/><text fill="#000000" font-family="Helvetica" font-size="14" lengthAdjust="spacing" textLength="117.2775" x="414.4237" y="1686.2134">Desactivar cuenta</text></g><g id="elem_UC_pets"><ellipse cx="475.7924" cy="242.3264" fill="#ECF0F1" rx="84.2924" ry="19.2585" style="stroke:#2C3E50;stroke-width:0.5;"/><text fill="#000000" font-family="Helvetica" font-size="14" lengthAdjust="spacing" textLength="115.2196" x="415.1826" y="247.0594">Ver mis mascotas</text></g><g id="elem_UC_petdetail"><ellipse cx="475.9064" cy="327.5492" fill="#ECF0F1" rx="137.9064" ry="29.9813" style="stroke:#2C3E50;stroke-width:0.5;"/><text fill="#000000" font-family="Helvetica" font-size="14" lengthAdjust="spacing" textLength="240.4071" x="355.7029" y="330.9812">Ver detalle de mascota y monitoreos</text></g><g id="elem_UC_report"><ellipse cx="475.7911" cy="499.5261" fill="#ECF0F1" rx="117.7911" ry="25.9582" style="stroke:#2C3E50;stroke-width:0.5;"/><text fill="#000000" font-family="Helvetica" font-size="14" lengthAdjust="spacing" textLength="196.4053" x="374.7547" y="504.197">Enviar reporte postoperatorio</text></g><g id="elem_UC_photos"><ellipse cx="476.2014" cy="605.7082" fill="#ECF0F1" rx="118.7014" ry="26.1403" style="stroke:#2C3E50;stroke-width:0.5;"/><text fill="#000000" font-family="Helvetica" font-size="14" lengthAdjust="spacing" textLength="198.4632" x="374.3367" y="610.3027">Adjuntar evidencia fotogr&#225;fica</text></g><g id="elem_UC_history"><ellipse cx="476.2196" cy="415.8118" fill="#ECF0F1" rx="101.7196" ry="22.7439" style="stroke:#2C3E50;stroke-width:0.5;"/><text fill="#000000" font-family="Helvetica" font-size="14" lengthAdjust="spacing" textLength="159.0534" x="393.6929" y="420.5448">Ver historial de reportes</text></g><g id="elem_UC_dash"><ellipse cx="476.2107" cy="1131.5101" fill="#ECF0F1" rx="102.7107" ry="22.9421" style="stroke:#2C3E50;stroke-width:0.5;"/><text fill="#000000" font-family="Helvetica" font-size="14" lengthAdjust="spacing" textLength="161.4194" x="392.501" y="1136.243">Ver tablero (estad&#237;sticas)</text></g><g id="elem_UC_inbox"><ellipse cx="476.1084" cy="1212.7896" fill="#ECF0F1" rx="101.6084" ry="22.7217" style="stroke:#2C3E50;stroke-width:0.5;"/><text fill="#000000" font-family="Helvetica" font-size="14" lengthAdjust="spacing" textLength="158.7874" x="393.7147" y="1217.5226">Ver bandeja de reportes</text></g><g id="elem_UC_repdetail"><ellipse cx="475.8283" cy="1291.5336" fill="#ECF0F1" rx="95.3283" ry="21.4657" style="stroke:#2C3E50;stroke-width:0.5;"/><text fill="#000000" font-family="Helvetica" font-size="14" lengthAdjust="spacing" textLength="143.5275" x="401.0646" y="1296.2665">Ver detalle de reporte</text></g><g id="elem_UC_validate"><ellipse cx="925.9819" cy="1332.7643" fill="#ECF0F1" rx="123.9819" ry="27.1964" style="stroke:#2C3E50;stroke-width:0.5;"/><text fill="#000000" font-family="Helvetica" font-size="14" lengthAdjust="spacing" textLength="210.2512" x="819.3133" y="1336.9157">Validar / corregir nivel de riesgo</text></g><g id="elem_UC_markrev"><ellipse cx="925.8352" cy="1243.335" fill="#ECF0F1" rx="119.3352" ry="26.267" style="stroke:#2C3E50;stroke-width:0.5;"/><text fill="#000000" font-family="Helvetica" font-size="14" lengthAdjust="spacing" textLength="199.8913" x="823.3939" y="1247.8763">Marcar reporte como revisado</text></g><g id="elem_UC_alerts"><ellipse cx="475.7619" cy="1371.7203" fill="#ECF0F1" rx="106.2619" ry="23.6524" style="stroke:#2C3E50;stroke-width:0.5;"/><text fill="#000000" font-family="Helvetica" font-size="14" lengthAdjust="spacing" textLength="169.8194" x="387.8522" y="1376.4533">Ver alertas en tiempo real</text></g><g id="elem_UC_missing"><ellipse cx="476.1691" cy="1457.5017" fill="#ECF0F1" rx="125.1691" ry="27.4338" style="stroke:#2C3E50;stroke-width:0.5;"/><text fill="#000000" font-family="Helvetica" font-size="14" lengthAdjust="spacing" textLength="212.8692" x="368.4206" y="1461.5535">Ver reportes faltantes (vencidos)</text></g><g id="elem_UC_owners"><ellipse cx="475.7773" cy="731.4234" fill="#ECF0F1" rx="97.2773" ry="21.8555" style="stroke:#2C3E50;stroke-width:0.5;"/><text fill="#000000" font-family="Helvetica" font-size="14" lengthAdjust="spacing" textLength="148.3155" x="398.6196" y="736.1564">Gestionar propietarios</text></g><g id="elem_UC_patients"><ellipse cx="475.7777" cy="809.5235" fill="#ECF0F1" rx="90.2777" ry="20.4555" style="stroke:#2C3E50;stroke-width:0.5;"/><text fill="#000000" font-family="Helvetica" font-size="14" lengthAdjust="spacing" textLength="130.8575" x="407.349" y="814.2564">Gestionar pacientes</text></g><g id="elem_UC_createmon"><ellipse cx="475.751" cy="889.7181" fill="#ECF0F1" rx="111.251" ry="24.6502" style="stroke:#2C3E50;stroke-width:0.5;"/><text fill="#000000" font-family="Helvetica" font-size="14" lengthAdjust="spacing" textLength="181.4393" x="382.0313" y="894.4511">Crear monitoreo quir&#250;rgico</text></g><g id="elem_UC_release"><ellipse cx="475.8972" cy="970.7473" fill="#ECF0F1" rx="96.3972" ry="21.6794" style="stroke:#2C3E50;stroke-width:0.5;"/><text fill="#000000" font-family="Helvetica" font-size="14" lengthAdjust="spacing" textLength="146.1595" x="399.8174" y="975.4803">Registrar salida a casa</text></g><g id="elem_UC_discharge"><ellipse cx="476.241" cy="1050.4161" fill="#ECF0F1" rx="102.241" ry="22.8482" style="stroke:#2C3E50;stroke-width:0.5;"/><text fill="#000000" font-family="Helvetica" font-size="14" lengthAdjust="spacing" textLength="160.2994" x="393.0913" y="1055.1491">Dar de alta el monitoreo</text></g><g id="elem_UC_link"><ellipse cx="475.9097" cy="2035.5499" fill="#ECF0F1" rx="152.9097" ry="32.9819" style="stroke:#2C3E50;stroke-width:0.5;"/><text fill="#000000" font-family="Helvetica" font-size="14" lengthAdjust="spacing" textLength="272.2569" x="339.7812" y="2038.9818">Vincular / desvincular veterinario a cl&#237;nica</text></g><g id="elem_UC_calcrisk"><ellipse cx="926.0514" cy="322.4782" fill="#ECF0F1" rx="127.5514" ry="27.9103" style="stroke:#2C3E50;stroke-width:0.5;"/><text fill="#000000" font-family="Helvetica" font-size="14" lengthAdjust="spacing" textLength="218.0912" x="816.1359" y="326.3301">Calcular riesgo autom&#225;ticamente</text></g><g id="elem_UC_imgbb"><ellipse cx="926.133" cy="234.7945" fill="#ECF0F1" rx="111.633" ry="24.7266" style="stroke:#2C3E50;stroke-width:0.5;"/><text fill="#000000" font-family="Helvetica" font-size="14" lengthAdjust="spacing" textLength="182.3213" x="831.9724" y="239.5275">Procesar im&#225;genes (ImgBB)</text></g><g id="elem_UC_remind"><ellipse cx="926.231" cy="418.8141" fill="#ECF0F1" rx="154.231" ry="33.2462" style="stroke:#2C3E50;stroke-width:0.5;"/><text fill="#000000" font-family="Helvetica" font-size="14" lengthAdjust="spacing" textLength="275.043" x="788.7095" y="422.2461">Enviar recordatorios de reportes vencidos</text></g><g id="elem_UC_activation"><ellipse cx="925.8357" cy="606.335" fill="#ECF0F1" rx="109.3357" ry="24.2671" style="stroke:#2C3E50;stroke-width:0.5;"/><text fill="#000000" font-family="Helvetica" font-size="14" lengthAdjust="spacing" textLength="177.0013" x="834.335" y="611.068">Enviar correo de activaci&#243;n</text></g><g id="elem_UC_audit"><ellipse cx="926.1777" cy="516.8035" fill="#ECF0F1" rx="139.1777" ry="30.2355" style="stroke:#2C3E50;stroke-width:0.5;"/><text fill="#000000" font-family="Helvetica" font-size="14" lengthAdjust="spacing" textLength="243.1231" x="804.6161" y="520.2354">Registrar auditor&#237;a de acceso a datos</text></g><!--entity Owner--><g id="elem_Owner"><ellipse cx="198.8059" cy="558.0679" fill="#F1F1F1" rx="16" ry="16" style="stroke:#181818;stroke-width:0.5;"/><path d="M198.8059,578.0679 C202.8059,578.0679 205.8059,578.0679 209.8059,574.0679 C217.8059,574.0679 225.8059,582.0679 225.8059,590.0679 L225.8059,594.0679 C225.8059,598.0679 221.8059,602.0679 217.8059,602.0679 L179.8059,602.0679 C175.8059,602.0679 171.8059,598.0679 171.8059,594.0679 L171.8059,590.0679 C171.8059,582.0679 179.8059,574.0679 187.8059,574.0679 C191.8059,578.0679 194.8059,578.0679 198.8059,578.0679 " fill="#F1F1F1" style="stroke:#181818;stroke-width:0.5;"/><text fill="#000000" font-family="Helvetica" font-size="14" lengthAdjust="spacing" textLength="73.6117" x="162" y="617.5339">Propietario</text></g><!--entity Vet--><g id="elem_Vet"><ellipse cx="199.0049" cy="1229.0679" fill="#F1F1F1" rx="16" ry="16" style="stroke:#181818;stroke-width:0.5;"/><path d="M199.0049,1249.0679 C203.0049,1249.0679 206.0049,1249.0679 210.0049,1245.0679 C218.0049,1245.0679 226.0049,1253.0679 226.0049,1261.0679 L226.0049,1265.0679 C226.0049,1269.0679 222.0049,1273.0679 218.0049,1273.0679 L180.0049,1273.0679 C176.0049,1273.0679 172.0049,1269.0679 172.0049,1265.0679 L172.0049,1261.0679 C172.0049,1253.0679 180.0049,1245.0679 188.0049,1245.0679 C192.0049,1249.0679 195.0049,1249.0679 199.0049,1249.0679 " fill="#F1F1F1" style="stroke:#181818;stroke-width:0.5;"/><text fill="#000000" font-family="Helvetica" font-size="14" lengthAdjust="spacing" textLength="73.0097" x="162.5" y="1288.5339">Veterinario</text></g><!--entity Admin--><g id="elem_Admin"><ellipse cx="53.3898" cy="1920.0679" fill="#F1F1F1" rx="16" ry="16" style="stroke:#181818;stroke-width:0.5;"/><path d="M53.3898,1940.0679 C57.3898,1940.0679 60.3898,1940.0679 64.3898,1936.0679 C72.3898,1936.0679 80.3898,1944.0679 80.3898,1952.0679 L80.3898,1956.0679 C80.3898,1960.0679 76.3898,1964.0679 72.3898,1964.0679 L34.3898,1964.0679 C30.3898,1964.0679 26.3898,1960.0679 26.3898,1956.0679 L26.3898,1952.0679 C26.3898,1944.0679 34.3898,1936.0679 42.3898,1936.0679 C46.3898,1940.0679 49.3898,1940.0679 53.3898,1940.0679 " fill="#F1F1F1" style="stroke:#181818;stroke-width:0.5;"/><text fill="#000000" font-family="Helvetica" font-size="14" lengthAdjust="spacing" textLength="94.7797" x="6" y="1979.5339">Administrador</text></g><!--entity Sys--><g id="elem_Sys"><ellipse cx="1250.5867" cy="395.1358" fill="#F1F1F1" rx="16" ry="16" style="stroke:#181818;stroke-width:0.5;"/><path d="M1250.5867,415.1358 C1254.5867,415.1358 1257.5867,415.1358 1261.5867,411.1358 C1269.5867,411.1358 1277.5867,419.1358 1277.5867,427.1358 L1277.5867,431.1358 C1277.5867,435.1358 1273.5867,439.1358 1269.5867,439.1358 L1231.5867,439.1358 C1227.5867,439.1358 1223.5867,435.1358 1223.5867,431.1358 L1223.5867,427.1358 C1223.5867,419.1358 1231.5867,411.1358 1239.5867,411.1358 C1243.5867,415.1358 1246.5867,415.1358 1250.5867,415.1358 " fill="#F1F1F1" style="stroke:#181818;stroke-width:0.5;"/><text fill="#000000" font-family="Helvetica" font-size="14" lengthAdjust="spacing" textLength="51.8978" x="1167" y="454.6018">Sistema</text><text fill="#000000" font-family="Helvetica" font-size="14" lengthAdjust="spacing" textLength="167.1734" x="1167" y="473.6697">(Celery / motor de reglas)</text><text fill="#000000" font-family="Helvetica" font-size="14" font-style="italic" lengthAdjust="spacing" textLength="55.8738" x="1222.6498" y="374.5339">&#171;system&#187;</text></g><!--entity FB--><g id="elem_FB"><ellipse cx="925.7828" cy="2160.6358" fill="#F1F1F1" rx="16" ry="16" style="stroke:#181818;stroke-width:0.5;"/><path d="M925.7828,2180.6358 C929.7828,2180.6358 932.7828,2180.6358 936.7828,2176.6358 C944.7828,2176.6358 952.7828,2184.6358 952.7828,2192.6358 L952.7828,2196.6358 C952.7828,2200.6358 948.7828,2204.6358 944.7828,2204.6358 L906.7828,2204.6358 C902.7828,2204.6358 898.7828,2200.6358 898.7828,2196.6358 L898.7828,2192.6358 C898.7828,2184.6358 906.7828,2176.6358 914.7828,2176.6358 C918.7828,2180.6358 921.7828,2180.6358 925.7828,2180.6358 " fill="#F1F1F1" style="stroke:#181818;stroke-width:0.5;"/><text fill="#000000" font-family="Helvetica" font-size="14" lengthAdjust="spacing" textLength="90.5657" x="880.5" y="2220.1018">Firebase Auth</text><text fill="#000000" font-family="Helvetica" font-size="14" font-style="italic" lengthAdjust="spacing" textLength="63.9798" x="893.7929" y="2140.0339">&#171;external&#187;</text></g><g id="elem_GMN78"><path d="M797,46.0679 L797,109.186 L1054.5612,109.186 L1054.5612,56.0679 L1044.5612,46.0679 L797,46.0679 " fill="#FEFFDD" style="stroke:#181818;stroke-width:0.5;"/><path d="M1044.5612,46.0679 L1044.5612,56.0679 L1054.5612,56.0679 L1044.5612,46.0679 " fill="#FEFFDD" style="stroke:#181818;stroke-width:1.0;"/><text fill="#000000" font-family="Helvetica" font-size="13" lengthAdjust="spacing" textLength="236.5612" x="803" y="64.9649">El riesgo se recalcula tambi&#233;n al enviar</text><text fill="#000000" font-family="Helvetica" font-size="13" lengthAdjust="spacing" textLength="188.1492" x="803" y="82.6709">(vista evaluate-risk) y queda en</text><text fill="#000000" font-family="Helvetica" font-size="13" lengthAdjust="spacing" textLength="134.3161" x="803" y="100.377">Report.calculated_risk</text></g><!--link Admin to Vet--><g id="link_Admin_Vet"><path d="M62.84,1903.4279 C88.2,1781.2979 160.5903,1432.7119 185.9803,1310.4419 " fill="none" id="Admin-to-Vet" style="stroke:#181818;stroke-width:1.0;"/><polygon fill="none" points="189.64,1292.8179,180.1056,1309.222,191.855,1311.6619,189.64,1292.8179" style="stroke:#181818;stroke-width:1.0;"/></g><!--link Owner to UC_login--><g id="link_Owner_UC_login"><path d="M202.32,621.5979 C214.42,830.3479 270.01,1784.9879 275,1790.5679 C307.78,1827.2179 358.2319,1834.47 402.8119,1833.34 " fill="none" id="Owner-to-UC_login" style="stroke:#181818;stroke-width:1.0;"/><polygon fill="#181818" points="408.81,1833.1879,399.7115,1829.4173,403.8116,1833.3146,399.9142,1837.4147,408.81,1833.1879" style="stroke:#181818;stroke-width:1.0;"/></g><!--link Owner to UC_terms--><g id="link_Owner_UC_terms"><path d="M202.72,621.6879 C214.65,796.4279 262.25,1483.1879 275,1501.5679 C298.89,1536.0079 333.1857,1556.0881 371.1057,1570.1781 " fill="none" id="Owner-to-UC_terms" style="stroke:#181818;stroke-width:1.0;"/><polygon fill="#181818" points="376.73,1572.2679,369.6868,1565.3837,372.0431,1570.5264,366.9003,1572.8827,376.73,1572.2679" style="stroke:#181818;stroke-width:1.0;"/></g><!--link Owner to UC_pets--><g id="link_Owner_UC_pets"><path d="M204.6,541.3379 C213.87,467.6079 237.19,315.1579 275,279.5679 C306.24,250.1579 346.889,240.6658 387.269,238.4558 " fill="none" id="Owner-to-UC_pets" style="stroke:#181818;stroke-width:1.0;"/><polygon fill="#181818" points="393.26,238.1279,384.0549,234.6257,388.2675,238.4012,384.492,242.6138,393.26,238.1279" style="stroke:#181818;stroke-width:1.0;"/></g><!--link Owner to UC_petdetail--><g id="link_Owner_UC_petdetail"><path d="M203.47,541.1979 C209.7,494.4479 227.01,418.3979 275,375.5679 C295.25,357.4979 315.3201,347.538 341.6701,340.198 " fill="none" id="Owner-to-UC_petdetail" style="stroke:#181818;stroke-width:1.0;"/><polygon fill="#181818" points="347.45,338.5879,337.7067,337.1497,342.6334,339.9296,339.8535,344.8563,347.45,338.5879" style="stroke:#181818;stroke-width:1.0;"/></g><!--link Owner to UC_report--><g id="link_Owner_UC_report"><path d="M236.23,570.7679 C279.04,557.9979 345.4802,538.1926 399.3002,522.1426 " fill="none" id="Owner-to-UC_report" style="stroke:#181818;stroke-width:1.0;"/><polygon fill="#181818" points="405.05,520.4279,395.2822,519.1667,400.2585,521.8568,397.5685,526.8331,405.05,520.4279" style="stroke:#181818;stroke-width:1.0;"/></g><!--link Owner to UC_history--><g id="link_Owner_UC_history"><path d="M213.82,541.2779 C225.64,512.9279 245.49,476.4479 275,455.5679 C304.13,434.9679 335.369,425.2953 369.749,420.0353 " fill="none" id="Owner-to-UC_history" style="stroke:#181818;stroke-width:1.0;"/><polygon fill="#181818" points="375.68,419.1279,366.1786,416.5351,370.7375,419.8841,367.3885,424.443,375.68,419.1279" style="stroke:#181818;stroke-width:1.0;"/></g><!--link Owner to UC_profile--><g id="link_Owner_UC_profile"><path d="M202.49,621.8379 C214.97,823.3979 270.32,1713.3379 275,1718.5679 C306.27,1753.5579 353.03,1761.9148 396.51,1761.8648 " fill="none" id="Owner-to-UC_profile" style="stroke:#181818;stroke-width:1.0;"/><polygon fill="#181818" points="402.51,1761.8579,393.5054,1757.8683,397.51,1761.8637,393.5146,1765.8683,402.51,1761.8579" style="stroke:#181818;stroke-width:1.0;"/></g><!--link Owner to UC_deactivate--><g id="link_Owner_UC_deactivate"><path d="M202.86,621.7579 C212.15,752.5379 242.33,1177.7579 267,1529.5679 C267.9,1542.3479 266.47,1635.0079 275,1644.5679 C304.74,1677.8979 347.9317,1687.1742 390.0817,1688.1842 " fill="none" id="Owner-to-UC_deactivate" style="stroke:#181818;stroke-width:1.0;"/><polygon fill="#181818" points="396.08,1688.3279,387.1784,1684.1135,391.0814,1688.2081,386.9868,1692.1112,396.08,1688.3279" style="stroke:#181818;stroke-width:1.0;"/></g><!--link Vet to UC_login--><g id="link_Vet_UC_login"><path d="M199.73,1292.7379 C199.86,1405.1979 206.45,1719.5979 275,1790.5679 C308.55,1825.3079 357.4703,1832.9509 401.2803,1832.4909 " fill="none" id="Vet-to-UC_login" style="stroke:#181818;stroke-width:1.0;"/><polygon fill="#181818" points="407.28,1832.4279,398.2385,1828.5226,402.2803,1832.4804,398.3225,1836.5222,407.28,1832.4279" style="stroke:#181818;stroke-width:1.0;"/></g><!--link Vet to UC_selclinic--><g id="link_Vet_UC_selclinic"><path d="M202.27,1292.9179 C209.91,1421.9979 236.36,1818.7979 275,1860.5679 C300.09,1887.6879 331.9561,1898.7859 367.9861,1903.2759 " fill="none" id="Vet-to-UC_selclinic" style="stroke:#181818;stroke-width:1.0;"/><polygon fill="#181818" points="373.94,1904.0179,365.5037,1898.9357,368.9784,1903.3996,364.5144,1906.8743,373.94,1904.0179" style="stroke:#181818;stroke-width:1.0;"/></g><!--link Vet to UC_dash--><g id="link_Vet_UC_dash"><path d="M228.93,1212.4979 C241.5,1197.8279 257.39,1182.4179 275,1172.5679 C306.48,1154.9679 338.6126,1145.8699 373.0326,1140.0999 " fill="none" id="Vet-to-UC_dash" style="stroke:#181818;stroke-width:1.0;"/><polygon fill="#181818" points="378.95,1139.1079,369.4125,1136.6509,374.0188,1139.9346,370.7352,1144.5408,378.95,1139.1079" style="stroke:#181818;stroke-width:1.0;"/></g><!--link Vet to UC_inbox--><g id="link_Vet_UC_inbox"><path d="M235.67,1247.3779 C274.69,1241.7079 332.6625,1233.2716 384.6325,1225.7116 " fill="none" id="Vet-to-UC_inbox" style="stroke:#181818;stroke-width:1.0;"/><polygon fill="#181818" points="390.57,1224.8479,381.0879,1222.1852,385.6221,1225.5677,382.2396,1230.1018,390.57,1224.8479" style="stroke:#181818;stroke-width:1.0;"/></g><!--link Vet to UC_repdetail--><g id="link_Vet_UC_repdetail"><path d="M235.67,1257.6279 C275.78,1263.3179 336.2494,1271.896 388.9594,1279.366 " fill="none" id="Vet-to-UC_repdetail" style="stroke:#181818;stroke-width:1.0;"/><polygon fill="#181818" points="394.9,1280.2079,386.5503,1274.9846,389.9495,1279.5063,385.4278,1282.9055,394.9,1280.2079" style="stroke:#181818;stroke-width:1.0;"/></g><!--link Vet to UC_alerts--><g id="link_Vet_UC_alerts"><path d="M230.19,1292.8379 C242.6,1306.7779 258.05,1321.2279 275,1330.5679 C305.66,1347.4579 336.5095,1356.3853 370.1095,1362.2553 " fill="none" id="Vet-to-UC_alerts" style="stroke:#181818;stroke-width:1.0;"/><polygon fill="#181818" points="376.02,1363.2879,367.8427,1357.7987,371.0946,1362.4274,366.4659,1365.6794,376.02,1363.2879" style="stroke:#181818;stroke-width:1.0;"/></g><!--link Vet to UC_missing--><g id="link_Vet_UC_missing"><path d="M208.22,1292.6579 C217.88,1329.3979 237.57,1382.4979 275,1412.5679 C298.24,1431.2379 321.8234,1441.1598 350.9234,1447.8698 " fill="none" id="Vet-to-UC_missing" style="stroke:#181818;stroke-width:1.0;"/><polygon fill="#181818" points="356.77,1449.2179,348.8989,1443.298,351.8978,1448.0945,347.1014,1451.0934,356.77,1449.2179" style="stroke:#181818;stroke-width:1.0;"/></g><!--link Vet to UC_owners--><g id="link_Vet_UC_owners"><path d="M200.56,1212.2579 C202.88,1108.2379 214.7,834.4979 275,771.5679 C301.7,743.6979 335.9522,732.9288 373.3422,729.0388 " fill="none" id="Vet-to-UC_owners" style="stroke:#181818;stroke-width:1.0;"/><polygon fill="#181818" points="379.31,728.4179,369.9444,725.3707,374.3368,728.9353,370.7722,733.3278,379.31,728.4179" style="stroke:#181818;stroke-width:1.0;"/></g><!--link Vet to UC_patients--><g id="link_Vet_UC_patients"><path d="M201.84,1212.2579 C206.89,1120.2279 224.18,898.6279 275,847.5679 C304.05,818.3879 342.0948,808.3191 381.4548,805.5491 " fill="none" id="Vet-to-UC_patients" style="stroke:#181818;stroke-width:1.0;"/><polygon fill="#181818" points="387.44,805.1279,378.1814,801.7696,382.4523,805.4789,378.743,809.7499,387.44,805.1279" style="stroke:#181818;stroke-width:1.0;"/></g><!--link Vet to UC_createmon--><g id="link_Vet_UC_createmon"><path d="M204.05,1212.3279 C212.64,1135.1379 235.26,970.4279 275,931.5679 C298.78,908.3179 326.0595,897.4906 358.5695,891.8106 " fill="none" id="Vet-to-UC_createmon" style="stroke:#181818;stroke-width:1.0;"/><polygon fill="#181818" points="364.48,890.7779,354.9259,888.3866,359.5546,891.6385,356.3027,896.2672,364.48,890.7779" style="stroke:#181818;stroke-width:1.0;"/></g><!--link Vet to UC_release--><g id="link_Vet_UC_release"><path d="M200.41,1212.3479 C203.27,1157.9679 216.87,1061.7979 275,1009.5679 C303.29,984.1479 337.1179,973.8712 373.7779,969.7312 " fill="none" id="Vet-to-UC_release" style="stroke:#181818;stroke-width:1.0;"/><polygon fill="#181818" points="379.74,969.0579,370.348,966.0931,374.7716,969.619,371.2457,974.0426,379.74,969.0579" style="stroke:#181818;stroke-width:1.0;"/></g><!--link Vet to UC_discharge--><g id="link_Vet_UC_discharge"><path d="M207.74,1212.4879 C217.11,1175.1379 236.66,1120.7779 275,1090.5679 C302.95,1068.5479 333.845,1058.5288 368.275,1053.4188 " fill="none" id="Vet-to-UC_discharge" style="stroke:#181818;stroke-width:1.0;"/><polygon fill="#181818" points="374.21,1052.5379,364.7203,1049.9025,369.2642,1053.272,365.8948,1057.8159,374.21,1052.5379" style="stroke:#181818;stroke-width:1.0;"/></g><!--link Vet to UC_profile--><g id="link_Vet_UC_profile"><path d="M200.72,1292.7979 C203.4,1394.5779 216.02,1658.4779 275,1718.5679 C307.13,1751.2979 352.2008,1759.9677 394.6908,1760.6777 " fill="none" id="Vet-to-UC_profile" style="stroke:#181818;stroke-width:1.0;"/><polygon fill="#181818" points="400.69,1760.7779,391.7581,1756.6281,395.6907,1760.6944,391.6244,1764.627,400.69,1760.7779" style="stroke:#181818;stroke-width:1.0;"/></g><!--link Admin to UC_link--><g id="link_Admin_UC_link"><path d="M101.11,1953.7679 C165.04,1967.7579 275.9587,1992.0152 362.0487,2010.8552 " fill="none" id="Admin-to-UC_link" style="stroke:#181818;stroke-width:1.0;"/><polygon fill="#181818" points="367.91,2012.1379,359.9732,2006.3064,363.0256,2011.069,358.2629,2014.1214,367.91,2012.1379" style="stroke:#181818;stroke-width:1.0;"/></g><!--reverse link UC_calcrisk to Sys--><g id="link_UC_calcrisk_Sys"><path d="M1029.646,341.8687 C1063.006,349.0387 1094.53,356.8879 1128,367.5679 C1140.75,371.6379 1154.02,376.5079 1166.9,381.6079 " fill="none" id="UC_calcrisk-backto-Sys" style="stroke:#181818;stroke-width:1.0;"/><polygon fill="#181818" points="1023.78,340.6079,1031.7385,346.4098,1028.6684,341.6586,1033.4196,338.5884,1023.78,340.6079" style="stroke:#181818;stroke-width:1.0;"/></g><!--reverse link UC_imgbb to Sys--><g id="link_UC_imgbb_Sys"><path d="M1036.8201,244.1282 C1069.5601,250.1782 1098.86,259.3179 1128,276.5679 C1162.2,296.8179 1191.49,330.1979 1212.74,359.5179 " fill="none" id="UC_imgbb-backto-Sys" style="stroke:#181818;stroke-width:1.0;"/><polygon fill="#181818" points="1030.92,243.0379,1039.0433,248.6067,1035.8368,243.9465,1040.497,240.7399,1030.92,243.0379" style="stroke:#181818;stroke-width:1.0;"/></g><!--reverse link UC_remind to Sys--><g id="link_UC_remind_Sys"><path d="M1086.22,418.5679 C1116.13,418.5679 1140.4,418.5679 1166.91,418.5679 " fill="none" id="UC_remind-backto-Sys" style="stroke:#181818;stroke-width:1.0;"/><polygon fill="#181818" points="1080.22,418.5679,1089.22,422.5679,1085.22,418.5679,1089.22,414.5679,1080.22,418.5679" style="stroke:#181818;stroke-width:1.0;"/></g><!--reverse link UC_activation to Sys--><g id="link_UC_activation_Sys"><path d="M1034.8804,596.9892 C1068.2104,590.8392 1098.35,581.4279 1128,563.5679 C1162.89,542.5579 1192.48,507.8779 1213.73,477.7079 " fill="none" id="UC_activation-backto-Sys" style="stroke:#181818;stroke-width:1.0;"/><polygon fill="#181818" points="1028.98,598.0779,1038.5564,600.3784,1033.897,597.1706,1037.1048,592.5112,1028.98,598.0779" style="stroke:#181818;stroke-width:1.0;"/></g><!--reverse link UC_audit to Sys--><g id="link_UC_audit_Sys"><path d="M1032.864,494.5585 C1065.364,486.9985 1095.57,479.0479 1128,468.5679 C1140.7,464.4679 1153.94,459.6279 1166.81,454.6079 " fill="none" id="UC_audit-backto-Sys" style="stroke:#181818;stroke-width:1.0;"/><polygon fill="#181818" points="1027.02,495.9179,1036.6922,497.7748,1031.89,494.7851,1034.8797,489.9828,1027.02,495.9179" style="stroke:#181818;stroke-width:1.0;"/></g><!--link UC_login to FB--><g id="link_UC_login_FB"><path d="M549.31,1829.2279 C582.69,1833.5179 621.76,1842.4079 653,1860.5679 C765.08,1925.7279 850.7464,2049.059 893.6964,2119.809 " fill="none" id="UC_login-to-FB" style="stroke:#181818;stroke-width:1.0;stroke-dasharray:7.0,7.0;"/><polygon fill="#181818" points="896.81,2124.9379,895.5589,2115.1688,894.2153,2120.6638,888.7204,2119.3203,896.81,2124.9379" style="stroke:#181818;stroke-width:1.0;"/><text fill="#000000" font-family="Helvetica" font-size="13" lengthAdjust="spacing" textLength="57.5771" x="672" y="1862.4649">&#171;include&#187;</text></g><!--link UC_report to UC_calcrisk--><g id="link_UC_report_UC_calcrisk"><path d="M572.96,484.7479 C599.89,478.1879 628.49,468.8379 653,455.5679 C703.62,428.1779 697.44,395.0579 748,367.5679 C771.12,354.9979 792.0419,347.3533 817.6219,340.7233 " fill="none" id="UC_report-to-UC_calcrisk" style="stroke:#181818;stroke-width:1.0;stroke-dasharray:7.0,7.0;"/><polygon fill="#181818" points="823.43,339.2179,813.7143,337.6039,818.5899,340.4724,815.7215,345.348,823.43,339.2179" style="stroke:#181818;stroke-width:1.0;"/><text fill="#000000" font-family="Helvetica" font-size="13" lengthAdjust="spacing" textLength="57.5771" x="672" y="369.4649">&#171;include&#187;</text></g><!--link UC_report to UC_audit--><g id="link_UC_report_UC_audit"><path d="M592.37,503.9479 C652.39,506.2279 720.1343,508.7897 782.9243,511.1797 " fill="none" id="UC_report-to-UC_audit" style="stroke:#181818;stroke-width:1.0;stroke-dasharray:7.0,7.0;"/><polygon fill="#181818" points="788.92,511.4079,780.0787,507.0685,783.9236,511.2177,779.7744,515.0627,788.92,511.4079" style="stroke:#181818;stroke-width:1.0;"/><text fill="#000000" font-family="Helvetica" font-size="13" lengthAdjust="spacing" textLength="57.5771" x="672" y="503.4649">&#171;include&#187;</text></g><!--link UC_photos to UC_report--><g id="link_UC_photos_UC_report"><path d="M476,579.3679 C476,563.0579 476,548.1579 476,531.8379 " fill="none" id="UC_photos-to-UC_report" style="stroke:#181818;stroke-width:1.0;stroke-dasharray:7.0,7.0;"/><polygon fill="#181818" points="476,525.8379,472,534.8379,476,530.8379,480,534.8379,476,525.8379" style="stroke:#181818;stroke-width:1.0;"/><text fill="#000000" font-family="Helvetica" font-size="13" lengthAdjust="spacing" textLength="55.497" x="436" y="557.9649">&#171;extend&#187;</text></g><!--reverse link UC_report to UC_imgbb--><g id="link_UC_report_UC_imgbb"><path d="M595.8646,491.229 C619.8646,484.459 636.98,474.6079 653,455.5679 C668.64,436.9879 649.71,368.0779 661,346.5679 C684.06,302.6179 703.43,298.3879 748,276.5679 C774.38,263.6579 804.95,254.5779 833.19,248.2579 " fill="none" id="UC_report-backto-UC_imgbb" style="stroke:#181818;stroke-width:1.0;stroke-dasharray:7.0,7.0;"/><polygon fill="#181818" points="590.09,492.8579,599.8379,494.2643,594.9022,491.5005,597.666,486.5648,590.09,492.8579" style="stroke:#181818;stroke-width:1.0;"/><text fill="#000000" font-family="Helvetica" font-size="13" lengthAdjust="spacing" textLength="55.497" x="672.8615" y="259.4649">&#171;extend&#187;</text><text fill="#000000" font-family="Helvetica" font-size="13" lengthAdjust="spacing" textLength="77.2201" x="662" y="277.1709">(si hay fotos)</text></g><!--reverse link UC_repdetail to UC_validate--><g id="link_UC_repdetail_UC_validate"><path d="M556.5364,1306.0857 C590.0964,1311.7457 624.48,1316.8679 661,1320.5679 C707.1,1325.2379 757.92,1328.0879 802.56,1329.8279 " fill="none" id="UC_repdetail-backto-UC_validate" style="stroke:#181818;stroke-width:1.0;stroke-dasharray:7.0,7.0;"/><polygon fill="#181818" points="550.62,1305.0879,558.8295,1310.529,555.5504,1305.9194,560.1599,1302.6404,550.62,1305.0879" style="stroke:#181818;stroke-width:1.0;"/><text fill="#000000" font-family="Helvetica" font-size="13" lengthAdjust="spacing" textLength="55.497" x="673" y="1316.4649">&#171;extend&#187;</text></g><!--reverse link UC_repdetail to UC_markrev--><g id="link_UC_repdetail_UC_markrev"><path d="M568.5459,1281.759 C641.1859,1273.979 739.79,1263.4079 817.96,1255.0379 " fill="none" id="UC_repdetail-backto-UC_markrev" style="stroke:#181818;stroke-width:1.0;stroke-dasharray:7.0,7.0;"/><polygon fill="#181818" points="562.58,1282.3979,571.9548,1285.4167,567.5516,1281.8654,571.1028,1277.4622,562.58,1282.3979" style="stroke:#181818;stroke-width:1.0;"/><text fill="#000000" font-family="Helvetica" font-size="13" lengthAdjust="spacing" textLength="55.497" x="673" y="1261.4649">&#171;extend&#187;</text></g><!--link UC_owners to UC_activation--><g id="link_UC_owners_UC_activation"><path d="M538.35,714.4479 C621.63,691.2179 764.1908,651.4405 850.9208,627.2405 " fill="none" id="UC_owners-to-UC_activation" style="stroke:#181818;stroke-width:1.0;stroke-dasharray:7.0,7.0;"/><polygon fill="#181818" points="856.7,625.6279,846.9561,624.1939,851.884,626.9717,849.1062,631.8996,856.7,625.6279" style="stroke:#181818;stroke-width:1.0;"/><text fill="#000000" font-family="Helvetica" font-size="13" lengthAdjust="spacing" textLength="57.5771" x="672" y="658.4649">&#171;include&#187;</text></g><!--link UC_createmon to UC_audit--><g id="link_UC_createmon_UC_audit"><path d="M578.35,879.5779 C604.48,873.3579 631.31,863.4079 653,847.5679 C713.38,803.4679 717.87,774.9879 740,703.5679 C744.58,688.7879 738.25,576.5779 748,564.5679 C761.44,548.0079 774.3488,538.916 794.3888,531.436 " fill="none" id="UC_createmon-to-UC_audit" style="stroke:#181818;stroke-width:1.0;stroke-dasharray:7.0,7.0;"/><polygon fill="#181818" points="800.01,529.3379,790.1795,528.7376,795.3257,531.0864,792.977,536.2326,800.01,529.3379" style="stroke:#181818;stroke-width:1.0;"/><text fill="#000000" font-family="Helvetica" font-size="13" lengthAdjust="spacing" textLength="57.5771" x="672" y="699.4649">&#171;include&#187;</text></g><!--link UC_calcrisk to GMN78--><g id="link_UC_calcrisk_GMN78"><path d="M800.69,317.2879 C761.88,308.8179 723.36,291.8479 700.5,259.0679 C655.44,194.4479 750.11,140.9179 830.28,109.1179 " fill="none" id="UC_calcrisk-GMN78" style="stroke:#181818;stroke-width:1.0;stroke-dasharray:7.0,7.0;"/></g><!--SRC=[XLVDRXit4BxlKn3k8VR1JjgYby8m42jscaFQ8cvoAX2CTaShnbnI8RbAr1-W3z4NoB67d7hhLM_I9-b7xdANkr9I7GnfE4CEl_dc6zfBhrZyQ9p_oL9vB_xzuq_nH59jgI5HiLYGCovyUUcCE7tAcYsfiw9GlFB26s5blVQYafPBBuqktBtK6qAqM6AxsffMLmkZZ1LVtCPFvk7ML9btKjTYHSfnjh91BDLyvtT8BcnDkbQv0vNUs6wPth4pJRxOEYx9yVKyWPl5xQFRBuyu6bknxPs-MdnzyysZpAdY5RNAtnhjlwU6nSbthBRiPKadHH7p42S_MhEHxCbASoB8YH_U0QUq-8ezMwc7HVnEIu-hHchfl0KGDYv6Irg-mn8tzBC-NR1YknCFHMF2IXLGgHMvinXqjtFYyjBjWlVLLOg-HL6Mk9vutFfrzBkzXXk_HpgQ51oBU9euF__jAcPL353ZIeaI9-BNeX3Y0TpEmrQimzrBkVzRYvseo8CV6xREO4zsmGlUVG5nmx94UU1O6kr2Q2FnruHD1Jvz1SJ9CorBILOuTc7dcExBnMjbQi0nyRm356K9hi6xLFkF2AJ01xcb5ELObGh0bjF8noLlK2EnCGWBbq1Qr08h-Kj_7-0QBvGs0bADcs_YMrA8iE7MAwcIxyOQ_EAfznDsNMh8jSN5XnGhxkm-1Fm-0fmnQGxbSwCbacKZM0jMOcrgiWT0lc8h6kb4GwuqdeQhRDYxGyyAHocK6nVl0u19amxAWuEdLDCTRlGsrCponbZFmDLv0r0eG6fIRBSw0x5wq-fG2jxAYZKgBrOWTctt7rQXiTAnQnYFPBr6N-08KbqZnDE7NBl5tHJMh0Vdi3vbvsFn1pBjiETMzZmy0g-d9ReHSeX8glOVNU1ItugXjEJMXq5BqXM_eMCPIxqqxpzRcpuYW_HOELw1bnL0VOXciz07QOMMM-vGakpgeIRRwEbdP7rEjipAMPh6T4X0dL9aG_OUjiDiqVmMT0lSz9ARJGYbeJdYwf5A9YZ2183oX6-dsq28oeo0WiuEKs8Q7SiMHM0pjim0gGa2x3uPWNPddLLWGpuOPW4BtC2EtI3UjjBk_x6rB0SuIhX0TCrCeru0_A3gqBE8j2211HhhfnX-CwcWgEi1Xz3Tmx43hQGhrsJhcM0a2P-gxZ1NEbrhCC1aulSXfwKkMnM9Kx7Rfb_Rh6T8ZD6zCajzFysadrRpNA1eOGIuABND_WCI2NMQvR0WrPtQ4JLpnipL8_LB-5dfxgVHtHc8beYfyKW1ZPurzVNrm27PrClb9zGBtL9rckNozXI9Y6FPW6frT9FOS2RMByfwcG-nNkdbfrb2RHMAlVz8tHPnPj9q5aMVY3WmVv0FYY8-Du3xrJWo9wPkZ4rCSHpCBRseJCozV4ziIMAdyVtycnYpCOUSCnKky7sQSMOOvtTcZBAQ_UvKCpECgfWPU-79B4bDCbEl5fbb48JCDlRwvD2kbVD4XqRDD-pH0GhT4o_rxTNGJ5ZgMwZ8Y2ukGsljN958d1iwHkQMaMiJQ-3EOC11BrXHU4E1vMXtrO9r3qLu6OBVgIBYuk8gF1c_nQEnTyARSQ14NCuJ_H-_BeS3fsx6YukCRD6fIsQoqUN5nT3A4nyya9qKQzh5LuGxAt8sfB0qyuxjFlNiPzo1OqUJuJuZqWUN6gZokSiNsY2RfV5GEc5MCtMxKKaANVmNgDD7l3sQfTp_fJ4dC6g3zi3t53CwJ0rSiSMvvs6BCpnZthQCsSD1Tbv422_wRJnNh-Cvk9i8QHJ_0G00]--></g></svg>