<svg xmlns="http://www.w3.org/2000/svg" xmlns:xlink="http://www.w3.org/1999/xlink" contentStyleType="text/css" height="1097px" preserveAspectRatio="none" style="width:1680px;height:1097px;background:#FFFFFF;" version="1.1" viewBox="0 0 1680 1097" width="1680px" zoomAndPan="magnify"><title>PostTrack &#8212; Diagrama de Despliegue (entorno de desarrollo, Docker Compose)</title><defs/><g><text fill="#000000" font-family="Helvetica" font-size="14" font-weight="bold" lengthAdjust="spacing" textLength="551.5558" x="557.6626" y="24.9659">PostTrack &#8212; Diagrama de Despliegue (entorno de desarrollo, Docker Compose)</text><!--cluster host--><g id="cluster_host"><polygon fill="#EAEDED" points="739.5,218.5679,749.5,208.5679,1490.5,208.5679,1490.5,1070.5679,1480.5,1080.5679,739.5,1080.5679,739.5,218.5679" style="stroke:#34495E;stroke-width:1.0;"/><line style="stroke:#34495E;stroke-width:1.0;" x1="1480.5" x2="1490.5" y1="218.5679" y2="208.5679"/><line style="stroke:#34495E;stroke-width:1.0;" x1="739.5" x2="1480.5" y1="218.5679" y2="218.5679"/><line style="stroke:#34495E;stroke-width:1.0;" x1="1480.5" x2="1480.5" y1="218.5679" y2="1080.5679"/><text fill="#000000" font-family="Helvetica" font-size="14" font-weight="bold" lengthAdjust="spacing" textLength="216.6632" x="1002.6684" y="236.5339">Equipo del desarrollador / Host</text></g><!--cluster docker--><g id="cluster_docker"><polygon fill="#EAEDED" points="763.5,269.5679,773.5,259.5679,1466.5,259.5679,1466.5,1046.5679,1456.5,1056.5679,763.5,1056.5679,763.5,269.5679" style="stroke:#34495E;stroke-width:1.0;"/><line style="stroke:#34495E;stroke-width:1.0;" x1="1456.5" x2="1466.5" y1="269.5679" y2="259.5679"/><line style="stroke:#34495E;stroke-width:1.0;" x1="763.5" x2="1456.5" y1="269.5679" y2="269.5679"/><line style="stroke:#34495E;stroke-width:1.0;" x1="1456.5" x2="1456.5" y1="269.5679" y2="1056.5679"/><text fill="#000000" font-family="Helvetica" font-size="14" font-weight="bold" lengthAdjust="spacing" textLength="100.8136" x="1060.5932" y="287.5339">Docker Engine</text></g><!--cluster nfront--><g id="cluster_nfront"><polygon fill="#EAEDED" points="1225.5,320.5679,1235.5,310.5679,1436.5,310.5679,1436.5,458.5679,1426.5,468.5679,1225.5,468.5679,1225.5,320.5679" style="stroke:#34495E;stroke-width:1.0;"/><line style="stroke:#34495E;stroke-width:1.0;" x1="1426.5" x2="1436.5" y1="320.5679" y2="310.5679"/><line style="stroke:#34495E;stroke-width:1.0;" x1="1225.5" x2="1426.5" y1="320.5679" y2="320.5679"/><line style="stroke:#34495E;stroke-width:1.0;" x1="1426.5" x2="1426.5" y1="320.5679" y2="468.5679"/><text fill="#000000" font-family="Helvetica" font-size="14" font-weight="bold" lengthAdjust="spacing" textLength="135.1275" x="1259.4363" y="338.5339">posttrack_frontend</text><text fill="#000000" font-family="Helvetica" font-size="14" font-weight="bold" lengthAdjust="spacing" textLength="118.8596" x="1267.5702" y="357.6018">&lt;node:22-alpine&gt;</text></g><!--cluster nback--><g id="cluster_nback"><polygon fill="#EAEDED" points="1207.5,563.5679,1217.5,553.5679,1415.5,553.5679,1415.5,682.5679,1405.5,692.5679,1207.5,692.5679,1207.5,563.5679" style="stroke:#34495E;stroke-width:1.0;"/><line style="stroke:#34495E;stroke-width:1.0;" x1="1405.5" x2="1415.5" y1="563.5679" y2="553.5679"/><line style="stroke:#34495E;stroke-width:1.0;" x1="1207.5" x2="1405.5" y1="563.5679" y2="563.5679"/><line style="stroke:#34495E;stroke-width:1.0;" x1="1405.5" x2="1405.5" y1="563.5679" y2="692.5679"/><text fill="#000000" font-family="Helvetica" font-size="14" font-weight="bold" lengthAdjust="spacing" textLength="132.6075" x="1241.1963" y="581.5339">posttrack_backend</text><text fill="#000000" font-family="Helvetica" font-size="14" font-weight="bold" lengthAdjust="spacing" textLength="131.7395" x="1241.6302" y="600.6018">&lt;python:3.12-slim&gt;</text></g><!--cluster ncelery--><g id="cluster_ncelery"><polygon fill="#EAEDED" points="795.5,555.5679,805.5,545.5679,1060.5,545.5679,1060.5,690.5679,1050.5,700.5679,795.5,700.5679,795.5,555.5679" style="stroke:#34495E;stroke-width:1.0;"/><line style="stroke:#34495E;stroke-width:1.0;" x1="1050.5" x2="1060.5" y1="555.5679" y2="545.5679"/><line style="stroke:#34495E;stroke-width:1.0;" x1="795.5" x2="1050.5" y1="555.5679" y2="555.5679"/><line style="stroke:#34495E;stroke-width:1.0;" x1="1050.5" x2="1050.5" y1="555.5679" y2="700.5679"/><text fill="#000000" font-family="Helvetica" font-size="14" font-weight="bold" lengthAdjust="spacing" textLength="115.4156" x="866.2922" y="573.5339">posttrack_celery</text><text fill="#000000" font-family="Helvetica" font-size="14" font-weight="bold" lengthAdjust="spacing" textLength="131.7395" x="858.1302" y="592.6018">&lt;python:3.12-slim&gt;</text></g><!--cluster ndb--><g id="cluster_ndb"><polygon fill="#EAEDED" points="958.5,769.5679,968.5,759.5679,1152.5,759.5679,1152.5,875.5679,1142.5,885.5679,958.5,885.5679,958.5,769.5679" style="stroke:#34495E;stroke-width:1.0;"/><line style="stroke:#34495E;stroke-width:1.0;" x1="1142.5" x2="1152.5" y1="769.5679" y2="759.5679"/><line style="stroke:#34495E;stroke-width:1.0;" x1="958.5" x2="1142.5" y1="769.5679" y2="769.5679"/><line style="stroke:#34495E;stroke-width:1.0;" x1="1142.5" x2="1142.5" y1="769.5679" y2="885.5679"/><text fill="#000000" font-family="Helvetica" font-size="14" font-weight="bold" lengthAdjust="spacing" textLength="90.8036" x="1006.0982" y="787.5339">posttrack_db</text></g><!--cluster nredis--><g id="cluster_nredis"><polygon fill="#EAEDED" points="1176.5,779.0679,1186.5,769.0679,1359.5,769.0679,1359.5,866.0679,1349.5,876.0679,1176.5,876.0679,1176.5,779.0679" style="stroke:#34495E;stroke-width:1.0;"/><line style="stroke:#34495E;stroke-width:1.0;" x1="1349.5" x2="1359.5" y1="779.0679" y2="769.0679"/><line style="stroke:#34495E;stroke-width:1.0;" x1="1176.5" x2="1349.5" y1="779.0679" y2="779.0679"/><line style="stroke:#34495E;stroke-width:1.0;" x1="1349.5" x2="1349.5" y1="779.0679" y2="876.0679"/><text fill="#000000" font-family="Helvetica" font-size="14" font-weight="bold" lengthAdjust="spacing" textLength="107.7996" x="1210.1002" y="797.0339">posttrack_redis</text></g><!--cluster vols--><g id="cluster_vols"><path d="M839,936.5679 L917.6857,936.5679 A3.75,3.75 0 0 1 920.1857,939.0679 L927.1857,961.6358 L1131,961.6358 A2.5,2.5 0 0 1 1133.5,964.1358 L1133.5,1030.0679 A2.5,2.5 0 0 1 1131,1032.5679 L839,1032.5679 A2.5,2.5 0 0 1 836.5,1030.0679 L836.5,939.0679 A2.5,2.5 0 0 1 839,936.5679 " fill="none" style="stroke:#000000;stroke-width:1.5;"/><line style="stroke:#000000;stroke-width:1.5;" x1="836.5" x2="927.1857" y1="961.6358" y2="961.6358"/><text fill="#000000" font-family="Helvetica" font-size="14" font-weight="bold" lengthAdjust="spacing" textLength="77.6857" x="840.5" y="953.5339">Vol&#250;menes</text></g><!--entity front--><g id="elem_front"><rect fill="#F1F1F1" height="80.2038" rx="2.5" ry="2.5" style="stroke:#181818;stroke-width:0.5;" width="127.0336" x="1267" y="372.5679"/><polygon fill="#F1F1F1" points="1377.0336,377.5679,1377.0336,391.5679,1389.0336,391.5679,1389.0336,383.5679,1383.0336,377.5679,1377.0336,377.5679" style="stroke:#181818;stroke-width:0.5;"/><line style="stroke:#181818;stroke-width:0.5;" x1="1383.0336" x2="1383.0336" y1="377.5679" y2="383.5679"/><line style="stroke:#181818;stroke-width:0.5;" x1="1389.0336" x2="1383.0336" y1="383.5679" y2="383.5679"/><text fill="#000000" font-family="Helvetica" font-size="14" lengthAdjust="spacing" textLength="97.0336" x="1277" y="400.5339">Vite dev server</text><text fill="#000000" font-family="Helvetica" font-size="14" lengthAdjust="spacing" textLength="64.2877" x="1277" y="419.6018">(React 19)</text><text fill="#000000" font-family="Helvetica" font-size="14" lengthAdjust="spacing" textLength="35.7838" x="1277" y="438.6697">:5173</text></g><!--entity back--><g id="elem_back"><rect fill="#F1F1F1" height="61.1358" rx="2.5" ry="2.5" style="stroke:#181818;stroke-width:0.5;" width="142.0835" x="1240.5" y="615.5679"/><polygon fill="#F1F1F1" points="1365.5835,620.5679,1365.5835,634.5679,1377.5835,634.5679,1377.5835,626.5679,1371.5835,620.5679,1365.5835,620.5679" style="stroke:#181818;stroke-width:0.5;"/><line style="stroke:#181818;stroke-width:0.5;" x1="1371.5835" x2="1371.5835" y1="620.5679" y2="626.5679"/><line style="stroke:#181818;stroke-width:0.5;" x1="1377.5835" x2="1371.5835" y1="626.5679" y2="626.5679"/><text fill="#000000" font-family="Helvetica" font-size="14" lengthAdjust="spacing" textLength="88.8996" x="1250.5" y="643.5339">Django + DRF</text><text fill="#000000" font-family="Helvetica" font-size="14" lengthAdjust="spacing" textLength="112.0835" x="1250.5" y="662.6018">(runserver :8000)</text></g><!--entity celery--><g id="elem_celery"><rect fill="#F1F1F1" height="61.1358" rx="2.5" ry="2.5" style="stroke:#181818;stroke-width:0.5;" width="197.9573" x="838.5" y="615.5679"/><polygon fill="#F1F1F1" points="1019.4573,620.5679,1019.4573,634.5679,1031.4573,634.5679,1031.4573,626.5679,1025.4573,620.5679,1019.4573,620.5679" style="stroke:#181818;stroke-width:0.5;"/><line style="stroke:#181818;stroke-width:0.5;" x1="1025.4573" x2="1025.4573" y1="620.5679" y2="626.5679"/><line style="stroke:#181818;stroke-width:0.5;" x1="1031.4573" x2="1025.4573" y1="626.5679" y2="626.5679"/><text fill="#000000" font-family="Helvetica" font-size="14" lengthAdjust="spacing" textLength="167.9573" x="848.5" y="643.5339">celery -A config worker -B</text><text fill="#000000" font-family="Helvetica" font-size="14" lengthAdjust="spacing" textLength="99.5116" x="848.5" y="662.6018">(worker + beat)</text></g><!--entity db--><g id="elem_db"><path d="M975,812.5679 C975,802.5679 1055.6717,802.5679 1055.6717,802.5679 C1055.6717,802.5679 1136.3435,802.5679 1136.3435,812.5679 L1136.3435,859.7038 C1136.3435,869.7038 1055.6717,869.7038 1055.6717,869.7038 C1055.6717,869.7038 975,869.7038 975,859.7038 L975,812.5679 " fill="#FEF9E7" style="stroke:#B7950B;stroke-width:0.5;"/><path d="M975,812.5679 C975,822.5679 1055.6717,822.5679 1055.6717,822.5679 C1055.6717,822.5679 1136.3435,822.5679 1136.3435,812.5679 " fill="none" style="stroke:#B7950B;stroke-width:0.5;"/><text fill="#000000" font-family="Helvetica" font-size="14" lengthAdjust="spacing" textLength="141.3435" x="985" y="841.5339">PostgreSQL 15-alpine</text><text fill="#000000" font-family="Helvetica" font-size="14" lengthAdjust="spacing" textLength="35.7838" x="985" y="860.6018">:5432</text></g><!--entity redis--><g id="elem_redis"><path d="M1227.5,812.0679 L1329.4236,812.0679 C1334.4236,812.0679 1334.4236,836.1358 1334.4236,836.1358 C1334.4236,836.1358 1334.4236,860.2038 1329.4236,860.2038 L1227.5,860.2038 C1222.5,860.2038 1222.5,836.1358 1222.5,836.1358 C1222.5,836.1358 1222.5,812.0679 1227.5,812.0679 " fill="#F1F1F1" style="stroke:#181818;stroke-width:0.5;"/><path d="M1329.4236,812.0679 C1324.4236,812.0679 1324.4236,836.1358 1324.4236,836.1358 C1324.4236,860.2038 1329.4236,860.2038 1329.4236,860.2038 " fill="none" style="stroke:#181818;stroke-width:0.5;"/><text fill="#000000" font-family="Helvetica" font-size="14" lengthAdjust="spacing" textLength="91.9236" x="1227.5" y="832.0339">Redis 7-alpine</text><text fill="#000000" font-family="Helvetica" font-size="14" lengthAdjust="spacing" textLength="35.7838" x="1227.5" y="851.1018">:6379</text></g><!--entity vdb--><g id="elem_vdb"><rect fill="#F1F1F1" height="42.0679" rx="2.5" ry="2.5" style="stroke:#181818;stroke-width:0.5;" width="123.4217" x="994" y="974.5679"/><polygon fill="#F1F1F1" points="1100.4217,979.5679,1100.4217,993.5679,1112.4217,993.5679,1112.4217,985.5679,1106.4217,979.5679,1100.4217,979.5679" style="stroke:#181818;stroke-width:0.5;"/><line style="stroke:#181818;stroke-width:0.5;" x1="1106.4217" x2="1106.4217" y1="979.5679" y2="985.5679"/><line style="stroke:#181818;stroke-width:0.5;" x1="1112.4217" x2="1106.4217" y1="985.5679" y2="985.5679"/><text fill="#000000" font-family="Helvetica" font-size="14" lengthAdjust="spacing" textLength="93.4217" x="1004" y="1002.5339">postgres_data</text></g><!--entity vmedia--><g id="elem_vmedia"><rect fill="#F1F1F1" height="42.0679" rx="2.5" ry="2.5" style="stroke:#181818;stroke-width:0.5;" width="106.6497" x="852" y="974.5679"/><polygon fill="#F1F1F1" points="941.6497,979.5679,941.6497,993.5679,953.6497,993.5679,953.6497,985.5679,947.6497,979.5679,941.6497,979.5679" style="stroke:#181818;stroke-width:0.5;"/><line style="stroke:#181818;stroke-width:0.5;" x1="947.6497" x2="947.6497" y1="979.5679" y2="985.5679"/><line style="stroke:#181818;stroke-width:0.5;" x1="953.6497" x2="947.6497" y1="985.5679" y2="985.5679"/><text fill="#000000" font-family="Helvetica" font-size="14" lengthAdjust="spacing" textLength="76.6497" x="862" y="1002.5339">media_data</text></g><!--entity fb--><g id="elem_fb"><path d="M1528.1887,811.9021 C1530.4961,803.8255 1536.9413,802.6644 1542.1702,809.0843 C1545.0815,803.9907 1549.7816,802.7347 1553.6347,808.0467 C1557.7095,802.8646 1561.8478,802.1661 1565.6806,808.3043 C1568.297,801.3258 1574.6979,799.3432 1579.6049,805.958 C1582.7902,799.7173 1587.08,799.9779 1591.0516,805.1708 C1595.6353,798.2184 1601.7678,798.9306 1605.2081,806.3009 C1608.8536,800.7601 1614.5048,800.8472 1617.6854,806.8055 C1622.3621,800.8829 1628.0023,801.6865 1630.3595,809.0227 C1634.2063,804.7929 1637.9088,804.0874 1641.1001,809.7354 C1646.2056,803.6358 1650.1786,804.3297 1654.126,810.9238 C1661.5011,813.7665 1661.7471,817.8776 1656.5303,823.1886 C1663.2124,825.6192 1664.5602,831.254 1659.6028,836.393 C1665.3968,842.2458 1665.0079,847.3716 1657.2065,850.993 C1662.6977,855.9789 1660.1053,860.9418 1654.1953,863.0897 C1650.6752,869.1361 1645.7263,870.2282 1641.2738,864.0774 C1639.1745,871.55 1634.4029,872.3178 1629.1065,867.1563 C1626.096,874.3071 1620.1651,874.6863 1616.1664,868.0862 C1613.1875,873.6716 1608.8861,873.94 1604.6676,869.5094 C1600.8301,877.1494 1596.3814,877.3273 1591.2567,870.7211 C1587.6079,876.3456 1583.2304,874.7301 1580.2011,870.0562 C1574.2638,874.7907 1569.1622,873.6364 1565.9966,866.6867 C1562.0119,872.4904 1557.6687,872.0272 1554.371,866.011 C1550.0547,870.8619 1544.6972,870.7132 1541.6583,864.5381 C1537.8318,870.0275 1531.7855,869.9609 1529.3082,863.1802 C1522.2621,861.7829 1520.4007,856.6249 1525.1738,851.1618 C1516.7736,848.7659 1514.6882,842.2903 1521.468,836.1478 C1517.0966,831.3865 1519.4096,826.5754 1525.1479,825.2179 C1520.4602,820.2538 1520.6454,814.0731 1528.1887,811.9021 " fill="#F1F1F1" style="stroke:#181818;stroke-width:0.5;"/><text fill="#000000" font-family="Helvetica" font-size="14" lengthAdjust="spacing" textLength="90.5657" x="1535" y="832.0339">Firebase Auth</text><text fill="#000000" font-family="Helvetica" font-size="14" lengthAdjust="spacing" textLength="111.4816" x="1535" y="851.1018">(posttrack-f3642)</text></g><!--entity brevo--><g id="elem_brevo"><path d="M386.7788,812.4394 C390.3912,805.1585 395.7816,803.8377 401.9005,809.514 C406.2589,801.6706 413.0585,803.6186 416.8076,810.146 C419.645,803.9953 423.1999,802.6702 428.333,807.8006 C432.2228,800.4916 438.05,799.3412 442.9263,806.8275 C446.6263,800.5871 451.7141,798.8608 456.7381,805.3962 C461.4083,798.1007 465.7295,799.8212 470.4216,805.3728 C474.0373,798.3363 479.0081,797.6399 484.1534,803.7785 C489.198,797.7316 494.9915,798.5195 498.589,805.3951 C502.574,799.0183 509.22,799.533 513.1049,805.5126 C517.3722,799.0442 522.2864,799.3297 525.6567,806.3475 C530.8278,800.2979 537.133,800.649 540.9303,807.9225 C544.9066,802.5047 551.5858,802.1893 554.8066,808.7945 C558.8185,803.1638 563.6602,803.3561 566.8659,809.6122 C572.0067,801.6026 578.5009,803.5638 582.1773,811.0584 C590.0113,812.4533 592.146,817.8997 586.6439,823.9244 C595.1004,825.6855 594.822,830.4173 591.2479,836.5615 C596.2582,842.7888 594.0663,848.3277 586.6089,850.3649 C592.0568,856.7253 590.1548,860.9508 582.9779,863.9325 C578.25,871.2737 572.3884,872.4156 567.0234,864.6034 C563.8908,871.0712 557.8385,870.8557 554.8773,864.4419 C549.7837,872.9515 545.0605,871.308 539.5299,864.8911 C536.0864,871.4401 531.9188,870.9039 527.7327,865.6321 C523.9979,873.6123 516.6535,872.5638 512.889,865.6617 C509.817,874.9062 503.566,875.9993 497.4746,868.4297 C493.8218,875.5628 488.3927,874.4057 484.4001,868.7778 C480.4084,875.7946 473.6785,874.0431 470.5779,867.8457 C465.5885,874.3064 460.4467,872.2489 457.2662,865.9575 C453.0418,872.442 448.703,871.7862 444.1504,866.3177 C439.0883,872.6081 434.1132,871.6322 430.1053,865.1578 C425.2401,871.9376 419.506,870.023 416.0349,863.6647 C411.7412,870.2141 406.0672,869.2647 402.4239,862.9752 C398.8078,870.2621 391.5942,870.7325 387.5906,863.3675 C379.9044,860.5528 377.9159,855.2534 384.4027,849.2404 C377.0687,848.9144 374.9354,842.8535 379.2466,837.4395 C374.9572,831.3555 376.6939,825.4955 383.954,823.2403 C379.3736,818.3585 379.9727,814.3431 386.7788,812.4394 " fill="#F1F1F1" style="stroke:#181818;stroke-width:0.5;"/><text fill="#000000" font-family="Helvetica" font-size="14" lengthAdjust="spacing" textLength="78.6377" x="393.5" y="832.0339">Brevo SMTP</text><text fill="#000000" font-family="Helvetica" font-size="14" lengthAdjust="spacing" textLength="180.0813" x="393.5" y="851.1018">(smtp-relay.brevo.com:587)</text></g><!--entity imgbb--><g id="elem_imgbb"><path d="M631.5472,820.6742 C635.2057,814.366 642.5572,814.4439 646.2934,820.5821 C649.2651,813.6979 655.2513,812.7568 659.9511,818.7492 C663.9304,810.7816 671.3506,811.1107 675.6257,818.4461 C680.1502,812.0602 685.2222,811.1946 689.6721,818.5224 C694.0322,813.5375 699.0921,813.7137 702.4245,819.7153 C707.93,813.6299 712.5221,813.1668 717.5408,820.2732 C727.856,824.582 728.3811,830.9655 719.862,837.7726 C727.0518,843.8255 725.389,848.8512 717.7636,852.841 C713.8168,861.3322 708.273,860.6114 702.2425,855.1606 C699.5214,862.8488 692.7534,862.9853 687.9496,857.404 C684.4326,863.887 680.5861,863.9723 675.6969,858.8532 C670.4951,864.7272 663.4501,864.1902 659.7717,856.9967 C654.1264,863.4904 650.0516,861.2413 646.5187,854.8278 C642.5559,860.7156 636.6207,860.9507 633.4863,853.9876 C624.4887,851.8357 621.299,843.9852 629.2735,837.4974 C621.5447,830.7608 623.2133,825.2399 631.5472,820.6742 " fill="#F1F1F1" style="stroke:#181818;stroke-width:0.5;"/><text fill="#000000" font-family="Helvetica" font-size="14" lengthAdjust="spacing" textLength="70.4477" x="638.5" y="841.5339">ImgBB API</text></g><!--entity browser--><g id="elem_browser"><ellipse cx="1330.2547" cy="54.0679" fill="#F1F1F1" rx="8" ry="8" style="stroke:#181818;stroke-width:0.5;"/><path d="M1330.2547,62.0679 L1330.2547,89.0679 M1317.2547,70.0679 L1343.2547,70.0679 M1330.2547,89.0679 L1317.2547,104.0679 M1330.2547,89.0679 L1343.2547,104.0679 " fill="none" style="stroke:#181818;stroke-width:0.5;"/><text fill="#000000" font-family="Helvetica" font-size="14" lengthAdjust="spacing" textLength="72.8277" x="1246.5" y="120.5339">Navegador</text><text fill="#000000" font-family="Helvetica" font-size="14" lengthAdjust="spacing" textLength="167.5094" x="1246.5" y="139.6018">(Propietario / Veterinario)</text></g><g id="elem_GMN35"><path d="M6,813.5679 L6,858.9799 L342.7443,858.9799 L342.7443,823.5679 L332.7443,813.5679 L6,813.5679 " fill="#FEFFDD" style="stroke:#181818;stroke-width:0.5;"/><path d="M332.7443,813.5679 L332.7443,823.5679 L342.7443,823.5679 L332.7443,813.5679 " fill="#FEFFDD" style="stroke:#181818;stroke-width:1.0;"/><text fill="#000000" font-family="Helvetica" font-size="13" lengthAdjust="spacing" textLength="283.3093" x="12" y="832.4649">Un solo contenedor ejecuta worker + beat (-B).</text><text fill="#000000" font-family="Helvetica" font-size="13" lengthAdjust="spacing" textLength="315.7443" x="12" y="850.1709">Beat dispara send_overdue_reminders cada 30 min.</text></g><!--link browser to front--><g id="link_browser_front"><path d="M1330.5,143.9079 C1330.5,206.4879 1330.5,308.3779 1330.5,366.2279 " fill="none" id="browser-to-front" style="stroke:#181818;stroke-width:1.0;"/><polygon fill="#181818" points="1330.5,372.2279,1334.5,363.2279,1330.5,367.2279,1326.5,363.2279,1330.5,372.2279" style="stroke:#181818;stroke-width:1.0;"/><text fill="#000000" font-family="Helvetica" font-size="13" lengthAdjust="spacing" textLength="75.6991" x="1331.5" y="188.4649">HTTPS :5173</text></g><!--link front to back--><g id="link_front_back"><path d="M1327.3,452.5779 C1323.52,498.5779 1317.8204,568.038 1314.4204,609.498 " fill="none" id="front-to-back" style="stroke:#181818;stroke-width:1.0;"/><polygon fill="#181818" points="1313.93,615.4779,1318.6522,606.835,1314.3387,610.4946,1310.679,606.1811,1313.93,615.4779" style="stroke:#181818;stroke-width:1.0;"/><text fill="#000000" font-family="Helvetica" font-size="13" lengthAdjust="spacing" textLength="112.4747" x="1324.5" y="499.4649">proxy /api &#8594; :8000</text><text fill="#000000" font-family="Helvetica" font-size="13" lengthAdjust="spacing" textLength="75.4521" x="1343.0113" y="517.1709">(HTTP + SSE)</text></g><!--link back to db--><g id="link_back_db"><path d="M1271.22,676.6479 C1224.61,710.8779 1152.9459,763.5063 1104.6759,798.9563 " fill="none" id="back-to-db" style="stroke:#181818;stroke-width:1.0;"/><polygon fill="#181818" points="1099.84,802.5079,1109.4616,800.4045,1103.87,799.5483,1104.7262,793.9566,1099.84,802.5079" style="stroke:#181818;stroke-width:1.0;"/><text fill="#000000" font-family="Helvetica" font-size="13" lengthAdjust="spacing" textLength="56.433" x="1199.5" y="739.4649">TCP 5432</text></g><!--link back to redis--><g id="link_back_redis"><path d="M1306.27,676.8579 C1299.69,714.3379 1289.5668,771.9982 1283.5968,806.0282 " fill="none" id="back-to-redis" style="stroke:#181818;stroke-width:1.0;"/><polygon fill="#181818" points="1282.56,811.9379,1288.055,803.7645,1283.424,807.0131,1280.1753,802.3821,1282.56,811.9379" style="stroke:#181818;stroke-width:1.0;"/><text fill="#000000" font-family="Helvetica" font-size="13" lengthAdjust="spacing" textLength="81.705" x="1297.5" y="739.4649">encola tareas</text></g><!--link celery to redis--><g id="link_celery_redis"><path d="M969.9,676.6979 C996.47,699.1379 1036.16,728.5779 1076.5,743.5679 C1108.34,755.3979 1120.54,740.0779 1152.5,751.5679 C1190.28,765.1479 1223.2571,788.5297 1247.4171,808.1997 " fill="none" id="celery-to-redis" style="stroke:#181818;stroke-width:1.0;"/><polygon fill="#181818" points="1252.07,811.9879,1247.6161,803.2037,1248.1926,808.8311,1242.5652,809.4076,1252.07,811.9879" style="stroke:#181818;stroke-width:1.0;"/><text fill="#000000" font-family="Helvetica" font-size="13" lengthAdjust="spacing" textLength="97.4741" x="1077.5" y="739.4649">consume tareas</text></g><!--link celery to db--><g id="link_celery_db"><path d="M935,676.5679 C934.59,696.5779 936.65,723.0079 947.5,743.5679 C959.94,767.1479 976.4335,783.5866 996.8435,798.8366 " fill="none" id="celery-to-db" style="stroke:#181818;stroke-width:1.0;"/><polygon fill="#181818" points="1001.65,802.4279,996.8345,793.8366,997.6446,799.4351,992.046,800.2453,1001.65,802.4279" style="stroke:#181818;stroke-width:1.0;"/><text fill="#000000" font-family="Helvetica" font-size="13" lengthAdjust="spacing" textLength="56.433" x="948.5" y="739.4649">TCP 5432</text></g><!--link back to fb--><g id="link_back_fb"><path d="M1352.56,676.6479 C1379.61,695.9779 1415.93,721.6179 1448.5,743.5679 C1477.81,763.3179 1505.9197,781.5241 1532.8397,798.6741 " fill="none" id="back-to-fb" style="stroke:#181818;stroke-width:1.0;stroke-dasharray:7.0,7.0;"/><polygon fill="#181818" points="1537.9,801.8979,1532.4587,793.6886,1533.683,799.2114,1528.1603,800.4358,1537.9,801.8979" style="stroke:#181818;stroke-width:1.0;"/><text fill="#000000" font-family="Helvetica" font-size="13" lengthAdjust="spacing" textLength="126.4641" x="1449.5" y="739.4649">verificaci&#243;n de token</text></g><!--link front to fb--><g id="link_front_fb"><path d="M1394.11,445.0179 C1412.11,455.8879 1430.79,469.2479 1445.5,484.5679 C1530.26,572.8479 1544.18,607.6979 1580.5,724.5679 C1588.33,749.7679 1590.5291,773.6391 1590.9791,795.9691 " fill="none" id="front-to-fb" style="stroke:#181818;stroke-width:1.0;stroke-dasharray:7.0,7.0;"/><polygon fill="#181818" points="1591.1,801.9679,1594.9179,792.8892,1590.9993,796.9689,1586.9195,793.0503,1591.1,801.9679" style="stroke:#181818;stroke-width:1.0;"/><text fill="#000000" font-family="Helvetica" font-size="13" lengthAdjust="spacing" textLength="95.3811" x="1577.5" y="651.4649">login (SDK web)</text></g><!--link celery to brevo--><g id="link_celery_brevo"><path d="M904.37,676.5979 C885.35,691.5979 860.19,708.3679 834.5,716.5679 C817.29,722.0579 523.52,713.1779 509.5,724.5679 C487.01,742.8379 481.8697,770.5586 481.4897,795.9686 " fill="none" id="celery-to-brevo" style="stroke:#181818;stroke-width:1.0;stroke-dasharray:7.0,7.0;"/><polygon fill="#181818" points="481.4,801.9679,485.5341,793.0287,481.4748,796.9685,477.535,792.9091,481.4,801.9679" style="stroke:#181818;stroke-width:1.0;"/><text fill="#000000" font-family="Helvetica" font-size="13" lengthAdjust="spacing" textLength="91.4681" x="510.5" y="739.4649">SMTP (correos)</text></g><!--link back to imgbb--><g id="link_back_imgbb"><path d="M1240.4,670.7379 C1188.87,686.7579 1117.17,706.7279 1052.5,716.5679 C928.08,735.4979 880.99,689.5179 771.5,751.5679 C742.91,767.7679 719.1122,788.685 700.3922,807.145 " fill="none" id="back-to-imgbb" style="stroke:#181818;stroke-width:1.0;stroke-dasharray:7.0,7.0;"/><polygon fill="#181818" points="696.12,811.3579,705.3369,807.8868,699.6802,807.8472,699.7197,802.1905,696.12,811.3579" style="stroke:#181818;stroke-width:1.0;"/><text fill="#000000" font-family="Helvetica" font-size="13" lengthAdjust="spacing" textLength="79.8461" x="831.5" y="739.4649">carga directa</text></g><!--link celery to imgbb--><g id="link_celery_imgbb"><path d="M903.87,676.8379 C884.89,691.7179 859.93,708.2879 834.5,716.5679 C822.82,720.3679 622.03,715.7279 613.5,724.5679 C600.47,738.0779 628.3294,778.5951 650.4494,806.8251 " fill="none" id="celery-to-imgbb" style="stroke:#181818;stroke-width:1.0;stroke-dasharray:7.0,7.0;"/><polygon fill="#181818" points="654.15,811.5479,651.7476,801.9966,651.0661,807.6122,645.4505,806.9308,654.15,811.5479" style="stroke:#181818;stroke-width:1.0;"/><text fill="#000000" font-family="Helvetica" font-size="13" lengthAdjust="spacing" textLength="97.2791" x="614.5" y="739.4649">carga as&#237;ncrona</text></g><!--link db to vdb--><g id="link_db_vdb"><path d="M1055.5,869.6979 C1055.5,901.2379 1055.5,942.0079 1055.5,968.4479 " fill="none" id="db-to-vdb" style="stroke:#181818;stroke-width:1.0;stroke-dasharray:7.0,7.0;"/><polygon fill="#181818" points="1055.5,974.4479,1059.5,965.4479,1055.5,969.4479,1051.5,965.4479,1055.5,974.4479" style="stroke:#181818;stroke-width:1.0;"/><text fill="#000000" font-family="Helvetica" font-size="13" lengthAdjust="spacing" textLength="48.529" x="1056.5" y="916.4649">persiste</text></g><!--link back to vmedia--><g id="link_back_vmedia"><path d="M1351.42,676.6679 C1365.62,689.6079 1379.95,706.0779 1387.5,724.5679 C1409.73,778.9779 1479.86,779.8279 1350.5,893.5679 C1310.69,928.5679 1166.31,916.0179 1113.5,920.5679 C1083.12,923.1879 1004.55,916.5879 976.5,928.5679 C953.59,938.3479 937.27,954.2594 924.35,969.8394 " fill="none" id="back-to-vmedia" style="stroke:#181818;stroke-width:1.0;stroke-dasharray:7.0,7.0;"/><polygon fill="#181818" points="920.52,974.4579,929.3441,970.0834,923.7117,970.6091,923.186,964.9768,920.52,974.4579" style="stroke:#181818;stroke-width:1.0;"/><text fill="#000000" font-family="Helvetica" font-size="13" lengthAdjust="spacing" textLength="38.129" x="1426.5" y="841.4649">media</text></g><!--link celery to vmedia--><g id="link_celery_vmedia"><path d="M902.81,676.6079 C875.5,700.7779 840.85,733.7679 833.5,751.5679 C809.42,809.9079 814.27,833.4579 833.5,893.5679 C843.61,925.1579 863.5426,950.877 881.0626,969.877 " fill="none" id="celery-to-vmedia" style="stroke:#181818;stroke-width:1.0;stroke-dasharray:7.0,7.0;"/><polygon fill="#181818" points="885.13,974.2879,881.9696,964.9599,881.7405,970.6121,876.0883,970.3831,885.13,974.2879" style="stroke:#181818;stroke-width:1.0;"/><text fill="#000000" font-family="Helvetica" font-size="13" lengthAdjust="spacing" textLength="123.9811" x="834.5" y="841.4649">archivos temporales</text></g><!--link ncelery to GMN35--><g id="link_ncelery_GMN35"><path d="M795.0042,648.4512 C794.6094,648.5164 794.2016,648.584 793.7809,648.6539 C792.9395,648.7935 792.0463,648.9424 791.1025,649.1002 C783.5526,650.3632 772.7664,652.2059 759.3378,654.6014 C732.4806,659.3923 695.0538,666.3942 651.8075,675.3904 C565.315,693.3829 455.545,719.3529 360.5,751.5679 C309.55,768.8379 253.53,795.0379 216.42,813.4779 " fill="none" id="ncelery-GMN35" style="stroke:#181818;stroke-width:1.0;stroke-dasharray:7.0,7.0;"/></g><!--SRC=[VLNDRjj64BxpAGRgHK8YHPQiA1AA09ObmK6RGBNKd0mOIt98RRpSPNQNSesYG4zzWAAlqLDllVfDyYITtQKaEb4jG02vyyttpSuVBRS2OQMCtMYMtC6Nt_-2EMUvPWM3566EfXGSymgXZT8gBPKxJj4mhPKGwYNCLNA76YvLKIg3dIWoTroMZ1WW9ifSgqgcbqee3Tyj_Q-1C5kMgdikSyYOCDYmf9YnIjYbalO3An1QLoXsQ7d2MWsKL2dElbPPN2pcY_dNAALJr3LYU7u-6IsQQiooc9blkPQBvMGnFeLiyit6ar5_5aLE25gBpnKlNPx4CL5qJGslu8eotG9cO4iFy6iK0GIVEeiBcNE97f664u_PeoZ3rhf2tMQQ4eColP7VEzDqCEWoKPBlM-yilPsSmV-OjZnZYONMHsvT-NPWKEzGtyZsDJh3sQHp8wUZi_7G-tjtx_pRQNrNsY1VFjYjajDXxspGDO8NTG0ES49__ed9NC4Bc5ylILnNCWG2qpVzVh_ZVPthSze92jGF_oyTx2V4QqFt0X8bCvx3lT8knzqPXL8_lu0OcGs11FnpeQHna4pZWzo-GQ3bnYhNkFxfHpWRrULnIJuV3aA5u-UeDQRS17R_U13uN26DO-lQ7uwFlA-7uud7UtYJEbE2UfMAhyJZlmLA3Bmx9So9B9KXR7FhRXA0TQHDL44Yh07nxxMe-vDq8bILGcl9DVg4N5HsIua-NB6R3L-V3qAgitWFdsdSALY_twm8QmfRTZKAzj2BtNalKSLqz6PSDuexslkzA_BP32vMxxo95taSHnGfZLth0zjXxYQG65TQbHmjqrpHF7v4YvfBzxQdLFVKaL5KFq2t-pPC0qpXQhDPhS5FIHJEdDLt-XHAhNvvW5UivF3bZpz3FvEUyw6cMgyNdSWZdGkronGsbojmlN0y3dMU0if42GOK938JxRks0Q3sDHKjnMyHJva3TQz7Lt3dD6SyemsQyCT_fDlZLj4GrrSve8IY7GJjzVm7kCUuisTtTfzmWhZgG3jHMgCodQEApxgBZ-cSlXzK-CIo9i5J03EFVyk4r5aKKU0EiFCNA54RRYmUcKD_aIdqMOFoO64wsVATCc2HFaMQ2JHk8zE-YvMrgW2LxNS3TUZF4WmjRvTAsgFerZD-mgIo39vi0cXtPvqUESpS2wNVVGPeUyhqLb4-qmffKWikQS1eOR2KmR0FzDwB209EFleF]--></g></svg>