<svg xmlns="http://www.w3.org/2000/svg" xmlns:xlink="http://www.w3.org/1999/xlink" contentStyleType="text/css" height="1111px" preserveAspectRatio="none" style="width:1408px;height:1111px;background:#FFFFFF;" version="1.1" viewBox="0 0 1408 1111" width="1408px" zoomAndPan="magnify"><title>PostTrack &#8212; Secuencia: Autenticaci&#243;n y selecci&#243;n de cl&#237;nica</title><defs/><g><text fill="#000000" font-family="Helvetica" font-size="14" font-weight="bold" lengthAdjust="spacing" textLength="414.5244" x="498.5954" y="29.9659">PostTrack &#8212; Secuencia: Autenticaci&#243;n y selecci&#243;n de cl&#237;nica</text><rect fill="none" height="144.806" style="stroke:#000000;stroke-width:1.5;" width="1361.2433" x="10" y="661.4321"/><rect fill="none" height="117.806" style="stroke:#000000;stroke-width:1.5;" width="378.8" x="10" y="820.2381"/><line style="stroke:#181818;stroke-width:0.5;stroke-dasharray:5.0,5.0;" x1="48" x2="48" y1="124.1358" y2="1028.1621"/><line style="stroke:#181818;stroke-width:0.5;stroke-dasharray:5.0,5.0;" x1="330.1163" x2="330.1163" y1="124.1358" y2="1028.1621"/><line style="stroke:#181818;stroke-width:0.5;stroke-dasharray:5.0,5.0;" x1="537.1765" x2="537.1765" y1="124.1358" y2="1028.1621"/><line style="stroke:#181818;stroke-width:0.5;stroke-dasharray:5.0,5.0;" x1="654.7421" x2="654.7421" y1="124.1358" y2="1028.1621"/><line style="stroke:#181818;stroke-width:0.5;stroke-dasharray:5.0,5.0;" x1="877.6954" x2="877.6954" y1="124.1358" y2="1028.1621"/><line style="stroke:#181818;stroke-width:0.5;stroke-dasharray:5.0,5.0;" x1="1041.1968" x2="1041.1968" y1="124.1358" y2="1028.1621"/><line style="stroke:#181818;stroke-width:0.5;stroke-dasharray:5.0,5.0;" x1="1171.5463" x2="1171.5463" y1="124.1358" y2="1028.1621"/><line style="stroke:#181818;stroke-width:0.5;stroke-dasharray:5.0,5.0;" x1="1365.7714" x2="1365.7714" y1="124.1358" y2="1028.1621"/><text fill="#000000" font-family="Helvetica" font-size="14" lengthAdjust="spacing" textLength="51.3098" x="20" y="120.0339">Usuario</text><ellipse cx="48.6549" cy="53.5679" fill="#E2E2F0" rx="8" ry="8" style="stroke:#181818;stroke-width:0.5;"/><path d="M48.6549,61.5679 L48.6549,88.5679 M35.6549,69.5679 L61.6549,69.5679 M48.6549,88.5679 L35.6549,103.5679 M48.6549,88.5679 L61.6549,103.5679 " fill="none" style="stroke:#181818;stroke-width:0.5;"/><text fill="#000000" font-family="Helvetica" font-size="14" lengthAdjust="spacing" textLength="51.3098" x="20" y="1042.128">Usuario</text><ellipse cx="48.6549" cy="1054.73" fill="#E2E2F0" rx="8" ry="8" style="stroke:#181818;stroke-width:0.5;"/><path d="M48.6549,1062.73 L48.6549,1089.73 M35.6549,1070.73 L61.6549,1070.73 M48.6549,1089.73 L35.6549,1104.73 M48.6549,1089.73 L61.6549,1104.73 " fill="none" style="stroke:#181818;stroke-width:0.5;"/><rect fill="#FEF9E7" height="52.1358" rx="2.5" ry="2.5" style="stroke:#B7950B;stroke-width:0.5;" width="96.6837" x="282.1163" y="71"/><text fill="#000000" font-family="Helvetica" font-size="14" lengthAdjust="spacing" textLength="80.1357" x="290.3903" y="92.9659">LoginForm /</text><text fill="#000000" font-family="Helvetica" font-size="14" lengthAdjust="spacing" textLength="82.6837" x="289.1163" y="112.0339">AuthContext</text><rect fill="#FEF9E7" height="52.1358" rx="2.5" ry="2.5" style="stroke:#B7950B;stroke-width:0.5;" width="96.6837" x="282.1163" y="1027.1621"/><text fill="#000000" font-family="Helvetica" font-size="14" lengthAdjust="spacing" textLength="80.1357" x="290.3903" y="1049.128">LoginForm /</text><text fill="#000000" font-family="Helvetica" font-size="14" lengthAdjust="spacing" textLength="82.6837" x="289.1163" y="1068.1959">AuthContext</text><rect fill="#FEF9E7" height="52.1358" rx="2.5" ry="2.5" style="stroke:#B7950B;stroke-width:0.5;" width="104.5657" x="485.1765" y="71"/><text fill="#000000" font-family="Helvetica" font-size="14" lengthAdjust="spacing" textLength="90.5657" x="492.1765" y="92.9659">Firebase Auth</text><text fill="#000000" font-family="Helvetica" font-size="14" lengthAdjust="spacing" textLength="66.1217" x="504.3984" y="112.0339">(SDK web)</text><rect fill="#FEF9E7" height="52.1358" rx="2.5" ry="2.5" style="stroke:#B7950B;stroke-width:0.5;" width="104.5657" x="485.1765" y="1027.1621"/><text fill="#000000" font-family="Helvetica" font-size="14" lengthAdjust="spacing" textLength="90.5657" x="492.1765" y="1049.128">Firebase Auth</text><text fill="#000000" font-family="Helvetica" font-size="14" lengthAdjust="spacing" textLength="66.1217" x="504.3984" y="1068.1959">(SDK web)</text><rect fill="#FEF9E7" height="52.1358" rx="2.5" ry="2.5" style="stroke:#B7950B;stroke-width:0.5;" width="110.5296" x="599.7421" y="71"/><text fill="#000000" font-family="Helvetica" font-size="14" lengthAdjust="spacing" textLength="61.3478" x="624.3331" y="92.9659">API client</text><text fill="#000000" font-family="Helvetica" font-size="14" lengthAdjust="spacing" textLength="96.5296" x="606.7421" y="112.0339">(interceptores)</text><rect fill="#FEF9E7" height="52.1358" rx="2.5" ry="2.5" style="stroke:#B7950B;stroke-width:0.5;" width="110.5296" x="599.7421" y="1027.1621"/><text fill="#000000" font-family="Helvetica" font-size="14" lengthAdjust="spacing" textLength="61.3478" x="624.3331" y="1049.128">API client</text><text fill="#000000" font-family="Helvetica" font-size="14" lengthAdjust="spacing" textLength="96.5296" x="606.7421" y="1068.1959">(interceptores)</text><rect fill="#FEF9E7" height="52.1358" rx="2.5" ry="2.5" style="stroke:#B7950B;stroke-width:0.5;" width="166.5014" x="794.6954" y="71"/><text fill="#000000" font-family="Helvetica" font-size="14" lengthAdjust="spacing" textLength="152.5014" x="801.6954" y="92.9659">FirebaseAuthentication</text><text fill="#000000" font-family="Helvetica" font-size="14" lengthAdjust="spacing" textLength="64.2177" x="845.8372" y="112.0339">(backend)</text><rect fill="#FEF9E7" height="52.1358" rx="2.5" ry="2.5" style="stroke:#B7950B;stroke-width:0.5;" width="166.5014" x="794.6954" y="1027.1621"/><text fill="#000000" font-family="Helvetica" font-size="14" lengthAdjust="spacing" textLength="152.5014" x="801.6954" y="1049.128">FirebaseAuthentication</text><text fill="#000000" font-family="Helvetica" font-size="14" lengthAdjust="spacing" textLength="64.2177" x="845.8372" y="1068.1959">(backend)</text><rect fill="#FEF9E7" height="52.1358" rx="2.5" ry="2.5" style="stroke:#B7950B;stroke-width:0.5;" width="140.3495" x="971.1968" y="71"/><text fill="#000000" font-family="Helvetica" font-size="14" lengthAdjust="spacing" textLength="126.3495" x="978.1968" y="92.9659">UserProfileAPIView</text><text fill="#000000" font-family="Helvetica" font-size="14" lengthAdjust="spacing" textLength="80.7517" x="1000.9957" y="112.0339">(/users/me/)</text><rect fill="#FEF9E7" height="52.1358" rx="2.5" ry="2.5" style="stroke:#B7950B;stroke-width:0.5;" width="140.3495" x="971.1968" y="1027.1621"/><text fill="#000000" font-family="Helvetica" font-size="14" lengthAdjust="spacing" textLength="126.3495" x="978.1968" y="1049.128">UserProfileAPIView</text><text fill="#000000" font-family="Helvetica" font-size="14" lengthAdjust="spacing" textLength="80.7517" x="1000.9957" y="1068.1959">(/users/me/)</text><rect fill="#FEF9E7" height="33.0679" rx="2.5" ry="2.5" style="stroke:#B7950B;stroke-width:0.5;" width="100.4357" x="1121.5463" y="90.0679"/><text fill="#000000" font-family="Helvetica" font-size="14" lengthAdjust="spacing" textLength="86.4357" x="1128.5463" y="112.0339">ClinicContext</text><rect fill="#FEF9E7" height="33.0679" rx="2.5" ry="2.5" style="stroke:#B7950B;stroke-width:0.5;" width="100.4357" x="1121.5463" y="1027.1621"/><text fill="#000000" font-family="Helvetica" font-size="14" lengthAdjust="spacing" textLength="86.4357" x="1128.5463" y="1049.128">ClinicContext</text><text fill="#000000" font-family="Helvetica" font-size="14" lengthAdjust="spacing" textLength="76.9437" x="1324.7714" y="120.0339">PostgreSQL</text><path d="M1348.2433,69.0679 C1348.2433,59.0679 1366.2433,59.0679 1366.2433,59.0679 C1366.2433,59.0679 1384.2433,59.0679 1384.2433,69.0679 L1384.2433,95.0679 C1384.2433,105.0679 1366.2433,105.0679 1366.2433,105.0679 C1366.2433,105.0679 1348.2433,105.0679 1348.2433,95.0679 L1348.2433,69.0679 " fill="#E2E2F0" style="stroke:#181818;stroke-width:1.5;"/><path d="M1348.2433,69.0679 C1348.2433,79.0679 1366.2433,79.0679 1366.2433,79.0679 C1366.2433,79.0679 1384.2433,79.0679 1384.2433,69.0679 " fill="none" style="stroke:#181818;stroke-width:1.5;"/><text fill="#000000" font-family="Helvetica" font-size="14" lengthAdjust="spacing" textLength="76.9437" x="1324.7714" y="1042.128">PostgreSQL</text><path d="M1348.2433,1056.23 C1348.2433,1046.23 1366.2433,1046.23 1366.2433,1046.23 C1366.2433,1046.23 1384.2433,1046.23 1384.2433,1056.23 L1384.2433,1082.23 C1384.2433,1092.23 1366.2433,1092.23 1366.2433,1092.23 C1366.2433,1092.23 1348.2433,1092.23 1348.2433,1082.23 L1348.2433,1056.23 " fill="#E2E2F0" style="stroke:#181818;stroke-width:1.5;"/><path d="M1348.2433,1056.23 C1348.2433,1066.23 1366.2433,1066.23 1366.2433,1066.23 C1366.2433,1066.23 1384.2433,1066.23 1384.2433,1056.23 " fill="none" style="stroke:#181818;stroke-width:1.5;"/><polygon fill="#181818" points="318.4581,153.8419,328.4581,157.8419,318.4581,161.8419,322.4581,157.8419" style="stroke:#181818;stroke-width:1.0;"/><line style="stroke:#181818;stroke-width:1.0;" x1="48.6549" x2="324.4581" y1="157.8419" y2="157.8419"/><text fill="#000000" font-family="Helvetica" font-size="13" lengthAdjust="spacing" textLength="116.0641" x="55.6549" y="152.0328">email + contrase&#241;a</text><polygon fill="#181818" points="525.4593,185.5479,535.4593,189.5479,525.4593,193.5479,529.4593,189.5479" style="stroke:#181818;stroke-width:1.0;"/><line style="stroke:#181818;stroke-width:1.0;" x1="330.4581" x2="531.4593" y1="189.5479" y2="189.5479"/><text fill="#000000" font-family="Helvetica" font-size="13" lengthAdjust="spacing" textLength="183.0012" x="337.4581" y="183.7389">signInWithEmailAndPassword</text><polygon fill="#181818" points="341.4581,217.2539,331.4581,221.2539,341.4581,225.2539,337.4581,221.2539" style="stroke:#181818;stroke-width:1.0;"/><line style="stroke:#181818;stroke-width:1.0;stroke-dasharray:2.0,2.0;" x1="335.4581" x2="536.4593" y1="221.2539" y2="221.2539"/><text fill="#000000" font-family="Helvetica" font-size="13" lengthAdjust="spacing" textLength="82.3291" x="347.4581" y="215.4449">idToken + uid</text><line style="stroke:#181818;stroke-width:1.0;" x1="330.4581" x2="372.4581" y1="252.9599" y2="252.9599"/><line style="stroke:#181818;stroke-width:1.0;" x1="372.4581" x2="372.4581" y1="252.9599" y2="265.9599"/><line style="stroke:#181818;stroke-width:1.0;" x1="331.4581" x2="372.4581" y1="265.9599" y2="265.9599"/><polygon fill="#181818" points="341.4581,261.9599,331.4581,265.9599,341.4581,269.9599,337.4581,265.9599" style="stroke:#181818;stroke-width:1.0;"/><text fill="#000000" font-family="Helvetica" font-size="13" lengthAdjust="spacing" textLength="179.9202" x="337.4581" y="247.1509">onAuthStateChanged dispara</text><polygon fill="#181818" points="643.007,293.6659,653.007,297.6659,643.007,301.6659,647.007,297.6659" style="stroke:#181818;stroke-width:1.0;"/><line style="stroke:#181818;stroke-width:1.0;" x1="330.4581" x2="649.007" y1="297.6659" y2="297.6659"/><text fill="#000000" font-family="Helvetica" font-size="13" lengthAdjust="spacing" textLength="46.9431" x="337.4581" y="291.8569">getMe()</text><polygon fill="#181818" points="865.9461,325.3719,875.9461,329.3719,865.9461,333.3719,869.9461,329.3719" style="stroke:#181818;stroke-width:1.0;"/><line style="stroke:#181818;stroke-width:1.0;" x1="655.007" x2="871.9461" y1="329.3719" y2="329.3719"/><text fill="#000000" font-family="Helvetica" font-size="13" lengthAdjust="spacing" textLength="198.9392" x="662.007" y="323.5629">GET /users/me/ (Bearer idToken)</text><polygon fill="#181818" points="548.4593,357.0779,538.4593,361.0779,548.4593,365.0779,544.4593,361.0779" style="stroke:#181818;stroke-width:1.0;"/><line style="stroke:#181818;stroke-width:1.0;" x1="542.4593" x2="876.9461" y1="361.0779" y2="361.0779"/><text fill="#000000" font-family="Helvetica" font-size="13" lengthAdjust="spacing" textLength="148.0701" x="554.4593" y="355.2689">verify_id_token(idToken)</text><polygon fill="#181818" points="865.9461,388.784,875.9461,392.784,865.9461,396.784,869.9461,392.784" style="stroke:#181818;stroke-width:1.0;"/><line style="stroke:#181818;stroke-width:1.0;stroke-dasharray:2.0,2.0;" x1="537.4593" x2="871.9461" y1="392.784" y2="392.784"/><text fill="#000000" font-family="Helvetica" font-size="13" lengthAdjust="spacing" textLength="59.7351" x="544.4593" y="386.975">uid, email</text><polygon fill="#181818" points="1354.2433,420.49,1364.2433,424.49,1354.2433,428.49,1358.2433,424.49" style="stroke:#181818;stroke-width:1.0;"/><line style="stroke:#181818;stroke-width:1.0;" x1="877.9461" x2="1360.2433" y1="424.49" y2="424.49"/><text fill="#000000" font-family="Helvetica" font-size="13" lengthAdjust="spacing" textLength="220.5712" x="884.9461" y="418.681">buscar User por firebase_uid / email</text><polygon fill="#181818" points="888.9461,452.196,878.9461,456.196,888.9461,460.196,884.9461,456.196" style="stroke:#181818;stroke-width:1.0;"/><line style="stroke:#181818;stroke-width:1.0;stroke-dasharray:2.0,2.0;" x1="882.9461" x2="1365.2433" y1="456.196" y2="456.196"/><text fill="#000000" font-family="Helvetica" font-size="13" lengthAdjust="spacing" textLength="28.431" x="894.9461" y="450.387">User</text><polygon fill="#181818" points="1029.3716,483.902,1039.3716,487.902,1029.3716,491.902,1033.3716,487.902" style="stroke:#181818;stroke-width:1.0;"/><line style="stroke:#181818;stroke-width:1.0;stroke-dasharray:2.0,2.0;" x1="877.9461" x2="1035.3716" y1="487.902" y2="487.902"/><text fill="#000000" font-family="Helvetica" font-size="13" lengthAdjust="spacing" textLength="77.4281" x="884.9461" y="482.093">request.user</text><polygon fill="#181818" points="666.007,515.608,656.007,519.608,666.007,523.608,662.007,519.608" style="stroke:#181818;stroke-width:1.0;"/><line style="stroke:#181818;stroke-width:1.0;stroke-dasharray:2.0,2.0;" x1="660.007" x2="1040.3716" y1="519.608" y2="519.608"/><text fill="#000000" font-family="Helvetica" font-size="13" lengthAdjust="spacing" textLength="120.4581" x="672.007" y="513.799">UserProfile (role, ...)</text><polygon fill="#181818" points="341.4581,547.314,331.4581,551.314,341.4581,555.314,337.4581,551.314" style="stroke:#181818;stroke-width:1.0;"/><line style="stroke:#181818;stroke-width:1.0;stroke-dasharray:2.0,2.0;" x1="335.4581" x2="654.007" y1="551.314" y2="551.314"/><text fill="#000000" font-family="Helvetica" font-size="13" lengthAdjust="spacing" textLength="31.876" x="347.4581" y="545.505">perfil</text><polygon fill="#181818" points="1159.7642,579.0201,1169.7642,583.0201,1159.7642,587.0201,1163.7642,583.0201" style="stroke:#181818;stroke-width:1.0;"/><line style="stroke:#181818;stroke-width:1.0;" x1="330.4581" x2="1165.7642" y1="583.0201" y2="583.0201"/><text fill="#000000" font-family="Helvetica" font-size="13" lengthAdjust="spacing" textLength="157.0141" x="337.4581" y="577.2111">cargar cl&#237;nicas (getClinics)</text><polygon fill="#181818" points="666.007,610.7261,656.007,614.7261,666.007,618.7261,662.007,614.7261" style="stroke:#181818;stroke-width:1.0;"/><line style="stroke:#181818;stroke-width:1.0;" x1="660.007" x2="1170.7642" y1="614.7261" y2="614.7261"/><text fill="#000000" font-family="Helvetica" font-size="13" lengthAdjust="spacing" textLength="73.7751" x="672.007" y="608.9171">GET /clinics/</text><polygon fill="#181818" points="1159.7642,642.4321,1169.7642,646.4321,1159.7642,650.4321,1163.7642,646.4321" style="stroke:#181818;stroke-width:1.0;"/><line style="stroke:#181818;stroke-width:1.0;stroke-dasharray:2.0,2.0;" x1="655.007" x2="1165.7642" y1="646.4321" y2="646.4321"/><text fill="#000000" font-family="Helvetica" font-size="13" lengthAdjust="spacing" textLength="91.1041" x="662.007" y="640.6231">lista de cl&#237;nicas</text><path d="M10,661.4321 L72.459,661.4321 L72.459,671.1381 L62.459,681.1381 L10,681.1381 L10,661.4321 " fill="#EEEEEE" style="stroke:#000000;stroke-width:1.5;"/><rect fill="none" height="144.806" style="stroke:#000000;stroke-width:1.5;" width="1361.2433" x="10" y="661.4321"/><text fill="#000000" font-family="Helvetica" font-size="13" font-weight="bold" lengthAdjust="spacing" textLength="17.459" x="25" y="676.3291">alt</text><text fill="#000000" font-family="Helvetica" font-size="11" font-weight="bold" lengthAdjust="spacing" textLength="91.6184" x="87.459" y="675.191">[una sola cl&#237;nica]</text><line style="stroke:#181818;stroke-width:1.0;" x1="1171.7642" x2="1213.7642" y1="704.8441" y2="704.8441"/><line style="stroke:#181818;stroke-width:1.0;" x1="1213.7642" x2="1213.7642" y1="704.8441" y2="717.8441"/><line style="stroke:#181818;stroke-width:1.0;" x1="1172.7642" x2="1213.7642" y1="717.8441" y2="717.8441"/><polygon fill="#181818" points="1182.7642,713.8441,1172.7642,717.8441,1182.7642,721.8441,1178.7642,717.8441" style="stroke:#181818;stroke-width:1.0;"/><text fill="#000000" font-family="Helvetica" font-size="13" lengthAdjust="spacing" textLength="180.4791" x="1178.7642" y="699.0351">seleccionar autom&#225;ticamente</text><line style="stroke:#000000;stroke-width:1.0;stroke-dasharray:2.0,2.0;" x1="10" x2="1371.2433" y1="726.8441" y2="726.8441"/><text fill="#000000" font-family="Helvetica" font-size="11" font-weight="bold" lengthAdjust="spacing" textLength="84.2154" x="15" y="738.603">[varias cl&#237;nicas]</text><polygon fill="#181818" points="59.6549,762.532,49.6549,766.532,59.6549,770.532,55.6549,766.532" style="stroke:#181818;stroke-width:1.0;"/><line style="stroke:#181818;stroke-width:1.0;stroke-dasharray:2.0,2.0;" x1="53.6549" x2="1170.7642" y1="766.532" y2="766.532"/><text fill="#000000" font-family="Helvetica" font-size="13" lengthAdjust="spacing" textLength="174.0961" x="65.6549" y="760.723">pantalla "Seleccionar cl&#237;nica"</text><polygon fill="#181818" points="1159.7642,794.2381,1169.7642,798.2381,1159.7642,802.2381,1163.7642,798.2381" style="stroke:#181818;stroke-width:1.0;"/><line style="stroke:#181818;stroke-width:1.0;" x1="48.6549" x2="1165.7642" y1="798.2381" y2="798.2381"/><text fill="#000000" font-family="Helvetica" font-size="13" lengthAdjust="spacing" textLength="186.9662" x="55.6549" y="792.429">elegir cl&#237;nica activa (X-Clinic-Id)</text><path d="M10,820.2381 L72.459,820.2381 L72.459,829.9441 L62.459,839.9441 L10,839.9441 L10,820.2381 " fill="#EEEEEE" style="stroke:#000000;stroke-width:1.5;"/><rect fill="none" height="117.806" style="stroke:#000000;stroke-width:1.5;" width="378.8" x="10" y="820.2381"/><text fill="#000000" font-family="Helvetica" font-size="13" font-weight="bold" lengthAdjust="spacing" textLength="17.459" x="25" y="835.1351">alt</text><text fill="#000000" font-family="Helvetica" font-size="11" font-weight="bold" lengthAdjust="spacing" textLength="121.5491" x="87.459" y="833.997">[t&#233;rminos pendientes]</text><polygon fill="#181818" points="59.6549,859.6501,49.6549,863.6501,59.6549,867.6501,55.6549,863.6501" style="stroke:#181818;stroke-width:1.0;"/><line style="stroke:#181818;stroke-width:1.0;stroke-dasharray:2.0,2.0;" x1="53.6549" x2="329.4581" y1="863.6501" y2="863.6501"/><text fill="#000000" font-family="Helvetica" font-size="13" lengthAdjust="spacing" textLength="257.8032" x="65.6549" y="857.8411">redirigir a "Aceptar pol&#237;tica y autorizaci&#243;n"</text><line style="stroke:#000000;stroke-width:1.0;stroke-dasharray:2.0,2.0;" x1="10" x2="388.8" y1="872.6501" y2="872.6501"/><text fill="#000000" font-family="Helvetica" font-size="11" font-weight="bold" lengthAdjust="spacing" textLength="37.1028" x="15" y="884.409">[al d&#237;a]</text><polygon fill="#181818" points="59.6549,926.044,49.6549,930.044,59.6549,934.044,55.6549,930.044" style="stroke:#181818;stroke-width:1.0;"/><line style="stroke:#181818;stroke-width:1.0;stroke-dasharray:2.0,2.0;" x1="53.6549" x2="329.4581" y1="930.044" y2="930.044"/><text fill="#000000" font-family="Helvetica" font-size="13" lengthAdjust="spacing" textLength="110.4611" x="65.6549" y="906.529">redirigir seg&#250;n rol</text><text fill="#000000" font-family="Helvetica" font-size="13" lengthAdjust="spacing" textLength="201.7602" x="65.6549" y="924.235">(propietario / tablero veterinario)</text><path d="M545,950.044 L545,1013.044 L764,1013.044 L764,960.044 L754,950.044 L545,950.044 " fill="#FEFFDD" style="stroke:#181818;stroke-width:0.5;"/><path d="M754,950.044 L754,960.044 L764,960.044 L754,950.044 " fill="#FEFFDD" style="stroke:#181818;stroke-width:0.5;"/><text fill="#000000" font-family="Helvetica" font-size="13" lengthAdjust="spacing" textLength="129.7011" x="551" y="968.941">Cada petici&#243;n agrega</text><text fill="#000000" font-family="Helvetica" font-size="13" lengthAdjust="spacing" textLength="198.0162" x="551" y="986.647">Authorization: Bearer &lt;idToken&gt;</text><text fill="#000000" font-family="Helvetica" font-size="13" lengthAdjust="spacing" textLength="74.4381" x="551" y="1004.3531">y X-Clinic-Id.</text><!--SRC=[TLIzZXj73ExdAGYbaH1BIXCOFXW699sK7E8B5EYKf31muErGAyAZ6MLczYwNAW-H5qZfmaMGBgtUn4zYSdSbxSNsTZly-97y-9CvEu9bIFacOl4MFlpv5woegCWNZ1SmgJBvp0KMVFZNmoCaSbGqFvQWS8VtNgp6fBViznXn1tT2KyPGUJiBBaJuQb5_7KJQeWqFx4lOe4lKiLZQOENo8lZy8-u8Uj-JkoUDt-kWbXZbYVVey_IJOFF5Y_dpBu13j1HRuFJvYs-_cHg3HPRVTQemSW1Ci3RximlqNeUI_IB47OpVU95ZEvFawFVSK-nY_XIyu4Xtc4Xrsxxn_TNb3_10TuC6F7qAdYolH40MVGN9GXeBsaiob1gys3_FhkHDLp87ByugENdRk4tdawTkwqHn6SE67GdbpqmFuZAkv3MDTpHklAx_LydCiJIsM-jiPYnchClhwS2KaLO_lQvjboBa6eQlH12u0DeXE_WQ2l6E0Z_yWqOCQfwAEN7fh_mldBTp1KwyNM9A3z8S8_RXaONjJP2gXATYU_HNGwZRiCgOQRP5Nv85oqcxtQ9Ks0ieALzJVs3qJnv55ddyRdu3vzAXFoMC58-n1aPHnpplAVBcyPRjRLPZ_mHgismO9RbdJSL7vqjrlgjIWJfNmhwN0TkqlRiLF8nRXyikaK8R2dcwra8Z_LPHoYFDryZBy5HRfwNGZy7HCnYDHcsjHvts50LWMb5cCtcIb4h9whYs2VgYKjFgD302EKMeXIeQo_Z4MvCuJXcxsvyCkWoLHqZ1uVae03ICjLTxE8AN-5Zbi3lyhHEyaq4cGt86u5usK58wipR-Gh3MQcGiqGbzRzLXEe9x0bwVOWcWvBCHPCVv7g7_wx2fTNXb1qOMnjI9vyExk6CVaYZchUuZQUp5_1GxakN8IYdX9xgbg5qLUYr1hg8M5FcFvahscdBGWJsynoyn9IeF_tcGviasxcFOC-Nw18r1binH33A0SXFOwskRhW-P8CXWriT1z46BahMkhLvab9KiDQ8kI9sG7eWBQAVyPJl1hmJn21qnHieEIcu-0W00]--></g></svg>