<svg xmlns="http://www.w3.org/2000/svg" xmlns:xlink="http://www.w3.org/1999/xlink" contentStyleType="text/css" height="1278px" preserveAspectRatio="none" style="width:1377px;height:1278px;background:#FFFFFF;" version="1.1" viewBox="0 0 1377 1278" width="1377px" zoomAndPan="magnify"><title>PostTrack &#8212; Secuencia: Revisi&#243;n y validaci&#243;n de un reporte (Veterinario)</title><defs/><g><text fill="#000000" font-family="Helvetica" font-size="14" font-weight="bold" lengthAdjust="spacing" textLength="505.4122" x="437.3442" y="29.9659">PostTrack &#8212; Secuencia: Revisi&#243;n y validaci&#243;n de un reporte (Veterinario)</text><rect fill="none" height="195.9421" style="stroke:#000000;stroke-width:1.5;" width="1361.1007" x="10" y="742.5501"/><line style="stroke:#181818;stroke-width:0.5;stroke-dasharray:5.0,5.0;" x1="59" x2="59" y1="124.1358" y2="1195.1404"/><line style="stroke:#181818;stroke-width:0.5;stroke-dasharray:5.0,5.0;" x1="325.1262" x2="325.1262" y1="124.1358" y2="1195.1404"/><line style="stroke:#181818;stroke-width:0.5;stroke-dasharray:5.0,5.0;" x1="553.1954" x2="553.1954" y1="124.1358" y2="1195.1404"/><line style="stroke:#181818;stroke-width:0.5;stroke-dasharray:5.0,5.0;" x1="810.5547" x2="810.5547" y1="124.1358" y2="1195.1404"/><line style="stroke:#181818;stroke-width:0.5;stroke-dasharray:5.0,5.0;" x1="1003.8107" x2="1003.8107" y1="124.1358" y2="1195.1404"/><line style="stroke:#181818;stroke-width:0.5;stroke-dasharray:5.0,5.0;" x1="1319.1569" x2="1319.1569" y1="124.1358" y2="1195.1404"/><text fill="#000000" font-family="Helvetica" font-size="14" lengthAdjust="spacing" textLength="73.0097" x="20" y="120.0339">Veterinario</text><ellipse cx="59.5049" cy="53.5679" fill="#E2E2F0" rx="8" ry="8" style="stroke:#181818;stroke-width:0.5;"/><path d="M59.5049,61.5679 L59.5049,88.5679 M46.5049,69.5679 L72.5049,69.5679 M59.5049,88.5679 L46.5049,103.5679 M59.5049,88.5679 L72.5049,103.5679 " fill="none" style="stroke:#181818;stroke-width:0.5;"/><text fill="#000000" font-family="Helvetica" font-size="14" lengthAdjust="spacing" textLength="73.0097" x="20" y="1209.1063">Veterinario</text><ellipse cx="59.5049" cy="1221.7083" fill="#E2E2F0" rx="8" ry="8" style="stroke:#181818;stroke-width:0.5;"/><path d="M59.5049,1229.7083 L59.5049,1256.7083 M46.5049,1237.7083 L72.5049,1237.7083 M59.5049,1256.7083 L46.5049,1271.7083 M59.5049,1256.7083 L72.5049,1271.7083 " fill="none" style="stroke:#181818;stroke-width:0.5;"/><rect fill="#E8F8F5" height="52.1358" rx="2.5" ry="2.5" style="stroke:#148F77;stroke-width:0.5;" width="99.3717" x="276.1262" y="71"/><text fill="#000000" font-family="Helvetica" font-size="14" lengthAdjust="spacing" textLength="85.3717" x="283.1262" y="92.9659">Frontend Vet</text><text fill="#000000" font-family="Helvetica" font-size="14" lengthAdjust="spacing" textLength="44.6318" x="303.4961" y="112.0339">(React)</text><rect fill="#E8F8F5" height="52.1358" rx="2.5" ry="2.5" style="stroke:#148F77;stroke-width:0.5;" width="99.3717" x="276.1262" y="1194.1404"/><text fill="#000000" font-family="Helvetica" font-size="14" lengthAdjust="spacing" textLength="85.3717" x="283.1262" y="1216.1063">Frontend Vet</text><text fill="#000000" font-family="Helvetica" font-size="14" lengthAdjust="spacing" textLength="44.6318" x="303.4961" y="1235.1742">(React)</text><rect fill="#E8F8F5" height="52.1358" rx="2.5" ry="2.5" style="stroke:#148F77;stroke-width:0.5;" width="83.5377" x="512.1954" y="71"/><text fill="#000000" font-family="Helvetica" font-size="14" lengthAdjust="spacing" textLength="69.5377" x="519.1954" y="92.9659">vet.service</text><text fill="#000000" font-family="Helvetica" font-size="14" lengthAdjust="spacing" textLength="43.5398" x="532.1943" y="112.0339">(Axios)</text><rect fill="#E8F8F5" height="52.1358" rx="2.5" ry="2.5" style="stroke:#148F77;stroke-width:0.5;" width="83.5377" x="512.1954" y="1194.1404"/><text fill="#000000" font-family="Helvetica" font-size="14" lengthAdjust="spacing" textLength="69.5377" x="519.1954" y="1216.1063">vet.service</text><text fill="#000000" font-family="Helvetica" font-size="14" lengthAdjust="spacing" textLength="43.5398" x="532.1943" y="1235.1742">(Axios)</text><rect fill="#E8F8F5" height="33.0679" rx="2.5" ry="2.5" style="stroke:#148F77;stroke-width:0.5;" width="170.3234" x="725.5547" y="90.0679"/><text fill="#000000" font-family="Helvetica" font-size="14" lengthAdjust="spacing" textLength="156.3234" x="732.5547" y="112.0339">ClinicAccessMiddleware</text><rect fill="#E8F8F5" height="33.0679" rx="2.5" ry="2.5" style="stroke:#148F77;stroke-width:0.5;" width="170.3234" x="725.5547" y="1194.1404"/><text fill="#000000" font-family="Helvetica" font-size="14" lengthAdjust="spacing" textLength="156.3234" x="732.5547" y="1216.1063">ClinicAccessMiddleware</text><rect fill="#E8F8F5" height="52.1358" rx="2.5" ry="2.5" style="stroke:#148F77;stroke-width:0.5;" width="89.4177" x="959.8107" y="71"/><text fill="#000000" font-family="Helvetica" font-size="14" lengthAdjust="spacing" textLength="47.1518" x="980.9437" y="92.9659">Vet API</text><text fill="#000000" font-family="Helvetica" font-size="14" lengthAdjust="spacing" textLength="75.4177" x="966.8107" y="112.0339">(/api/vet/...)</text><rect fill="#E8F8F5" height="52.1358" rx="2.5" ry="2.5" style="stroke:#148F77;stroke-width:0.5;" width="89.4177" x="959.8107" y="1194.1404"/><text fill="#000000" font-family="Helvetica" font-size="14" lengthAdjust="spacing" textLength="47.1518" x="980.9437" y="1216.1063">Vet API</text><text fill="#000000" font-family="Helvetica" font-size="14" lengthAdjust="spacing" textLength="75.4177" x="966.8107" y="1235.1742">(/api/vet/...)</text><text fill="#000000" font-family="Helvetica" font-size="14" lengthAdjust="spacing" textLength="76.9437" x="1278.1569" y="120.0339">PostgreSQL</text><path d="M1301.6288,69.0679 C1301.6288,59.0679 1319.6288,59.0679 1319.6288,59.0679 C1319.6288,59.0679 1337.6288,59.0679 1337.6288,69.0679 L1337.6288,95.0679 C1337.6288,105.0679 1319.6288,105.0679 1319.6288,105.0679 C1319.6288,105.0679 1301.6288,105.0679 1301.6288,95.0679 L1301.6288,69.0679 " fill="#E2E2F0" style="stroke:#181818;stroke-width:1.5;"/><path d="M1301.6288,69.0679 C1301.6288,79.0679 1319.6288,79.0679 1319.6288,79.0679 C1319.6288,79.0679 1337.6288,79.0679 1337.6288,69.0679 " fill="none" style="stroke:#181818;stroke-width:1.5;"/><text fill="#000000" font-family="Helvetica" font-size="14" lengthAdjust="spacing" textLength="76.9437" x="1278.1569" y="1209.1063">PostgreSQL</text><path d="M1301.6288,1223.2083 C1301.6288,1213.2083 1319.6288,1213.2083 1319.6288,1213.2083 C1319.6288,1213.2083 1337.6288,1213.2083 1337.6288,1223.2083 L1337.6288,1249.2083 C1337.6288,1259.2083 1319.6288,1259.2083 1319.6288,1259.2083 C1319.6288,1259.2083 1301.6288,1259.2083 1301.6288,1249.2083 L1301.6288,1223.2083 " fill="#E2E2F0" style="stroke:#181818;stroke-width:1.5;"/><path d="M1301.6288,1223.2083 C1301.6288,1233.2083 1319.6288,1233.2083 1319.6288,1233.2083 C1319.6288,1233.2083 1337.6288,1233.2083 1337.6288,1223.2083 " fill="none" style="stroke:#181818;stroke-width:1.5;"/><polygon fill="#181818" points="313.812,153.8419,323.812,157.8419,313.812,161.8419,317.812,157.8419" style="stroke:#181818;stroke-width:1.0;"/><line style="stroke:#181818;stroke-width:1.0;" x1="59.5049" x2="319.812" y1="157.8419" y2="157.8419"/><text fill="#000000" font-family="Helvetica" font-size="13" lengthAdjust="spacing" textLength="156.3251" x="66.5049" y="152.0328">abrir bandeja de reportes</text><polygon fill="#181818" points="541.9642,185.5479,551.9642,189.5479,541.9642,193.5479,545.9642,189.5479" style="stroke:#181818;stroke-width:1.0;"/><line style="stroke:#181818;stroke-width:1.0;" x1="325.812" x2="547.9642" y1="189.5479" y2="189.5479"/><text fill="#000000" font-family="Helvetica" font-size="13" lengthAdjust="spacing" textLength="103.9611" x="332.812" y="183.7389">getReports(filter)</text><polygon fill="#181818" points="798.7164,217.2539,808.7164,221.2539,798.7164,225.2539,802.7164,221.2539" style="stroke:#181818;stroke-width:1.0;"/><line style="stroke:#181818;stroke-width:1.0;" x1="553.9642" x2="804.7164" y1="221.2539" y2="221.2539"/><text fill="#000000" font-family="Helvetica" font-size="13" lengthAdjust="spacing" textLength="232.7522" x="560.9642" y="215.4449">GET /vet/reports/ (Bearer + X-Clinic-Id)</text><line style="stroke:#181818;stroke-width:1.0;" x1="810.7164" x2="852.7164" y1="252.9599" y2="252.9599"/><line style="stroke:#181818;stroke-width:1.0;" x1="852.7164" x2="852.7164" y1="252.9599" y2="265.9599"/><line style="stroke:#181818;stroke-width:1.0;" x1="811.7164" x2="852.7164" y1="265.9599" y2="265.9599"/><polygon fill="#181818" points="821.7164,261.9599,811.7164,265.9599,821.7164,269.9599,817.7164,265.9599" style="stroke:#181818;stroke-width:1.0;"/><text fill="#000000" font-family="Helvetica" font-size="13" lengthAdjust="spacing" textLength="179.8031" x="817.7164" y="247.1509">validar membres&#237;a a la cl&#237;nica</text><polygon fill="#181818" points="992.5196,293.6659,1002.5196,297.6659,992.5196,301.6659,996.5196,297.6659" style="stroke:#181818;stroke-width:1.0;"/><line style="stroke:#181818;stroke-width:1.0;" x1="810.7164" x2="998.5196" y1="297.6659" y2="297.6659"/><text fill="#000000" font-family="Helvetica" font-size="13" lengthAdjust="spacing" textLength="50.687" x="817.7164" y="291.8569">reenviar</text><polygon fill="#181818" points="1307.6288,343.0779,1317.6288,347.0779,1307.6288,351.0779,1311.6288,347.0779" style="stroke:#181818;stroke-width:1.0;"/><line style="stroke:#181818;stroke-width:1.0;" x1="1004.5196" x2="1313.6288" y1="347.0779" y2="347.0779"/><text fill="#000000" font-family="Helvetica" font-size="13" lengthAdjust="spacing" textLength="171.0282" x="1011.5196" y="323.5629">Report filtrados por clinic_id</text><text fill="#000000" font-family="Helvetica" font-size="13" lengthAdjust="spacing" textLength="110.5261" x="1011.5196" y="341.2689">(orden por riesgo)</text><polygon fill="#181818" points="1015.5196,374.784,1005.5196,378.784,1015.5196,382.784,1011.5196,378.784" style="stroke:#181818;stroke-width:1.0;"/><line style="stroke:#181818;stroke-width:1.0;stroke-dasharray:2.0,2.0;" x1="1009.5196" x2="1318.6288" y1="378.784" y2="378.784"/><text fill="#000000" font-family="Helvetica" font-size="13" lengthAdjust="spacing" textLength="85.5531" x="1021.5196" y="372.975">lista paginada</text><polygon fill="#181818" points="564.9642,406.49,554.9642,410.49,564.9642,414.49,560.9642,410.49" style="stroke:#181818;stroke-width:1.0;"/><line style="stroke:#181818;stroke-width:1.0;stroke-dasharray:2.0,2.0;" x1="558.9642" x2="1003.5196" y1="410.49" y2="410.49"/><text fill="#000000" font-family="Helvetica" font-size="13" lengthAdjust="spacing" textLength="52.182" x="570.9642" y="404.681">reportes</text><polygon fill="#181818" points="336.812,438.196,326.812,442.196,336.812,446.196,332.812,442.196" style="stroke:#181818;stroke-width:1.0;"/><line style="stroke:#181818;stroke-width:1.0;stroke-dasharray:2.0,2.0;" x1="330.812" x2="552.9642" y1="442.196" y2="442.196"/><text fill="#000000" font-family="Helvetica" font-size="13" lengthAdjust="spacing" textLength="24.921" x="342.812" y="436.387">lista</text><polygon fill="#181818" points="70.5049,469.902,60.5049,473.902,70.5049,477.902,66.5049,473.902" style="stroke:#181818;stroke-width:1.0;"/><line style="stroke:#181818;stroke-width:1.0;stroke-dasharray:2.0,2.0;" x1="64.5049" x2="324.812" y1="473.902" y2="473.902"/><text fill="#000000" font-family="Helvetica" font-size="13" lengthAdjust="spacing" textLength="114.6731" x="76.5049" y="468.093">bandeja priorizada</text><polygon fill="#181818" points="313.812,501.608,323.812,505.608,313.812,509.608,317.812,505.608" style="stroke:#181818;stroke-width:1.0;"/><line style="stroke:#181818;stroke-width:1.0;" x1="59.5049" x2="319.812" y1="505.608" y2="505.608"/><text fill="#000000" font-family="Helvetica" font-size="13" lengthAdjust="spacing" textLength="74.1131" x="66.5049" y="499.799">abrir detalle</text><polygon fill="#181818" points="541.9642,533.314,551.9642,537.314,541.9642,541.314,545.9642,537.314" style="stroke:#181818;stroke-width:1.0;"/><line style="stroke:#181818;stroke-width:1.0;" x1="325.812" x2="547.9642" y1="537.314" y2="537.314"/><text fill="#000000" font-family="Helvetica" font-size="13" lengthAdjust="spacing" textLength="80.5091" x="332.812" y="531.505">getReport(id)</text><polygon fill="#181818" points="798.7164,565.0201,808.7164,569.0201,798.7164,573.0201,802.7164,569.0201" style="stroke:#181818;stroke-width:1.0;"/><line style="stroke:#181818;stroke-width:1.0;" x1="553.9642" x2="804.7164" y1="569.0201" y2="569.0201"/><text fill="#000000" font-family="Helvetica" font-size="13" lengthAdjust="spacing" textLength="131.3521" x="560.9642" y="563.2111">GET /vet/reports/{id}/</text><polygon fill="#181818" points="992.5196,596.7261,1002.5196,600.7261,992.5196,604.7261,996.5196,600.7261" style="stroke:#181818;stroke-width:1.0;"/><line style="stroke:#181818;stroke-width:1.0;" x1="810.7164" x2="998.5196" y1="600.7261" y2="600.7261"/><text fill="#000000" font-family="Helvetica" font-size="13" lengthAdjust="spacing" textLength="50.687" x="817.7164" y="594.9171">reenviar</text><polygon fill="#181818" points="1307.6288,628.4321,1317.6288,632.4321,1307.6288,636.4321,1311.6288,632.4321" style="stroke:#181818;stroke-width:1.0;"/><line style="stroke:#181818;stroke-width:1.0;" x1="1004.5196" x2="1313.6288" y1="632.4321" y2="632.4321"/><text fill="#000000" font-family="Helvetica" font-size="13" lengthAdjust="spacing" textLength="205.4002" x="1011.5196" y="626.6231">Report + Answer + VisualEvidence</text><polygon fill="#181818" points="1015.5196,660.1381,1005.5196,664.1381,1015.5196,668.1381,1011.5196,664.1381" style="stroke:#181818;stroke-width:1.0;"/><line style="stroke:#181818;stroke-width:1.0;stroke-dasharray:2.0,2.0;" x1="1009.5196" x2="1318.6288" y1="664.1381" y2="664.1381"/><text fill="#000000" font-family="Helvetica" font-size="13" lengthAdjust="spacing" textLength="41.353" x="1021.5196" y="658.3291">detalle</text><polygon fill="#181818" points="336.812,691.8441,326.812,695.8441,336.812,699.8441,332.812,695.8441" style="stroke:#181818;stroke-width:1.0;"/><line style="stroke:#181818;stroke-width:1.0;stroke-dasharray:2.0,2.0;" x1="330.812" x2="1003.5196" y1="695.8441" y2="695.8441"/><text fill="#000000" font-family="Helvetica" font-size="13" lengthAdjust="spacing" textLength="242.0472" x="342.812" y="690.0351">respuestas, fotos, notas, calculated_risk</text><polygon fill="#181818" points="70.5049,723.5501,60.5049,727.5501,70.5049,731.5501,66.5049,727.5501" style="stroke:#181818;stroke-width:1.0;"/><line style="stroke:#181818;stroke-width:1.0;stroke-dasharray:2.0,2.0;" x1="64.5049" x2="324.812" y1="727.5501" y2="727.5501"/><text fill="#000000" font-family="Helvetica" font-size="13" lengthAdjust="spacing" textLength="96.1741" x="76.5049" y="721.7411">muestra el caso</text><path d="M10,742.5501 L72.459,742.5501 L72.459,752.2562 L62.459,762.2562 L10,762.2562 L10,742.5501 " fill="#EEEEEE" style="stroke:#000000;stroke-width:1.5;"/><rect fill="none" height="195.9421" style="stroke:#000000;stroke-width:1.5;" width="1361.1007" x="10" y="742.5501"/><text fill="#000000" font-family="Helvetica" font-size="13" font-weight="bold" lengthAdjust="spacing" textLength="17.459" x="25" y="757.4472">alt</text><text fill="#000000" font-family="Helvetica" font-size="11" font-weight="bold" lengthAdjust="spacing" textLength="173.2047" x="87.459" y="756.3091">[el veterinario corrige el riesgo]</text><polygon fill="#181818" points="313.812,781.9622,323.812,785.9622,313.812,789.9622,317.812,785.9622" style="stroke:#181818;stroke-width:1.0;"/><line style="stroke:#181818;stroke-width:1.0;" x1="59.5049" x2="319.812" y1="785.9622" y2="785.9622"/><text fill="#000000" font-family="Helvetica" font-size="13" lengthAdjust="spacing" textLength="242.3072" x="66.5049" y="780.1532">seleccionar validated_risk + justificaci&#243;n</text><polygon fill="#181818" points="541.9642,813.6682,551.9642,817.6682,541.9642,821.6682,545.9642,817.6682" style="stroke:#181818;stroke-width:1.0;"/><line style="stroke:#181818;stroke-width:1.0;" x1="325.812" x2="547.9642" y1="817.6682" y2="817.6682"/><text fill="#000000" font-family="Helvetica" font-size="13" lengthAdjust="spacing" textLength="204.1522" x="332.812" y="811.8592">updateReport(id, {validated_risk})</text><polygon fill="#181818" points="992.5196,863.0802,1002.5196,867.0802,992.5196,871.0802,996.5196,867.0802" style="stroke:#181818;stroke-width:1.0;"/><line style="stroke:#181818;stroke-width:1.0;" x1="553.9642" x2="998.5196" y1="867.0802" y2="867.0802"/><text fill="#000000" font-family="Helvetica" font-size="13" lengthAdjust="spacing" textLength="201.4351" x="560.9642" y="843.5652">PATCH /vet/reports/{id}/validate/</text><text fill="#000000" font-family="Helvetica" font-size="13" lengthAdjust="spacing" textLength="173.5891" x="560.9642" y="861.2712">(v&#237;a ClinicAccessMiddleware)</text><polygon fill="#181818" points="1307.6288,894.7862,1317.6288,898.7862,1307.6288,902.7862,1311.6288,898.7862" style="stroke:#181818;stroke-width:1.0;"/><line style="stroke:#181818;stroke-width:1.0;" x1="1004.5196" x2="1313.6288" y1="898.7862" y2="898.7862"/><text fill="#000000" font-family="Helvetica" font-size="13" lengthAdjust="spacing" textLength="136.3051" x="1011.5196" y="892.9772">guardar validated_risk</text><polygon fill="#181818" points="1015.5196,926.4923,1005.5196,930.4923,1015.5196,934.4923,1011.5196,930.4923" style="stroke:#181818;stroke-width:1.0;"/><line style="stroke:#181818;stroke-width:1.0;stroke-dasharray:2.0,2.0;" x1="1009.5196" x2="1318.6288" y1="930.4923" y2="930.4923"/><text fill="#000000" font-family="Helvetica" font-size="13" lengthAdjust="spacing" textLength="14.807" x="1021.5196" y="924.6833">ok</text><polygon fill="#181818" points="313.812,965.1983,323.812,969.1983,313.812,973.1983,317.812,969.1983" style="stroke:#181818;stroke-width:1.0;"/><line style="stroke:#181818;stroke-width:1.0;" x1="59.5049" x2="319.812" y1="969.1983" y2="969.1983"/><text fill="#000000" font-family="Helvetica" font-size="13" lengthAdjust="spacing" textLength="136.6431" x="66.5049" y="963.3893">marcar como revisado</text><polygon fill="#181818" points="541.9642,996.9043,551.9642,1000.9043,541.9642,1004.9043,545.9642,1000.9043" style="stroke:#181818;stroke-width:1.0;"/><line style="stroke:#181818;stroke-width:1.0;" x1="325.812" x2="547.9642" y1="1000.9043" y2="1000.9043"/><text fill="#000000" font-family="Helvetica" font-size="13" lengthAdjust="spacing" textLength="109.1611" x="332.812" y="995.0953">markReviewed(id)</text><polygon fill="#181818" points="992.5196,1046.3163,1002.5196,1050.3163,992.5196,1054.3163,996.5196,1050.3163" style="stroke:#181818;stroke-width:1.0;"/><line style="stroke:#181818;stroke-width:1.0;" x1="553.9642" x2="998.5196" y1="1050.3163" y2="1050.3163"/><text fill="#000000" font-family="Helvetica" font-size="13" lengthAdjust="spacing" textLength="244.9982" x="560.9642" y="1026.8013">PATCH /vet/reports/{id}/mark-reviewed/</text><text fill="#000000" font-family="Helvetica" font-size="13" lengthAdjust="spacing" textLength="173.5891" x="560.9642" y="1044.5073">(v&#237;a ClinicAccessMiddleware)</text><polygon fill="#181818" points="1307.6288,1078.0223,1317.6288,1082.0223,1307.6288,1086.0223,1311.6288,1082.0223" style="stroke:#181818;stroke-width:1.0;"/><line style="stroke:#181818;stroke-width:1.0;" x1="1004.5196" x2="1313.6288" y1="1082.0223" y2="1082.0223"/><text fill="#000000" font-family="Helvetica" font-size="13" lengthAdjust="spacing" textLength="291.1092" x="1011.5196" y="1076.2133">review_status = REVIEWED, reviewed_at = ahora</text><polygon fill="#181818" points="1015.5196,1109.7284,1005.5196,1113.7284,1015.5196,1117.7284,1011.5196,1113.7284" style="stroke:#181818;stroke-width:1.0;"/><line style="stroke:#181818;stroke-width:1.0;stroke-dasharray:2.0,2.0;" x1="1009.5196" x2="1318.6288" y1="1113.7284" y2="1113.7284"/><text fill="#000000" font-family="Helvetica" font-size="13" lengthAdjust="spacing" textLength="14.807" x="1021.5196" y="1107.9194">ok</text><polygon fill="#181818" points="336.812,1141.4344,326.812,1145.4344,336.812,1149.4344,332.812,1145.4344" style="stroke:#181818;stroke-width:1.0;"/><line style="stroke:#181818;stroke-width:1.0;stroke-dasharray:2.0,2.0;" x1="330.812" x2="1003.5196" y1="1145.4344" y2="1145.4344"/><text fill="#000000" font-family="Helvetica" font-size="13" lengthAdjust="spacing" textLength="109.4471" x="342.812" y="1139.6254">{status: reviewed}</text><polygon fill="#181818" points="70.5049,1173.1404,60.5049,1177.1404,70.5049,1181.1404,66.5049,1177.1404" style="stroke:#181818;stroke-width:1.0;"/><line style="stroke:#181818;stroke-width:1.0;stroke-dasharray:2.0,2.0;" x1="64.5049" x2="324.812" y1="1177.1404" y2="1177.1404"/><text fill="#000000" font-family="Helvetica" font-size="13" lengthAdjust="spacing" textLength="80.2751" x="76.5049" y="1171.3314">confirmaci&#243;n</text><!--SRC=[bLHTQXj947wVKnJEYqGiYuLTOWnPa6rfOrWlZcFaVGYOSdT9gQZLFLJtoBinXXmYryXJZk2Rv2If7etacTYBMRs8hlw- -ldgcqwS7C5PYEb2q2pW- -Sly8vCHTum7i0vhJZo_JSF_y8A7LiqzSaIL1w4oY29e3UbHC8UXKE_AEA2VOc2IxZMb7C9bRT7mGM15vFwrqB43sZ33VivpD15QjrOcc7bqYJuz1Sk2NRUa5jHOeCxBTGPYeQuH9yEVoustf_iJtxx3t0GIz80V_brV_BgLL6WINfi3GCOOLgK3pJOcOWsHDvcs7lVEoSbzNSoS3Bk8hNPlKYoOaCA7Ft38Qw1exEJBlB8iMSpCePYF6Lh7TsWK8qzlUn2jMhcQy8XbZpK6iEzlRrrtkd9-BAmcF0Qe-gLbpeNUlVsp_hs-B0efZ3uNVk40y1hOT7zU4iVCQ-psMKiz5f1MaDHSqhdTJpsPknKbdwHB_J-z5Al_nXVGDt2cXo7q3iaxLpW9VmzM4yrEB7zGj4Rpjf50ajQNWl5-wy820x1kFkl2iS6csTHj13v5QCKzLdZnuUGNPdBGMv9r3uHzAW9ShahjgfDNgwley8KvsfAvGqUqZgE2Q74kQxPOfDyE_LMYdhMZM8rfrOdvz70HhnIZIByAITw9B2bXCxHqwBss3wZvotRk-7_KEGbZ7oygVMVSgpGZLUiIXZwQVvDMzl1wvPr7ML5EcNSXLb8GVzyg4y6dQaS9h9Nmd7HLc6P6O90Jb4nw4VaKZwiMb-H2I8yfnnUxwC0U50gaYDZE2YsSSUcZexniOg9P-gB-jrHNbl9gipOhPYxSDlbt_MLq0ZSJ7uskZXwyuJ86-9GtRFAfdpwcym9EyBFAnJxg755TGKFYqBVZBO_bYX6UIOiWmglhwmQkMCJ1IpoyqitPDjEUMQGJ1j8mtjsciuiQzQL6Y1L4Lx3-JXVZuztOPFl2fF6yKCGB1uDs3NJxJhDmPPxrtQD2Nx6icos-WC0]--></g></svg>