<svg xmlns="http://www.w3.org/2000/svg" xmlns:xlink="http://www.w3.org/1999/xlink" contentStyleType="text/css" height="1085px" preserveAspectRatio="none" style="width:2150px;height:1085px;background:#FFFFFF;" version="1.1" viewBox="0 0 2150 1085" width="2150px" zoomAndPan="magnify"><title>PostTrack &#8212; Secuencia: Env&#237;o y clasificaci&#243;n de un reporte</title><defs/><g><text fill="#000000" font-family="Helvetica" font-size="14" font-weight="bold" lengthAdjust="spacing" textLength="406.2925" x="868.251" y="29.9659">PostTrack &#8212; Secuencia: Env&#237;o y clasificaci&#243;n de un reporte</text><rect fill="#FFFFFF" height="431.1601" style="stroke:#181818;stroke-width:1.0;" width="10" x="739.9534" y="221.2539"/><rect fill="#FFFFFF" height="367.7481" style="stroke:#181818;stroke-width:1.0;" width="10" x="992.7746" y="252.9599"/><rect fill="#FFFFFF" height="63.412" style="stroke:#181818;stroke-width:1.0;" width="10" x="1291.5898" y="316.3719"/><rect fill="#FFFFFF" height="126.8241" style="stroke:#181818;stroke-width:1.0;" width="10" x="1962.7484" y="856.6501"/><rect fill="none" height="131.806" style="stroke:#000000;stroke-width:1.5;" width="905.2219" x="896.159" y="426.49"/><line style="stroke:#181818;stroke-width:0.5;stroke-dasharray:5.0,5.0;" x1="44" x2="44" y1="124.1358" y2="1001.4742"/><line style="stroke:#181818;stroke-width:0.5;stroke-dasharray:5.0,5.0;" x1="248.4742" x2="248.4742" y1="124.1358" y2="1001.4742"/><line style="stroke:#181818;stroke-width:0.5;stroke-dasharray:5.0,5.0;" x1="560.6485" x2="560.6485" y1="124.1358" y2="1001.4742"/><line style="stroke:#181818;stroke-width:0.5;stroke-dasharray:5.0,5.0;" x1="744.5688" x2="744.5688" y1="124.1358" y2="1001.4742"/><line style="stroke:#181818;stroke-width:0.5;stroke-dasharray:5.0,5.0;" x1="997.159" x2="997.159" y1="124.1358" y2="1001.4742"/><line style="stroke:#181818;stroke-width:0.5;stroke-dasharray:5.0,5.0;" x1="1295.834" x2="1295.834" y1="124.1358" y2="1001.4742"/><line style="stroke:#181818;stroke-width:0.5;stroke-dasharray:5.0,5.0;" x1="1683.9053" x2="1683.9053" y1="124.1358" y2="1001.4742"/><line style="stroke:#181818;stroke-width:0.5;stroke-dasharray:5.0,5.0;" x1="1762.849" x2="1762.849" y1="124.1358" y2="1001.4742"/><line style="stroke:#181818;stroke-width:0.5;stroke-dasharray:5.0,5.0;" x1="1967.1366" x2="1967.1366" y1="124.1358" y2="1001.4742"/><line style="stroke:#181818;stroke-width:0.5;stroke-dasharray:5.0,5.0;" x1="2109.1486" x2="2109.1486" y1="124.1358" y2="1001.4742"/><text fill="#000000" font-family="Helvetica" font-size="14" lengthAdjust="spacing" textLength="73.6117" x="5" y="120.0339">Propietario</text><ellipse cx="44.8059" cy="53.5679" fill="#E2E2F0" rx="8" ry="8" style="stroke:#181818;stroke-width:0.5;"/><path d="M44.8059,61.5679 L44.8059,88.5679 M31.8059,69.5679 L57.8059,69.5679 M44.8059,88.5679 L31.8059,103.5679 M44.8059,88.5679 L57.8059,103.5679 " fill="none" style="stroke:#181818;stroke-width:0.5;"/><text fill="#000000" font-family="Helvetica" font-size="14" lengthAdjust="spacing" textLength="73.6117" x="5" y="1015.4401">Propietario</text><ellipse cx="44.8059" cy="1028.0421" fill="#E2E2F0" rx="8" ry="8" style="stroke:#181818;stroke-width:0.5;"/><path d="M44.8059,1036.0421 L44.8059,1063.0421 M31.8059,1044.0421 L57.8059,1044.0421 M44.8059,1063.0421 L31.8059,1078.0421 M44.8059,1063.0421 L57.8059,1078.0421 " fill="none" style="stroke:#181818;stroke-width:0.5;"/><rect fill="#EBF5FB" height="52.1358" rx="2.5" ry="2.5" style="stroke:#2471A3;stroke-width:0.5;" width="93.1277" x="202.4742" y="71"/><text fill="#000000" font-family="Helvetica" font-size="14" lengthAdjust="spacing" textLength="79.1277" x="209.4742" y="92.9659">ReportForm</text><text fill="#000000" font-family="Helvetica" font-size="14" lengthAdjust="spacing" textLength="44.6318" x="226.7221" y="112.0339">(React)</text><rect fill="#EBF5FB" height="52.1358" rx="2.5" ry="2.5" style="stroke:#2471A3;stroke-width:0.5;" width="93.1277" x="202.4742" y="1000.4742"/><text fill="#000000" font-family="Helvetica" font-size="14" lengthAdjust="spacing" textLength="79.1277" x="209.4742" y="1022.4401">ReportForm</text><text fill="#000000" font-family="Helvetica" font-size="14" lengthAdjust="spacing" textLength="44.6318" x="226.7221" y="1041.508">(React)</text><rect fill="#EBF5FB" height="52.1358" rx="2.5" ry="2.5" style="stroke:#2471A3;stroke-width:0.5;" width="116.9136" x="502.6485" y="71"/><text fill="#000000" font-family="Helvetica" font-size="14" lengthAdjust="spacing" textLength="102.9136" x="509.6485" y="92.9659">patients.service</text><text fill="#000000" font-family="Helvetica" font-size="14" lengthAdjust="spacing" textLength="43.5398" x="539.3354" y="112.0339">(Axios)</text><rect fill="#EBF5FB" height="52.1358" rx="2.5" ry="2.5" style="stroke:#2471A3;stroke-width:0.5;" width="116.9136" x="502.6485" y="1000.4742"/><text fill="#000000" font-family="Helvetica" font-size="14" lengthAdjust="spacing" textLength="102.9136" x="509.6485" y="1022.4401">patients.service</text><text fill="#000000" font-family="Helvetica" font-size="14" lengthAdjust="spacing" textLength="43.5398" x="539.3354" y="1041.508">(Axios)</text><rect fill="#EBF5FB" height="52.1358" rx="2.5" ry="2.5" style="stroke:#2471A3;stroke-width:0.5;" width="210.7692" x="639.5688" y="71"/><text fill="#000000" font-family="Helvetica" font-size="14" lengthAdjust="spacing" textLength="161.2934" x="664.3067" y="92.9659">MonitoringFormAPIView</text><text fill="#000000" font-family="Helvetica" font-size="14" lengthAdjust="spacing" textLength="196.7692" x="646.5688" y="112.0339">(POST /monitoring/{id}/form/)</text><rect fill="#EBF5FB" height="52.1358" rx="2.5" ry="2.5" style="stroke:#2471A3;stroke-width:0.5;" width="210.7692" x="639.5688" y="1000.4742"/><text fill="#000000" font-family="Helvetica" font-size="14" lengthAdjust="spacing" textLength="161.2934" x="664.3067" y="1022.4401">MonitoringFormAPIView</text><text fill="#000000" font-family="Helvetica" font-size="14" lengthAdjust="spacing" textLength="196.7692" x="646.5688" y="1041.508">(POST /monitoring/{id}/form/)</text><rect fill="#EBF5FB" height="52.1358" rx="2.5" ry="2.5" style="stroke:#2471A3;stroke-width:0.5;" width="183.2314" x="906.159" y="71"/><text fill="#000000" font-family="Helvetica" font-size="14" lengthAdjust="spacing" textLength="169.2314" x="913.159" y="92.9659">create_monitoring_report</text><text fill="#000000" font-family="Helvetica" font-size="14" lengthAdjust="spacing" textLength="54.1238" x="970.7127" y="112.0339">(service)</text><rect fill="#EBF5FB" height="52.1358" rx="2.5" ry="2.5" style="stroke:#2471A3;stroke-width:0.5;" width="183.2314" x="906.159" y="1000.4742"/><text fill="#000000" font-family="Helvetica" font-size="14" lengthAdjust="spacing" textLength="169.2314" x="913.159" y="1022.4401">create_monitoring_report</text><text fill="#000000" font-family="Helvetica" font-size="14" lengthAdjust="spacing" textLength="54.1238" x="970.7127" y="1041.508">(service)</text><rect fill="#EBF5FB" height="52.1358" rx="2.5" ry="2.5" style="stroke:#2471A3;stroke-width:0.5;" width="127.5116" x="1232.834" y="71"/><text fill="#000000" font-family="Helvetica" font-size="14" lengthAdjust="spacing" textLength="85.7217" x="1253.729" y="92.9659">evaluate_risk</text><text fill="#000000" font-family="Helvetica" font-size="14" lengthAdjust="spacing" textLength="113.5116" x="1239.834" y="112.0339">(motor de reglas)</text><rect fill="#EBF5FB" height="52.1358" rx="2.5" ry="2.5" style="stroke:#2471A3;stroke-width:0.5;" width="127.5116" x="1232.834" y="1000.4742"/><text fill="#000000" font-family="Helvetica" font-size="14" lengthAdjust="spacing" textLength="85.7217" x="1253.729" y="1022.4401">evaluate_risk</text><text fill="#000000" font-family="Helvetica" font-size="14" lengthAdjust="spacing" textLength="113.5116" x="1239.834" y="1041.508">(motor de reglas)</text><text fill="#000000" font-family="Helvetica" font-size="14" lengthAdjust="spacing" textLength="76.9437" x="1642.9053" y="120.0339">PostgreSQL</text><path d="M1666.3771,69.0679 C1666.3771,59.0679 1684.3771,59.0679 1684.3771,59.0679 C1684.3771,59.0679 1702.3771,59.0679 1702.3771,69.0679 L1702.3771,95.0679 C1702.3771,105.0679 1684.3771,105.0679 1684.3771,105.0679 C1684.3771,105.0679 1666.3771,105.0679 1666.3771,95.0679 L1666.3771,69.0679 " fill="#E2E2F0" style="stroke:#181818;stroke-width:1.5;"/><path d="M1666.3771,69.0679 C1666.3771,79.0679 1684.3771,79.0679 1684.3771,79.0679 C1684.3771,79.0679 1702.3771,79.0679 1702.3771,69.0679 " fill="none" style="stroke:#181818;stroke-width:1.5;"/><text fill="#000000" font-family="Helvetica" font-size="14" lengthAdjust="spacing" textLength="76.9437" x="1642.9053" y="1015.4401">PostgreSQL</text><path d="M1666.3771,1029.5421 C1666.3771,1019.5421 1684.3771,1019.5421 1684.3771,1019.5421 C1684.3771,1019.5421 1702.3771,1019.5421 1702.3771,1029.5421 L1702.3771,1055.5421 C1702.3771,1065.5421 1684.3771,1065.5421 1684.3771,1065.5421 C1684.3771,1065.5421 1666.3771,1065.5421 1666.3771,1055.5421 L1666.3771,1029.5421 " fill="#E2E2F0" style="stroke:#181818;stroke-width:1.5;"/><path d="M1666.3771,1029.5421 C1666.3771,1039.5421 1684.3771,1039.5421 1684.3771,1039.5421 C1684.3771,1039.5421 1702.3771,1039.5421 1702.3771,1029.5421 " fill="none" style="stroke:#181818;stroke-width:1.5;"/><path d="M1740.849,95.0679 L1786.3808,95.0679 C1791.3808,95.0679 1791.3808,109.6019 1791.3808,109.6019 C1791.3808,109.6019 1791.3808,124.1358 1786.3808,124.1358 L1740.849,124.1358 C1735.849,124.1358 1735.849,109.6019 1735.849,109.6019 C1735.849,109.6019 1735.849,95.0679 1740.849,95.0679 " fill="#E2E2F0" style="stroke:#181818;stroke-width:0.5;"/><path d="M1786.3808,95.0679 C1781.3808,95.0679 1781.3808,109.6019 1781.3808,109.6019 C1781.3808,124.1358 1786.3808,124.1358 1786.3808,124.1358 " fill="none" style="stroke:#181818;stroke-width:0.5;"/><text fill="#000000" font-family="Helvetica" font-size="14" lengthAdjust="spacing" textLength="35.5319" x="1740.849" y="115.0339">Redis</text><path d="M1740.849,1000.4742 L1786.3808,1000.4742 C1791.3808,1000.4742 1791.3808,1015.0081 1791.3808,1015.0081 C1791.3808,1015.0081 1791.3808,1029.5421 1786.3808,1029.5421 L1740.849,1029.5421 C1735.849,1029.5421 1735.849,1015.0081 1735.849,1015.0081 C1735.849,1015.0081 1735.849,1000.4742 1740.849,1000.4742 " fill="#E2E2F0" style="stroke:#181818;stroke-width:0.5;"/><path d="M1786.3808,1000.4742 C1781.3808,1000.4742 1781.3808,1015.0081 1781.3808,1015.0081 C1781.3808,1029.5421 1786.3808,1029.5421 1786.3808,1029.5421 " fill="none" style="stroke:#181818;stroke-width:0.5;"/><text fill="#000000" font-family="Helvetica" font-size="14" lengthAdjust="spacing" textLength="35.5319" x="1740.849" y="1020.4401">Redis</text><rect fill="#EBF5FB" height="33.0679" rx="2.5" ry="2.5" style="stroke:#2471A3;stroke-width:0.5;" width="105.2236" x="1915.1366" y="90.0679"/><text fill="#000000" font-family="Helvetica" font-size="14" lengthAdjust="spacing" textLength="91.2236" x="1922.1366" y="112.0339">Celery worker</text><rect fill="#EBF5FB" height="33.0679" rx="2.5" ry="2.5" style="stroke:#2471A3;stroke-width:0.5;" width="105.2236" x="1915.1366" y="1000.4742"/><text fill="#000000" font-family="Helvetica" font-size="14" lengthAdjust="spacing" textLength="91.2236" x="1922.1366" y="1022.4401">Celery worker</text><rect fill="#EBF5FB" height="33.0679" rx="2.5" ry="2.5" style="stroke:#2471A3;stroke-width:0.5;" width="58.6458" x="2080.1486" y="90.0679"/><text fill="#000000" font-family="Helvetica" font-size="14" lengthAdjust="spacing" textLength="44.6458" x="2087.1486" y="112.0339">ImgBB</text><rect fill="#EBF5FB" height="33.0679" rx="2.5" ry="2.5" style="stroke:#2471A3;stroke-width:0.5;" width="58.6458" x="2080.1486" y="1000.4742"/><text fill="#000000" font-family="Helvetica" font-size="14" lengthAdjust="spacing" textLength="44.6458" x="2087.1486" y="1022.4401">ImgBB</text><rect fill="#FFFFFF" height="431.1601" style="stroke:#181818;stroke-width:1.0;" width="10" x="739.9534" y="221.2539"/><rect fill="#FFFFFF" height="367.7481" style="stroke:#181818;stroke-width:1.0;" width="10" x="992.7746" y="252.9599"/><rect fill="#FFFFFF" height="63.412" style="stroke:#181818;stroke-width:1.0;" width="10" x="1291.5898" y="316.3719"/><rect fill="#FFFFFF" height="126.8241" style="stroke:#181818;stroke-width:1.0;" width="10" x="1962.7484" y="856.6501"/><polygon fill="#181818" points="237.038,153.8419,247.038,157.8419,237.038,161.8419,241.038,157.8419" style="stroke:#181818;stroke-width:1.0;"/><line style="stroke:#181818;stroke-width:1.0;" x1="44.8059" x2="243.038" y1="157.8419" y2="157.8419"/><text fill="#000000" font-family="Helvetica" font-size="13" lengthAdjust="spacing" textLength="180.2321" x="56.8059" y="152.0328">completa pasos 1-3 y "Enviar"</text><polygon fill="#181818" points="549.1053,185.5479,559.1053,189.5479,549.1053,193.5479,553.1053,189.5479" style="stroke:#181818;stroke-width:1.0;"/><line style="stroke:#181818;stroke-width:1.0;" x1="249.038" x2="555.1053" y1="189.5479" y2="189.5479"/><text fill="#000000" font-family="Helvetica" font-size="13" lengthAdjust="spacing" textLength="152.5032" x="328.8201" y="183.7389">submitReport(FormData)</text><polygon fill="#181818" points="727.9534,217.2539,737.9534,221.2539,727.9534,225.2539,731.9534,221.2539" style="stroke:#181818;stroke-width:1.0;"/><line style="stroke:#181818;stroke-width:1.0;" x1="561.1053" x2="733.9534" y1="221.2539" y2="221.2539"/><text fill="#000000" font-family="Helvetica" font-size="13" lengthAdjust="spacing" textLength="159.8482" x="570.6053" y="215.4449">POST (Bearer + X-Clinic-Id)</text><polygon fill="#181818" points="980.7746,248.9599,990.7746,252.9599,980.7746,256.9599,984.7746,252.9599" style="stroke:#181818;stroke-width:1.0;"/><line style="stroke:#181818;stroke-width:1.0;" x1="749.9534" x2="986.7746" y1="252.9599" y2="252.9599"/><text fill="#000000" font-family="Helvetica" font-size="13" lengthAdjust="spacing" textLength="223.8212" x="759.4534" y="247.1509">create_monitoring_report(data, files)</text><polygon fill="#181818" points="1672.3771,280.6659,1682.3771,284.6659,1672.3771,288.6659,1676.3771,284.6659" style="stroke:#181818;stroke-width:1.0;"/><line style="stroke:#181818;stroke-width:1.0;" x1="1002.7746" x2="1678.3771" y1="284.6659" y2="284.6659"/><text fill="#000000" font-family="Helvetica" font-size="13" lengthAdjust="spacing" textLength="185.4451" x="1250.8533" y="278.8569">guardar im&#225;genes temporales</text><polygon fill="#181818" points="1279.5898,312.3719,1289.5898,316.3719,1279.5898,320.3719,1283.5898,316.3719" style="stroke:#181818;stroke-width:1.0;"/><line style="stroke:#181818;stroke-width:1.0;" x1="1002.7746" x2="1285.5898" y1="316.3719" y2="316.3719"/><text fill="#000000" font-family="Helvetica" font-size="13" lengthAdjust="spacing" textLength="269.8152" x="1012.2746" y="310.5629">evaluate_risk(answers, horas_desde_cirugia)</text><polygon fill="#181818" points="1672.3771,344.0779,1682.3771,348.0779,1672.3771,352.0779,1676.3771,348.0779" style="stroke:#181818;stroke-width:1.0;"/><line style="stroke:#181818;stroke-width:1.0;" x1="1301.5898" x2="1678.3771" y1="348.0779" y2="348.0779"/><text fill="#000000" font-family="Helvetica" font-size="13" lengthAdjust="spacing" textLength="358.7873" x="1313.5898" y="342.2689">RiskWindow / FactorWindowRisk / RiskRule / RiskThreshold</text><polygon fill="#181818" points="1013.7746,375.784,1003.7746,379.784,1013.7746,383.784,1009.7746,379.784" style="stroke:#181818;stroke-width:1.0;"/><line style="stroke:#181818;stroke-width:1.0;stroke-dasharray:2.0,2.0;" x1="1007.7746" x2="1295.5898" y1="379.784" y2="379.784"/><text fill="#000000" font-family="Helvetica" font-size="13" lengthAdjust="spacing" textLength="233.7272" x="1032.8186" y="373.975">RiskEvaluationResult(level, window, ...)</text><polygon fill="#181818" points="1672.3771,407.49,1682.3771,411.49,1672.3771,415.49,1676.3771,411.49" style="stroke:#181818;stroke-width:1.0;"/><line style="stroke:#181818;stroke-width:1.0;" x1="1002.7746" x2="1678.3771" y1="411.49" y2="411.49"/><text fill="#000000" font-family="Helvetica" font-size="13" lengthAdjust="spacing" textLength="233.2982" x="1226.9268" y="405.681">crear Report(calculated_risk) + Answer</text><path d="M896.159,426.49 L958.618,426.49 L958.618,436.196 L948.618,446.196 L896.159,446.196 L896.159,426.49 " fill="#EEEEEE" style="stroke:#000000;stroke-width:1.5;"/><rect fill="none" height="131.806" style="stroke:#000000;stroke-width:1.5;" width="905.2219" x="896.159" y="426.49"/><text fill="#000000" font-family="Helvetica" font-size="13" font-weight="bold" lengthAdjust="spacing" textLength="17.459" x="911.159" y="441.387">alt</text><text fill="#000000" font-family="Helvetica" font-size="11" font-weight="bold" lengthAdjust="spacing" textLength="83.7314" x="973.618" y="440.2489">[hay im&#225;genes]</text><polygon fill="#181818" points="1672.3771,465.902,1682.3771,469.902,1672.3771,473.902,1676.3771,469.902" style="stroke:#181818;stroke-width:1.0;"/><line style="stroke:#181818;stroke-width:1.0;" x1="1002.7746" x2="1678.3771" y1="469.902" y2="469.902"/><text fill="#000000" font-family="Helvetica" font-size="13" lengthAdjust="spacing" textLength="203.3462" x="1241.9028" y="464.093">processing_status = PROCESSING</text><polygon fill="#181818" points="1751.6149,497.608,1761.6149,501.608,1751.6149,505.608,1755.6149,501.608" style="stroke:#181818;stroke-width:1.0;"/><line style="stroke:#181818;stroke-width:1.0;" x1="1002.7746" x2="1757.6149" y1="501.608" y2="501.608"/><text fill="#000000" font-family="Helvetica" font-size="13" lengthAdjust="spacing" textLength="313.4432" x="1226.4732" y="495.799">process_report_images_task.delay(report_id, paths)</text><line style="stroke:#000000;stroke-width:1.0;stroke-dasharray:2.0,2.0;" x1="896.159" x2="1801.3808" y1="510.608" y2="510.608"/><text fill="#000000" font-family="Helvetica" font-size="11" font-weight="bold" lengthAdjust="spacing" textLength="79.6504" x="901.159" y="522.3669">[sin im&#225;genes]</text><polygon fill="#181818" points="1672.3771,546.2959,1682.3771,550.2959,1672.3771,554.2959,1676.3771,550.2959" style="stroke:#181818;stroke-width:1.0;"/><line style="stroke:#181818;stroke-width:1.0;" x1="1002.7746" x2="1678.3771" y1="550.2959" y2="550.2959"/><text fill="#000000" font-family="Helvetica" font-size="13" lengthAdjust="spacing" textLength="199.7842" x="1243.6838" y="544.4869">processing_status = COMPLETED</text><polygon fill="#181818" points="1672.3771,585.002,1682.3771,589.002,1672.3771,593.002,1676.3771,589.002" style="stroke:#181818;stroke-width:1.0;"/><line style="stroke:#181818;stroke-width:1.0;" x1="1002.7746" x2="1678.3771" y1="589.002" y2="589.002"/><text fill="#000000" font-family="Helvetica" font-size="13" lengthAdjust="spacing" textLength="220.6882" x="1233.2318" y="583.1929">reiniciar contadores de recordatorio</text><polygon fill="#181818" points="760.9534,616.708,750.9534,620.708,760.9534,624.708,756.9534,620.708" style="stroke:#181818;stroke-width:1.0;"/><line style="stroke:#181818;stroke-width:1.0;stroke-dasharray:2.0,2.0;" x1="754.9534" x2="996.7746" y1="620.708" y2="620.708"/><text fill="#000000" font-family="Helvetica" font-size="13" lengthAdjust="spacing" textLength="38.623" x="854.5525" y="614.899">report</text><polygon fill="#181818" points="572.1053,648.414,562.1053,652.414,572.1053,656.414,568.1053,652.414" style="stroke:#181818;stroke-width:1.0;"/><line style="stroke:#181818;stroke-width:1.0;stroke-dasharray:2.0,2.0;" x1="566.1053" x2="743.9534" y1="652.414" y2="652.414"/><text fill="#000000" font-family="Helvetica" font-size="13" lengthAdjust="spacing" textLength="91.3121" x="607.3733" y="646.605">201 {report_id}</text><polygon fill="#181818" points="260.038,680.12,250.038,684.12,260.038,688.12,256.038,684.12" style="stroke:#181818;stroke-width:1.0;"/><line style="stroke:#181818;stroke-width:1.0;stroke-dasharray:2.0,2.0;" x1="254.038" x2="560.1053" y1="684.12" y2="684.12"/><text fill="#000000" font-family="Helvetica" font-size="13" lengthAdjust="spacing" textLength="14.807" x="397.6681" y="678.311">ok</text><polygon fill="#181818" points="549.1053,711.826,559.1053,715.826,549.1053,719.826,553.1053,715.826" style="stroke:#181818;stroke-width:1.0;"/><line style="stroke:#181818;stroke-width:1.0;" x1="249.038" x2="555.1053" y1="715.826" y2="715.826"/><text fill="#000000" font-family="Helvetica" font-size="13" lengthAdjust="spacing" textLength="288.0673" x="261.038" y="710.017">evaluateRisk(answers) (para mostrar resultado)</text><polygon fill="#181818" points="260.038,743.532,250.038,747.532,260.038,751.532,256.038,747.532" style="stroke:#181818;stroke-width:1.0;"/><line style="stroke:#181818;stroke-width:1.0;stroke-dasharray:2.0,2.0;" x1="254.038" x2="560.1053" y1="747.532" y2="747.532"/><text fill="#000000" font-family="Helvetica" font-size="13" lengthAdjust="spacing" textLength="228.6312" x="290.756" y="741.723">{level, counts, applied_rules, window}</text><polygon fill="#181818" points="55.8059,775.2381,45.8059,779.2381,55.8059,783.2381,51.8059,779.2381" style="stroke:#181818;stroke-width:1.0;"/><line style="stroke:#181818;stroke-width:1.0;stroke-dasharray:2.0,2.0;" x1="49.8059" x2="248.038" y1="779.2381" y2="779.2381"/><text fill="#000000" font-family="Helvetica" font-size="13" lengthAdjust="spacing" textLength="129.5581" x="82.1429" y="773.429">pantalla de resultado</text><rect fill="#EEEEEE" height="3" style="stroke:#EEEEEE;stroke-width:1.0;" width="2143.7944" x="0" y="809.0911"/><line style="stroke:#000000;stroke-width:1.0;" x1="0" x2="2143.7944" y1="809.0911" y2="809.0911"/><line style="stroke:#000000;stroke-width:1.0;" x1="0" x2="2143.7944" y1="812.0911" y2="812.0911"/><rect fill="#EEEEEE" height="25.706" style="stroke:#000000;stroke-width:2.0;" width="268.0852" x="937.8546" y="797.2381"/><text fill="#000000" font-family="Helvetica" font-size="13" font-weight="bold" lengthAdjust="spacing" textLength="250.7052" x="943.8546" y="815.1351">Procesamiento as&#237;ncrono de im&#225;genes</text><polygon fill="#181818" points="1950.7484,852.6501,1960.7484,856.6501,1950.7484,860.6501,1954.7484,856.6501" style="stroke:#181818;stroke-width:1.0;"/><line style="stroke:#181818;stroke-width:1.0;" x1="1763.6149" x2="1956.7484" y1="856.6501" y2="856.6501"/><text fill="#000000" font-family="Helvetica" font-size="13" lengthAdjust="spacing" textLength="172.7051" x="1776.8291" y="850.8411">process_report_images_task</text><polygon fill="#181818" points="2097.4715,884.3561,2107.4715,888.3561,2097.4715,892.3561,2101.4715,888.3561" style="stroke:#181818;stroke-width:1.0;"/><line style="stroke:#181818;stroke-width:1.0;" x1="1972.7484" x2="2103.4715" y1="888.3561" y2="888.3561"/><text fill="#000000" font-family="Helvetica" font-size="13" lengthAdjust="spacing" textLength="112.7231" x="1984.7484" y="882.5471">subir cada imagen</text><polygon fill="#181818" points="1983.7484,916.0621,1973.7484,920.0621,1983.7484,924.0621,1979.7484,920.0621" style="stroke:#181818;stroke-width:1.0;"/><line style="stroke:#181818;stroke-width:1.0;stroke-dasharray:2.0,2.0;" x1="1977.7484" x2="2108.4715" y1="920.0621" y2="920.0621"/><text fill="#000000" font-family="Helvetica" font-size="13" lengthAdjust="spacing" textLength="24.401" x="2028.9094" y="914.2531">URL</text><polygon fill="#181818" points="1695.3771,947.7681,1685.3771,951.7681,1695.3771,955.7681,1691.3771,951.7681" style="stroke:#181818;stroke-width:1.0;"/><line style="stroke:#181818;stroke-width:1.0;" x1="1689.3771" x2="1961.7484" y1="951.7681" y2="951.7681"/><text fill="#000000" font-family="Helvetica" font-size="13" lengthAdjust="spacing" textLength="125.1641" x="1760.9807" y="945.9591">crear VisualEvidence</text><polygon fill="#181818" points="1695.3771,979.4742,1685.3771,983.4742,1695.3771,987.4742,1691.3771,983.4742" style="stroke:#181818;stroke-width:1.0;"/><line style="stroke:#181818;stroke-width:1.0;" x1="1689.3771" x2="1966.7484" y1="983.4742" y2="983.4742"/><text fill="#000000" font-family="Helvetica" font-size="13" lengthAdjust="spacing" textLength="254.3713" x="1698.8771" y="977.6651">processing_status = COMPLETED / FAILED</text><!--SRC=[bLLBRYCt4DttAGhAHaBqYMSI11X00IIvDH5YZ-IMuyaYW51kbYH2RB93igKOXe4S8XV80MQL8_WcEKcAtVfq1vW1ueqjyRrYyRrNPI-z8bWOv-yjfZluvuy_OKbfGJgL-0vYlN_zPE09KeLEhcMAgNpzMuCWA3HOoetr54Lk9tME5ZDuv28RQmej9aOP2rzDovyQmcrHc8FK6rYZSbGx4RJ6GlcfqVu3PWIj7qdjoVEbhJgVVWlTqIqvXniQARdHa9BsP6ke1LecoXor7_-tfNWy_Muw_WpOM47s27ppxVTNexTHXAddZmjhSaaUhJI03kPHVg51Aocrc1gR_QhR2J6bqmgmQTp4vUWbD-lwZknUfiJeqU_Ik0ezMioQy5kZ9L_ESeNIVFmWwS2SnNnv3uFiV3fubk9bi6RCeAhqC8i_Dakbbj3Jwi9PLVvnjMCl5NFvC6aIQO-g25GhtOxHcGboS0GiRJWM5IkPBN-A17fyHCVMXKHjB2tlRihJwt74hXKKT1BILOoxvZKJKcIVu63iZco9cCGtJSWisup7vT7izdqKpQ7t0miCxo0rMQxO6yZH6GTNlRUSsHQdLw9jHGnX88l7I5SyPj9NRhM3fjVSSoSAXum9gZ6eLBSz9hHauMlufJTHKikqDnET40QvPpKgXKi24rcqqCPd96u7ORgmbefShK9GEX2PVprc-gP0Az22p5x_sf0c1vuovYFJJi2WCqCRdhHHkmDPruKjWzrAa1EqIgKjDX9hzvKUbGLEDoRC_YWr3oGCO5hclFeO3lYhy2ifU4DKVzvlBRcjKU9OvVpmS1XNBKcZ4t8ynsr5Ur9TE9G5kz3lzpkHe6OtzUS7zImShKbHfOLYd2YVs64RHkKh8rGUjlXqKIa2g9V9hKbvDmJrdKTVE1Z28fbFukLozk7z1PpSNS17drOouvNYLXxThYz8uLFxT22wd2s_PVk8jnPm-V_Lm6H-kxY9x-FhYBHelDfIY1Rdb4EiFUz6bhWQhfHt4OOScOfmoMVLL5tC4AKgY-Ual_dc2fxFxR_KqMLqoyYV1iZi6bDoYbTIIrS7sc5TGiQZRRbTMxhC3NUQfPwFlgUySZrd4lDSoM0ZvyYTul1INiUKUH2CXnkLmkhPnwfHD1o6dSjIOXPMPjYwhvzqQeqs0NcPak4mOZEv62-CBtfw6OMmMWAQIRnAghqWsG8K22L1H-7xthdepycPK0lhWtG5gdWlHVYNr01yCGLXsaQp6uv3pPNGqxy0]--></g></svg>