<svg xmlns="http://www.w3.org/2000/svg" xmlns:xlink="http://www.w3.org/1999/xlink" contentStyleType="text/css" height="670px" preserveAspectRatio="none" style="width:829px;height:670px;background:#FFFFFF;" version="1.1" viewBox="0 0 829 670" width="829px" zoomAndPan="magnify"><title>PostTrack &#8212; Secuencia: Alertas en tiempo real (SSE)</title><defs/><g><text fill="#000000" font-family="Helvetica" font-size="14" font-weight="bold" lengthAdjust="spacing" textLength="360.0647" x="236.3828" y="29.9659">PostTrack &#8212; Secuencia: Alertas en tiempo real (SSE)</text><rect fill="#FFFFFF" height="370.4722" style="stroke:#181818;stroke-width:1.0;" width="10" x="491.3192" y="207.2539"/><rect fill="none" height="164.2361" style="stroke:#000000;stroke-width:1.5;" width="813.8303" x="10" y="222.2539"/><rect fill="none" height="96.118" style="stroke:#000000;stroke-width:1.5;" width="491.3192" x="10" y="400.49"/><line style="stroke:#181818;stroke-width:0.5;stroke-dasharray:5.0,5.0;" x1="59" x2="59" y1="124.1358" y2="586.7261"/><line style="stroke:#181818;stroke-width:0.5;stroke-dasharray:5.0,5.0;" x1="258.8832" x2="258.8832" y1="124.1358" y2="586.7261"/><line style="stroke:#181818;stroke-width:0.5;stroke-dasharray:5.0,5.0;" x1="496.0295" x2="496.0295" y1="124.1358" y2="586.7261"/><line style="stroke:#181818;stroke-width:0.5;stroke-dasharray:5.0,5.0;" x1="771.8865" x2="771.8865" y1="124.1358" y2="586.7261"/><text fill="#000000" font-family="Helvetica" font-size="14" lengthAdjust="spacing" textLength="73.0097" x="20" y="120.0339">Veterinario</text><ellipse cx="59.5049" cy="53.5679" fill="#E2E2F0" rx="8" ry="8" style="stroke:#181818;stroke-width:0.5;"/><path d="M59.5049,61.5679 L59.5049,88.5679 M46.5049,69.5679 L72.5049,69.5679 M59.5049,88.5679 L46.5049,103.5679 M59.5049,88.5679 L72.5049,103.5679 " fill="none" style="stroke:#181818;stroke-width:0.5;"/><text fill="#000000" font-family="Helvetica" font-size="14" lengthAdjust="spacing" textLength="73.0097" x="20" y="600.692">Veterinario</text><ellipse cx="59.5049" cy="613.294" fill="#E2E2F0" rx="8" ry="8" style="stroke:#181818;stroke-width:0.5;"/><path d="M59.5049,621.294 L59.5049,648.294 M46.5049,629.294 L72.5049,629.294 M59.5049,648.294 L46.5049,663.294 M59.5049,648.294 L72.5049,663.294 " fill="none" style="stroke:#181818;stroke-width:0.5;"/><rect fill="#E8F8F5" height="52.1358" rx="2.5" ry="2.5" style="stroke:#148F77;stroke-width:0.5;" width="132.9715" x="192.8832" y="71"/><text fill="#000000" font-family="Helvetica" font-size="14" lengthAdjust="spacing" textLength="118.9715" x="199.8832" y="92.9659">useRealtimeAlerts</text><text fill="#000000" font-family="Helvetica" font-size="14" lengthAdjust="spacing" textLength="81.3397" x="218.6992" y="112.0339">(React hook)</text><rect fill="#E8F8F5" height="52.1358" rx="2.5" ry="2.5" style="stroke:#148F77;stroke-width:0.5;" width="132.9715" x="192.8832" y="585.7261"/><text fill="#000000" font-family="Helvetica" font-size="14" lengthAdjust="spacing" textLength="118.9715" x="199.8832" y="607.692">useRealtimeAlerts</text><text fill="#000000" font-family="Helvetica" font-size="14" lengthAdjust="spacing" textLength="81.3397" x="218.6992" y="626.7599">(React hook)</text><rect fill="#E8F8F5" height="52.1358" rx="2.5" ry="2.5" style="stroke:#148F77;stroke-width:0.5;" width="146.5795" x="423.0295" y="71"/><text fill="#000000" font-family="Helvetica" font-size="14" lengthAdjust="spacing" textLength="90.7057" x="450.9664" y="92.9659">vet_sse_alerts</text><text fill="#000000" font-family="Helvetica" font-size="14" lengthAdjust="spacing" textLength="132.5795" x="430.0295" y="112.0339">(/vet/alerts/stream/)</text><rect fill="#E8F8F5" height="52.1358" rx="2.5" ry="2.5" style="stroke:#148F77;stroke-width:0.5;" width="146.5795" x="423.0295" y="585.7261"/><text fill="#000000" font-family="Helvetica" font-size="14" lengthAdjust="spacing" textLength="90.7057" x="450.9664" y="607.692">vet_sse_alerts</text><text fill="#000000" font-family="Helvetica" font-size="14" lengthAdjust="spacing" textLength="132.5795" x="430.0295" y="626.7599">(/vet/alerts/stream/)</text><text fill="#000000" font-family="Helvetica" font-size="14" lengthAdjust="spacing" textLength="76.9437" x="730.8865" y="120.0339">PostgreSQL</text><path d="M754.3584,69.0679 C754.3584,59.0679 772.3584,59.0679 772.3584,59.0679 C772.3584,59.0679 790.3584,59.0679 790.3584,69.0679 L790.3584,95.0679 C790.3584,105.0679 772.3584,105.0679 772.3584,105.0679 C772.3584,105.0679 754.3584,105.0679 754.3584,95.0679 L754.3584,69.0679 " fill="#E2E2F0" style="stroke:#181818;stroke-width:1.5;"/><path d="M754.3584,69.0679 C754.3584,79.0679 772.3584,79.0679 772.3584,79.0679 C772.3584,79.0679 790.3584,79.0679 790.3584,69.0679 " fill="none" style="stroke:#181818;stroke-width:1.5;"/><text fill="#000000" font-family="Helvetica" font-size="14" lengthAdjust="spacing" textLength="76.9437" x="730.8865" y="600.692">PostgreSQL</text><path d="M754.3584,614.794 C754.3584,604.794 772.3584,604.794 772.3584,604.794 C772.3584,604.794 790.3584,604.794 790.3584,614.794 L790.3584,640.794 C790.3584,650.794 772.3584,650.794 772.3584,650.794 C772.3584,650.794 754.3584,650.794 754.3584,640.794 L754.3584,614.794 " fill="#E2E2F0" style="stroke:#181818;stroke-width:1.5;"/><path d="M754.3584,614.794 C754.3584,624.794 772.3584,624.794 772.3584,624.794 C772.3584,624.794 790.3584,624.794 790.3584,614.794 " fill="none" style="stroke:#181818;stroke-width:1.5;"/><rect fill="#FFFFFF" height="370.4722" style="stroke:#181818;stroke-width:1.0;" width="10" x="491.3192" y="207.2539"/><polygon fill="#181818" points="247.369,153.8419,257.369,157.8419,247.369,161.8419,251.369,157.8419" style="stroke:#181818;stroke-width:1.0;"/><line style="stroke:#181818;stroke-width:1.0;" x1="59.5049" x2="253.369" y1="157.8419" y2="157.8419"/><text fill="#000000" font-family="Helvetica" font-size="13" lengthAdjust="spacing" textLength="90.7271" x="66.5049" y="152.0328">abrir el tablero</text><polygon fill="#181818" points="479.3192,203.2539,489.3192,207.2539,479.3192,211.2539,483.3192,207.2539" style="stroke:#181818;stroke-width:1.0;"/><line style="stroke:#181818;stroke-width:1.0;" x1="259.369" x2="485.3192" y1="207.2539" y2="207.2539"/><text fill="#000000" font-family="Helvetica" font-size="13" lengthAdjust="spacing" textLength="142.6101" x="266.369" y="183.7389">GET /vet/alerts/stream/</text><text fill="#000000" font-family="Helvetica" font-size="13" lengthAdjust="spacing" textLength="165.1521" x="266.369" y="201.4449">(Accept: text/event-stream)</text><path d="M10,222.2539 L83.288,222.2539 L83.288,231.9599 L73.288,241.9599 L10,241.9599 L10,222.2539 " fill="#EEEEEE" style="stroke:#000000;stroke-width:1.5;"/><rect fill="none" height="164.2361" style="stroke:#000000;stroke-width:1.5;" width="813.8303" x="10" y="222.2539"/><text fill="#000000" font-family="Helvetica" font-size="13" font-weight="bold" lengthAdjust="spacing" textLength="28.288" x="25" y="237.1509">loop</text><text fill="#000000" font-family="Helvetica" font-size="11" font-weight="bold" lengthAdjust="spacing" textLength="99.9563" x="98.288" y="236.0128">[conexi&#243;n abierta]</text><polygon fill="#181818" points="760.3584,279.3719,770.3584,283.3719,760.3584,287.3719,764.3584,283.3719" style="stroke:#181818;stroke-width:1.0;"/><line style="stroke:#181818;stroke-width:1.0;" x1="501.3192" x2="766.3584" y1="283.3719" y2="283.3719"/><text fill="#000000" font-family="Helvetica" font-size="13" lengthAdjust="spacing" textLength="247.0392" x="508.3192" y="259.8569">reportes pendientes + reportes faltantes</text><text fill="#000000" font-family="Helvetica" font-size="13" lengthAdjust="spacing" textLength="124.2801" x="508.3192" y="277.5629">(filtrados por cl&#237;nica)</text><polygon fill="#181818" points="512.3192,311.0779,502.3192,315.0779,512.3192,319.0779,508.3192,315.0779" style="stroke:#181818;stroke-width:1.0;"/><line style="stroke:#181818;stroke-width:1.0;stroke-dasharray:2.0,2.0;" x1="506.3192" x2="771.3584" y1="315.0779" y2="315.0779"/><text fill="#000000" font-family="Helvetica" font-size="13" lengthAdjust="spacing" textLength="34.073" x="518.3192" y="309.2689">datos</text><polygon fill="#181818" points="270.369,342.784,260.369,346.784,270.369,350.784,266.369,346.784" style="stroke:#181818;stroke-width:1.0;"/><line style="stroke:#181818;stroke-width:1.0;stroke-dasharray:2.0,2.0;" x1="264.369" x2="490.3192" y1="346.784" y2="346.784"/><text fill="#000000" font-family="Helvetica" font-size="13" lengthAdjust="spacing" textLength="124.3191" x="276.369" y="340.975">event: alertas (JSON)</text><polygon fill="#181818" points="70.5049,374.49,60.5049,378.49,70.5049,382.49,66.5049,378.49" style="stroke:#181818;stroke-width:1.0;"/><line style="stroke:#181818;stroke-width:1.0;stroke-dasharray:2.0,2.0;" x1="64.5049" x2="258.369" y1="378.49" y2="378.49"/><text fill="#000000" font-family="Helvetica" font-size="13" lengthAdjust="spacing" textLength="175.8641" x="76.5049" y="372.681">actualizar contadores y listas</text><path d="M10,400.49 L72.459,400.49 L72.459,410.196 L62.459,420.196 L10,420.196 L10,400.49 " fill="#EEEEEE" style="stroke:#000000;stroke-width:1.5;"/><rect fill="none" height="96.118" style="stroke:#000000;stroke-width:1.5;" width="491.3192" x="10" y="400.49"/><text fill="#000000" font-family="Helvetica" font-size="13" font-weight="bold" lengthAdjust="spacing" textLength="17.459" x="25" y="415.387">alt</text><text fill="#000000" font-family="Helvetica" font-size="11" font-weight="bold" lengthAdjust="spacing" textLength="144.187" x="87.459" y="414.2489">[se pierde la conexi&#243;n SSE]</text><line style="stroke:#181818;stroke-width:1.0;" x1="259.369" x2="301.369" y1="443.902" y2="443.902"/><line style="stroke:#181818;stroke-width:1.0;" x1="301.369" x2="301.369" y1="443.902" y2="456.902"/><line style="stroke:#181818;stroke-width:1.0;" x1="260.369" x2="301.369" y1="456.902" y2="456.902"/><polygon fill="#181818" points="270.369,452.902,260.369,456.902,270.369,460.902,266.369,456.902" style="stroke:#181818;stroke-width:1.0;"/><text fill="#000000" font-family="Helvetica" font-size="13" lengthAdjust="spacing" textLength="222.9502" x="266.369" y="438.093">cambiar a sondeo peri&#243;dico (polling)</text><polygon fill="#181818" points="70.5049,484.608,60.5049,488.608,70.5049,492.608,66.5049,488.608" style="stroke:#181818;stroke-width:1.0;"/><line style="stroke:#181818;stroke-width:1.0;stroke-dasharray:2.0,2.0;" x1="64.5049" x2="258.369" y1="488.608" y2="488.608"/><text fill="#000000" font-family="Helvetica" font-size="13" lengthAdjust="spacing" textLength="155.5061" x="76.5049" y="482.799">indicador "Conectando..."</text><path d="M506,508.608 L506,571.608 L738,571.608 L738,518.608 L728,508.608 L506,508.608 " fill="#FEFFDD" style="stroke:#181818;stroke-width:0.5;"/><path d="M728,508.608 L728,518.608 L738,518.608 L728,508.608 " fill="#FEFFDD" style="stroke:#181818;stroke-width:0.5;"/><text fill="#000000" font-family="Helvetica" font-size="13" lengthAdjust="spacing" textLength="150.1371" x="512" y="527.505">Esta ruta est&#225; exenta del</text><text fill="#000000" font-family="Helvetica" font-size="13" lengthAdjust="spacing" textLength="210.1322" x="512" y="545.2111">ClinicAccessMiddleware y resuelve</text><text fill="#000000" font-family="Helvetica" font-size="13" lengthAdjust="spacing" textLength="211.6402" x="512" y="562.9171">el acceso por cl&#237;nica internamente.</text><!--SRC=[TLDBJXj14DttAKhEnbQ4hKY9G2mYOR23yW4I8wyYeN9FsRHeTu-wQu1anI5oWHmWgno1c-GaUJt6sEGp2u-dVkzJtUhK2vt5hEU9xHNzklj64x6D1Ejudmwy9ELC4aYTBEj8ITXJTp8PzOp9LoxKd7X9C_GkKcn2THXzJFHit3vR5VcIgtZZmeBcxBDiPIgPS-Dr78EUy5AeSop-MjHPxcnLdN52oDKSTFWds6Xll3T-zP_Yc2f93uKlNkwDTtUDOQlud8fASe6JYmIDKrDlsgZJPFa4hUgMqhgGFuSk0bRfCiQhNgUq79-UldlQ1U8NESi5hri6Y0nMNuEiS6yvMFN2GbEnyempD9SDB99CFhvlaqT3OwQqyxf5e7tYMNA9n1FgCIkQDeuyfY3zPdHE_m02_86rKki-gTpgGAubwCugsIick6jMQPaO7sDDDWQvTVS_0m1TsRoX5W50HqFW9AbZKibKIwWSXk7lyqqKcrKkGG3FdTU4bQCMLbj__oDWepqCnAITH-Pm8EOroaPlonIo7uvVz-tazAJqhcIZRbfCiTgmTryv5U8Ai0GINyYxZ2O3YjYqLuA_DTHKGfwt91RPwucFm9QNCuU1J3c6IYAK9bHNpaRgrj5xdE2_Y3YOOGiyTGuntiA4AlRx_SwAGuWmERd5fLASFy2EG95IWn_9Ul-Tv1Q26NV18ta856VBwdB-uAhAomqdWJBeQyhbG0tE0fU2-CHVKC6P3hX6UFSBF1Lqyni0]--></g></svg>