<svg xmlns="http://www.w3.org/2000/svg" xmlns:xlink="http://www.w3.org/1999/xlink" contentStyleType="text/css" height="763px" preserveAspectRatio="none" style="width:1004px;height:763px;background:#FFFFFF;" version="1.1" viewBox="0 0 1004 763" width="1004px" zoomAndPan="magnify"><title>PostTrack &#8212; Secuencia: Recordatorios de reportes vencidos</title><defs/><g><text fill="#000000" font-family="Helvetica" font-size="14" font-weight="bold" lengthAdjust="spacing" textLength="415.2804" x="296.0327" y="29.9659">PostTrack &#8212; Secuencia: Recordatorios de reportes vencidos</text><rect fill="#FFFFFF" height="439.1601" style="stroke:#181818;stroke-width:1.0;" width="10" x="188.5974" y="157.8419"/><rect fill="none" height="336.0421" style="stroke:#000000;stroke-width:1.5;" width="915.118" x="83.2277" y="253.9599"/><rect fill="none" height="225.924" style="stroke:#000000;stroke-width:1.5;" width="895.118" x="93.2277" y="357.0779"/><line style="stroke:#181818;stroke-width:0.5;stroke-dasharray:5.0,5.0;" x1="49" x2="49" y1="124.1358" y2="680.12"/><line style="stroke:#181818;stroke-width:0.5;stroke-dasharray:5.0,5.0;" x1="193.2277" x2="193.2277" y1="124.1358" y2="680.12"/><line style="stroke:#181818;stroke-width:0.5;stroke-dasharray:5.0,5.0;" x1="450.5567" x2="450.5567" y1="124.1358" y2="680.12"/><line style="stroke:#181818;stroke-width:0.5;stroke-dasharray:5.0,5.0;" x1="575.5004" x2="575.5004" y1="124.1358" y2="680.12"/><line style="stroke:#181818;stroke-width:0.5;stroke-dasharray:5.0,5.0;" x1="705.7659" x2="705.7659" y1="124.1358" y2="680.12"/><line style="stroke:#181818;stroke-width:0.5;stroke-dasharray:5.0,5.0;" x1="937.734" x2="937.734" y1="124.1358" y2="680.12"/><rect fill="#FDEDEC" height="33.0679" rx="2.5" ry="2.5" style="stroke:#B03A2E;stroke-width:0.5;" width="88.2277" x="5" y="90.0679"/><text fill="#000000" font-family="Helvetica" font-size="14" lengthAdjust="spacing" textLength="74.2277" x="12" y="112.0339">Celery beat</text><rect fill="#FDEDEC" height="33.0679" rx="2.5" ry="2.5" style="stroke:#B03A2E;stroke-width:0.5;" width="88.2277" x="5" y="679.12"/><text fill="#000000" font-family="Helvetica" font-size="14" lengthAdjust="spacing" textLength="74.2277" x="12" y="701.0859">Celery beat</text><rect fill="#FDEDEC" height="52.1358" rx="2.5" ry="2.5" style="stroke:#B03A2E;stroke-width:0.5;" width="180.7393" x="103.2277" y="71"/><text fill="#000000" font-family="Helvetica" font-size="14" lengthAdjust="spacing" textLength="166.7393" x="110.2277" y="92.9659">send_overdue_reminders</text><text fill="#000000" font-family="Helvetica" font-size="14" lengthAdjust="spacing" textLength="35.4899" x="175.8524" y="112.0339">(task)</text><rect fill="#FDEDEC" height="52.1358" rx="2.5" ry="2.5" style="stroke:#B03A2E;stroke-width:0.5;" width="180.7393" x="103.2277" y="679.12"/><text fill="#000000" font-family="Helvetica" font-size="14" lengthAdjust="spacing" textLength="166.7393" x="110.2277" y="701.0859">send_overdue_reminders</text><text fill="#000000" font-family="Helvetica" font-size="14" lengthAdjust="spacing" textLength="35.4899" x="175.8524" y="720.1539">(task)</text><text fill="#000000" font-family="Helvetica" font-size="14" lengthAdjust="spacing" textLength="76.9437" x="409.5567" y="120.0339">PostgreSQL</text><path d="M433.0285,69.0679 C433.0285,59.0679 451.0285,59.0679 451.0285,59.0679 C451.0285,59.0679 469.0285,59.0679 469.0285,69.0679 L469.0285,95.0679 C469.0285,105.0679 451.0285,105.0679 451.0285,105.0679 C451.0285,105.0679 433.0285,105.0679 433.0285,95.0679 L433.0285,69.0679 " fill="#E2E2F0" style="stroke:#181818;stroke-width:1.5;"/><path d="M433.0285,69.0679 C433.0285,79.0679 451.0285,79.0679 451.0285,79.0679 C451.0285,79.0679 469.0285,79.0679 469.0285,69.0679 " fill="none" style="stroke:#181818;stroke-width:1.5;"/><text fill="#000000" font-family="Helvetica" font-size="14" lengthAdjust="spacing" textLength="76.9437" x="409.5567" y="694.0859">PostgreSQL</text><path d="M433.0285,708.1879 C433.0285,698.1879 451.0285,698.1879 451.0285,698.1879 C451.0285,698.1879 469.0285,698.1879 469.0285,708.1879 L469.0285,734.1879 C469.0285,744.1879 451.0285,744.1879 451.0285,744.1879 C451.0285,744.1879 433.0285,744.1879 433.0285,734.1879 L433.0285,708.1879 " fill="#E2E2F0" style="stroke:#181818;stroke-width:1.5;"/><path d="M433.0285,708.1879 C433.0285,718.1879 451.0285,718.1879 451.0285,718.1879 C451.0285,718.1879 469.0285,718.1879 469.0285,708.1879 " fill="none" style="stroke:#181818;stroke-width:1.5;"/><rect fill="#FDEDEC" height="52.1358" rx="2.5" ry="2.5" style="stroke:#B03A2E;stroke-width:0.5;" width="147.2655" x="502.5004" y="71"/><text fill="#000000" font-family="Helvetica" font-size="14" lengthAdjust="spacing" textLength="85.4277" x="533.4193" y="92.9659">email service</text><text fill="#000000" font-family="Helvetica" font-size="14" lengthAdjust="spacing" textLength="133.2655" x="509.5004" y="112.0339">(core.services.email)</text><rect fill="#FDEDEC" height="52.1358" rx="2.5" ry="2.5" style="stroke:#B03A2E;stroke-width:0.5;" width="147.2655" x="502.5004" y="679.12"/><text fill="#000000" font-family="Helvetica" font-size="14" lengthAdjust="spacing" textLength="85.4277" x="533.4193" y="701.0859">email service</text><text fill="#000000" font-family="Helvetica" font-size="14" lengthAdjust="spacing" textLength="133.2655" x="509.5004" y="720.1539">(core.services.email)</text><rect fill="#FDEDEC" height="33.0679" rx="2.5" ry="2.5" style="stroke:#B03A2E;stroke-width:0.5;" width="92.6377" x="659.7659" y="90.0679"/><text fill="#000000" font-family="Helvetica" font-size="14" lengthAdjust="spacing" textLength="78.6377" x="666.7659" y="112.0339">Brevo SMTP</text><rect fill="#FDEDEC" height="33.0679" rx="2.5" ry="2.5" style="stroke:#B03A2E;stroke-width:0.5;" width="92.6377" x="659.7659" y="679.12"/><text fill="#000000" font-family="Helvetica" font-size="14" lengthAdjust="spacing" textLength="78.6377" x="666.7659" y="701.0859">Brevo SMTP</text><text fill="#000000" font-family="Helvetica" font-size="14" lengthAdjust="spacing" textLength="73.6117" x="898.734" y="120.0339">Propietario</text><ellipse cx="938.5399" cy="53.5679" fill="#E2E2F0" rx="8" ry="8" style="stroke:#181818;stroke-width:0.5;"/><path d="M938.5399,61.5679 L938.5399,88.5679 M925.5399,69.5679 L951.5399,69.5679 M938.5399,88.5679 L925.5399,103.5679 M938.5399,88.5679 L951.5399,103.5679 " fill="none" style="stroke:#181818;stroke-width:0.5;"/><text fill="#000000" font-family="Helvetica" font-size="14" lengthAdjust="spacing" textLength="73.6117" x="898.734" y="694.0859">Propietario</text><ellipse cx="938.5399" cy="706.6879" fill="#E2E2F0" rx="8" ry="8" style="stroke:#181818;stroke-width:0.5;"/><path d="M938.5399,714.6879 L938.5399,741.6879 M925.5399,722.6879 L951.5399,722.6879 M938.5399,741.6879 L925.5399,756.6879 M938.5399,741.6879 L951.5399,756.6879 " fill="none" style="stroke:#181818;stroke-width:0.5;"/><rect fill="#FFFFFF" height="439.1601" style="stroke:#181818;stroke-width:1.0;" width="10" x="188.5974" y="157.8419"/><polygon fill="#181818" points="176.5974,153.8419,186.5974,157.8419,176.5974,161.8419,180.5974,157.8419" style="stroke:#181818;stroke-width:1.0;"/><line style="stroke:#181818;stroke-width:1.0;" x1="49.1139" x2="182.5974" y1="157.8419" y2="157.8419"/><text fill="#000000" font-family="Helvetica" font-size="13" lengthAdjust="spacing" textLength="73.9961" x="56.1139" y="152.0328">cada 30 min</text><polygon fill="#181818" points="439.0285,203.2539,449.0285,207.2539,439.0285,211.2539,443.0285,207.2539" style="stroke:#181818;stroke-width:1.0;"/><line style="stroke:#181818;stroke-width:1.0;" x1="198.5974" x2="445.0285" y1="207.2539" y2="207.2539"/><text fill="#000000" font-family="Helvetica" font-size="13" lengthAdjust="spacing" textLength="222.8462" x="205.5974" y="183.7389">monitoreos ACTIVE con salida a casa</text><text fill="#000000" font-family="Helvetica" font-size="13" lengthAdjust="spacing" textLength="159.7181" x="205.5974" y="201.4449">y overdue_emails_sent &lt; 3</text><polygon fill="#181818" points="209.5974,234.9599,199.5974,238.9599,209.5974,242.9599,205.5974,238.9599" style="stroke:#181818;stroke-width:1.0;"/><line style="stroke:#181818;stroke-width:1.0;stroke-dasharray:2.0,2.0;" x1="203.5974" x2="450.0285" y1="238.9599" y2="238.9599"/><text fill="#000000" font-family="Helvetica" font-size="13" lengthAdjust="spacing" textLength="117.7671" x="215.5974" y="233.1509">lista de monitoreos</text><path d="M83.2277,253.9599 L156.5157,253.9599 L156.5157,263.6659 L146.5157,273.6659 L83.2277,273.6659 L83.2277,253.9599 " fill="#EEEEEE" style="stroke:#000000;stroke-width:1.5;"/><rect fill="none" height="336.0421" style="stroke:#000000;stroke-width:1.5;" width="915.118" x="83.2277" y="253.9599"/><text fill="#000000" font-family="Helvetica" font-size="13" font-weight="bold" lengthAdjust="spacing" textLength="28.288" x="98.2277" y="268.8569">loop</text><text fill="#000000" font-family="Helvetica" font-size="11" font-weight="bold" lengthAdjust="spacing" textLength="115.7522" x="171.5157" y="267.7188">[por cada monitoreo]</text><polygon fill="#181818" points="439.0285,293.3719,449.0285,297.3719,439.0285,301.3719,443.0285,297.3719" style="stroke:#181818;stroke-width:1.0;"/><line style="stroke:#181818;stroke-width:1.0;" x1="198.5974" x2="445.0285" y1="297.3719" y2="297.3719"/><text fill="#000000" font-family="Helvetica" font-size="13" lengthAdjust="spacing" textLength="142.8051" x="205.5974" y="291.5629">&#250;ltimo reporte (anchor)</text><line style="stroke:#181818;stroke-width:1.0;" x1="198.5974" x2="240.5974" y1="329.0779" y2="329.0779"/><line style="stroke:#181818;stroke-width:1.0;" x1="240.5974" x2="240.5974" y1="329.0779" y2="342.0779"/><line style="stroke:#181818;stroke-width:1.0;" x1="199.5974" x2="240.5974" y1="342.0779" y2="342.0779"/><polygon fill="#181818" points="209.5974,338.0779,199.5974,342.0779,209.5974,346.0779,205.5974,342.0779" style="stroke:#181818;stroke-width:1.0;"/><text fill="#000000" font-family="Helvetica" font-size="13" lengthAdjust="spacing" textLength="223.4312" x="205.5974" y="323.2689">expected_next = anchor + frecuencia</text><path d="M93.2277,357.0779 L155.6867,357.0779 L155.6867,366.784 L145.6867,376.784 L93.2277,376.784 L93.2277,357.0779 " fill="#EEEEEE" style="stroke:#000000;stroke-width:1.5;"/><rect fill="none" height="225.924" style="stroke:#000000;stroke-width:1.5;" width="895.118" x="93.2277" y="357.0779"/><text fill="#000000" font-family="Helvetica" font-size="13" font-weight="bold" lengthAdjust="spacing" textLength="17.459" x="108.2277" y="371.975">alt</text><text fill="#000000" font-family="Helvetica" font-size="11" font-weight="bold" lengthAdjust="spacing" textLength="200.6385" x="170.6867" y="370.8369">[vencido y (sin env&#237;o previo o &gt; 24 h)]</text><polygon fill="#181818" points="564.1331,396.49,574.1331,400.49,564.1331,404.49,568.1331,400.49" style="stroke:#181818;stroke-width:1.0;"/><line style="stroke:#181818;stroke-width:1.0;" x1="198.5974" x2="570.1331" y1="400.49" y2="400.49"/><text fill="#000000" font-family="Helvetica" font-size="13" lengthAdjust="spacing" textLength="333.3983" x="205.5974" y="394.681">send_overdue_report_email(owner, monitoring, horas)</text><polygon fill="#181818" points="694.0847,428.196,704.0847,432.196,694.0847,436.196,698.0847,432.196" style="stroke:#181818;stroke-width:1.0;"/><line style="stroke:#181818;stroke-width:1.0;" x1="576.1331" x2="700.0847" y1="432.196" y2="432.196"/><text fill="#000000" font-family="Helvetica" font-size="13" lengthAdjust="spacing" textLength="81.4061" x="583.1331" y="426.387">enviar correo</text><polygon fill="#181818" points="926.5399,459.902,936.5399,463.902,926.5399,467.902,930.5399,463.902" style="stroke:#181818;stroke-width:1.0;"/><line style="stroke:#181818;stroke-width:1.0;stroke-dasharray:2.0,2.0;" x1="706.0847" x2="932.5399" y1="463.902" y2="463.902"/><text fill="#000000" font-family="Helvetica" font-size="13" lengthAdjust="spacing" textLength="208.4552" x="713.0847" y="458.093">recordatorio con enlace al reporte</text><polygon fill="#181818" points="439.0285,509.314,449.0285,513.314,439.0285,517.314,443.0285,513.314" style="stroke:#181818;stroke-width:1.0;"/><line style="stroke:#181818;stroke-width:1.0;" x1="198.5974" x2="445.0285" y1="513.314" y2="513.314"/><text fill="#000000" font-family="Helvetica" font-size="13" lengthAdjust="spacing" textLength="188.4221" x="205.5974" y="489.799">last_overdue_email_at = ahora,</text><text fill="#000000" font-family="Helvetica" font-size="13" lengthAdjust="spacing" textLength="157.1441" x="205.5974" y="507.505">overdue_emails_sent += 1</text><line style="stroke:#000000;stroke-width:1.0;stroke-dasharray:2.0,2.0;" x1="93.2277" x2="988.3458" y1="522.314" y2="522.314"/><text fill="#000000" font-family="Helvetica" font-size="11" font-weight="bold" lengthAdjust="spacing" textLength="105.0493" x="98.2277" y="534.073">[al d&#237;a o anti-spam]</text><line style="stroke:#181818;stroke-width:1.0;" x1="198.5974" x2="240.5974" y1="562.002" y2="562.002"/><line style="stroke:#181818;stroke-width:1.0;" x1="240.5974" x2="240.5974" y1="562.002" y2="575.002"/><line style="stroke:#181818;stroke-width:1.0;" x1="199.5974" x2="240.5974" y1="575.002" y2="575.002"/><polygon fill="#181818" points="209.5974,571.002,199.5974,575.002,209.5974,579.002,205.5974,575.002" style="stroke:#181818;stroke-width:1.0;"/><text fill="#000000" font-family="Helvetica" font-size="13" lengthAdjust="spacing" textLength="36.79" x="205.5974" y="556.1929">omitir</text><path d="M48,602.002 L48,665.002 L337,665.002 L337,612.002 L327,602.002 L48,602.002 " fill="#FEFFDD" style="stroke:#181818;stroke-width:0.5;"/><path d="M327,602.002 L327,612.002 L337,612.002 L327,602.002 " fill="#FEFFDD" style="stroke:#181818;stroke-width:0.5;"/><text fill="#000000" font-family="Helvetica" font-size="13" lengthAdjust="spacing" textLength="268.4762" x="54" y="620.899">Si el propietario env&#237;a un reporte, el servicio</text><text fill="#000000" font-family="Helvetica" font-size="13" lengthAdjust="spacing" textLength="266.2272" x="54" y="638.605">de reportes reinicia los contadores y el ciclo</text><text fill="#000000" font-family="Helvetica" font-size="13" lengthAdjust="spacing" textLength="110.3831" x="54" y="656.311">vuelve a empezar.</text><!--SRC=[TLJRJXin47ttLupIbw06HA5Fg23bigYeK58IyOGK3VO05bvxPJiBwLC_eh_13_ILF-cNTEpDDjbU8gsKtPavS-RCiQEEXc3gGfnxb8_myzjtc95SafKQZ-2AfFCAe_FQ1L04dYhd8mMeKuPoGOZmg6s57akuPOHxxvPMZPrn7jwSvjzMHdX0vPwqlOSxD86s8ehkS6dYgRFnCvO4lOzaQefQOcyhQugUF-aARHpzrMnIJ8hnVv9v2lBhnD7-uV2W4ABQnA4t9aD-1RU4iGSOO5GCvzsCG5OjN4rUBMdXgTIM8SEDxKSCZpkvQ3wSVH8i5zvYu16IhFUUPb_EStGowW9IYTf085zhIOp3KjFU-ZNivMW3MrmCpywxjIDFjOFPnNpQiBqghYy5IbuKJBshD4NabQNGfH1f5jWzoVJW22GgXCDzu0bIYQunKaCz9t3YPCHffREQyOWNFnpFpwuBaCv2GAEv71abu8rTGQj8vXiMh5A43t0e66DtqzFe434PQ8CgX76k0lPJm-XtH01qYBp-C56NhlKUzD7A1-TtjlBMNUYv8Xb9BImzHpY69X7UmfrlFSr5Q69hNrX1FsWBPElN5mSLgyggEJY1W_Vma3fiUkGjS9C_V90uDSFttPCbFsW7OPSFWDjZQ72QUWRAoqfiRQsHXtU-6HhMaIHRYlkjmvUr9sjG4lDlfUZmoreP377HMSa2inA9oE36_cjRRu_X7ICH7yY4hLvVa2LWc-dTK67PQR8MsfKwQf-Ah1BfKTHrah2E_wPkpJl0J7C7LdXZpYmwmjAsumnIHdC0T19a-xxnf2r_HZ3iHnOZyaNY-VigrKWjJIgeb-dIO7DIMT5Nz7k96oGguXS0]--></g></svg>