<svg xmlns="http://www.w3.org/2000/svg" xmlns:xlink="http://www.w3.org/1999/xlink" contentStyleType="text/css" height="1596px" preserveAspectRatio="none" style="width:1103px;height:1596px;background:#FFFFFF;" version="1.1" viewBox="0 0 1103 1596" width="1103px" zoomAndPan="magnify"><title>PostTrack &#8212; Actividad: Env&#237;o de un reporte postoperatorio</title><defs/><g><text fill="#000000" font-family="Helvetica" font-size="14" font-weight="bold" lengthAdjust="spacing" textLength="409.9183" x="345.3874" y="34.9659">PostTrack &#8212; Actividad: Env&#237;o de un reporte postoperatorio</text><rect fill="none" height="24.5158" style="stroke:none;stroke-width:1.0;" width="1070.6931" x="15" y="53.8419"/><ellipse cx="163.709" cy="93.3577" fill="#222222" rx="10" ry="10" style="stroke:#222222;stroke-width:1.0;"/><rect fill="#F1F1F1" height="36.3441" rx="12.5" ry="12.5" style="stroke:#181818;stroke-width:0.5;" width="233.2175" x="47.1002" y="123.3577"/><text fill="#000000" font-family="Helvetica" font-size="12" lengthAdjust="spacing" textLength="213.2175" x="57.1002" y="146.1858">Abrir la mascota y el monitoreo activo</text><rect fill="#F1F1F1" height="52.6882" rx="12.5" ry="12.5" style="stroke:#181818;stroke-width:0.5;" width="234.8015" x="46.3082" y="229.1928"/><text fill="#000000" font-family="Helvetica" font-size="12" lengthAdjust="spacing" textLength="214.8015" x="56.3082" y="252.0209">Mostrar "En la cl&#237;nica" / "Dado de alta"</text><text fill="#000000" font-family="Helvetica" font-size="12" lengthAdjust="spacing" textLength="135.613" x="56.3082" y="268.365">(no se permite reportar)</text><ellipse cx="163.709" cy="312.881" fill="none" rx="11" ry="11" style="stroke:#222222;stroke-width:1.0;"/><ellipse cx="163.709" cy="312.881" fill="#222222" rx="6" ry="6" style="stroke:#222222;stroke-width:1.0;"/><polygon fill="#F1F1F1" points="44.7173,179.7018,282.7006,179.7018,294.7006,191.7018,282.7006,203.7018,44.7173,203.7018,32.7173,191.7018,44.7173,179.7018" style="stroke:#181818;stroke-width:0.5;"/><text fill="#000000" font-family="Helvetica" font-size="11" lengthAdjust="spacing" textLength="13.4529" x="167.709" y="215.4608">no</text><text fill="#000000" font-family="Helvetica" font-size="11" lengthAdjust="spacing" textLength="237.9834" x="44.7173" y="195.9698">&#191;Monitoreo ACTIVO y salida a casa registrada?</text><text fill="#000000" font-family="Helvetica" font-size="11" lengthAdjust="spacing" textLength="8.1069" x="294.7006" y="188.4789">s&#237;</text><rect fill="#F1F1F1" height="52.6882" rx="12.5" ry="12.5" style="stroke:#181818;stroke-width:0.5;" width="230.0255" x="48.6962" y="365.881"/><text fill="#000000" font-family="Helvetica" font-size="12" lengthAdjust="spacing" textLength="210.0255" x="58.6962" y="388.7091">Paso 1 &#8212; Responder cuestionario fijo</text><text fill="#000000" font-family="Helvetica" font-size="12" lengthAdjust="spacing" textLength="115.8248" x="58.6962" y="405.0532">(21 preguntas S&#237;/No)</text><rect fill="#F1F1F1" height="36.3441" rx="12.5" ry="12.5" style="stroke:#181818;stroke-width:0.5;" width="285.4179" x="21" y="438.5692"/><text fill="#000000" font-family="Helvetica" font-size="12" lengthAdjust="spacing" textLength="265.4179" x="31" y="461.3973">Paso 2 &#8212; Responder preguntas personalizadas</text><rect fill="#F1F1F1" height="52.6882" rx="12.5" ry="12.5" style="stroke:#181818;stroke-width:0.5;" width="214.3894" x="56.5143" y="494.9134"/><text fill="#000000" font-family="Helvetica" font-size="12" lengthAdjust="spacing" textLength="194.3894" x="66.5143" y="517.7414">Paso 3 &#8212; Adjuntar fotos (opcional)</text><text fill="#000000" font-family="Helvetica" font-size="12" lengthAdjust="spacing" textLength="74.8925" x="66.5143" y="534.0856">y notas libres</text><rect fill="#F1F1F1" height="36.3441" rx="12.5" ry="12.5" style="stroke:#181818;stroke-width:0.5;" width="167.049" x="80.1844" y="567.6016"/><text fill="#000000" font-family="Helvetica" font-size="12" lengthAdjust="spacing" textLength="147.049" x="90.1844" y="590.4297">Enviar reporte (FormData)</text><rect fill="#F1F1F1" height="52.6882" rx="12.5" ry="12.5" style="stroke:#181818;stroke-width:0.5;" width="167.121" x="80.1484" y="1490.2542"/><text fill="#000000" font-family="Helvetica" font-size="12" lengthAdjust="spacing" textLength="141.637" x="90.1484" y="1513.0823">Ver pantalla de resultado</text><text fill="#000000" font-family="Helvetica" font-size="12" lengthAdjust="spacing" textLength="147.121" x="90.1484" y="1529.4265">(nivel de riesgo y ventana)</text><ellipse cx="163.709" cy="1573.9425" fill="none" rx="11" ry="11" style="stroke:#222222;stroke-width:1.0;"/><ellipse cx="163.709" cy="1573.9425" fill="#222222" rx="6" ry="6" style="stroke:#222222;stroke-width:1.0;"/><line style="stroke:#000000;stroke-width:1.5;" x1="15" x2="15" y1="53.8419" y2="1584.9425"/><rect fill="#F1F1F1" height="36.3441" rx="12.5" ry="12.5" style="stroke:#181818;stroke-width:0.5;" width="244.9776" x="438.6413" y="623.9457"/><text fill="#000000" font-family="Helvetica" font-size="12" lengthAdjust="spacing" textLength="224.9776" x="448.6413" y="646.7738">Validar monitoreo activo del propietario</text><rect fill="#F1F1F1" height="36.3441" rx="12.5" ry="12.5" style="stroke:#181818;stroke-width:0.5;" width="294.994" x="413.6331" y="680.2898"/><text fill="#000000" font-family="Helvetica" font-size="12" lengthAdjust="spacing" textLength="274.994" x="423.6331" y="703.1179">Guardar im&#225;genes en almacenamiento temporal</text><rect fill="#F1F1F1" height="36.3441" rx="12.5" ry="12.5" style="stroke:#181818;stroke-width:0.5;" width="192.2732" x="464.9935" y="736.6339"/><text fill="#000000" font-family="Helvetica" font-size="12" lengthAdjust="spacing" textLength="172.2732" x="474.9935" y="759.462">Calcular horas desde la cirug&#237;a</text><rect fill="#F1F1F1" height="52.6882" rx="12.5" ry="12.5" style="stroke:#181818;stroke-width:0.5;" width="200.7213" x="460.7694" y="792.978"/><text fill="#000000" font-family="Helvetica" font-size="12" lengthAdjust="spacing" textLength="180.7213" x="470.7694" y="815.8061">evaluate_risk(respuestas, horas)</text><text fill="#000000" font-family="Helvetica" font-size="12" lengthAdjust="spacing" textLength="95.7833" x="470.7694" y="832.1502">&#8594; calculated_risk</text><rect fill="#F1F1F1" height="36.3441" rx="12.5" ry="12.5" style="stroke:#181818;stroke-width:0.5;" width="340.0543" x="391.1029" y="865.6663"/><text fill="#000000" font-family="Helvetica" font-size="12" lengthAdjust="spacing" textLength="320.0543" x="401.1029" y="888.4944">Crear Report + Answer (cuestionario fijo y personalizado)</text><polygon fill="#F1F1F1" points="519.6934,922.0104,602.5668,922.0104,614.5668,934.0104,602.5668,946.0104,519.6934,946.0104,507.6934,934.0104,519.6934,922.0104" style="stroke:#181818;stroke-width:0.5;"/><text fill="#000000" font-family="Helvetica" font-size="11" lengthAdjust="spacing" textLength="82.8734" x="519.6934" y="938.2784">&#191;Hay im&#225;genes?</text><text fill="#000000" font-family="Helvetica" font-size="11" lengthAdjust="spacing" textLength="8.1069" x="499.5864" y="930.7874">s&#237;</text><text fill="#000000" font-family="Helvetica" font-size="11" lengthAdjust="spacing" textLength="13.4529" x="614.5668" y="930.7874">no</text><rect fill="#F1F1F1" height="36.3441" rx="12.5" ry="12.5" style="stroke:#181818;stroke-width:0.5;" width="207.7054" x="340.0647" y="956.0104"/><text fill="#000000" font-family="Helvetica" font-size="12" lengthAdjust="spacing" textLength="187.7054" x="350.0647" y="978.8385">processing_status = PROCESSING</text><rect fill="#F1F1F1" height="36.3441" rx="12.5" ry="12.5" style="stroke:#181818;stroke-width:0.5;" width="224.4335" x="331.7006" y="1012.3545"/><text fill="#000000" font-family="Helvetica" font-size="12" lengthAdjust="spacing" textLength="204.4335" x="341.7006" y="1035.1826">Encolar process_report_images_task</text><rect fill="#F1F1F1" height="36.3441" rx="12.5" ry="12.5" style="stroke:#181818;stroke-width:0.5;" width="204.4173" x="576.1341" y="956.0104"/><text fill="#000000" font-family="Helvetica" font-size="12" lengthAdjust="spacing" textLength="184.4173" x="586.1341" y="978.8385">processing_status = COMPLETED</text><polygon fill="#F1F1F1" points="561.1301,1054.6986,573.1301,1066.6986,561.1301,1078.6986,549.1301,1066.6986,561.1301,1054.6986" style="stroke:#181818;stroke-width:0.5;"/><rect fill="#F1F1F1" height="52.6882" rx="12.5" ry="12.5" style="stroke:#181818;stroke-width:0.5;" width="276.2738" x="422.9932" y="1098.6986"/><text fill="#000000" font-family="Helvetica" font-size="12" lengthAdjust="spacing" textLength="206.2215" x="432.9932" y="1121.5267">Reiniciar contadores de recordatorio</text><text fill="#000000" font-family="Helvetica" font-size="12" lengthAdjust="spacing" textLength="256.2738" x="432.9932" y="1137.8708">(last_overdue_email_at, overdue_emails_sent)</text><rect fill="#F1F1F1" height="36.3441" rx="12.5" ry="12.5" style="stroke:#181818;stroke-width:0.5;" width="166.629" x="477.8156" y="1171.3868"/><text fill="#000000" font-family="Helvetica" font-size="12" lengthAdjust="spacing" textLength="146.629" x="487.8156" y="1194.2149">Responder 201 (report_id)</text><line style="stroke:#000000;stroke-width:1.5;" x1="325.7006" x2="325.7006" y1="53.8419" y2="1584.9425"/><rect fill="#F1F1F1" height="36.3441" rx="12.5" ry="12.5" style="stroke:#181818;stroke-width:0.5;" width="176.1331" x="834.8858" y="1277.2219"/><text fill="#000000" font-family="Helvetica" font-size="12" lengthAdjust="spacing" textLength="156.1331" x="844.8858" y="1300.05">Subir cada imagen a ImgBB</text><rect fill="#F1F1F1" height="36.3441" rx="12.5" ry="12.5" style="stroke:#181818;stroke-width:0.5;" width="137.3608" x="854.2719" y="1333.566"/><text fill="#000000" font-family="Helvetica" font-size="12" lengthAdjust="spacing" textLength="117.3608" x="864.2719" y="1356.3941">Crear VisualEvidence</text><rect fill="#F1F1F1" height="36.3441" rx="12.5" ry="12.5" style="stroke:#181818;stroke-width:0.5;" width="264.8017" x="790.5514" y="1389.9101"/><text fill="#000000" font-family="Helvetica" font-size="12" lengthAdjust="spacing" textLength="244.8017" x="800.5514" y="1412.7382">processing_status = COMPLETED (o FAILED)</text><polygon fill="#F1F1F1" points="845.1663,1227.731,1000.7383,1227.731,1012.7383,1239.731,1000.7383,1251.731,845.1663,1251.731,833.1663,1239.731,845.1663,1227.731" style="stroke:#181818;stroke-width:0.5;"/><text fill="#000000" font-family="Helvetica" font-size="11" lengthAdjust="spacing" textLength="8.1069" x="926.9523" y="1263.4899">s&#237;</text><text fill="#000000" font-family="Helvetica" font-size="11" lengthAdjust="spacing" textLength="155.5719" x="845.1663" y="1243.9989">&#191;tarea de im&#225;genes encolada?</text><text fill="#000000" font-family="Helvetica" font-size="11" lengthAdjust="spacing" textLength="13.4529" x="1012.7383" y="1236.508">no</text><polygon fill="#F1F1F1" points="922.9523,1446.2542,934.9523,1458.2542,922.9523,1470.2542,910.9523,1458.2542,922.9523,1446.2542" style="stroke:#181818;stroke-width:0.5;"/><line style="stroke:#000000;stroke-width:1.5;" x1="784.5514" x2="784.5514" y1="53.8419" y2="1584.9425"/><line style="stroke:#000000;stroke-width:1.5;" x1="1084.3532" x2="1084.3532" y1="53.8419" y2="1584.9425"/><line style="stroke:#181818;stroke-width:1.0;" x1="163.709" x2="163.709" y1="103.3577" y2="123.3577"/><polygon fill="#181818" points="159.709,113.3577,163.709,123.3577,167.709,113.3577,163.709,117.3577" style="stroke:#181818;stroke-width:1.0;"/><line style="stroke:#181818;stroke-width:1.0;" x1="163.709" x2="163.709" y1="281.881" y2="301.881"/><polygon fill="#181818" points="159.709,291.881,163.709,301.881,167.709,291.881,163.709,295.881" style="stroke:#181818;stroke-width:1.0;"/><line style="stroke:#181818;stroke-width:1.0;" x1="163.709" x2="163.709" y1="203.7018" y2="229.1928"/><polygon fill="#181818" points="159.709,219.1928,163.709,229.1928,167.709,219.1928,163.709,223.1928" style="stroke:#181818;stroke-width:1.0;"/><line style="stroke:#181818;stroke-width:1.0;" x1="294.7006" x2="306.7006" y1="191.7018" y2="191.7018"/><polygon fill="#181818" points="302.7006,271.0369,306.7006,281.0369,310.7006,271.0369,306.7006,275.0369" style="stroke:#181818;stroke-width:1.0;"/><line style="stroke:#181818;stroke-width:1.0;" x1="306.7006" x2="306.7006" y1="191.7018" y2="345.881"/><line style="stroke:#181818;stroke-width:1.0;" x1="306.7006" x2="163.709" y1="345.881" y2="345.881"/><line style="stroke:#181818;stroke-width:1.0;" x1="163.709" x2="163.709" y1="345.881" y2="365.881"/><polygon fill="#181818" points="159.709,355.881,163.709,365.881,167.709,355.881,163.709,359.881" style="stroke:#181818;stroke-width:1.0;"/><line style="stroke:#181818;stroke-width:1.0;" x1="163.709" x2="163.709" y1="159.7018" y2="179.7018"/><polygon fill="#181818" points="159.709,169.7018,163.709,179.7018,167.709,169.7018,163.709,173.7018" style="stroke:#181818;stroke-width:1.0;"/><line style="stroke:#181818;stroke-width:1.0;" x1="163.709" x2="163.709" y1="418.5692" y2="438.5692"/><polygon fill="#181818" points="159.709,428.5692,163.709,438.5692,167.709,428.5692,163.709,432.5692" style="stroke:#181818;stroke-width:1.0;"/><line style="stroke:#181818;stroke-width:1.0;" x1="163.709" x2="163.709" y1="474.9134" y2="494.9134"/><polygon fill="#181818" points="159.709,484.9134,163.709,494.9134,167.709,484.9134,163.709,488.9134" style="stroke:#181818;stroke-width:1.0;"/><line style="stroke:#181818;stroke-width:1.0;" x1="163.709" x2="163.709" y1="547.6016" y2="567.6016"/><polygon fill="#181818" points="159.709,557.6016,163.709,567.6016,167.709,557.6016,163.709,561.6016" style="stroke:#181818;stroke-width:1.0;"/><line style="stroke:#181818;stroke-width:1.0;" x1="163.709" x2="163.709" y1="1542.9425" y2="1562.9425"/><polygon fill="#181818" points="159.709,1552.9425,163.709,1562.9425,167.709,1552.9425,163.709,1556.9425" style="stroke:#181818;stroke-width:1.0;"/><line style="stroke:#181818;stroke-width:1.0;" x1="561.1301" x2="561.1301" y1="660.2898" y2="680.2898"/><polygon fill="#181818" points="557.1301,670.2898,561.1301,680.2898,565.1301,670.2898,561.1301,674.2898" style="stroke:#181818;stroke-width:1.0;"/><line style="stroke:#181818;stroke-width:1.0;" x1="561.1301" x2="561.1301" y1="716.6339" y2="736.6339"/><polygon fill="#181818" points="557.1301,726.6339,561.1301,736.6339,565.1301,726.6339,561.1301,730.6339" style="stroke:#181818;stroke-width:1.0;"/><line style="stroke:#181818;stroke-width:1.0;" x1="561.1301" x2="561.1301" y1="772.978" y2="792.978"/><polygon fill="#181818" points="557.1301,782.978,561.1301,792.978,565.1301,782.978,561.1301,786.978" style="stroke:#181818;stroke-width:1.0;"/><line style="stroke:#181818;stroke-width:1.0;" x1="561.1301" x2="561.1301" y1="845.6663" y2="865.6663"/><polygon fill="#181818" points="557.1301,855.6663,561.1301,865.6663,565.1301,855.6663,561.1301,859.6663" style="stroke:#181818;stroke-width:1.0;"/><line style="stroke:#181818;stroke-width:1.0;" x1="443.9174" x2="443.9174" y1="992.3545" y2="1012.3545"/><polygon fill="#181818" points="439.9174,1002.3545,443.9174,1012.3545,447.9174,1002.3545,443.9174,1006.3545" style="stroke:#181818;stroke-width:1.0;"/><line style="stroke:#181818;stroke-width:1.0;" x1="507.6934" x2="443.9174" y1="934.0104" y2="934.0104"/><line style="stroke:#181818;stroke-width:1.0;" x1="443.9174" x2="443.9174" y1="934.0104" y2="956.0104"/><polygon fill="#181818" points="439.9174,946.0104,443.9174,956.0104,447.9174,946.0104,443.9174,950.0104" style="stroke:#181818;stroke-width:1.0;"/><line style="stroke:#181818;stroke-width:1.0;" x1="614.5668" x2="678.3428" y1="934.0104" y2="934.0104"/><line style="stroke:#181818;stroke-width:1.0;" x1="678.3428" x2="678.3428" y1="934.0104" y2="956.0104"/><polygon fill="#181818" points="674.3428,946.0104,678.3428,956.0104,682.3428,946.0104,678.3428,950.0104" style="stroke:#181818;stroke-width:1.0;"/><line style="stroke:#181818;stroke-width:1.0;" x1="443.9174" x2="443.9174" y1="1048.6986" y2="1066.6986"/><line style="stroke:#181818;stroke-width:1.0;" x1="443.9174" x2="549.1301" y1="1066.6986" y2="1066.6986"/><polygon fill="#181818" points="539.1301,1062.6986,549.1301,1066.6986,539.1301,1070.6986,543.1301,1066.6986" style="stroke:#181818;stroke-width:1.0;"/><line style="stroke:#181818;stroke-width:1.0;" x1="678.3428" x2="678.3428" y1="992.3545" y2="1066.6986"/><line style="stroke:#181818;stroke-width:1.0;" x1="678.3428" x2="573.1301" y1="1066.6986" y2="1066.6986"/><polygon fill="#181818" points="583.1301,1062.6986,573.1301,1066.6986,583.1301,1070.6986,579.1301,1066.6986" style="stroke:#181818;stroke-width:1.0;"/><line style="stroke:#181818;stroke-width:1.0;" x1="561.1301" x2="561.1301" y1="902.0104" y2="922.0104"/><polygon fill="#181818" points="557.1301,912.0104,561.1301,922.0104,565.1301,912.0104,561.1301,916.0104" style="stroke:#181818;stroke-width:1.0;"/><line style="stroke:#181818;stroke-width:1.0;" x1="561.1301" x2="561.1301" y1="1078.6986" y2="1098.6986"/><polygon fill="#181818" points="557.1301,1088.6986,561.1301,1098.6986,565.1301,1088.6986,561.1301,1092.6986" style="stroke:#181818;stroke-width:1.0;"/><line style="stroke:#181818;stroke-width:1.0;" x1="561.1301" x2="561.1301" y1="1151.3868" y2="1171.3868"/><polygon fill="#181818" points="557.1301,1161.3868,561.1301,1171.3868,565.1301,1161.3868,561.1301,1165.3868" style="stroke:#181818;stroke-width:1.0;"/><line style="stroke:#181818;stroke-width:1.0;" x1="922.9523" x2="922.9523" y1="1313.566" y2="1333.566"/><polygon fill="#181818" points="918.9523,1323.566,922.9523,1333.566,926.9523,1323.566,922.9523,1327.566" style="stroke:#181818;stroke-width:1.0;"/><line style="stroke:#181818;stroke-width:1.0;" x1="922.9523" x2="922.9523" y1="1369.9101" y2="1389.9101"/><polygon fill="#181818" points="918.9523,1379.9101,922.9523,1389.9101,926.9523,1379.9101,922.9523,1383.9101" style="stroke:#181818;stroke-width:1.0;"/><line style="stroke:#181818;stroke-width:1.0;" x1="922.9523" x2="922.9523" y1="1251.731" y2="1277.2219"/><polygon fill="#181818" points="918.9523,1267.2219,922.9523,1277.2219,926.9523,1267.2219,922.9523,1271.2219" style="stroke:#181818;stroke-width:1.0;"/><line style="stroke:#181818;stroke-width:1.0;" x1="1012.7383" x2="1065.3532" y1="1239.731" y2="1239.731"/><polygon fill="#181818" points="1061.3532,1341.7381,1065.3532,1351.7381,1069.3532,1341.7381,1065.3532,1345.7381" style="stroke:#181818;stroke-width:1.0;"/><line style="stroke:#181818;stroke-width:1.0;" x1="1065.3532" x2="1065.3532" y1="1239.731" y2="1458.2542"/><line style="stroke:#181818;stroke-width:1.0;" x1="1065.3532" x2="934.9523" y1="1458.2542" y2="1458.2542"/><polygon fill="#181818" points="944.9523,1454.2542,934.9523,1458.2542,944.9523,1462.2542,940.9523,1458.2542" style="stroke:#181818;stroke-width:1.0;"/><line style="stroke:#181818;stroke-width:1.0;" x1="922.9523" x2="922.9523" y1="1426.2542" y2="1446.2542"/><polygon fill="#181818" points="918.9523,1436.2542,922.9523,1446.2542,926.9523,1436.2542,922.9523,1440.2542" style="stroke:#181818;stroke-width:1.0;"/><line style="stroke:#181818;stroke-width:1.0;" x1="163.709" x2="163.709" y1="603.9457" y2="608.9457"/><line style="stroke:#181818;stroke-width:1.0;" x1="163.709" x2="561.1301" y1="608.9457" y2="608.9457"/><line style="stroke:#181818;stroke-width:1.0;" x1="561.1301" x2="561.1301" y1="608.9457" y2="623.9457"/><polygon fill="#181818" points="557.1301,613.9457,561.1301,623.9457,565.1301,613.9457,561.1301,617.9457" style="stroke:#181818;stroke-width:1.0;"/><line style="stroke:#181818;stroke-width:1.0;" x1="561.1301" x2="561.1301" y1="1207.731" y2="1212.731"/><line style="stroke:#181818;stroke-width:1.0;" x1="561.1301" x2="922.9523" y1="1212.731" y2="1212.731"/><line style="stroke:#181818;stroke-width:1.0;" x1="922.9523" x2="922.9523" y1="1212.731" y2="1227.731"/><polygon fill="#181818" points="918.9523,1217.731,922.9523,1227.731,926.9523,1217.731,922.9523,1221.731" style="stroke:#181818;stroke-width:1.0;"/><line style="stroke:#181818;stroke-width:1.0;" x1="922.9523" x2="922.9523" y1="1470.2542" y2="1475.2542"/><line style="stroke:#181818;stroke-width:1.0;" x1="922.9523" x2="163.709" y1="1475.2542" y2="1475.2542"/><line style="stroke:#181818;stroke-width:1.0;" x1="163.709" x2="163.709" y1="1475.2542" y2="1490.2542"/><polygon fill="#181818" points="159.709,1480.2542,163.709,1490.2542,167.709,1480.2542,163.709,1484.2542" style="stroke:#181818;stroke-width:1.0;"/><text fill="#000000" font-family="Helvetica" font-size="18" lengthAdjust="spacing" textLength="94.6434" x="123.0286" y="73.0838">Propietario</text><text fill="#000000" font-family="Helvetica" font-size="18" lengthAdjust="spacing" textLength="148.8411" x="480.7055" y="73.0838">Backend (Django)</text><text fill="#000000" font-family="Helvetica" font-size="18" lengthAdjust="spacing" textLength="228.1126" x="820.396" y="73.0838">Sistema (Celery, as&#237;ncrono)</text><!--SRC=[XPH1Rjj844NtF4L1iw4m1X8xEnc3G9Ran41i2vRXLG2YJ9RejflTGbTJWGClPZK76Cm5vW0wmm3HJNAI-Kr6jYOP8De8QFukrd_rYz54ApJt6gy3bm_qzVU_Q5n6ipOLLoEQkVLsuwaIQXq5MVaGXLPG-vK4ZZuOdsNwODoA0pTqYn9ryAsh9jxwGB-SThyzXTvnvJyPLzEIhShUaqgMtDfuwbsyu4Pey5xiMg8fUP1bJ_FWLqOYuuLFcU8_PgFnRJ21B5F3Mlh8z4XYgV7Ee37nnCc7FyxCal8l_vm_duydrsStbr0hMzWaffALOQys6WDN_7P8yKuSvSuFCwBHkK_dWGOpbrvNskt6fRxe5Gscy9Fui8qy-EXmXHI893G6g7fa78R7g9EePGBNbEjsCyp4LMQPZUQidWuxybUYA-yg2LIsej5ubmpJqjnxb3uwf1MQR5rafSLsy-h2esv__-Yx-oz2jAAeOyrdEDET_aq_wUe-YG8jVVHAkL-LwPrs-D4zalFfkZMtGT8rHC50kGj1Vkf3C-N8Q25xEi7WOOVowJsxsW-Vij5D1pVyC0_0icZlUPme_QxbaAIcsVvTYnCbm6VRS2cE6oCkUehIuCLi8P-mBLiB_HqE5FKK_DDSJ6ZhxOOXaJNRbgCKmUX33WEhn9FreBy3Vr__-1DZxmf5gJfTAXq4TQywZ_GhZPr-0ipyXsaWFFjSqnpwbBtdnnSRppdgneqWmNOfgeX_WMvYg_GRpQyk9xF5ukpYNSe8C9S-UVicBNhUXMcu5YrW0Mts6VeMpl-hERaydt-ONS-cnxkGNOb1PDC0IomOEWQJ5DiWfGVxRfCHCSiQ2x-MKBLIICF65XmFw3ydMYWcafBt4hUZruUKxrgjkaWii4pGKpuHA-7nW1WKN1cyI_7eQI40mgcD_Sad_tixk6EtQ6-nxIKUKGS32Q6pfZuvwR3rWxinshATuUE5CdByKpn8F9sEppxCfiDzgZspxpuwevkqLWnurdAFJl6z0igqzMQDLAT38rgdUAp1Y5tQZcxj_mK0]--></g></svg>