<svg xmlns="http://www.w3.org/2000/svg" xmlns:xlink="http://www.w3.org/1999/xlink" contentStyleType="text/css" height="1134px" preserveAspectRatio="none" style="width:974px;height:1134px;background:#FFFFFF;" version="1.1" viewBox="0 0 974 1134" width="974px" zoomAndPan="magnify"><title>PostTrack &#8212; Actividad: Revisi&#243;n y validaci&#243;n de reportes (Veterinario)</title><defs/><g><text fill="#000000" font-family="Helvetica" font-size="14" font-weight="bold" lengthAdjust="spacing" textLength="486.1763" x="242.7305" y="34.9659">PostTrack &#8212; Actividad: Revisi&#243;n y validaci&#243;n de reportes (Veterinario)</text><rect fill="none" height="24.5158" style="stroke:none;stroke-width:1.0;" width="941.6373" x="15" y="53.8419"/><ellipse cx="357.3765" cy="93.3577" fill="#222222" rx="10" ry="10" style="stroke:#222222;stroke-width:1.0;"/><rect fill="#F1F1F1" height="36.3441" rx="12.5" ry="12.5" style="stroke:#181818;stroke-width:0.5;" width="243.9456" x="235.4037" y="123.3577"/><text fill="#000000" font-family="Helvetica" font-size="12" lengthAdjust="spacing" textLength="223.9456" x="245.4037" y="146.1858">Iniciar sesi&#243;n y seleccionar cl&#237;nica activa</text><rect fill="#F1F1F1" height="36.3441" rx="12.5" ry="12.5" style="stroke:#181818;stroke-width:0.5;" width="104.6846" x="305.0342" y="179.7018"/><text fill="#000000" font-family="Helvetica" font-size="12" lengthAdjust="spacing" textLength="84.6846" x="315.0342" y="202.5299">Abrir el tablero</text><rect fill="#555555" height="6" rx="2.5" ry="2.5" style="stroke:#555555;stroke-width:1.0;" width="672.7531" x="21" y="236.046"/><rect fill="#F1F1F1" height="36.3441" rx="12.5" ry="12.5" style="stroke:#181818;stroke-width:0.5;" width="195.7293" x="33" y="270.218"/><text fill="#000000" font-family="Helvetica" font-size="12" lengthAdjust="spacing" textLength="175.7293" x="43" y="293.0461">Ver alertas en tiempo real (SSE)</text><rect fill="#F1F1F1" height="36.3441" rx="12.5" ry="12.5" style="stroke:#181818;stroke-width:0.5;" width="202.4613" x="256.7293" y="270.218"/><text fill="#000000" font-family="Helvetica" font-size="12" lengthAdjust="spacing" textLength="182.4613" x="266.7293" y="293.0461">Ver reportes faltantes (vencidos)</text><rect fill="#F1F1F1" height="52.6882" rx="12.5" ry="12.5" style="stroke:#181818;stroke-width:0.5;" width="194.5625" x="487.1906" y="262.046"/><text fill="#000000" font-family="Helvetica" font-size="12" lengthAdjust="spacing" textLength="136.105" x="497.1906" y="284.874">Ver bandeja de reportes</text><text fill="#000000" font-family="Helvetica" font-size="12" lengthAdjust="spacing" textLength="174.5625" x="497.1906" y="301.2182">(orden ALTO &#8594; MEDIO &#8594; BAJO)</text><rect fill="#555555" height="6" rx="2.5" ry="2.5" style="stroke:#555555;stroke-width:1.0;" width="672.7531" x="21" y="334.7342"/><rect fill="#F1F1F1" height="36.3441" rx="12.5" ry="12.5" style="stroke:#181818;stroke-width:0.5;" width="147.6929" x="283.5301" y="360.7342"/><text fill="#000000" font-family="Helvetica" font-size="12" lengthAdjust="spacing" textLength="127.6929" x="293.5301" y="383.5623">Seleccionar un reporte</text><rect fill="#F1F1F1" height="36.3441" rx="12.5" ry="12.5" style="stroke:#181818;stroke-width:0.5;" width="228.8735" x="242.9398" y="506.1106"/><text fill="#000000" font-family="Helvetica" font-size="12" lengthAdjust="spacing" textLength="208.8735" x="252.9398" y="528.9387">Revisar respuestas, evidencia y notas</text><rect fill="#F1F1F1" height="69.0323" rx="12.5" ry="12.5" style="stroke:#181818;stroke-width:0.5;" width="172.7131" x="271.02" y="611.9457"/><text fill="#000000" font-family="Helvetica" font-size="12" lengthAdjust="spacing" textLength="144.469" x="281.02" y="634.7738">Seleccionar validated_risk</text><text fill="#000000" font-family="Helvetica" font-size="12" lengthAdjust="spacing" textLength="152.7131" x="281.02" y="651.1179">(corregir a mayor o menor)</text><text fill="#000000" font-family="Helvetica" font-size="12" lengthAdjust="spacing" textLength="76.9205" x="281.02" y="667.462">+ justificaci&#243;n</text><polygon fill="#F1F1F1" points="274.5691,562.4548,440.184,562.4548,452.184,574.4548,440.184,586.4548,274.5691,586.4548,262.5691,574.4548,274.5691,562.4548" style="stroke:#181818;stroke-width:0.5;"/><text fill="#000000" font-family="Helvetica" font-size="11" lengthAdjust="spacing" textLength="13.4529" x="361.3765" y="598.2137">no</text><text fill="#000000" font-family="Helvetica" font-size="11" lengthAdjust="spacing" textLength="165.6149" x="274.5691" y="578.7227">&#191;El riesgo calculado es correcto?</text><text fill="#000000" font-family="Helvetica" font-size="11" lengthAdjust="spacing" textLength="8.1069" x="254.4621" y="571.2318">s&#237;</text><polygon fill="#F1F1F1" points="357.3765,758.478,369.3765,770.478,357.3765,782.478,345.3765,770.478,357.3765,758.478" style="stroke:#181818;stroke-width:0.5;"/><rect fill="#F1F1F1" height="36.3441" rx="12.5" ry="12.5" style="stroke:#181818;stroke-width:0.5;" width="145.7969" x="284.4781" y="802.478"/><text fill="#000000" font-family="Helvetica" font-size="12" lengthAdjust="spacing" textLength="125.7969" x="294.4781" y="825.3061">Marcar como revisado</text><rect fill="#F1F1F1" height="52.6882" rx="12.5" ry="12.5" style="stroke:#181818;stroke-width:0.5;" width="234.0935" x="240.3298" y="1027.8545"/><text fill="#000000" font-family="Helvetica" font-size="12" lengthAdjust="spacing" textLength="78.9606" x="250.3298" y="1050.6826">Decidir acci&#243;n</text><text fill="#000000" font-family="Helvetica" font-size="12" lengthAdjust="spacing" textLength="214.0935" x="250.3298" y="1067.0267">(contactar, programar visita o derivar)</text><ellipse cx="357.3765" cy="1111.5427" fill="none" rx="11" ry="11" style="stroke:#222222;stroke-width:1.0;"/><ellipse cx="357.3765" cy="1111.5427" fill="#222222" rx="6" ry="6" style="stroke:#222222;stroke-width:1.0;"/><line style="stroke:#000000;stroke-width:1.5;" x1="15" x2="15" y1="53.8419" y2="1122.5427"/><rect fill="#F1F1F1" height="69.0323" rx="12.5" ry="12.5" style="stroke:#181818;stroke-width:0.5;" width="204.5253" x="725.2625" y="417.0783"/><text fill="#000000" font-family="Helvetica" font-size="12" lengthAdjust="spacing" textLength="184.5253" x="735.2625" y="439.9064">Cargar detalle filtrado por cl&#237;nica</text><text fill="#000000" font-family="Helvetica" font-size="12" lengthAdjust="spacing" textLength="141.301" x="735.2625" y="456.2505">(respuestas, fotos, notas,</text><text fill="#000000" font-family="Helvetica" font-size="12" lengthAdjust="spacing" textLength="95.1607" x="735.2625" y="472.5946">riesgo calculado)</text><rect fill="#F1F1F1" height="36.3441" rx="12.5" ry="12.5" style="stroke:#181818;stroke-width:0.5;" width="247.5442" x="703.7531" y="702.1339"/><text fill="#000000" font-family="Helvetica" font-size="12" lengthAdjust="spacing" textLength="227.5442" x="713.7531" y="724.962">PATCH validate &#8594; guardar validated_risk</text><rect fill="#F1F1F1" height="36.3441" rx="12.5" ry="12.5" style="stroke:#181818;stroke-width:0.5;" width="168.525" x="743.2627" y="858.8222"/><text fill="#000000" font-family="Helvetica" font-size="12" lengthAdjust="spacing" textLength="148.525" x="753.2627" y="881.6502">review_status = REVIEWED</text><rect fill="#F1F1F1" height="36.3441" rx="12.5" ry="12.5" style="stroke:#181818;stroke-width:0.5;" width="133.8568" x="760.5968" y="915.1663"/><text fill="#000000" font-family="Helvetica" font-size="12" lengthAdjust="spacing" textLength="113.8568" x="770.5968" y="937.9944">reviewed_at = ahora</text><rect fill="#F1F1F1" height="36.3441" rx="12.5" ry="12.5" style="stroke:#181818;stroke-width:0.5;" width="200.8893" x="727.0805" y="971.5104"/><text fill="#000000" font-family="Helvetica" font-size="12" lengthAdjust="spacing" textLength="180.8893" x="737.0805" y="994.3385">Registrar cambios en el historial</text><line style="stroke:#000000;stroke-width:1.5;" x1="697.7531" x2="697.7531" y1="53.8419" y2="1122.5427"/><line style="stroke:#000000;stroke-width:1.5;" x1="955.2973" x2="955.2973" y1="53.8419" y2="1122.5427"/><line style="stroke:#181818;stroke-width:1.0;" x1="357.3765" x2="357.3765" y1="103.3577" y2="123.3577"/><polygon fill="#181818" points="353.3765,113.3577,357.3765,123.3577,361.3765,113.3577,357.3765,117.3577" style="stroke:#181818;stroke-width:1.0;"/><line style="stroke:#181818;stroke-width:1.0;" x1="357.3765" x2="357.3765" y1="159.7018" y2="179.7018"/><polygon fill="#181818" points="353.3765,169.7018,357.3765,179.7018,361.3765,169.7018,357.3765,173.7018" style="stroke:#181818;stroke-width:1.0;"/><line style="stroke:#181818;stroke-width:1.0;" x1="130.8646" x2="130.8646" y1="242.046" y2="270.218"/><polygon fill="#181818" points="126.8646,260.218,130.8646,270.218,134.8646,260.218,130.8646,264.218" style="stroke:#181818;stroke-width:1.0;"/><line style="stroke:#181818;stroke-width:1.0;" x1="357.9599" x2="357.9599" y1="242.046" y2="270.218"/><polygon fill="#181818" points="353.9599,260.218,357.9599,270.218,361.9599,260.218,357.9599,264.218" style="stroke:#181818;stroke-width:1.0;"/><line style="stroke:#181818;stroke-width:1.0;" x1="584.4718" x2="584.4718" y1="242.046" y2="262.046"/><polygon fill="#181818" points="580.4718,252.046,584.4718,262.046,588.4718,252.046,584.4718,256.046" style="stroke:#181818;stroke-width:1.0;"/><line style="stroke:#181818;stroke-width:1.0;" x1="130.8646" x2="130.8646" y1="306.5621" y2="334.7342"/><polygon fill="#181818" points="126.8646,324.7342,130.8646,334.7342,134.8646,324.7342,130.8646,328.7342" style="stroke:#181818;stroke-width:1.0;"/><line style="stroke:#181818;stroke-width:1.0;" x1="357.9599" x2="357.9599" y1="306.5621" y2="334.7342"/><polygon fill="#181818" points="353.9599,324.7342,357.9599,334.7342,361.9599,324.7342,357.9599,328.7342" style="stroke:#181818;stroke-width:1.0;"/><line style="stroke:#181818;stroke-width:1.0;" x1="584.4718" x2="584.4718" y1="314.7342" y2="334.7342"/><polygon fill="#181818" points="580.4718,324.7342,584.4718,334.7342,588.4718,324.7342,584.4718,328.7342" style="stroke:#181818;stroke-width:1.0;"/><line style="stroke:#181818;stroke-width:1.0;" x1="357.3765" x2="357.3765" y1="216.046" y2="236.046"/><polygon fill="#181818" points="353.3765,226.046,357.3765,236.046,361.3765,226.046,357.3765,230.046" style="stroke:#181818;stroke-width:1.0;"/><line style="stroke:#181818;stroke-width:1.0;" x1="357.3765" x2="357.3765" y1="340.7342" y2="360.7342"/><polygon fill="#181818" points="353.3765,350.7342,357.3765,360.7342,361.3765,350.7342,357.3765,354.7342" style="stroke:#181818;stroke-width:1.0;"/><line style="stroke:#181818;stroke-width:1.0;" x1="357.3765" x2="357.3765" y1="586.4548" y2="611.9457"/><polygon fill="#181818" points="353.3765,601.9457,357.3765,611.9457,361.3765,601.9457,357.3765,605.9457" style="stroke:#181818;stroke-width:1.0;"/><line style="stroke:#181818;stroke-width:1.0;" x1="262.5691" x2="223.6044" y1="574.4548" y2="574.4548"/><polygon fill="#181818" points="219.6044,672.1339,223.6044,682.1339,227.6044,672.1339,223.6044,676.1339" style="stroke:#181818;stroke-width:1.0;"/><line style="stroke:#181818;stroke-width:1.0;" x1="223.6044" x2="223.6044" y1="574.4548" y2="770.478"/><line style="stroke:#181818;stroke-width:1.0;" x1="223.6044" x2="345.3765" y1="770.478" y2="770.478"/><polygon fill="#181818" points="335.3765,766.478,345.3765,770.478,335.3765,774.478,339.3765,770.478" style="stroke:#181818;stroke-width:1.0;"/><line style="stroke:#181818;stroke-width:1.0;" x1="357.3765" x2="357.3765" y1="542.4548" y2="562.4548"/><polygon fill="#181818" points="353.3765,552.4548,357.3765,562.4548,361.3765,552.4548,357.3765,556.4548" style="stroke:#181818;stroke-width:1.0;"/><line style="stroke:#181818;stroke-width:1.0;" x1="357.3765" x2="357.3765" y1="782.478" y2="802.478"/><polygon fill="#181818" points="353.3765,792.478,357.3765,802.478,361.3765,792.478,357.3765,796.478" style="stroke:#181818;stroke-width:1.0;"/><line style="stroke:#181818;stroke-width:1.0;" x1="357.3765" x2="357.3765" y1="1080.5427" y2="1100.5427"/><polygon fill="#181818" points="353.3765,1090.5427,357.3765,1100.5427,361.3765,1090.5427,357.3765,1094.5427" style="stroke:#181818;stroke-width:1.0;"/><line style="stroke:#181818;stroke-width:1.0;" x1="827.5252" x2="827.5252" y1="895.1663" y2="915.1663"/><polygon fill="#181818" points="823.5252,905.1663,827.5252,915.1663,831.5252,905.1663,827.5252,909.1663" style="stroke:#181818;stroke-width:1.0;"/><line style="stroke:#181818;stroke-width:1.0;" x1="827.5252" x2="827.5252" y1="951.5104" y2="971.5104"/><polygon fill="#181818" points="823.5252,961.5104,827.5252,971.5104,831.5252,961.5104,827.5252,965.5104" style="stroke:#181818;stroke-width:1.0;"/><line style="stroke:#181818;stroke-width:1.0;" x1="357.3765" x2="357.3765" y1="397.0783" y2="402.0783"/><line style="stroke:#181818;stroke-width:1.0;" x1="357.3765" x2="827.5252" y1="402.0783" y2="402.0783"/><line style="stroke:#181818;stroke-width:1.0;" x1="827.5252" x2="827.5252" y1="402.0783" y2="417.0783"/><polygon fill="#181818" points="823.5252,407.0783,827.5252,417.0783,831.5252,407.0783,827.5252,411.0783" style="stroke:#181818;stroke-width:1.0;"/><line style="stroke:#181818;stroke-width:1.0;" x1="827.5252" x2="827.5252" y1="486.1106" y2="491.1106"/><line style="stroke:#181818;stroke-width:1.0;" x1="827.5252" x2="357.3765" y1="491.1106" y2="491.1106"/><line style="stroke:#181818;stroke-width:1.0;" x1="357.3765" x2="357.3765" y1="491.1106" y2="506.1106"/><polygon fill="#181818" points="353.3765,496.1106,357.3765,506.1106,361.3765,496.1106,357.3765,500.1106" style="stroke:#181818;stroke-width:1.0;"/><line style="stroke:#181818;stroke-width:1.0;" x1="357.3765" x2="357.3765" y1="680.978" y2="687.1339"/><line style="stroke:#181818;stroke-width:1.0;" x1="357.3765" x2="827.5252" y1="687.1339" y2="687.1339"/><line style="stroke:#181818;stroke-width:1.0;" x1="827.5252" x2="827.5252" y1="687.1339" y2="702.1339"/><polygon fill="#181818" points="823.5252,692.1339,827.5252,702.1339,831.5252,692.1339,827.5252,696.1339" style="stroke:#181818;stroke-width:1.0;"/><line style="stroke:#181818;stroke-width:1.0;" x1="827.5252" x2="827.5252" y1="738.478" y2="745.7326"/><line style="stroke:#181818;stroke-width:1.0;" x1="827.5252" x2="357.3765" y1="745.7326" y2="745.7326"/><line style="stroke:#181818;stroke-width:1.0;" x1="357.3765" x2="357.3765" y1="745.7326" y2="758.478"/><polygon fill="#181818" points="353.3765,748.478,357.3765,758.478,361.3765,748.478,357.3765,752.478" style="stroke:#181818;stroke-width:1.0;"/><line style="stroke:#181818;stroke-width:1.0;" x1="357.3765" x2="357.3765" y1="838.8222" y2="843.8222"/><line style="stroke:#181818;stroke-width:1.0;" x1="357.3765" x2="827.5252" y1="843.8222" y2="843.8222"/><line style="stroke:#181818;stroke-width:1.0;" x1="827.5252" x2="827.5252" y1="843.8222" y2="858.8222"/><polygon fill="#181818" points="823.5252,848.8222,827.5252,858.8222,831.5252,848.8222,827.5252,852.8222" style="stroke:#181818;stroke-width:1.0;"/><line style="stroke:#181818;stroke-width:1.0;" x1="827.5252" x2="827.5252" y1="1007.8545" y2="1012.8545"/><line style="stroke:#181818;stroke-width:1.0;" x1="827.5252" x2="357.3765" y1="1012.8545" y2="1012.8545"/><line style="stroke:#181818;stroke-width:1.0;" x1="357.3765" x2="357.3765" y1="1012.8545" y2="1027.8545"/><polygon fill="#181818" points="353.3765,1017.8545,357.3765,1027.8545,361.3765,1017.8545,357.3765,1021.8545" style="stroke:#181818;stroke-width:1.0;"/><text fill="#000000" font-family="Helvetica" font-size="18" lengthAdjust="spacing" textLength="93.8694" x="309.4418" y="73.0838">Veterinario</text><text fill="#000000" font-family="Helvetica" font-size="18" lengthAdjust="spacing" textLength="72.3955" x="790.3274" y="73.0838">Backend</text><!--SRC=[RPF1JXin48RlVefHUqbKdc1NLHKW2AfI421wGK8JUtPZulL4OsyG4eUU-W1LNuDJ7w1IUHEUfBD6WG3DPRFs-1__t_oRVGu4nvpocQ1TmCFtNp2nsQ-yGrV12QryylU_8zp02eCkslBc28IMB9aIZCufa_Y8udbiJ5huk4J13cOgs0htqUrmO87tU-MtKP7cwFZQnnOQ38asTXmrs8Uynp5_nOxWtJw55MLlyPqnjniTRqtAADbK1z5RZmA9rXTE5CXQpre7DjpVQG423kQmDjLa9bw00cIS1HAkJSEoC03LEGcWBcLCG16ofsx9wXS3Z4vFf-F7Ii0MVLpNFz5G8nbZuRAYQBtZzDy3CuoEhd2Jv4KSiJZjEFboTWGFFtx2uNJtuF7VzkJpaUfGT52kMPrkcElZMgDMEDkANUjkJRM3qkgseun1fzpua4M1WvO-0T6cGcdPas9CMogUMH-HXxUBA9vIos0ns3xeqN7zcdvL8e83WMSLNNA3UTGf5AdQ-0P6V_zC0xoM14LbMOHivazZo7C5C8gQ90MrQV8nVfdSfVYqq6kNGwtE4A736xN4q55a6L_43t3Lf-mRzLVoMglOCnSLFfwSxUm_IHR2RO_YtlGf9ryO9WqgZDBztNYOXczCTOXYXuXnDwHaeE7uvI26LRg-L3YvJ_0HJgRd1zDlqzrwlQNTCEi6pbc6S9weiQJ3KbNiPfvB43MhSrrbyHZUpc6ND6m33Lii5q0nQznHjc0ftEfdDTZJxpcZid9wTeMY4rN9fVa7]--></g></svg>