<svg xmlns="http://www.w3.org/2000/svg" xmlns:xlink="http://www.w3.org/1999/xlink" contentStyleType="text/css" height="615px" preserveAspectRatio="none" style="width:1275px;height:615px;background:#FFFFFF;" version="1.1" viewBox="0 0 1275 615" width="1275px" zoomAndPan="magnify"><title>PostTrack &#8212; Clases focalizadas: Usuarios, cl&#237;nicas y protecci&#243;n de datos</title><defs/><g><text fill="#000000" font-family="Helvetica" font-size="14" font-weight="bold" lengthAdjust="spacing" textLength="497.8382" x="381.5866" y="24.9659">PostTrack &#8212; Clases focalizadas: Usuarios, cl&#237;nicas y protecci&#243;n de datos</text><!--class UserRole--><g id="elem_UserRole"><rect codeLine="12" fill="#EBF5FB" height="102.2717" id="UserRole" rx="2.5" ry="2.5" style="stroke:#1A5276;stroke-width:0.5;" width="109.8316" x="170.5" y="75.5679"/><text fill="#000000" font-family="Helvetica" font-size="14" lengthAdjust="spacing" textLength="59.3038" x="195.7639" y="95.5339">UserRole</text><line style="stroke:#1A5276;stroke-width:0.5;" x1="171.5" x2="279.3316" y1="104.6358" y2="104.6358"/><text fill="#000000" font-family="Helvetica" font-size="14" lengthAdjust="spacing" textLength="47.2498" x="176.5" y="123.6018">ADMIN</text><text fill="#000000" font-family="Helvetica" font-size="14" lengthAdjust="spacing" textLength="97.8316" x="176.5" y="142.6697">VETERINARIAN</text><text fill="#000000" font-family="Helvetica" font-size="14" lengthAdjust="spacing" textLength="51.0858" x="176.5" y="161.7376">OWNER</text><line style="stroke:#1A5276;stroke-width:0.5;" x1="171.5" x2="279.3316" y1="169.8396" y2="169.8396"/></g><!--class User--><g id="elem_User"><rect codeLine="18" fill="#EBF5FB" height="159.4754" id="User" rx="2.5" ry="2.5" style="stroke:#1A5276;stroke-width:0.5;" width="217.6732" x="315.5" y="47.0679"/><text fill="#000000" font-family="Helvetica" font-size="14" lengthAdjust="spacing" textLength="30.6179" x="409.0277" y="67.0339">User</text><line style="stroke:#1A5276;stroke-width:0.5;" x1="316.5" x2="532.1732" y1="76.1358" y2="76.1358"/><text fill="#000000" font-family="Helvetica" font-size="14" lengthAdjust="spacing" textLength="202.6632" x="321.5" y="95.1018">+firebase_uid : String &#171;unique&#187;</text><text fill="#000000" font-family="Helvetica" font-size="14" lengthAdjust="spacing" textLength="122.8355" x="321.5" y="114.1697">+full_name : String</text><text fill="#000000" font-family="Helvetica" font-size="14" lengthAdjust="spacing" textLength="158.4654" x="321.5" y="133.2376">+email : String &#171;unique&#187;</text><text fill="#000000" font-family="Helvetica" font-size="14" lengthAdjust="spacing" textLength="170.4773" x="321.5" y="152.3055">+role : UserRole = OWNER</text><text fill="#000000" font-family="Helvetica" font-size="14" lengthAdjust="spacing" textLength="200.0452" x="321.5" y="171.3734">+password_changed : Boolean</text><text fill="#000000" font-family="Helvetica" font-size="14" lengthAdjust="spacing" textLength="205.6732" x="321.5" y="190.4414">+terms_accepted_at : DateTime</text><line style="stroke:#1A5276;stroke-width:0.5;" x1="316.5" x2="532.1732" y1="198.5433" y2="198.5433"/></g><!--class PrivacyPolicyVersion--><g id="elem_PrivacyPolicyVersion"><rect codeLine="27" fill="#EBF5FB" height="121.3396" id="PrivacyPolicyVersion" rx="2.5" ry="2.5" style="stroke:#1A5276;stroke-width:0.5;" width="182.6313" x="7" y="333.0679"/><text fill="#000000" font-family="Helvetica" font-size="14" lengthAdjust="spacing" textLength="134.2315" x="31.1999" y="353.0339">PrivacyPolicyVersion</text><line style="stroke:#1A5276;stroke-width:0.5;" x1="8" x2="188.6313" y1="362.1358" y2="362.1358"/><text fill="#000000" font-family="Helvetica" font-size="14" lengthAdjust="spacing" textLength="170.6313" x="13" y="381.1018">+version : String &#171;unique&#187;</text><text fill="#000000" font-family="Helvetica" font-size="14" lengthAdjust="spacing" textLength="97.6776" x="13" y="400.1697">+content : Text</text><text fill="#000000" font-family="Helvetica" font-size="14" lengthAdjust="spacing" textLength="141.5114" x="13" y="419.2376">+effective_date : Date</text><text fill="#000000" font-family="Helvetica" font-size="14" lengthAdjust="spacing" textLength="127.8755" x="13" y="438.3055">+is_active : Boolean</text><line style="stroke:#1A5276;stroke-width:0.5;" x1="8" x2="188.6313" y1="446.4075" y2="446.4075"/></g><!--class Clinic--><g id="elem_Clinic"><rect codeLine="34" fill="#EBF5FB" height="140.4075" id="Clinic" rx="2.5" ry="2.5" style="stroke:#1A5276;stroke-width:0.5;" width="151.7195" x="707.5" y="56.5679"/><text fill="#000000" font-family="Helvetica" font-size="14" lengthAdjust="spacing" textLength="35.0558" x="765.8318" y="76.5339">Clinic</text><line style="stroke:#1A5276;stroke-width:0.5;" x1="708.5" x2="858.2195" y1="85.6358" y2="85.6358"/><text fill="#000000" font-family="Helvetica" font-size="14" lengthAdjust="spacing" textLength="95.9276" x="713.5" y="104.6018">+name : String</text><text fill="#000000" font-family="Helvetica" font-size="14" lengthAdjust="spacing" textLength="139.7195" x="713.5" y="123.6697">+nit : String &#171;unique&#187;</text><text fill="#000000" font-family="Helvetica" font-size="14" lengthAdjust="spacing" textLength="110.5996" x="713.5" y="142.7376">+address : String</text><text fill="#000000" font-family="Helvetica" font-size="14" lengthAdjust="spacing" textLength="94.4996" x="713.5" y="161.8055">+email : String</text><text fill="#000000" font-family="Helvetica" font-size="14" lengthAdjust="spacing" textLength="100.7156" x="713.5" y="180.8734">+phone : String</text><line style="stroke:#1A5276;stroke-width:0.5;" x1="708.5" x2="858.2195" y1="188.9754" y2="188.9754"/></g><!--class ClinicMembership--><g id="elem_ClinicMembership"><rect codeLine="42" fill="#EBF5FB" height="216.6792" id="ClinicMembership" rx="2.5" ry="2.5" style="stroke:#1A5276;stroke-width:0.5;" width="215.5592" x="225.5" y="285.0679"/><text fill="#000000" font-family="Helvetica" font-size="14" lengthAdjust="spacing" textLength="118.6075" x="273.9758" y="305.0339">ClinicMembership</text><line style="stroke:#1A5276;stroke-width:0.5;" x1="226.5" x2="440.0592" y1="314.1358" y2="314.1358"/><text fill="#000000" font-family="Helvetica" font-size="14" lengthAdjust="spacing" textLength="104.1036" x="231.5" y="333.1018">+role : UserRole</text><text fill="#000000" font-family="Helvetica" font-size="14" lengthAdjust="spacing" textLength="122.8355" x="231.5" y="352.1697">+full_name : String</text><text fill="#000000" font-family="Helvetica" font-size="14" lengthAdjust="spacing" textLength="203.5592" x="231.5" y="371.2376">+identification_number : String</text><text fill="#000000" font-family="Helvetica" font-size="14" lengthAdjust="spacing" textLength="127.8755" x="231.5" y="390.3055">+is_active : Boolean</text><text fill="#000000" font-family="Helvetica" font-size="14" lengthAdjust="spacing" textLength="141.4274" x="231.5" y="409.3734">+linked_at : DateTime</text><text fill="#000000" font-family="Helvetica" font-size="14" lengthAdjust="spacing" textLength="158.7314" x="231.5" y="428.4414">+unlinked_at : DateTime</text><line style="stroke:#1A5276;stroke-width:1.0;" x1="226.5" x2="440.0592" y1="436.5433" y2="436.5433"/><text fill="#000000" font-family="Helvetica" font-size="14" lengthAdjust="spacing" textLength="187.4873" x="231.5" y="455.5093">Perfil del usuario POR cl&#237;nica</text><text fill="#000000" font-family="Helvetica" font-size="14" lengthAdjust="spacing" textLength="150.2474" x="231.5" y="474.5772">(aislamiento Ley 1581).</text><text fill="#000000" font-family="Helvetica" font-size="14" lengthAdjust="spacing" textLength="123.8295" x="231.5" y="493.6451">unique(user, clinic)</text></g><!--class DataPolicy--><g id="elem_DataPolicy"><rect codeLine="55" fill="#EBF5FB" height="121.3396" id="DataPolicy" rx="2.5" ry="2.5" style="stroke:#1A5276;stroke-width:0.5;" width="153.5114" x="925.5" y="333.0679"/><text fill="#000000" font-family="Helvetica" font-size="14" lengthAdjust="spacing" textLength="69.0057" x="967.7528" y="353.0339">DataPolicy</text><line style="stroke:#1A5276;stroke-width:0.5;" x1="926.5" x2="1078.0114" y1="362.1358" y2="362.1358"/><text fill="#000000" font-family="Helvetica" font-size="14" lengthAdjust="spacing" textLength="106.6656" x="931.5" y="381.1018">+version : String</text><text fill="#000000" font-family="Helvetica" font-size="14" lengthAdjust="spacing" textLength="97.6776" x="931.5" y="400.1697">+content : Text</text><text fill="#000000" font-family="Helvetica" font-size="14" lengthAdjust="spacing" textLength="141.5114" x="931.5" y="419.2376">+effective_date : Date</text><text fill="#000000" font-family="Helvetica" font-size="14" lengthAdjust="spacing" textLength="127.8755" x="931.5" y="438.3055">+is_active : Boolean</text><line style="stroke:#1A5276;stroke-width:0.5;" x1="926.5" x2="1078.0114" y1="446.4075" y2="446.4075"/></g><!--class DataAuthorization--><g id="elem_DataAuthorization"><rect codeLine="62" fill="#EBF5FB" height="121.3396" id="DataAuthorization" rx="2.5" ry="2.5" style="stroke:#1A5276;stroke-width:0.5;" width="153.5114" x="1114.5" y="333.0679"/><text fill="#000000" font-family="Helvetica" font-size="14" lengthAdjust="spacing" textLength="120.3716" x="1131.0699" y="353.0339">DataAuthorization</text><line style="stroke:#1A5276;stroke-width:0.5;" x1="1115.5" x2="1267.0114" y1="362.1358" y2="362.1358"/><text fill="#000000" font-family="Helvetica" font-size="14" lengthAdjust="spacing" textLength="106.6656" x="1120.5" y="381.1018">+version : String</text><text fill="#000000" font-family="Helvetica" font-size="14" lengthAdjust="spacing" textLength="97.6776" x="1120.5" y="400.1697">+content : Text</text><text fill="#000000" font-family="Helvetica" font-size="14" lengthAdjust="spacing" textLength="141.5114" x="1120.5" y="419.2376">+effective_date : Date</text><text fill="#000000" font-family="Helvetica" font-size="14" lengthAdjust="spacing" textLength="127.8755" x="1120.5" y="438.3055">+is_active : Boolean</text><line style="stroke:#1A5276;stroke-width:0.5;" x1="1115.5" x2="1267.0114" y1="446.4075" y2="446.4075"/></g><!--class DataTreatmentAcceptance--><g id="elem_DataTreatmentAcceptance"><rect codeLine="69" fill="#EBF5FB" height="140.4075" id="DataTreatmentAcceptance" rx="2.5" ry="2.5" style="stroke:#1A5276;stroke-width:0.5;" width="213.1792" x="677" y="323.5679"/><text fill="#000000" font-family="Helvetica" font-size="14" lengthAdjust="spacing" textLength="175.1113" x="696.034" y="343.5339">DataTreatmentAcceptance</text><line style="stroke:#1A5276;stroke-width:0.5;" x1="678" x2="889.1792" y1="352.6358" y2="352.6358"/><text fill="#000000" font-family="Helvetica" font-size="14" lengthAdjust="spacing" textLength="160.9294" x="683" y="371.6018">+accepted_at : DateTime</text><text fill="#000000" font-family="Helvetica" font-size="14" lengthAdjust="spacing" textLength="102.8576" x="683" y="390.6697">+ip_address : IP</text><text fill="#000000" font-family="Helvetica" font-size="14" lengthAdjust="spacing" textLength="151.0454" x="683" y="409.7376">+policy_version : String</text><text fill="#000000" font-family="Helvetica" font-size="14" lengthAdjust="spacing" textLength="201.1792" x="683" y="428.8055">+authorization_version : String</text><line style="stroke:#1A5276;stroke-width:1.0;" x1="678" x2="889.1792" y1="436.9075" y2="436.9075"/><text fill="#000000" font-family="Helvetica" font-size="14" lengthAdjust="spacing" textLength="123.8295" x="683" y="455.8734">unique(user, clinic)</text></g><!--class ClinicAuditLog--><g id="elem_ClinicAuditLog"><rect codeLine="78" fill="#EBF5FB" height="121.3396" id="ClinicAuditLog" rx="2.5" ry="2.5" style="stroke:#1A5276;stroke-width:0.5;" width="165.4114" x="477" y="333.0679"/><text fill="#000000" font-family="Helvetica" font-size="14" lengthAdjust="spacing" textLength="94.3456" x="512.5329" y="353.0339">ClinicAuditLog</text><line style="stroke:#1A5276;stroke-width:0.5;" x1="478" x2="641.4114" y1="362.1358" y2="362.1358"/><text fill="#000000" font-family="Helvetica" font-size="14" lengthAdjust="spacing" textLength="98.7976" x="483" y="381.1018">+action : String</text><text fill="#000000" font-family="Helvetica" font-size="14" lengthAdjust="spacing" textLength="95.4656" x="483" y="400.1697">+details : JSON</text><text fill="#000000" font-family="Helvetica" font-size="14" lengthAdjust="spacing" textLength="102.8576" x="483" y="419.2376">+ip_address : IP</text><text fill="#000000" font-family="Helvetica" font-size="14" lengthAdjust="spacing" textLength="153.4114" x="483" y="438.3055">+timestamp : DateTime</text><line style="stroke:#1A5276;stroke-width:0.5;" x1="478" x2="641.4114" y1="446.4075" y2="446.4075"/></g><g id="elem_GMN21"><path d="M174,563.0679 L174,608.4799 A0,0 0 0 0 174,608.4799 L492.6873,608.4799 A0,0 0 0 0 492.6873,608.4799 L492.6873,573.0679 L482.6873,563.0679 L337.5,563.0679 L333.5,502.3379 L329.5,563.0679 L174,563.0679 A0,0 0 0 0 174,563.0679 " fill="#FEFFDD" style="stroke:#181818;stroke-width:0.5;"/><path d="M482.6873,563.0679 L482.6873,573.0679 L492.6873,573.0679 L482.6873,563.0679 " fill="#FEFFDD" style="stroke:#181818;stroke-width:0.5;"/><text fill="#000000" font-family="Helvetica" font-size="13" lengthAdjust="spacing" textLength="274.8983" x="180" y="581.9649">Un mismo usuario puede pertenecer a varias</text><text fill="#000000" font-family="Helvetica" font-size="13" lengthAdjust="spacing" textLength="297.6873" x="180" y="599.6709">cl&#237;nicas con un perfil independiente en cada una.</text></g><!--link User to PrivacyPolicyVersion--><g id="link_User_PrivacyPolicyVersion"><path codeLine="85" d="M315.33,196.5479 C309.35,199.8579 303.38,203.0479 297.5,206.0679 C266.66,221.8979 253.27,215.3079 225.5,236.0679 C190.19,262.4679 162.3329,295.8881 139.6329,328.0081 " fill="none" id="User-to-PrivacyPolicyVersion" style="stroke:#1A5276;stroke-width:1.0;"/><polygon fill="#1A5276" points="136.17,332.9079,144.6309,327.8667,139.0557,328.8247,138.0977,323.2496,136.17,332.9079" style="stroke:#1A5276;stroke-width:1.0;"/><text fill="#000000" font-family="Helvetica" font-size="13" lengthAdjust="spacing" textLength="147.2251" x="226.5" y="250.9649">terms_accepted_version</text><text fill="#000000" font-family="Helvetica" font-size="13" lengthAdjust="spacing" textLength="21.567" x="285.9471" y="197.7758">0..*</text><text fill="#000000" font-family="Helvetica" font-size="13" lengthAdjust="spacing" textLength="21.84" x="118.555" y="321.3984">0..1</text></g><!--link User to User--><g id="link_User_User"><path codeLine="86" d="M533.76,105.5779 C554.14,108.1679 568.5,115.1579 568.5,126.5679 C568.5,137.9779 560.0921,144.2115 539.7121,146.8015 " fill="none" id="User-to-User" style="stroke:#1A5276;stroke-width:1.0;"/><polygon fill="#1A5276" points="533.76,147.5579,543.1925,150.3914,538.7201,146.9276,542.1839,142.4552,533.76,147.5579" style="stroke:#1A5276;stroke-width:1.0;"/><text fill="#000000" font-family="Helvetica" font-size="13" lengthAdjust="spacing" textLength="78.4941" x="574.5" y="131.9649">managed_by</text><text fill="#000000" font-family="Helvetica" font-size="13" lengthAdjust="spacing" textLength="21.84" x="541.0934" y="100.6849">0..1</text><text fill="#000000" font-family="Helvetica" font-size="13" lengthAdjust="spacing" textLength="21.567" x="541.0851" y="145.2231">0..*</text></g><!--link User to ClinicMembership--><g id="link_User_ClinicMembership"><path codeLine="88" d="M397.44,206.3579 C389.01,230.9179 381.5093,252.7734 372.5093,278.9734 " fill="none" id="User-to-ClinicMembership" style="stroke:#1A5276;stroke-width:1.0;"/><polygon fill="#1A5276" points="370.56,284.6479,377.2669,277.4356,372.1844,279.9191,369.7009,274.8366,370.56,284.6479" style="stroke:#1A5276;stroke-width:1.0;"/><text fill="#000000" font-family="Helvetica" font-size="13" lengthAdjust="spacing" textLength="7.436" x="387.6579" y="228.4048">1</text><text fill="#000000" font-family="Helvetica" font-size="13" lengthAdjust="spacing" textLength="21.567" x="351.4629" y="273.3249">0..*</text></g><!--link Clinic to ClinicMembership--><g id="link_Clinic_ClinicMembership"><path codeLine="89" d="M707.42,178.8679 C691.87,188.4579 675.4,197.9879 659.5,206.0679 C574.3,249.3779 541.41,235.8279 459.5,285.0679 C453.59,288.6279 452.6138,289.058 446.7538,293.088 " fill="none" id="Clinic-to-ClinicMembership" style="stroke:#1A5276;stroke-width:1.0;"/><polygon fill="#1A5276" points="441.81,296.4879,451.4922,294.6839,445.9298,293.6547,446.959,288.0922,441.81,296.4879" style="stroke:#1A5276;stroke-width:1.0;"/><text fill="#000000" font-family="Helvetica" font-size="13" lengthAdjust="spacing" textLength="7.436" x="692.2503" y="180.2972">1</text><text fill="#000000" font-family="Helvetica" font-size="13" lengthAdjust="spacing" textLength="21.567" x="449.0807" y="286.9824">0..*</text></g><!--link Clinic to DataPolicy--><g id="link_Clinic_DataPolicy"><path codeLine="91" d="M840.75,196.8479 C875.61,239.0179 915.8576,287.723 949.1976,328.063 " fill="none" id="Clinic-to-DataPolicy" style="stroke:#1A5276;stroke-width:1.0;"/><polygon fill="#1A5276" points="953.02,332.6879,950.3697,323.2023,949.8347,328.8338,944.2032,328.2988,953.02,332.6879" style="stroke:#1A5276;stroke-width:1.0;"/><text fill="#000000" font-family="Helvetica" font-size="13" lengthAdjust="spacing" textLength="7.436" x="839.3299" y="218.8845">1</text><text fill="#000000" font-family="Helvetica" font-size="13" lengthAdjust="spacing" textLength="21.567" x="924.7743" y="321.1516">0..*</text></g><!--link Clinic to DataAuthorization--><g id="link_Clinic_DataAuthorization"><path codeLine="92" d="M859.58,155.9379 C926.28,183.0079 1023.83,228.0579 1097.5,285.0679 C1115.15,298.7279 1128.081,311.5247 1142.521,328.2647 " fill="none" id="Clinic-to-DataAuthorization" style="stroke:#1A5276;stroke-width:1.0;"/><polygon fill="#1A5276" points="1146.44,332.8079,1143.5903,323.3803,1143.1741,329.0219,1137.5326,328.6057,1146.44,332.8079" style="stroke:#1A5276;stroke-width:1.0;"/><text fill="#000000" font-family="Helvetica" font-size="13" lengthAdjust="spacing" textLength="7.436" x="867.1991" y="154.8383">1</text><text fill="#000000" font-family="Helvetica" font-size="13" lengthAdjust="spacing" textLength="21.567" x="1118.733" y="321.2862">0..*</text></g><!--link User to DataTreatmentAcceptance--><g id="link_User_DataTreatmentAcceptance"><path codeLine="94" d="M533.79,196.7679 C574.07,223.3279 619.59,254.5779 659.5,285.0679 C675.12,296.9979 686.7631,306.4164 702.1131,319.4964 " fill="none" id="User-to-DataTreatmentAcceptance" style="stroke:#1A5276;stroke-width:1.0;"/><polygon fill="#1A5276" points="706.68,323.3879,702.424,314.5061,702.8743,320.145,697.2354,320.5952,706.68,323.3879" style="stroke:#1A5276;stroke-width:1.0;"/><text fill="#000000" font-family="Helvetica" font-size="13" lengthAdjust="spacing" textLength="7.436" x="541.04" y="197.625">1</text><text fill="#000000" font-family="Helvetica" font-size="13" lengthAdjust="spacing" textLength="21.567" x="676.1506" y="311.6956">0..*</text></g><!--link Clinic to DataTreatmentAcceptance--><g id="link_Clinic_DataTreatmentAcceptance"><path codeLine="95" d="M783.5,196.8479 C783.5,235.7979 783.5,278.2679 783.5,317.2379 " fill="none" id="Clinic-to-DataTreatmentAcceptance" style="stroke:#1A5276;stroke-width:1.0;"/><polygon fill="#1A5276" points="783.5,323.2379,787.5,314.2379,783.5,318.2379,779.5,314.2379,783.5,323.2379" style="stroke:#1A5276;stroke-width:1.0;"/><text fill="#000000" font-family="Helvetica" font-size="13" lengthAdjust="spacing" textLength="7.436" x="776.176" y="218.8845">1</text><text fill="#000000" font-family="Helvetica" font-size="13" lengthAdjust="spacing" textLength="21.567" x="761.3728" y="311.5292">0..*</text></g><!--link User to ClinicAuditLog--><g id="link_User_ClinicAuditLog"><path codeLine="97" d="M464.64,206.3579 C485.31,246.9379 507.3856,290.2721 526.4456,327.6721 " fill="none" id="User-to-ClinicAuditLog" style="stroke:#1A5276;stroke-width:1.0;"/><polygon fill="#1A5276" points="529.17,333.0179,528.6473,323.1829,526.8997,328.5631,521.5196,326.8154,529.17,333.0179" style="stroke:#1A5276;stroke-width:1.0;"/><text fill="#000000" font-family="Helvetica" font-size="13" lengthAdjust="spacing" textLength="7.436" x="461.0529" y="228.4048">1</text><text fill="#000000" font-family="Helvetica" font-size="13" lengthAdjust="spacing" textLength="21.567" x="502.9486" y="321.0914">0..*</text></g><!--link Clinic to ClinicAuditLog--><g id="link_Clinic_ClinicAuditLog"><path codeLine="98" d="M724.94,196.8479 C689.29,239.0179 648.0834,287.7657 613.9834,328.1057 " fill="none" id="Clinic-to-ClinicAuditLog" style="stroke:#1A5276;stroke-width:1.0;"/><polygon fill="#1A5276" points="610.11,332.6879,618.9749,328.3969,613.3378,328.8694,612.8653,323.2323,610.11,332.6879" style="stroke:#1A5276;stroke-width:1.0;"/><text fill="#000000" font-family="Helvetica" font-size="13" lengthAdjust="spacing" textLength="7.436" x="711.577" y="218.8845">1</text><text fill="#000000" font-family="Helvetica" font-size="13" lengthAdjust="spacing" textLength="21.567" x="594.0079" y="321.1516">0..*</text></g><!--SRC=[hLPBRXf14DtFAKfaOyUnPI8vYP1Z2VnHY6oCC7QMewAx1bgUwPvqz-3WA58EaMjabIFu9Zb9gWTiC31aOnPyfbvNlNhrQRpoAK7NED-tA6xXxyzVS9oY8mU94PYgUvJe6d3j2hJAk3SWqeVVMWbqC87S6az2g8S_6YI1H6zS5BbRfNEqcC60NGwjARGyDgcnyEgiV2qWt0YbkLDw20ccZXOiWbcubh6IxEnmlNdmzlsx5SXoZDFMsS5PQndMjDRSLJcIb62H-ZEZVGSpWjedIiVaESlQYX_lhHeKdjh2w2jrJx0VZHGdBvGLAKKHwI9ZkSZs32lxFG9edboqE_nvSze_xRKxpLwx6NvUVkcSzg8VKLJwBO-Ky9r4MHfm2U92IMZ05GTaVGuF2ws-5dHqL6AAD8rruFe824yfGvLM7R61JsDExUEC0Pjo9d37KiTYX7f88MhBC0Pri7gocOjH2CezoHWzcq_GKrzbDEVVjMgCOj8rgHAJ6x9E6JtDPppxKS6BTVIaWzC-VVDb6ab2mginnTnHD8iM32hG28O5Way4ZbF5VJaDkQACLhugFaffYSzN2rbAD39wmULIr0lA1fpbIENJ-4jQLrUCEqTxbN2dUPOevjvXFyyHQtBcnnpsTgKO_BpG5PRTNNxhaaquCKaf5DE9Xkvbxscc6R65ogMOAQPbu9mcK3_uKD_UOyjKiws2SmfR8AIzFTU18-6qzkkB_fAL3h6QXHyPo-l9L_RPIuViMqAViRTcEGgenNI-Tof68_ZCutbxjRjb8vKYnUl8uc9Ewn1b3JVNOTgFpK8gVsw6Z_pySYX9dZiyiFfyTTcfeEev2-SnovS6lbnLjVszlTSrfdHKVgtNrc-01YojZrbQSoVrkHFsLpvkG8OQUH75WybZkEUmvR6BPjF_FrW5Rjwz6m3FMcuzhOessU1q7Nf3ne-5tPZl4oZIV3_3m7XlCZ39gXm0rneovJBpj0_oWlWsoydot91W7WXZDg1ZyFpkvxdYHWomi4-KbfIJbc5h4906mVyQs8vxV1rA22oYVm00]--></g></svg>